<svg xmlns="http://www.w3.org/2000/svg" viewBox="0 0 187.02 188.23"><defs><style>.cls-1{fill:#e84c20;}</style></defs><title>collaborate</title><g id="Capa_2" data-name="Capa 2"><g id="Livello_1" data-name="Livello 1"><path class="cls-1" d="M93.75,80.29A40.14,40.14,0,1,0,53.61,40.14,40.25,40.25,0,0,0,93.75,80.29Zm0-66.91A26.76,26.76,0,1,1,67,40.14,26.66,26.66,0,0,1,93.75,13.38Z"/><path class="cls-1" d="M133.5,107.05h-80a6.69,6.69,0,1,0,0,13.38h80c22.87,0,40.14,15.4,40.14,33.45v27.56h0v.09a6.69,6.69,0,0,0,13.38,0V153.88C187,127.46,162.52,107.05,133.5,107.05Z"/><path class="cls-1" d="M60.4,147.2H40.23V127.13h0V127a6.69,6.69,0,0,0-6.6-6.69h-.09A6.69,6.69,0,0,0,26.85,127V147.2H6.69a6.69,6.69,0,0,0,0,13.38H26.86v20.07h0v.09a6.69,6.69,0,1,0,13.38,0V160.58H60.4a6.69,6.69,0,1,0,0-13.38Z"/></g></g></svg>