<svg xmlns="http://www.w3.org/2000/svg" viewBox="0 0 273.86 166.7"><defs><style>.cls-1{fill:#e84c20;}</style></defs><title>progress</title><g id="Capa_2" data-name="Capa 2"><g id="Livello_1" data-name="Livello 1"><path class="cls-1" d="M231.63,0a6,6,0,1,0,.52,11.91h23.11L206.6,76.75a6,6,0,1,0,9.49,7.16L262,22.8V41.68a6,6,0,0,0,11.91.17q0-.08,0-.17V6a6,6,0,0,0-6-6H231.63ZM107.16,41.68A23.8,23.8,0,0,0,86.23,76.84l-49.58,46a23.65,23.65,0,0,0-12.84-3.81,23.81,23.81,0,1,0,23.81,23.81,23.27,23.27,0,0,0-3-11.35l49.67-46A23.77,23.77,0,0,0,123,83.35L159.25,108a23.2,23.2,0,0,0-1.49,8.09A24,24,0,1,0,166,98.23L129.58,73.4a23.71,23.71,0,0,0-22.42-31.72Zm0,11.91A11.91,11.91,0,1,1,95.26,65.49,11.82,11.82,0,0,1,107.16,53.59Zm74.42,50.6a11.91,11.91,0,1,1-11.91,11.91A11.82,11.82,0,0,1,181.58,104.19ZM23.81,131a11.91,11.91,0,1,1-11.91,11.91A11.82,11.82,0,0,1,23.81,131Z"/></g></g></svg>