<svg xmlns="http://www.w3.org/2000/svg" viewBox="0 0 231.01 227.93"><defs><style>.cls-1{fill:#e84c20;}</style></defs><title>share</title><g id="Capa_2" data-name="Capa 2"><g id="Livello_1" data-name="Livello 1"><path class="cls-1" d="M25.13,113.07h1a5.4,5.4,0,0,0,5.13-4.1,34.15,34.15,0,0,1,1.28-4.87c7.44-26.66,27.18-47.69,52-57.94A33.76,33.76,0,0,0,99.74,64.1a34.85,34.85,0,0,0,16.92,4.61,34.08,34.08,0,0,0,34.1-34.1A34,34,0,0,0,116.91,0,34.36,34.36,0,0,0,82.56,34.36v1.54C52.3,47.69,28.46,73.84,21,106.92A5.39,5.39,0,0,0,25.13,113.07Zm91.79-97.69a18.85,18.85,0,1,1-19,19A18.88,18.88,0,0,1,116.91,15.38Z"/><path class="cls-1" d="M214.86,152.81a96.1,96.1,0,0,0,3.08-24.36,99.23,99.23,0,0,0-32.56-73.58,5.08,5.08,0,0,0-6.92,7.44,39.44,39.44,0,0,1,3.33,3.08,91.42,91.42,0,0,1,25.9,63.33,85.41,85.41,0,0,1-2.31,20,32.56,32.56,0,0,0-8.72-1.28,34.29,34.29,0,0,0-23.08,59.48,33.92,33.92,0,0,0,23.08,9A34.36,34.36,0,0,0,231,181.53,35.5,35.5,0,0,0,214.86,152.81ZM196.4,200.5a18.47,18.47,0,0,1-12.82-5.13,18.86,18.86,0,1,1,12.82,5.13Z"/><path class="cls-1" d="M147.68,213.06a21.66,21.66,0,0,1-4.36,1.28,91.55,91.55,0,0,1-25.13,3.59,88.52,88.52,0,0,1-58.71-22,33.71,33.71,0,0,0,9-23.08V170.5a34.41,34.41,0,0,0-34.1-32C15.38,138.71,0,154.09,0,172.81a34.14,34.14,0,0,0,34.36,34.1,35.06,35.06,0,0,0,17.18-4.62A100.45,100.45,0,0,0,151,222.55a5,5,0,0,0,3.08-6.41A5,5,0,0,0,147.68,213.06ZM34.36,191.78a18.88,18.88,0,0,1-19-18.72,19,19,0,1,1,37.95,0A18.88,18.88,0,0,1,34.36,191.78Z"/></g></g></svg>