<svg xmlns="http://www.w3.org/2000/svg" viewBox="0 0 215.27 146.14"><defs><style>.cls-1{fill:#e84c20;}</style></defs><title>upload</title><g id="Capa_2" data-name="Capa 2"><g id="Livello_1" data-name="Livello 1"><path class="cls-1" d="M196.82,63.1a46.13,46.13,0,0,0-20-8.61v-.62a53.82,53.82,0,0,0-98-30.75H76.88A38.44,38.44,0,0,0,39.14,54.42,45.36,45.36,0,0,0,18.45,63.1a46.13,46.13,0,0,0,27.68,83h123a46.13,46.13,0,0,0,27.68-83Zm-3.28,55.25a30.75,30.75,0,0,1-24.4,12.4h-123a30.75,30.75,0,0,1,0-61.51,7.69,7.69,0,0,0,7.69-7.69A23.09,23.09,0,0,1,81.5,39a11.37,11.37,0,0,0,1.61,0,8.46,8.46,0,0,0,1.46-.46A9.38,9.38,0,0,0,85.88,38a7,7,0,0,0,1.31-.69,5.23,5.23,0,0,0,.92-.92A5.76,5.76,0,0,0,89.19,35a38.44,38.44,0,0,1,72.27,18.84,35.12,35.12,0,0,1-.54,6.38v.38a10.24,10.24,0,0,0,0,1.54v1.68h0V64a9.16,9.16,0,0,0,.62,1.23,1.13,1.13,0,0,0,.54.92,8.76,8.76,0,0,0,1.46,1.46l.54.46a8.53,8.53,0,0,0,2.61,1.08h2.46a30.85,30.85,0,0,1,24.4,49.18Z"/><path class="cls-1" d="M130.7,76.94H115.33V61.57a7.69,7.69,0,0,0-15.38,0V76.94H84.57a7.69,7.69,0,0,0,0,15.38H99.95V107.7a7.69,7.69,0,0,0,15.38,0V92.32H130.7a7.69,7.69,0,1,0,0-15.38Z"/></g></g></svg>