<?xml version="1.0" encoding="utf-8"?>
<!-- Generator: Adobe Illustrator 16.0.0, SVG Export Plug-In . SVG Version: 6.00 Build 0)  -->
<!DOCTYPE svg PUBLIC "-//W3C//DTD SVG 1.1//EN" "http://www.w3.org/Graphics/SVG/1.1/DTD/svg11.dtd">
<svg version="1.1" id="Capa_1" xmlns="http://www.w3.org/2000/svg" xmlns:xlink="http://www.w3.org/1999/xlink" x="0px" y="0px"
	 width="55.286px" height="55.286px" viewBox="0 0 55.286 55.286" enable-background="new 0 0 55.286 55.286" xml:space="preserve">
<g>
	<path fill="#FFFFFF" d="M55.286,27.642c0,15.267-12.376,27.644-27.644,27.644C12.376,55.286,0,42.909,0,27.642
		C0,12.374,12.376,0,27.643,0C42.91,0,55.286,12.374,55.286,27.642"/>
	<path fill="#9D9D9C" d="M28.021,6.852c-2.847,0-5.19,2.345-5.19,5.191c0,0.292,0.037,0.571,0.085,0.852l-9.48,7.897
		c-0.32-0.063-0.649-0.099-0.987-0.099c-2.846,0-5.19,2.344-5.19,5.191c0,2.456,1.747,4.526,4.053,5.054l4.332,8.664
		c-0.901,0.934-1.463,2.198-1.463,3.584c0,2.847,2.345,5.192,5.19,5.192c2.237,0,4.144-1.458,4.866-3.461h7.57
		c0.722,2.003,2.629,3.461,4.866,3.461c2.845,0,5.189-2.345,5.189-5.192c0-1.386-0.562-2.65-1.463-3.584l4.333-8.664
		c2.306-0.528,4.051-2.598,4.051-5.054c0-2.845-2.344-5.191-5.189-5.191c-0.338,0-0.667,0.036-0.987,0.1l-9.479-7.901
		c0.046-0.279,0.085-0.557,0.085-0.848c0-2.847-2.347-5.19-5.191-5.19V6.852z M28.021,10.311c0.977,0,1.729,0.756,1.729,1.732
		s-0.753,1.73-1.729,1.73c-0.976,0-1.73-0.754-1.73-1.73S27.045,10.311,28.021,10.311 M24.654,15.95
		c0.911,0.786,2.08,1.283,3.366,1.283s2.454-0.497,3.366-1.283l8.13,6.773c-0.686,0.879-1.115,1.969-1.115,3.161
		c0,1.95,1.113,3.641,2.721,4.53L37.3,38.061c-0.208-0.027-0.413-0.064-0.628-0.064c-2.239,0-4.149,1.456-4.87,3.459h-7.563
		c-0.721-2.003-2.63-3.459-4.869-3.459c-0.215,0-0.421,0.037-0.63,0.064l-3.82-7.647c1.606-0.889,2.72-2.58,2.72-4.53
		c0-1.19-0.426-2.283-1.112-3.161L24.654,15.95z M12.447,24.155c0.977,0,1.731,0.753,1.731,1.729c0,0.977-0.755,1.73-1.731,1.73
		c-0.975,0-1.729-0.753-1.729-1.73C10.718,24.908,11.473,24.155,12.447,24.155 M43.593,24.155c0.976,0,1.729,0.753,1.729,1.729
		c0,0.977-0.753,1.73-1.729,1.73c-0.978,0-1.731-0.753-1.731-1.73C41.861,24.908,42.615,24.155,43.593,24.155 M19.369,41.456
		c0.976,0,1.73,0.755,1.73,1.73c0,0.978-0.755,1.731-1.73,1.731c-0.977,0-1.73-0.753-1.73-1.731
		C17.639,42.21,18.393,41.456,19.369,41.456 M36.672,41.456c0.976,0,1.729,0.755,1.729,1.73c0,0.978-0.754,1.731-1.729,1.731
		c-0.978,0-1.731-0.753-1.731-1.731C34.94,42.21,35.694,41.456,36.672,41.456"/>
	<path fill="#FFFFFF" d="M28.243,36.349c0,0-1.122,1.332-3.531,1.366c-2.339,0.036-4-1.366-4-1.366V22.118c0,0,1.096-1.441,4-1.759
		c2.611-0.286,3.531,1.759,3.531,1.759V36.349z"/>
	<path fill="#FFFFFF" d="M35.655,35.994c0,0-2.628,1.595-3.617,1.604c-1.029,0.009-3.795-1.604-3.795-1.604V24.905
		c0,0,2.71-1.183,3.675-1.186c0.981-0.003,3.737,1.186,3.737,1.186V35.994z"/>
	<path fill="#9D9D9C" d="M36.174,25.794c0-1.434-1.844-2.556-4.197-2.556c-1.276,0-2.4,0.331-3.164,0.861v-1.534
		c0-1.434-1.844-2.557-4.198-2.557s-4.198,1.123-4.198,2.557v3.225l0.001,0.009h-0.001v3.225c0,0.002,0.001,0.005,0.001,0.005
		l-0.001,0.002v3.227c0,0,0.001,0.004,0.001,0.009h-0.001v3.223l0.001,0.009h-0.001c0,1.433,1.844,2.557,4.198,2.557
		c1.607,0,2.976-0.525,3.683-1.314c0.709,0.786,2.075,1.31,3.68,1.31c2.354,0,4.197-1.124,4.197-2.558h-0.001l0.001-0.009V32.26
		h-0.001l0.001-0.008v-3.225h-0.001l0.001-0.007V25.794z M31.977,24.271c1.863,0,3.163,0.803,3.163,1.523
		c0,0.721-1.3,1.524-3.163,1.524c-1.864,0-3.164-0.803-3.164-1.524C28.812,25.074,30.112,24.271,31.977,24.271 M24.614,21.043
		c1.864,0,3.164,0.803,3.164,1.522c0,0.721-1.3,1.523-3.164,1.523s-3.163-0.802-3.163-1.523
		C21.451,21.846,22.75,21.043,24.614,21.043 M21.451,24.261c0.763,0.531,1.887,0.862,3.163,0.862c1.277,0,2.4-0.331,3.164-0.862
		v1.529c0,0.722-1.3,1.523-3.164,1.523s-3.163-0.801-3.163-1.523V24.261z M21.451,27.494c0.763,0.531,1.887,0.862,3.163,0.862
		c1.277,0,2.4-0.331,3.164-0.862v1.531c0,0.72-1.3,1.523-3.164,1.523s-3.163-0.803-3.163-1.523V27.494z M21.451,30.728
		c0.763,0.53,1.887,0.864,3.163,0.864c1.277,0,2.4-0.334,3.164-0.864v1.531c0,0.721-1.3,1.521-3.164,1.521s-3.163-0.8-3.163-1.521
		V30.728z M21.451,33.96c0.763,0.53,1.887,0.861,3.163,0.861c1.277,0,2.4-0.331,3.164-0.861v1.53c0,0.72-1.3,1.523-3.164,1.523
		s-3.163-0.803-3.163-1.523V33.96z M31.977,37.008c-1.864,0-3.164-0.803-3.164-1.523v-1.531c0.764,0.532,1.888,0.864,3.164,0.864
		c1.275,0,2.398-0.332,3.163-0.864v1.531C35.14,36.206,33.84,37.008,31.977,37.008 M31.977,33.775c-1.864,0-3.164-0.803-3.164-1.523
		v-1.53c0.764,0.531,1.888,0.864,3.164,0.864c1.275,0,2.398-0.333,3.163-0.864v1.53C35.14,32.973,33.84,33.775,31.977,33.775
		 M31.977,30.542c-1.864,0-3.164-0.803-3.164-1.522v-1.532c0.764,0.533,1.888,0.864,3.164,0.864c1.275,0,2.398-0.331,3.163-0.864
		v1.532C35.14,29.739,33.84,30.542,31.977,30.542"/>
	<path fill="#FFFFFF" d="M31.499,12.023c0,1.944-1.576,3.52-3.521,3.52c-1.945,0-3.521-1.576-3.521-3.52s1.576-3.521,3.521-3.521
		C29.923,8.502,31.499,10.079,31.499,12.023"/>
	<path fill="#FFFFFF" d="M47.142,25.904c0,1.907-1.547,3.453-3.454,3.453s-3.453-1.546-3.453-3.453c0-1.907,1.546-3.454,3.453-3.454
		S47.142,23.997,47.142,25.904"/>
	<path fill="#FFFFFF" d="M40.369,43.171c0,2.094-1.697,3.791-3.791,3.791c-2.096,0-3.792-1.697-3.792-3.791
		c0-2.096,1.696-3.792,3.792-3.792C38.672,39.379,40.369,41.075,40.369,43.171"/>
	<path fill="#FFFFFF" d="M22.275,43.321c0,1.646-1.334,2.979-2.979,2.979c-1.646,0-2.979-1.333-2.979-2.979s1.333-2.979,2.979-2.979
		C20.941,40.342,22.275,41.675,22.275,43.321"/>
	<path fill="#FFFFFF" d="M16.129,25.904c0,1.981-1.607,3.589-3.589,3.589c-1.982,0-3.589-1.608-3.589-3.589
		c0-1.983,1.606-3.589,3.589-3.589C14.521,22.315,16.129,23.921,16.129,25.904"/>
</g>
</svg>
