<?xml version="1.0" encoding="utf-8"?>
<!-- Generator: Adobe Illustrator 16.0.0, SVG Export Plug-In . SVG Version: 6.00 Build 0)  -->
<!DOCTYPE svg PUBLIC "-//W3C//DTD SVG 1.1//EN" "http://www.w3.org/Graphics/SVG/1.1/DTD/svg11.dtd">
<svg version="1.1" id="Capa_1" xmlns="http://www.w3.org/2000/svg" xmlns:xlink="http://www.w3.org/1999/xlink" x="0px" y="0px"
	 width="56.812px" height="56.812px" viewBox="0 0 56.812 56.812" enable-background="new 0 0 56.812 56.812" xml:space="preserve">
<g>
	<path fill="#FFFFFF" d="M56.812,28.405c0,15.688-12.717,28.406-28.405,28.406C12.719,56.812,0,44.094,0,28.405
		C0,12.718,12.719,0,28.406,0C44.095,0,56.812,12.718,56.812,28.405"/>
	<path fill="#878787" d="M20.382,33.326c1.393-0.016,2.944,0.034,4.338,0.018c0.649-0.009,1.3-0.016,1.95-0.024
		c0.422-0.005,1.155,0.138,1.554-0.033c0.558-0.242,0.093-1.605-0.029-2.006c-0.278-0.902-0.788-1.744-1.523-2.347
		c-0.52-0.423-1.122-0.711-1.748-0.845c0.782-0.307,1.486-0.884,1.561-1.764c0.099-1.166-0.827-2.395-1.998-2.539
		c-1.17-0.145-2.065,0.824-2.102,1.951c-0.031,1.013,0.64,1.811,1.477,2.276c-0.694,0.044-1.38,0.28-1.976,0.732
		c-1.201,0.918-2.489,3.03-1.721,4.541"/>
	<path fill="#878787" d="M18.281,18.423c1.394-0.018,2.945,0.031,4.339,0.016c0.648-0.008,1.3-0.016,1.95-0.022
		c0.422-0.006,1.153,0.138,1.552-0.034c0.559-0.243,0.095-1.605-0.029-2.006c-0.277-0.902-0.787-1.745-1.522-2.348
		c-0.52-0.423-1.122-0.709-1.748-0.843c0.783-0.307,1.486-0.886,1.562-1.765c0.098-1.166-0.827-2.394-1.998-2.54
		c-1.17-0.145-2.066,0.824-2.103,1.953c-0.032,1.01,0.64,1.81,1.478,2.274c-0.694,0.044-1.38,0.28-1.976,0.733
		c-1.202,0.916-2.49,3.029-1.723,4.54"/>
	<path fill="#878787" d="M25.008,50.03c1.392-0.018,2.943,0.032,4.337,0.017c0.651-0.008,1.301-0.017,1.951-0.023
		c0.422-0.005,1.154,0.139,1.553-0.034c0.559-0.241,0.095-1.605-0.029-2.005c-0.277-0.902-0.788-1.745-1.523-2.348
		c-0.519-0.424-1.121-0.71-1.748-0.844c0.784-0.307,1.487-0.884,1.562-1.764c0.099-1.166-0.827-2.395-1.998-2.54
		c-1.17-0.146-2.065,0.824-2.102,1.953c-0.032,1.01,0.64,1.808,1.478,2.273c-0.696,0.044-1.381,0.282-1.978,0.735
		c-1.2,0.914-2.488,3.027-1.721,4.538"/>
	<path fill="#878787" d="M12.286,45.774c1.394-0.017,2.946,0.031,4.338,0.018c0.651-0.01,1.302-0.018,1.952-0.024
		c0.421-0.005,1.154,0.139,1.551-0.034c0.561-0.242,0.095-1.605-0.027-2.004c-0.278-0.903-0.788-1.747-1.523-2.349
		c-0.52-0.423-1.122-0.71-1.749-0.844c0.784-0.307,1.488-0.884,1.562-1.765c0.098-1.166-0.827-2.394-1.998-2.539
		c-1.17-0.146-2.066,0.824-2.103,1.952c-0.031,1.012,0.641,1.81,1.478,2.274c-0.696,0.044-1.381,0.28-1.978,0.734
		c-1.199,0.916-2.488,3.029-1.72,4.539"/>
	<path fill="#878787" d="M45.606,25.192c0.768-1.512-0.521-3.625-1.723-4.54c-0.595-0.454-1.279-0.688-1.977-0.734
		c0.839-0.467,1.511-1.263,1.478-2.274c-0.034-1.128-0.931-2.097-2.102-1.952c-1.17,0.146-2.095,1.373-1.997,2.538
		c0.074,0.881,0.778,1.459,1.56,1.765c-0.625,0.134-1.228,0.421-1.745,0.845c-0.737,0.603-1.246,1.444-1.525,2.348
		c-0.122,0.398-0.587,1.764-0.028,2.005c0.397,0.172,1.129,0.027,1.554,0.033c0.649,0.008,1.3,0.016,1.949,0.024
		c1.394,0.016,2.946-0.033,4.339-0.017"/>
	<path fill="#878787" d="M38.498,43.991c1.394-0.016,2.944,0.032,4.338,0.018c0.649-0.009,1.301-0.018,1.951-0.024
		c0.422-0.006,1.154,0.139,1.553-0.033c0.559-0.241,0.094-1.607-0.029-2.006c-0.277-0.901-0.788-1.744-1.523-2.347
		c-0.519-0.425-1.121-0.711-1.748-0.844c0.784-0.307,1.487-0.885,1.562-1.767c0.099-1.165-0.827-2.393-1.998-2.538
		c-1.17-0.146-2.065,0.824-2.102,1.952c-0.032,1.012,0.64,1.81,1.478,2.275c-0.695,0.043-1.382,0.28-1.977,0.733
		c-1.201,0.915-2.489,3.029-1.723,4.54"/>
	<path fill="#878787" d="M6.488,40.463c0.41,0.178,1.168,0.029,1.604,0.035c0.672,0.007,1.344,0.015,2.017,0.023
		c1.44,0.016,2.88,0.033,4.319,0.051c0.168,0.002,0.164-0.259-0.004-0.261l-5.76-0.067c-0.48-0.006-0.96-0.012-1.44-0.019
		c-0.29-0.002-0.502,0.093-0.639-0.185c-0.125-0.25-0.03-0.625,0.013-0.872c0.15-0.865,0.495-1.691,1.046-2.376
		c0.665-0.827,1.643-1.384,2.668-1.513c0.024,0.009,0.052,0.014,0.082,0.002c0.014-0.006,0.026-0.011,0.038-0.015
		c0.012,0,0.021-0.003,0.031-0.004c0.073,0.017,0.146,0.032,0.217,0.043c0.061,0.011,0.106-0.016,0.133-0.054
		c0.532,0.007,1.065,0.132,1.564,0.397c1.382,0.738,3.025,3.09,2.216,4.682c-0.077,0.15,0.15,0.281,0.225,0.132
		c0.795-1.562-0.538-3.745-1.779-4.693c-0.616-0.469-1.324-0.713-2.043-0.76c0.866-0.48,1.561-1.304,1.527-2.35
		c-0.037-1.167-0.964-2.168-2.174-2.019c-1.211,0.151-2.166,1.42-2.063,2.624c0.076,0.911,0.804,1.508,1.614,1.825
		c-0.647,0.137-1.271,0.434-1.808,0.872c-0.761,0.623-1.287,1.493-1.575,2.426C6.391,38.803,5.911,40.214,6.488,40.463
		 M10.433,34.989c-0.763-0.19-1.556-0.616-1.815-1.396c-0.356-1.068,0.5-2.397,1.555-2.654c1.211-0.295,2.156,0.755,2.089,1.917
		C12.199,33.89,11.34,34.639,10.433,34.989"/>
	<path fill="#878787" d="M14.827,33.159c0.411,0.178,1.168,0.029,1.605,0.033c0.672,0.01,1.344,0.018,2.016,0.024
		c1.438,0.017,2.88,0.034,4.319,0.051c0.168,0.002,0.164-0.258-0.003-0.26c-1.922-0.023-3.841-0.046-5.762-0.068
		c-0.479-0.005-0.959-0.012-1.439-0.017c-0.29-0.004-0.503,0.091-0.641-0.187c-0.123-0.25-0.027-0.624,0.016-0.871
		c0.149-0.865,0.495-1.692,1.045-2.375c0.666-0.829,1.644-1.385,2.669-1.515c0.022,0.009,0.05,0.015,0.081,0
		c0.014-0.002,0.026-0.009,0.039-0.013c0.01-0.002,0.021-0.002,0.029-0.003c0.074,0.016,0.146,0.032,0.219,0.044
		c0.059,0.01,0.105-0.018,0.132-0.056c0.532,0.007,1.065,0.132,1.563,0.397c1.384,0.739,3.026,3.091,2.218,4.684
		c-0.076,0.148,0.148,0.279,0.225,0.13c0.793-1.562-0.538-3.746-1.781-4.692c-0.615-0.469-1.322-0.713-2.043-0.76
		c0.867-0.481,1.562-1.305,1.528-2.352c-0.037-1.165-0.964-2.166-2.173-2.017c-1.21,0.148-2.165,1.42-2.064,2.625
		c0.076,0.91,0.805,1.506,1.613,1.823c-0.647,0.137-1.271,0.435-1.806,0.873c-0.762,0.623-1.287,1.492-1.576,2.427
		C14.73,31.499,14.249,32.909,14.827,33.159 M18.772,27.686c-0.765-0.19-1.557-0.617-1.817-1.396
		c-0.354-1.068,0.5-2.397,1.556-2.655c1.21-0.295,2.156,0.756,2.089,1.918C20.539,26.586,19.678,27.334,18.772,27.686"/>
	<path fill="#878787" d="M41.752,37.767c0.411,0.178,1.168,0.029,1.605,0.033c0.672,0.009,1.344,0.017,2.015,0.025
		c1.44,0.016,2.881,0.033,4.321,0.05c0.168,0.003,0.163-0.258-0.006-0.26c-1.919-0.022-3.84-0.045-5.759-0.067
		c-0.479-0.006-0.96-0.013-1.439-0.019c-0.29-0.003-0.503,0.092-0.641-0.186c-0.124-0.25-0.028-0.624,0.015-0.871
		c0.149-0.865,0.495-1.692,1.046-2.377c0.666-0.827,1.643-1.383,2.668-1.512c0.022,0.008,0.051,0.014,0.082,0.002
		c0.013-0.006,0.025-0.011,0.038-0.016c0.011,0,0.021-0.002,0.03-0.003c0.073,0.017,0.146,0.032,0.218,0.044
		c0.06,0.01,0.105-0.018,0.133-0.055c0.532,0.006,1.064,0.131,1.563,0.397c1.382,0.737,3.025,3.09,2.216,4.682
		c-0.076,0.15,0.15,0.28,0.225,0.131c0.794-1.562-0.538-3.744-1.78-4.692c-0.614-0.469-1.323-0.714-2.043-0.76
		c0.867-0.48,1.562-1.306,1.529-2.35c-0.037-1.167-0.964-2.169-2.174-2.02c-1.21,0.152-2.166,1.421-2.064,2.625
		c0.076,0.911,0.803,1.508,1.614,1.825c-0.648,0.137-1.271,0.434-1.807,0.872c-0.762,0.623-1.287,1.493-1.575,2.426
		C41.654,36.106,41.175,37.517,41.752,37.767 M45.697,32.293c-0.765-0.19-1.557-0.618-1.816-1.396
		c-0.355-1.068,0.5-2.397,1.555-2.654c1.211-0.295,2.156,0.755,2.09,1.917C47.463,31.193,46.603,31.942,45.697,32.293"/>
	<path fill="#878787" d="M11.881,17.55c0.411,0.177,1.169,0.029,1.604,0.034c0.674,0.009,1.346,0.017,2.018,0.025
		c1.439,0.016,2.88,0.033,4.319,0.05c0.168,0.002,0.163-0.259-0.003-0.26c-1.922-0.023-3.841-0.046-5.761-0.067
		c-0.479-0.007-0.96-0.014-1.439-0.019c-0.29-0.003-0.504,0.092-0.641-0.187c-0.124-0.249-0.029-0.624,0.015-0.87
		c0.149-0.866,0.494-1.692,1.045-2.377c0.667-0.828,1.644-1.384,2.669-1.513c0.022,0.008,0.05,0.013,0.082,0.002
		c0.013-0.005,0.024-0.011,0.038-0.016c0.01-0.001,0.021-0.002,0.029-0.003c0.074,0.017,0.146,0.032,0.219,0.044
		c0.06,0.01,0.105-0.017,0.134-0.055c0.531,0.007,1.063,0.131,1.561,0.397c1.385,0.739,3.027,3.091,2.218,4.683
		c-0.076,0.15,0.149,0.279,0.226,0.13c0.794-1.561-0.538-3.745-1.78-4.692c-0.615-0.468-1.324-0.712-2.043-0.759
		c0.866-0.482,1.561-1.305,1.527-2.351c-0.037-1.166-0.963-2.166-2.173-2.018c-1.21,0.149-2.165,1.419-2.064,2.624
		c0.076,0.91,0.804,1.507,1.614,1.824c-0.649,0.137-1.271,0.434-1.809,0.873c-0.76,0.622-1.285,1.493-1.573,2.426
		C11.784,15.891,11.303,17.301,11.881,17.55 M15.826,12.077c-0.764-0.191-1.557-0.617-1.817-1.396
		c-0.354-1.067,0.5-2.396,1.556-2.654c1.211-0.295,2.156,0.755,2.089,1.917C17.593,10.977,16.731,11.726,15.826,12.077"/>
	<path fill="#878787" d="M32.937,21.446c0.41,0.177,1.168,0.028,1.604,0.033c0.672,0.009,1.344,0.017,2.016,0.024
		c1.439,0.016,2.881,0.033,4.32,0.051c0.168,0.002,0.164-0.259-0.004-0.261c-1.921-0.021-3.841-0.046-5.761-0.067
		c-0.479-0.006-0.959-0.012-1.439-0.017c-0.291-0.003-0.503,0.09-0.641-0.187c-0.123-0.251-0.028-0.625,0.015-0.874
		c0.15-0.863,0.495-1.69,1.046-2.374c0.666-0.828,1.643-1.383,2.669-1.514c0.022,0.009,0.05,0.014,0.081,0.003
		c0.014-0.005,0.025-0.011,0.039-0.015c0.01,0,0.021-0.002,0.03-0.004c0.072,0.018,0.145,0.032,0.218,0.045
		c0.059,0.01,0.105-0.017,0.132-0.056c0.532,0.006,1.065,0.131,1.563,0.396c1.384,0.738,3.026,3.091,2.217,4.684
		c-0.076,0.149,0.149,0.279,0.225,0.132c0.794-1.563-0.538-3.747-1.781-4.694c-0.614-0.469-1.323-0.712-2.042-0.76
		c0.866-0.479,1.562-1.305,1.527-2.351c-0.036-1.166-0.963-2.167-2.172-2.018c-1.21,0.15-2.167,1.42-2.065,2.625
		c0.077,0.91,0.804,1.507,1.614,1.823c-0.648,0.138-1.271,0.435-1.807,0.873c-0.762,0.623-1.287,1.492-1.575,2.427
		C32.839,19.785,32.357,21.195,32.937,21.446 M36.882,15.972c-0.765-0.189-1.558-0.616-1.816-1.396
		c-0.355-1.068,0.499-2.397,1.554-2.655c1.211-0.293,2.157,0.756,2.089,1.918C38.648,14.873,37.787,15.621,36.882,15.972"/>
	<path fill="#878787" d="M27.071,42.448c-0.287-0.933-0.814-1.805-1.575-2.427c-0.536-0.439-1.159-0.735-1.807-0.874
		c0.811-0.315,1.537-0.913,1.614-1.823c0.102-1.204-0.854-2.473-2.064-2.623c-1.21-0.149-2.138,0.851-2.173,2.018
		c-0.033,1.046,0.66,1.869,1.527,2.349c-0.72,0.048-1.428,0.292-2.044,0.76c-1.242,0.947-2.574,3.133-1.779,4.694
		c0.075,0.149,0.302,0.02,0.226-0.13c-0.81-1.594,0.833-3.944,2.216-4.684c0.498-0.267,1.032-0.393,1.563-0.398
		c0.027,0.04,0.073,0.065,0.133,0.055c0.071-0.011,0.145-0.025,0.217-0.043c0.01,0,0.02,0.003,0.031,0.004
		c0.013,0.004,0.025,0.01,0.038,0.014c0.03,0.012,0.058,0.01,0.081-0.001c1.026,0.128,2.004,0.684,2.669,1.513
		c0.551,0.686,0.896,1.51,1.047,2.376c0.043,0.247,0.137,0.624,0.013,0.874c-0.137,0.274-0.349,0.181-0.64,0.184
		c-0.479,0.005-0.96,0.011-1.44,0.019l-5.76,0.066c-0.167,0.004-0.171,0.263-0.004,0.262c1.439-0.019,2.88-0.033,4.319-0.052
		c0.673-0.009,1.346-0.016,2.017-0.023c0.437-0.007,1.195,0.142,1.604-0.034C27.679,44.271,27.199,42.859,27.071,42.448
		 M21.329,36.916c-0.068-1.164,0.877-2.213,2.088-1.92c1.056,0.258,1.911,1.588,1.555,2.655c-0.26,0.78-1.052,1.204-1.814,1.396
		C22.25,38.695,21.39,37.946,21.329,36.916"/>
	<path fill="#878787" d="M39.909,33.381c-0.287-0.933-0.813-1.805-1.575-2.427c-0.536-0.438-1.159-0.734-1.806-0.872
		c0.809-0.316,1.537-0.914,1.614-1.824c0.101-1.205-0.855-2.474-2.065-2.624s-2.137,0.852-2.173,2.019
		c-0.033,1.046,0.661,1.869,1.528,2.349c-0.721,0.047-1.429,0.29-2.044,0.76c-1.242,0.947-2.574,3.132-1.779,4.693
		c0.075,0.148,0.3,0.018,0.225-0.13c-0.81-1.594,0.833-3.945,2.215-4.684c0.499-0.266,1.033-0.393,1.564-0.397
		c0.027,0.04,0.073,0.065,0.133,0.055c0.072-0.013,0.146-0.028,0.217-0.043c0.011,0,0.021,0.002,0.031,0.002
		c0.012,0.005,0.025,0.011,0.038,0.016c0.031,0.012,0.058,0.009,0.082-0.003c1.025,0.13,2.003,0.685,2.668,1.515
		c0.551,0.683,0.895,1.51,1.047,2.375c0.043,0.248,0.137,0.625,0.013,0.872c-0.136,0.276-0.349,0.184-0.64,0.186
		c-0.479,0.005-0.959,0.012-1.44,0.019c-1.919,0.021-3.84,0.046-5.76,0.066c-0.168,0.002-0.171,0.263-0.004,0.26
		c1.44-0.016,2.88-0.031,4.32-0.05c0.672-0.008,1.345-0.017,2.016-0.023c0.438-0.006,1.194,0.143,1.605-0.036
		C40.518,35.202,40.036,33.792,39.909,33.381 M34.167,27.847c-0.066-1.161,0.877-2.21,2.088-1.917
		c1.057,0.257,1.911,1.588,1.556,2.654c-0.261,0.78-1.054,1.205-1.816,1.396C35.087,29.629,34.228,28.88,34.167,27.847"/>
	<path fill="#878787" d="M32.678,11.988c-0.288-0.934-0.814-1.805-1.575-2.428c-0.536-0.438-1.16-0.735-1.806-0.874
		c0.809-0.315,1.537-0.912,1.614-1.822c0.101-1.204-0.855-2.475-2.065-2.624c-1.21-0.15-2.137,0.852-2.174,2.018
		c-0.032,1.046,0.662,1.869,1.528,2.35c-0.72,0.047-1.428,0.292-2.043,0.761c-1.242,0.945-2.574,3.132-1.78,4.692
		c0.075,0.149,0.301,0.02,0.226-0.13c-0.809-1.592,0.833-3.944,2.215-4.683c0.499-0.268,1.033-0.394,1.564-0.397
		c0.027,0.038,0.073,0.065,0.133,0.054c0.072-0.011,0.146-0.026,0.217-0.043c0.011,0.002,0.021,0.002,0.031,0.003
		c0.012,0.004,0.026,0.011,0.038,0.014c0.031,0.012,0.058,0.01,0.082-0.002c1.025,0.129,2.002,0.687,2.668,1.514
		c0.551,0.686,0.896,1.512,1.046,2.376c0.043,0.249,0.137,0.624,0.014,0.874c-0.137,0.276-0.35,0.181-0.64,0.185
		c-0.479,0.004-0.96,0.012-1.439,0.017c-1.921,0.023-3.841,0.046-5.761,0.069c-0.168,0.002-0.172,0.261-0.004,0.26
		c1.44-0.017,2.88-0.033,4.32-0.052c0.672-0.008,1.345-0.017,2.016-0.023c0.438-0.006,1.194,0.143,1.605-0.034
		C33.286,13.81,32.806,12.399,32.678,11.988 M26.936,6.455c-0.067-1.163,0.877-2.212,2.088-1.92c1.057,0.259,1.911,1.59,1.556,2.655
		c-0.261,0.78-1.053,1.205-1.816,1.396C27.855,8.234,26.996,7.487,26.936,6.455"/>
	<path fill="#878787" d="M39.12,45.627c-0.288-0.932-0.815-1.803-1.576-2.426c-0.535-0.438-1.159-0.735-1.806-0.874
		c0.809-0.315,1.537-0.913,1.614-1.823c0.101-1.204-0.855-2.473-2.064-2.624c-1.21-0.148-2.137,0.854-2.174,2.02
		c-0.033,1.045,0.661,1.867,1.528,2.349c-0.721,0.047-1.429,0.291-2.043,0.76c-1.242,0.945-2.574,3.132-1.78,4.691
		c0.075,0.151,0.301,0.021,0.225-0.128c-0.809-1.594,0.833-3.945,2.216-4.684c0.498-0.267,1.032-0.392,1.563-0.397
		c0.028,0.039,0.074,0.063,0.134,0.054c0.071-0.012,0.145-0.026,0.216-0.044c0.011,0.002,0.021,0.002,0.031,0.005
		c0.012,0.004,0.026,0.01,0.039,0.014c0.03,0.012,0.057,0.009,0.081-0.001c1.026,0.13,2.003,0.685,2.668,1.513
		c0.551,0.685,0.897,1.511,1.047,2.376c0.043,0.248,0.137,0.623,0.013,0.873c-0.136,0.276-0.349,0.182-0.639,0.184
		c-0.479,0.007-0.96,0.013-1.44,0.02c-1.92,0.021-3.841,0.044-5.761,0.066c-0.167,0.002-0.171,0.263-0.003,0.261
		c1.44-0.018,2.879-0.033,4.32-0.051c0.671-0.009,1.344-0.016,2.015-0.023c0.438-0.005,1.194,0.142,1.605-0.036
		C39.728,47.45,39.247,46.039,39.12,45.627 M33.377,40.094c-0.066-1.162,0.877-2.212,2.088-1.917
		c1.057,0.257,1.912,1.586,1.557,2.653c-0.261,0.78-1.054,1.205-1.816,1.396C34.297,41.876,33.438,41.127,33.377,40.094"/>
	<path fill="#878787" d="M24.62,27.42c0.409,0.177,1.168,0.028,1.604,0.033c0.672,0.01,1.344,0.017,2.016,0.023
		c1.439,0.018,2.881,0.034,4.32,0.052c0.167,0.002,0.163-0.259-0.004-0.261c-1.921-0.021-3.84-0.045-5.76-0.066
		c-0.48-0.008-0.96-0.013-1.44-0.019c-0.29-0.003-0.504,0.092-0.64-0.184c-0.124-0.25-0.029-0.625,0.014-0.873
		c0.15-0.866,0.495-1.692,1.045-2.375c0.667-0.829,1.645-1.386,2.669-1.515c0.023,0.009,0.052,0.015,0.082,0.001
		c0.014-0.004,0.025-0.01,0.038-0.014c0.012-0.001,0.021-0.002,0.031-0.002c0.073,0.015,0.145,0.03,0.217,0.043
		c0.061,0.011,0.106-0.016,0.133-0.057c0.532,0.007,1.065,0.133,1.563,0.398c1.383,0.738,3.026,3.091,2.217,4.684
		c-0.077,0.147,0.15,0.279,0.226,0.131c0.794-1.562-0.539-3.746-1.78-4.694c-0.616-0.469-1.323-0.712-2.043-0.76
		c0.866-0.479,1.56-1.305,1.526-2.35c-0.035-1.166-0.963-2.167-2.173-2.018c-1.21,0.151-2.166,1.419-2.063,2.624
		c0.076,0.911,0.804,1.507,1.613,1.824c-0.647,0.137-1.271,0.433-1.807,0.872c-0.761,0.624-1.287,1.492-1.575,2.426
		C24.522,25.758,24.041,27.17,24.62,27.42 M28.564,21.945c-0.764-0.19-1.556-0.617-1.815-1.396c-0.356-1.068,0.5-2.398,1.555-2.654
		c1.211-0.294,2.156,0.756,2.089,1.918C30.332,20.846,29.472,21.595,28.564,21.945"/>
	<path fill="#878787" d="M14.771,25.582c-0.287-0.935-0.813-1.805-1.573-2.429c-0.537-0.438-1.16-0.734-1.808-0.873
		c0.81-0.315,1.538-0.913,1.613-1.823c0.103-1.205-0.853-2.473-2.063-2.623c-1.21-0.151-2.138,0.853-2.174,2.019
		c-0.032,1.044,0.661,1.867,1.528,2.35c-0.72,0.048-1.428,0.29-2.043,0.76c-1.243,0.945-2.575,3.131-1.781,4.692
		c0.077,0.148,0.303,0.019,0.227-0.129c-0.811-1.594,0.833-3.946,2.216-4.686c0.498-0.266,1.032-0.392,1.562-0.397
		c0.029,0.04,0.074,0.066,0.135,0.058c0.071-0.014,0.144-0.029,0.218-0.046c0.009,0.003,0.02,0.003,0.03,0.003
		c0.013,0.005,0.024,0.01,0.037,0.015c0.032,0.013,0.06,0.009,0.082-0.001c1.025,0.129,2.002,0.685,2.668,1.514
		c0.553,0.684,0.896,1.51,1.047,2.374c0.044,0.25,0.138,0.624,0.014,0.874c-0.136,0.276-0.35,0.182-0.639,0.184
		c-0.481,0.007-0.96,0.012-1.441,0.021c-1.92,0.021-3.839,0.044-5.76,0.065c-0.167,0.003-0.171,0.262-0.003,0.261
		c1.438-0.018,2.879-0.033,4.318-0.052c0.673-0.009,1.345-0.015,2.018-0.022c0.436-0.004,1.193,0.144,1.604-0.035
		C15.381,27.403,14.9,25.991,14.771,25.582 M9.03,20.048c-0.068-1.162,0.877-2.213,2.088-1.918c1.056,0.256,1.911,1.586,1.556,2.653
		c-0.261,0.78-1.053,1.206-1.816,1.397C9.951,21.829,9.091,21.082,9.03,20.048"/>
	<path fill="#878787" d="M50.921,23.707c-0.289-0.933-0.815-1.805-1.575-2.428c-0.537-0.438-1.16-0.734-1.808-0.872
		c0.81-0.316,1.537-0.914,1.613-1.823c0.103-1.205-0.853-2.474-2.063-2.623c-1.21-0.149-2.138,0.851-2.174,2.018
		c-0.032,1.046,0.661,1.868,1.528,2.349c-0.72,0.048-1.428,0.291-2.043,0.76c-1.243,0.947-2.574,3.132-1.781,4.692
		c0.076,0.15,0.302,0.02,0.226-0.129c-0.81-1.594,0.834-3.943,2.217-4.684c0.498-0.268,1.031-0.392,1.562-0.397
		c0.027,0.039,0.073,0.065,0.134,0.056c0.071-0.014,0.144-0.027,0.218-0.045c0.009,0.002,0.02,0.002,0.03,0.004
		c0.013,0.004,0.024,0.011,0.038,0.014c0.03,0.013,0.059,0.009,0.082-0.001c1.024,0.129,2.003,0.684,2.668,1.514
		c0.551,0.684,0.896,1.51,1.046,2.375c0.044,0.248,0.137,0.623,0.014,0.873c-0.136,0.276-0.35,0.183-0.639,0.186
		c-0.481,0.004-0.96,0.011-1.441,0.018c-1.92,0.022-3.839,0.046-5.76,0.066c-0.167,0.002-0.171,0.263-0.003,0.262
		c1.438-0.019,2.879-0.035,4.318-0.052c0.674-0.008,1.345-0.017,2.018-0.023c0.436-0.005,1.192,0.143,1.604-0.035
		C51.528,25.529,51.048,24.118,50.921,23.707 M45.178,18.173c-0.068-1.162,0.877-2.211,2.088-1.917
		c1.056,0.257,1.911,1.586,1.556,2.653c-0.261,0.781-1.053,1.205-1.816,1.396C46.099,19.955,45.238,19.207,45.178,18.173"/>
</g>
</svg>
