<?xml version="1.0" encoding="utf-8"?>
<!-- Generator: Adobe Illustrator 16.0.0, SVG Export Plug-In . SVG Version: 6.00 Build 0)  -->
<!DOCTYPE svg PUBLIC "-//W3C//DTD SVG 1.1//EN" "http://www.w3.org/Graphics/SVG/1.1/DTD/svg11.dtd">
<svg version="1.1" id="Capa_1" xmlns="http://www.w3.org/2000/svg" xmlns:xlink="http://www.w3.org/1999/xlink" x="0px" y="0px"
	 width="55.286px" height="55.286px" viewBox="0 0 55.286 55.286" enable-background="new 0 0 55.286 55.286" xml:space="preserve">
<g>
	<path fill="#FFFFFF" d="M55.286,27.645c0,15.266-12.376,27.642-27.644,27.642C12.377,55.286,0,42.91,0,27.645
		C0,12.377,12.377,0,27.643,0C42.91,0,55.286,12.377,55.286,27.645"/>
	<polygon fill="#FFFFFF" points="28.64,16.183 33.123,23.109 13.428,37.371 11.797,34.928 	"/>
	<polygon fill="none" stroke="#1A1413" stroke-width="0.034" stroke-miterlimit="10" points="28.64,16.183 33.123,23.109 
		13.428,37.371 11.797,34.928 	"/>
	<path fill="#9D9D9C" d="M10.888,41.639c0.387,0.646,1.226,0.859,1.874,0.473c0.63-0.377,0.85-1.183,0.498-1.827l-0.344-0.602
		l4.613-0.85l0.91,1.588c1.583,2.75,5.096,3.695,7.846,2.113c2.046-1.179,3.162-3.488,2.815-5.824l9.995-1.839l0.694,1.212
		c0.361,0.663,1.19,0.908,1.854,0.546c0.662-0.359,0.906-1.189,0.546-1.853c-0.009-0.016-0.019-0.032-0.027-0.047L29.286,12.195
		c-0.387-0.649-1.226-0.86-1.874-0.473c-0.63,0.375-0.85,1.183-0.499,1.825l0.578,1.011l-17.436,20.13l-0.224-0.403
		c-0.375-0.657-1.211-0.886-1.868-0.511c-0.656,0.376-0.884,1.212-0.509,1.87L10.888,41.639z M24.923,40.187
		c-1.445,0.833-3.292,0.334-4.122-1.112c-0.003-0.002-0.003-0.004-0.005-0.006l-0.403-0.741l6.026-1.132
		C26.569,38.403,25.979,39.582,24.923,40.187 M13.923,34.381l13.625-15.714c0.169-0.195,0.466-0.216,0.661-0.046
		c0.039,0.033,0.073,0.074,0.1,0.118l1.615,2.81c0.19,0.333,0.109,0.755-0.193,0.991L14.234,34.688
		c-0.108,0.063-0.246,0.027-0.309-0.081C13.885,34.539,13.883,34.452,13.923,34.381 M38.557,20.366l4.476-2.565
		c0.616-0.351,1.402-0.139,1.755,0.479s0.139,1.4-0.477,1.754l-4.479,2.56c-0.617,0.353-1.402,0.139-1.756-0.477
		c-0.352-0.617-0.139-1.403,0.479-1.756L38.557,20.366z M35.562,18.987c-0.492-0.452-0.55-1.206-0.134-1.727l3.303-4.141
		c0.404-0.573,1.197-0.71,1.769-0.306c0.574,0.401,0.711,1.193,0.308,1.769c-0.029,0.042-0.061,0.08-0.096,0.118l-3.302,4.139
		c-0.438,0.547-1.238,0.637-1.786,0.196c-0.021-0.017-0.042-0.034-0.062-0.054V18.987z M40.562,24.356l5.255-0.745
		c0.688-0.133,1.354,0.316,1.488,1.006c0.133,0.688-0.316,1.354-1.005,1.487c-0.043,0.008-0.086,0.015-0.128,0.017l-5.256,0.744
		c-0.698,0.065-1.314-0.449-1.379-1.149C39.48,25.066,39.922,24.479,40.562,24.356"/>
</g>
</svg>
