<?xml version="1.0" encoding="utf-8"?>
<!-- Generator: Adobe Illustrator 16.0.0, SVG Export Plug-In . SVG Version: 6.00 Build 0)  -->
<!DOCTYPE svg PUBLIC "-//W3C//DTD SVG 1.1//EN" "http://www.w3.org/Graphics/SVG/1.1/DTD/svg11.dtd">
<svg version="1.1" id="Capa_1" xmlns="http://www.w3.org/2000/svg" xmlns:xlink="http://www.w3.org/1999/xlink" x="0px" y="0px"
	 width="55.286px" height="55.286px" viewBox="0 0 55.286 55.286" enable-background="new 0 0 55.286 55.286" xml:space="preserve">
<g>
	<path fill="#FFFFFF" d="M55.286,27.644c0,15.266-12.376,27.642-27.642,27.642C12.375,55.286,0,42.91,0,27.644
		C0,12.377,12.375,0,27.645,0C42.91,0,55.286,12.377,55.286,27.644"/>
	<path fill="#9D9D9C" d="M31.906,12.003c-1.95,0-3.546,1.598-3.546,3.546c0,1.232,0.635,2.323,1.595,2.957l-1.738,5.817
		c-0.515-0.167-1.058-0.268-1.628-0.268c-1.231,0-2.365,0.423-3.27,1.132l-5.471-4.609c0.37-0.52,0.587-1.157,0.587-1.839
		c0-1.754-1.437-3.19-3.189-3.19c-1.754,0-3.191,1.436-3.191,3.19s1.438,3.19,3.191,3.19c0.553,0,1.073-0.148,1.527-0.399
		l5.551,4.676c-0.661,0.885-1.053,1.982-1.053,3.167c0,1.209,0.413,2.319,1.097,3.213l-3.6,3.611
		c-0.696-0.497-1.543-0.799-2.46-0.799c-2.34,0-4.254,1.914-4.254,4.255c0,2.342,1.914,4.254,4.254,4.254s4.253-1.912,4.253-4.254
		c0-0.917-0.299-1.763-0.796-2.46l3.6-3.601c0.896,0.688,2.013,1.098,3.224,1.098c1.97,0,3.689-1.091,4.608-2.692l5.018,1.673
		c-0.037,0.216-0.055,0.438-0.055,0.665c0,2.145,1.754,3.899,3.898,3.899c2.146,0,3.898-1.754,3.898-3.899
		c0-2.144-1.753-3.901-3.898-3.901c-1.419,0-2.664,0.777-3.346,1.918l-4.985-1.661c0.109-0.423,0.179-0.863,0.179-1.319
		c0-0.517-0.083-1.011-0.223-1.485l5.273-3.51c0.587,0.668,1.439,1.096,2.393,1.096c1.753,0,3.19-1.436,3.19-3.19
		c0-1.753-1.438-3.19-3.19-3.19c-1.754,0-3.189,1.437-3.189,3.19c0,0.288,0.037,0.565,0.109,0.83l-5.173,3.457
		c-0.408-0.652-0.954-1.217-1.595-1.64l1.771-5.904c0.206,0.037,0.415,0.067,0.633,0.067c1.948,0,3.544-1.595,3.544-3.545
		C35.45,13.601,33.854,12.003,31.906,12.003 M31.906,13.422c1.183,0,2.127,0.944,2.127,2.127s-0.944,2.127-2.127,2.127
		c-1.184,0-2.128-0.944-2.128-2.127S30.723,13.422,31.906,13.422 M15.246,16.966c0.986,0,1.771,0.786,1.771,1.773
		c0,0.989-0.785,1.773-1.771,1.773c-0.988,0-1.772-0.784-1.772-1.773C13.474,17.752,14.258,16.966,15.246,16.966 M39.35,20.512
		c0.987,0,1.771,0.784,1.771,1.772c0,0.987-0.784,1.771-1.771,1.771s-1.772-0.784-1.772-1.771
		C37.577,21.296,38.362,20.512,39.35,20.512 M26.589,25.474c2.162,0,3.899,1.738,3.899,3.899c0,2.163-1.737,3.899-3.899,3.899
		s-3.9-1.736-3.9-3.899C22.688,27.212,24.427,25.474,26.589,25.474 M40.059,31.854c1.378,0,2.481,1.104,2.481,2.482
		s-1.104,2.48-2.481,2.48c-1.379,0-2.481-1.102-2.481-2.48S38.68,31.854,40.059,31.854 M16.309,36.816
		c1.575,0,2.836,1.263,2.836,2.837c0,1.575-1.261,2.835-2.836,2.835c-1.573,0-2.835-1.26-2.835-2.835
		C13.474,38.079,14.735,36.816,16.309,36.816"/>
</g>
</svg>
