<?xml version="1.0" encoding="utf-8"?>
<!-- Generator: Adobe Illustrator 16.0.0, SVG Export Plug-In . SVG Version: 6.00 Build 0)  -->
<!DOCTYPE svg PUBLIC "-//W3C//DTD SVG 1.1//EN" "http://www.w3.org/Graphics/SVG/1.1/DTD/svg11.dtd">
<svg version="1.1" id="Capa_1" xmlns="http://www.w3.org/2000/svg" xmlns:xlink="http://www.w3.org/1999/xlink" x="0px" y="0px"
	 width="46.173px" height="46.174px" viewBox="0 0 46.173 46.174" enable-background="new 0 0 46.173 46.174" xml:space="preserve">
<g>
	<path fill="#FFFFFF" d="M45.923,23.088c0,12.609-10.224,22.836-22.836,22.836c-12.613,0-22.837-10.227-22.837-22.836
		C0.25,10.475,10.474,0.25,23.087,0.25C35.699,0.25,45.923,10.475,45.923,23.088"/>
	<circle fill="none" stroke="#000000" stroke-width="0.5" stroke-miterlimit="10" cx="23.086" cy="23.088" r="22.836"/>
	<path fill="#FFFFFF" d="M39.524,23.088c0,9.078-7.359,16.436-16.438,16.436S6.647,32.166,6.647,23.088
		c0-9.08,7.361-16.439,16.439-16.439S39.524,14.008,39.524,23.088"/>
	<path fill="none" stroke="#000000" stroke-width="0.5" stroke-miterlimit="10" d="M39.524,23.088
		c0,9.078-7.359,16.436-16.438,16.436S6.647,32.166,6.647,23.088c0-9.08,7.361-16.439,16.439-16.439S39.524,14.008,39.524,23.088z"
		/>
	<path fill="#DADADA" d="M34.065,23.088c0,6.061-4.915,10.979-10.979,10.979s-10.979-4.918-10.979-10.979
		c0-6.064,4.916-10.98,10.979-10.98S34.065,17.023,34.065,23.088"/>
	<circle fill="none" stroke="#000000" stroke-width="0.5" stroke-miterlimit="10" cx="23.086" cy="23.088" r="10.979"/>
	<line fill="none" stroke="#000000" stroke-width="0.5" stroke-miterlimit="10" x1="6.265" y1="4.367" x2="39.908" y2="41.859"/>
	<path d="M8.776,6c0-0.57-0.461-1.031-1.031-1.031C7.176,4.969,6.714,5.43,6.714,6c0,0.566,0.462,1.031,1.031,1.031
		C8.315,7.031,8.776,6.566,8.776,6"/>
	<path d="M13.14,10.965c0-0.57-0.463-1.031-1.031-1.031c-0.57,0-1.033,0.461-1.033,1.031c0,0.566,0.463,1.029,1.033,1.029
		C12.677,11.994,13.14,11.531,13.14,10.965"/>
	<path d="M16.884,14.924c0-0.57-0.463-1.031-1.031-1.031c-0.57,0-1.032,0.461-1.032,1.031c0,0.568,0.462,1.031,1.032,1.031
		C16.421,15.955,16.884,15.492,16.884,14.924"/>
	<path fill="#878787" d="M29.13,23.113c0,3.285-2.664,5.949-5.949,5.949c-3.286,0-5.949-2.664-5.949-5.949s2.663-5.949,5.949-5.949
		C26.466,17.164,29.13,19.828,29.13,23.113"/>
	<circle fill="none" stroke="#878787" stroke-width="0.336" stroke-miterlimit="10" cx="23.181" cy="23.113" r="5.949"/>
</g>
</svg>
