<?xml version="1.0" encoding="utf-8"?>
<!-- Generator: Adobe Illustrator 16.0.0, SVG Export Plug-In . SVG Version: 6.00 Build 0)  -->
<!DOCTYPE svg PUBLIC "-//W3C//DTD SVG 1.1//EN" "http://www.w3.org/Graphics/SVG/1.1/DTD/svg11.dtd">
<svg version="1.1" xmlns="http://www.w3.org/2000/svg" xmlns:xlink="http://www.w3.org/1999/xlink" x="0px" y="0px"
	 width="29.014px" height="28.909px" viewBox="0 0 29.014 28.909" enable-background="new 0 0 29.014 28.909" xml:space="preserve">
<g id="Capa_1">
</g>
<g id="Capa_2">
</g>
<g id="Capa_3">
</g>
<g id="Capa_4">
	<g>
		<path d="M23.512,16.019c-1.27,0-2.499,0.439-3.48,1.245l-3.146-2.993c0.702-0.943,1.081-2.089,1.082-3.265
			c0-0.154,0-0.29-0.024-0.456l4.523-1.102c0.815,1.714,2.866,2.442,4.58,1.627c1.713-0.816,2.441-2.866,1.626-4.58
			c-0.816-1.713-2.866-2.44-4.579-1.625c-1.2,0.57-1.964,1.783-1.96,3.111c0,0.044,0,0.084,0,0.128l-4.477,1.093
			c-0.992-2.866-4.123-4.388-6.99-3.395C9.945,6.057,9.283,6.455,8.724,6.975L6.509,5.123c0.915-1.681,0.295-3.784-1.386-4.7
			s-3.785-0.296-4.7,1.385c-0.915,1.682-0.295,3.785,1.385,4.7c1.222,0.666,2.724,0.536,3.813-0.33l2.215,1.854
			c-1.268,1.954-1.156,4.5,0.276,6.337l-2.515,2.39c-1.496-1.165-3.652-0.897-4.818,0.598c-1.165,1.496-0.896,3.652,0.599,4.819
			c1.496,1.164,3.652,0.897,4.818-0.6c0.844-1.082,0.961-2.565,0.297-3.768l2.578-2.453c2.022,1.588,4.877,1.559,6.866-0.072
			l3.146,2.972c-0.949,1.272-1.297,2.896-0.951,4.445l-3.286,1.159c-0.889-1.678-2.97-2.317-4.648-1.429
			c-1.678,0.89-2.317,2.971-1.429,4.648c0.89,1.679,2.971,2.318,4.648,1.429c1.126-0.597,1.829-1.766,1.829-3.039
			c0-0.096,0-0.192,0-0.29l3.335-1.174c1.367,2.717,4.68,3.812,7.397,2.445c2.718-1.369,3.812-4.68,2.445-7.399
			C27.49,17.194,25.59,16.022,23.512,16.019z M25.578,5.917c1.143,0.007,2.063,0.937,2.058,2.078s-0.937,2.062-2.078,2.056
			c-1.142-0.004-2.062-0.935-2.057-2.077c0-0.065,0.004-0.131,0.011-0.198c0.106-1.058,1.001-1.862,2.064-1.858H25.578z
			 M3.469,5.552c-1.145,0.004-2.076-0.921-2.08-2.064C1.385,2.342,2.309,1.41,3.454,1.405C4.599,1.4,5.53,2.325,5.535,3.471
			c0.002,0.734-0.384,1.416-1.016,1.79C4.202,5.451,3.839,5.551,3.469,5.552z M5.537,19.47c0.002,1.145-0.925,2.071-2.068,2.073
			c-1.143,0.001-2.071-0.925-2.072-2.068s0.925-2.069,2.068-2.073c0.89-0.001,1.682,0.568,1.965,1.413
			c0.069,0.209,0.104,0.429,0.104,0.649L5.537,19.47z M12.456,15.138c-0.851,0-1.679-0.264-2.372-0.755
			c-0.378-0.267-0.708-0.595-0.978-0.971c-0.959-1.32-1.042-3.085-0.212-4.49c0.229-0.398,0.523-0.755,0.87-1.056
			c1.73-1.486,4.337-1.287,5.822,0.443c0.616,0.718,0.968,1.625,0.994,2.572c0,0.04,0,0.08,0,0.124
			c0.003,0.827-0.243,1.636-0.707,2.319c-0.261,0.383-0.583,0.719-0.954,0.995C14.209,14.853,13.344,15.139,12.456,15.138z
			 M11.803,27.55c-1.14-0.001-2.063-0.927-2.062-2.065c0.002-1.142,0.928-2.064,2.067-2.062c1.138,0.001,2.061,0.922,2.062,2.062
			c0,0.068,0,0.136,0,0.202C13.766,26.748,12.87,27.556,11.803,27.55z M23.512,25.663c-2.282,0-4.132-1.85-4.132-4.131
			c0-2.283,1.85-4.133,4.132-4.133c2.281,0,4.132,1.85,4.132,4.133C27.642,23.812,25.793,25.661,23.512,25.663z"/>
		<circle cx="3.552" cy="3.419" r="2.614"/>
		<circle cx="25.765" cy="7.841" r="2.713"/>
		<circle cx="3.452" cy="19.401" r="2.813"/>
		<circle cx="11.794" cy="25.532" r="2.814"/>
	</g>
</g>
</svg>
