<?xml version="1.0" encoding="utf-8"?>
<!-- Generator: Adobe Illustrator 16.0.0, SVG Export Plug-In . SVG Version: 6.00 Build 0)  -->
<!DOCTYPE svg PUBLIC "-//W3C//DTD SVG 1.1//EN" "http://www.w3.org/Graphics/SVG/1.1/DTD/svg11.dtd">
<svg version="1.1" xmlns="http://www.w3.org/2000/svg" xmlns:xlink="http://www.w3.org/1999/xlink" x="0px" y="0px"
	 width="46.145px" height="46.145px" viewBox="0 0 46.145 46.145" enable-background="new 0 0 46.145 46.145" xml:space="preserve">
<g id="Capa_1">
</g>
<g id="Capa_2">
</g>
<g id="Capa_3">
	<g>
		<circle fill="#3C3C3B" cx="23.072" cy="23.072" r="23.072"/>
		<path fill="#FFFFFF" d="M16.48,35.572l-1.791,1.791l-6.393-6.228l4.58-4.547c1.892-1.893,4.701-2.534,7.229-1.652l1.005,0.352
			h6.174c1.077,0,1.95,0.872,1.95,1.949c0,0.02,0,0.041-0.002,0.061c-0.061,1.072-0.957,1.905-2.03,1.889h-3.703
			c-0.419,0-0.758,0.339-0.758,0.758c0,0.418,0.339,0.757,0.758,0.757h3.716c1.883,0.01,3.44-1.459,3.543-3.34
			c0-0.015,0-0.03,0-0.048l3.437-3.87c0.726-0.842,1.983-0.965,2.858-0.279c0.861,0.713,0.98,1.989,0.268,2.852
			c-0.012,0.013-0.023,0.026-0.035,0.04l-6.861,7.879c-0.915,1.051-2.242,1.652-3.635,1.649L16.48,35.572z M30.648,18.439
			c0-0.795-0.644-1.439-1.439-1.439h-2.121v-2.121c-0.037-0.795-0.711-1.409-1.504-1.372c-0.742,0.034-1.338,0.629-1.373,1.372V17
			h-2.12c-0.795-0.036-1.469,0.577-1.505,1.371c-0.037,0.795,0.578,1.468,1.373,1.505c0.043,0.002,0.086,0.002,0.132,0h2.12v2.122
			c0.036,0.794,0.711,1.407,1.505,1.372c0.743-0.035,1.339-0.63,1.372-1.372v-2.122h2.121
			C30.003,19.876,30.647,19.233,30.648,18.439z M16.848,10.462v1.564h-1.562c-0.585,0-1.061,0.476-1.061,1.061
			c0,0.586,0.476,1.061,1.061,1.061h1.563v1.564c0,0.586,0.475,1.062,1.062,1.062s1.062-0.476,1.062-1.062v-1.569h1.553
			c0.587,0,1.061-0.475,1.061-1.062c0-0.586-0.474-1.062-1.061-1.062h-1.563v-1.558c0-0.585-0.474-1.06-1.06-1.06
			c-0.587,0-1.062,0.475-1.062,1.06H16.848z M30.227,7.663c-0.501,0-0.909,0.406-0.909,0.909v1.345h-1.345
			c-0.502,0-0.908,0.408-0.908,0.909c0,0.502,0.406,0.909,0.908,0.909h1.345v1.346c0,0.503,0.408,0.909,0.909,0.909
			c0.502,0,0.91-0.406,0.91-0.909v-1.346h1.346c0.502,0,0.908-0.407,0.908-0.909c0-0.501-0.406-0.909-0.908-0.909h-1.346V8.572
			C31.137,8.069,30.729,7.663,30.227,7.663z"/>
	</g>
</g>
<g id="Capa_4">
</g>
</svg>
