<?xml version="1.0" encoding="utf-8"?>
<!-- Generator: Adobe Illustrator 16.0.0, SVG Export Plug-In . SVG Version: 6.00 Build 0)  -->
<!DOCTYPE svg PUBLIC "-//W3C//DTD SVG 1.1//EN" "http://www.w3.org/Graphics/SVG/1.1/DTD/svg11.dtd">
<svg version="1.1" xmlns="http://www.w3.org/2000/svg" xmlns:xlink="http://www.w3.org/1999/xlink" x="0px" y="0px"
	 width="46.144px" height="46.143px" viewBox="0 0 46.144 46.143" enable-background="new 0 0 46.144 46.143" xml:space="preserve">
<g id="Capa_3">
	<g>
		<circle fill="#3C3C3B" cx="23.072" cy="23.071" r="23.072"/>
		<g>
			<g>
				<path fill="#FFFFFF" d="M41.696,17.999c-0.125-0.057-3.086-1.391-8.412-1.391
					c-2.95,0-4.551,0.454-5.964,0.858c-1.164,0.333-2.171,0.618-3.762,0.618c-1.592,0-2.597-0.285-3.762-0.618
					c-1.414-0.404-3.016-0.858-5.965-0.858c-5.327,0-8.288,1.334-8.411,1.391c-0.159,0.072-0.265,0.224-0.275,0.398L4.99,20.681
					c-0.013,0.2,0.109,0.392,0.302,0.47c0.205,0.08,0.439,0.236,0.473,0.304c0.027,0.081,0.076,0.334,0.152,0.694
					c0.242,1.163,0.689,3.331,1.238,4.773c0.633,1.667,1.305,2.385,2.877,3.062c0.938,0.404,2.385,0.655,3.781,0.655
					c1.363,0,2.631-0.236,3.67-0.683c2.701-1.165,3.35-2.933,4.172-5.169c0.12-0.332,0.225-0.632,0.316-0.9
					c0.574-1.645,0.682-1.856,1.587-1.856c0.903,0,1.013,0.212,1.585,1.856c0.095,0.271,0.197,0.568,0.32,0.898
					c0.818,2.238,1.463,4.006,4.168,5.171c1.039,0.446,2.31,0.683,3.67,0.683c1.396,0,2.844-0.251,3.783-0.655
					c1.57-0.677,2.242-1.395,2.877-3.062c0.545-1.435,0.991-3.597,1.232-4.755c0.078-0.369,0.129-0.627,0.152-0.702
					c0.041-0.078,0.275-0.234,0.477-0.314c0.194-0.078,0.316-0.27,0.303-0.47l-0.154-2.283
					C41.96,18.223,41.853,18.071,41.696,17.999L41.696,17.999L41.696,17.999z M18.93,26.094c-0.847,1.758-2.626,2.649-5.286,2.649
					c-2.135,0-3.441-0.48-4.244-1.555c-0.775-1.044-1.713-5.498-1.102-6.875c0.588-1.315,3.301-1.786,5.646-1.786
					c2.464,0,5.39,0.509,5.986,1.623C20.544,21.293,20.171,23.516,18.93,26.094L18.93,26.094L18.93,26.094z M37.716,27.186
					c-0.8,1.077-2.111,1.558-4.244,1.558c-2.658,0-4.438-0.892-5.285-2.649c-1.239-2.578-1.614-4.799-1.002-5.943
					c0.6-1.114,3.525-1.621,5.99-1.621c2.343,0,5.055,0.469,5.644,1.784C39.431,21.69,38.492,26.145,37.716,27.186L37.716,27.186
					L37.716,27.186z"/>
			</g>
		</g>
	</g>
</g>
</svg>
