<?xml version="1.0" encoding="utf-8"?>
<!-- Generator: Adobe Illustrator 16.0.0, SVG Export Plug-In . SVG Version: 6.00 Build 0)  -->
<!DOCTYPE svg PUBLIC "-//W3C//DTD SVG 1.1//EN" "http://www.w3.org/Graphics/SVG/1.1/DTD/svg11.dtd">
<svg version="1.1" id="Capa_1" xmlns="http://www.w3.org/2000/svg" xmlns:xlink="http://www.w3.org/1999/xlink" x="0px" y="0px"
	 width="55.284px" height="55.286px" viewBox="0 0 55.284 55.286" enable-background="new 0 0 55.284 55.286" xml:space="preserve">
<g>
	<path fill="#FFFFFF" d="M55.284,27.643c0,15.267-12.375,27.644-27.643,27.644C12.375,55.286,0,42.909,0,27.643S12.375,0,27.642,0
		C42.909,0,55.284,12.376,55.284,27.643"/>
	<polygon fill="#FFFFFF" points="7.332,19.473 7.512,24.347 12.327,26.964 17.144,24.407 17.202,19.591 12.208,17.213 	"/>
	<polygon fill="#FFFFFF" points="27.608,22.802 22.852,25.239 22.732,30.354 27.312,32.434 32.305,30.057 32.365,25.595 	"/>
	<polygon fill="#FFFFFF" points="37.895,19.651 38.073,24.347 42.651,26.786 47.527,24.407 47.467,19.53 42.948,17.392 	"/>
	<path fill="#9D9D9C" d="M2.604,28.06L2.604,28.06v7.725c0,0.24,0.142,0.457,0.358,0.558l9.209,4.213
		c0.179,0.081,0.383,0.075,0.555-0.019l5.051-2.791v3.734c0,0.239,0.14,0.459,0.357,0.559l9.209,4.213
		c0.175,0.08,0.376,0.074,0.545-0.018l9.209-4.915c0.199-0.106,0.324-0.315,0.324-0.54v-3.041l5.07,2.799
		c0.17,0.094,0.375,0.1,0.552,0.019l9.209-4.213c0.219-0.101,0.359-0.317,0.359-0.556V28.06h-1.228v7.329l-8.569,3.923l-5.394-2.979
		v-2.578h-1.227v6.654l-8.617,4.599l-8.574-3.923v-7.33h-1.227v2.588l-5.375,2.969l-8.57-3.924V28.06H2.604z"/>
	<path fill="#9D9D9C" d="M12.405,16.593c-0.087,0.002-0.172,0.025-0.25,0.063c-1.591,0.79-3.199,1.563-4.791,2.388
		c-0.204,0.104-0.332,0.314-0.332,0.545v4.871c0,0.233,0.133,0.447,0.341,0.55c1.6,0.795,3.204,1.563,4.772,2.378
		c0.176,0.092,0.383,0.092,0.557,0.004c1.6-0.805,3.169-1.641,4.765-2.374c0.218-0.101,0.356-0.317,0.356-0.558v-4.871
		c0-0.234-0.132-0.448-0.34-0.551c-1.594-0.795-3.188-1.588-4.782-2.381C12.609,16.61,12.508,16.589,12.405,16.593 M12.428,17.892
		c1.39,0.691,2.779,1.385,4.168,2.076v4.111c-1.415,0.666-2.794,1.383-4.168,2.078c-1.388-0.713-2.782-1.393-4.167-2.078v-4.111
		C9.636,19.263,11.031,18.581,12.428,17.892"/>
	<path fill="#9D9D9C" d="M42.765,16.593c-0.086,0.004-0.173,0.027-0.249,0.065c-1.595,0.792-3.188,1.585-4.781,2.38
		c-0.209,0.104-0.341,0.318-0.341,0.551v4.871c0.001,0.24,0.14,0.457,0.356,0.559c1.596,0.732,3.165,1.568,4.765,2.373
		c0.175,0.088,0.383,0.088,0.557-0.004c1.569-0.814,3.173-1.583,4.773-2.378c0.208-0.103,0.34-0.316,0.34-0.55v-4.871
		c0-0.23-0.127-0.441-0.331-0.545c-1.594-0.824-3.201-1.598-4.791-2.388C42.971,16.61,42.867,16.589,42.765,16.593 M42.789,17.892
		c1.397,0.689,2.792,1.371,4.167,2.076v4.111c-1.384,0.686-2.78,1.365-4.167,2.078c-1.373-0.695-2.753-1.412-4.167-2.078v-4.111
		C40.01,19.276,41.4,18.583,42.789,17.892"/>
	<path fill="#9D9D9C" d="M27.577,22.287c-0.087,0.005-0.172,0.024-0.25,0.063c-1.591,0.789-3.199,1.563-4.791,2.387
		c-0.204,0.106-0.332,0.317-0.332,0.545v4.873c0,0.232,0.133,0.447,0.341,0.551c1.6,0.794,3.204,1.562,4.771,2.376
		c0.176,0.092,0.384,0.094,0.56,0.007c1.598-0.804,3.167-1.639,4.763-2.375c0.216-0.102,0.356-0.316,0.356-0.557v-4.872
		c0-0.232-0.131-0.445-0.34-0.55c-1.595-0.795-3.188-1.588-4.782-2.381c-0.092-0.047-0.194-0.069-0.296-0.065V22.287z
		 M27.599,23.587c1.391,0.691,2.779,1.384,4.167,2.077v4.112c-1.413,0.664-2.793,1.381-4.166,2.076
		c-1.386-0.715-2.784-1.394-4.168-2.078v-4.11C24.807,24.958,26.203,24.278,27.599,23.587"/>
</g>
</svg>
