<?xml version="1.0" encoding="utf-8"?>
<!-- Generator: Adobe Illustrator 16.0.0, SVG Export Plug-In . SVG Version: 6.00 Build 0)  -->
<!DOCTYPE svg PUBLIC "-//W3C//DTD SVG 1.1//EN" "http://www.w3.org/Graphics/SVG/1.1/DTD/svg11.dtd">
<svg version="1.1" id="Capa_1" xmlns="http://www.w3.org/2000/svg" xmlns:xlink="http://www.w3.org/1999/xlink" x="0px" y="0px"
	 width="55.284px" height="55.287px" viewBox="0 0 55.284 55.287" enable-background="new 0 0 55.284 55.287" xml:space="preserve">
<g>
	<path fill="#FFFFFF" d="M55.284,27.645c0,15.267-12.375,27.643-27.643,27.643C12.375,55.287,0,42.911,0,27.645
		C0,12.377,12.375,0,27.642,0C42.909,0,55.284,12.377,55.284,27.645"/>
	<polygon fill="#FFFFFF" points="12.729,16.458 12.729,19.889 42.763,19.889 43.132,16.645 41.372,16.645 27.745,9.691 
		14.396,16.272 	"/>
	<rect x="13.264" y="39.318" fill="#FFFFFF" width="28.554" height="2.229"/>
	<rect x="12.037" y="41.658" fill="#FFFFFF" width="31.118" height="2.565"/>
	<rect x="14.938" y="36.918" fill="#FFFFFF" width="6.023" height="2.845"/>
	<rect x="24.809" y="37.143" fill="#FFFFFF" width="5.854" height="2.898"/>
	<rect x="34.624" y="37.029" fill="#FFFFFF" width="5.855" height="3.291"/>
	<rect x="14.824" y="19.464" fill="#FFFFFF" width="5.912" height="2.731"/>
	<rect x="24.641" y="19.241" fill="#FFFFFF" width="5.968" height="3.123"/>
	<rect x="34.399" y="19.127" fill="#FFFFFF" width="6.135" height="3.012"/>
	<rect x="15.885" y="21.472" fill="#FFFFFF" width="3.848" height="15.501"/>
	<rect x="25.645" y="21.359" fill="#FFFFFF" width="3.96" height="16.396"/>
	<rect x="35.683" y="21.136" fill="#FFFFFF" width="3.625" height="16.229"/>
	<path fill="#9D9D9C" d="M43.659,43.351v-2.286h-1.143v-2.285H40.8v-2.287h-1.145v-13.74H40.8v-2.284h2.859v-4.581h-2.277
		L27.636,8.868l-13.165,7.019h-2.279v4.581h2.287v2.284h1.143v13.732h-1.137v2.287h-1.717v2.286h-1.143v2.286H9.904v1.15H45.38
		v-1.144H43.659z M39.655,38.771h-4.58v-1.145h4.58V38.771z M21.352,20.468h2.861v2.284h1.143v13.732h-1.143v2.287h-2.861v-2.287
		h-1.143V22.752h1.143V20.468z M28.784,36.484h-2.286V22.752h2.286V36.484z M25.355,20.468h4.581v1.144h-4.581V20.468z
		 M25.355,37.627h4.581v1.146h-4.581V37.627z M29.929,36.484V22.752h1.143v-2.284h2.861v2.284h1.143v13.732h-1.143v2.287h-2.861
		v-2.287H29.929z M38.513,36.484h-2.287V22.752h2.287V36.484z M39.655,21.609h-4.58v-1.143h4.58V21.609z M13.336,19.316V17.03h1.416
		l12.897-6.872l13.457,6.872h1.41v2.286H13.336z M15.629,20.468h4.58v1.144h-4.58V20.468z M16.771,22.752h2.287v13.732h-2.287
		V22.752z M15.629,37.627h4.58v1.146h-4.58V37.627z M13.91,39.914h27.464v1.145H13.91V39.914z M42.517,43.351H12.768v-1.144h29.749
		V43.351z"/>
	<rect x="27.066" y="15.312" fill="#878787" width="1.144" height="1.144"/>
	<rect x="29.36" y="15.312" fill="#878787" width="1.143" height="1.144"/>
	<rect x="24.781" y="15.312" fill="#878787" width="1.143" height="1.144"/>
</g>
</svg>
