<?xml version="1.0" encoding="utf-8"?>
<!-- Generator: Adobe Illustrator 16.0.0, SVG Export Plug-In . SVG Version: 6.00 Build 0)  -->
<!DOCTYPE svg PUBLIC "-//W3C//DTD SVG 1.1//EN" "http://www.w3.org/Graphics/SVG/1.1/DTD/svg11.dtd">
<svg version="1.1" id="Capa_1" xmlns="http://www.w3.org/2000/svg" xmlns:xlink="http://www.w3.org/1999/xlink" x="0px" y="0px"
	 width="46.173px" height="46.174px" viewBox="0 0 46.173 46.174" enable-background="new 0 0 46.173 46.174" xml:space="preserve">
<g>
	<path fill="#DADADA" d="M45.923,23.087c0,12.612-10.225,22.837-22.836,22.837c-12.613,0-22.837-10.225-22.837-22.837
		S10.474,0.25,23.087,0.25C35.698,0.25,45.923,10.475,45.923,23.087"/>
	<circle fill="none" stroke="#000000" stroke-width="0.5" stroke-miterlimit="10" cx="23.086" cy="23.087" r="22.836"/>
	<path fill="#FFFFFF" d="M39.524,23.087c0,9.079-7.359,16.438-16.438,16.438c-9.079,0-16.439-7.359-16.439-16.438
		s7.36-16.438,16.439-16.438C32.165,6.648,39.524,14.008,39.524,23.087"/>
	<circle fill="none" stroke="#000000" stroke-width="0.5" stroke-miterlimit="10" cx="23.086" cy="23.087" r="16.438"/>
	<path fill="#FFFFFF" d="M34.064,23.087c0,6.063-4.915,10.979-10.979,10.979S12.106,29.15,12.106,23.087s4.916-10.979,10.979-10.979
		S34.064,17.023,34.064,23.087"/>
	<circle fill="none" stroke="#000000" stroke-width="0.5" stroke-miterlimit="10" cx="23.085" cy="23.087" r="10.979"/>
	<line fill="none" stroke="#000000" stroke-width="0.5" stroke-miterlimit="10" x1="6.264" y1="4.367" x2="39.908" y2="41.859"/>
	<path d="M8.776,6c0-0.57-0.462-1.031-1.031-1.031C7.175,4.969,6.713,5.43,6.713,6c0,0.568,0.462,1.031,1.032,1.031
		C8.314,7.031,8.776,6.568,8.776,6"/>
	<path d="M13.139,10.965c0-0.57-0.462-1.031-1.031-1.031c-0.57,0-1.032,0.461-1.032,1.031c0,0.568,0.462,1.031,1.032,1.031
		C12.677,11.996,13.139,11.533,13.139,10.965"/>
	<path d="M16.883,14.925c0-0.569-0.462-1.031-1.03-1.031c-0.57,0-1.032,0.462-1.032,1.031c0,0.567,0.462,1.031,1.032,1.031
		C16.421,15.956,16.883,15.492,16.883,14.925"/>
	<path fill="#878787" d="M29.129,23.114c0,3.285-2.664,5.948-5.948,5.948c-3.286,0-5.949-2.663-5.949-5.948
		c0-3.286,2.663-5.95,5.949-5.95C26.465,17.164,29.129,19.828,29.129,23.114"/>
	<circle fill="none" stroke="#878787" stroke-width="0.336" stroke-miterlimit="10" cx="23.18" cy="23.114" r="5.949"/>
</g>
</svg>
