<?xml version="1.0" encoding="utf-8"?>
<!-- Generator: Adobe Illustrator 16.0.0, SVG Export Plug-In . SVG Version: 6.00 Build 0)  -->
<!DOCTYPE svg PUBLIC "-//W3C//DTD SVG 1.1//EN" "http://www.w3.org/Graphics/SVG/1.1/DTD/svg11.dtd">
<svg version="1.1" id="Capa_1" xmlns="http://www.w3.org/2000/svg" xmlns:xlink="http://www.w3.org/1999/xlink" x="0px" y="0px"
	 width="46.173px" height="46.174px" viewBox="0 0 46.173 46.174" enable-background="new 0 0 46.173 46.174" xml:space="preserve">
<g>
	<path fill="#FFFFFF" d="M45.923,23.087c0,12.612-10.224,22.837-22.837,22.837c-12.612,0-22.836-10.225-22.836-22.837
		S10.474,0.25,23.086,0.25C35.699,0.25,45.923,10.475,45.923,23.087"/>
	<circle fill="none" stroke="#000000" stroke-width="0.5" stroke-miterlimit="10" cx="23.086" cy="23.087" r="22.836"/>
	<path fill="#DADADA" d="M39.524,23.087c0,9.079-7.36,16.438-16.438,16.438S6.647,32.166,6.647,23.087s7.36-16.438,16.438-16.438
		S39.524,14.008,39.524,23.087"/>
	<circle fill="none" stroke="#000000" stroke-width="0.5" stroke-miterlimit="10" cx="23.086" cy="23.087" r="16.438"/>
	<path fill="#FFFFFF" d="M34.064,23.087c0,6.063-4.914,10.979-10.979,10.979c-6.062,0-10.979-4.915-10.979-10.979
		c0-6.062,4.916-10.979,10.979-10.979C29.15,12.108,34.064,17.024,34.064,23.087"/>
	<circle fill="none" stroke="#000000" stroke-width="0.5" stroke-miterlimit="10" cx="23.086" cy="23.087" r="10.979"/>
	<line fill="none" stroke="#000000" stroke-width="0.5" stroke-miterlimit="10" x1="6.264" y1="4.367" x2="39.908" y2="41.859"/>
	<path d="M8.776,6c0-0.57-0.462-1.031-1.031-1.031S6.713,5.43,6.713,6c0,0.568,0.463,1.031,1.032,1.031S8.776,6.568,8.776,6"/>
	<path d="M13.139,10.965c0-0.57-0.463-1.031-1.031-1.031c-0.57,0-1.032,0.461-1.032,1.031c0,0.568,0.462,1.031,1.032,1.031
		C12.676,11.996,13.139,11.533,13.139,10.965"/>
	<path d="M16.883,14.925c0-0.57-0.462-1.031-1.031-1.031s-1.031,0.461-1.031,1.031c0,0.568,0.462,1.031,1.031,1.031
		S16.883,15.493,16.883,14.925"/>
	<path fill="#878787" d="M29.129,23.113c0,3.286-2.664,5.949-5.949,5.949s-5.949-2.663-5.949-5.949c0-3.285,2.664-5.949,5.949-5.949
		S29.129,19.828,29.129,23.113"/>
	<circle fill="none" stroke="#878787" stroke-width="0.336" stroke-miterlimit="10" cx="23.18" cy="23.113" r="5.949"/>
</g>
</svg>
