<?xml version="1.0" encoding="utf-8"?>
<!-- Generator: Adobe Illustrator 15.0.0, SVG Export Plug-In . SVG Version: 6.00 Build 0)  -->
<!DOCTYPE svg PUBLIC "-//W3C//DTD SVG 1.1//EN" "http://www.w3.org/Graphics/SVG/1.1/DTD/svg11.dtd">
<svg version="1.1" id="Capa_1" xmlns="http://www.w3.org/2000/svg" xmlns:xlink="http://www.w3.org/1999/xlink" x="0px" y="0px"
	 width="212.348px" height="125.076px" viewBox="0 0 212.348 125.076" enable-background="new 0 0 212.348 125.076"
	 xml:space="preserve">
<rect x="1.868" y="30.693" fill="#FFFFFF" width="43.236" height="72.06"/>
<g>
	<path fill="#1F140F" d="M202.465,83.785H84.22c0,0,2.209-1.562,2.197-8.374c-0.014-6.2-2.197-9.113-2.197-9.113h118.245
		c0,0,9.883-0.244,9.883,8.26C212.348,83.544,202.465,83.785,202.465,83.785z"/>
	<g>
		<g>
			<path fill="#FFFFFF" d="M55.256,33.889h3.4V58.16h-3.4V33.889z"/>
			<path fill="#FFFFFF" d="M71.31,40.352c4.021,0,5.363,2.75,5.363,2.75h0.066c0,0-0.066-0.517-0.066-1.169v-8.044h3.334V58.16
				h-3.162v-1.649c0-0.688,0.033-1.168,0.033-1.168H76.81c0,0-1.41,3.23-5.707,3.23c-4.709,0-7.666-3.714-7.666-9.11
				C63.437,43.928,66.702,40.352,71.31,40.352z M71.758,55.685c2.578,0,5.02-1.821,5.02-6.257c0-3.095-1.617-6.188-4.916-6.188
				c-2.752,0-5.02,2.27-5.02,6.222C66.842,53.244,68.868,55.685,71.758,55.685z"/>
			<path fill="#FFFFFF" d="M92.73,40.352c4.916,0,7.529,3.645,7.529,8.146c0,0.447-0.104,1.443-0.104,1.443H87.47
				c0.172,3.816,2.889,5.741,5.98,5.741c2.99,0,5.156-2.027,5.156-2.027l1.375,2.44c0,0-2.578,2.476-6.738,2.476
				c-5.467,0-9.213-3.954-9.213-9.11C84.032,43.928,87.779,40.352,92.73,40.352z M96.855,47.434
				c-0.104-2.991-1.959-4.436-4.193-4.436c-2.545,0-4.605,1.582-5.088,4.436H96.855z"/>
			<path fill="#FFFFFF" d="M113.395,47.297h0.756v-0.311c0-2.854-1.615-3.815-3.814-3.815c-2.684,0-4.85,1.686-4.85,1.686
				l-1.375-2.44c0,0,2.51-2.062,6.499-2.062c4.4,0,6.875,2.406,6.875,6.808v11.001h-3.094v-1.649c0-0.791,0.068-1.375,0.068-1.375
				h-0.068c0,0-1.408,3.438-5.568,3.438c-2.993,0-5.915-1.822-5.915-5.294C102.907,47.537,110.473,47.297,113.395,47.297z
				 M109.543,55.891c2.818,0,4.643-2.957,4.643-5.535v-0.55h-0.861c-2.51,0-7.048,0.172-7.048,3.3
				C106.277,54.516,107.379,55.891,109.543,55.891z"/>
		</g>
		<g>
			<path fill="#FFFFFF" d="M133.887,33.683c5.707,0,8.596,3.024,8.596,3.024l-0.895,1.102c0,0-2.855-2.716-7.666-2.716
				c-5.914,0-10.416,4.641-10.416,10.863c0,6.258,4.469,11.207,10.52,11.207c5.156,0,8.146-3.267,8.146-3.267l0.928,1.031
				c0,0-3.23,3.645-9.074,3.645c-7.014,0-12.066-5.639-12.066-12.617C121.955,38.977,127.114,33.683,133.887,33.683z"/>
			<path fill="#FFFFFF" d="M157.369,47.675h1.137v-0.584c0-3.816-1.959-5.122-4.711-5.122c-2.99,0-4.916,1.649-4.916,1.649
				l-0.824-1.169c0,0,2.062-1.892,5.811-1.892c3.953,0,6.084,2.2,6.084,6.498v11.104h-1.439v-2.27c0-0.929,0.137-1.547,0.137-1.547
				h-0.066c0.035,0-1.547,4.229-6.018,4.229c-2.783,0-5.844-1.548-5.844-4.985C146.715,47.744,154.311,47.675,157.369,47.675z
				 M152.627,57.232c3.748,0,5.879-3.885,5.879-7.288v-0.928h-1.102c-2.924,0-9.182,0-9.182,4.469
				C148.227,55.307,149.703,57.232,152.627,57.232z"/>
			<path fill="#FFFFFF" d="M165.762,40.971h1.441v3.024c0,0.791-0.137,1.409-0.137,1.409h0.066c0.855-2.578,3.918-4.848,6.602-4.848
				c3.438,0,5.057,1.616,5.434,4.675h0.068c0.961-2.405,3.574-4.675,6.529-4.675c4.436,0,5.74,2.612,5.74,6.704v10.897h-1.441
				V47.778c0-3.229-0.652-5.878-4.299-5.878c-2.854,0-5.295,2.544-6.051,5.227c-0.238,0.791-0.346,1.649-0.346,2.646v8.389h-1.441
				V47.778c0-2.956-0.414-5.878-4.193-5.878c-3.061,0-5.465,2.683-6.256,5.535c-0.207,0.723-0.275,1.514-0.275,2.338v8.389h-1.441
				V40.971L165.762,40.971z"/>
			<path fill="#FFFFFF" d="M197.323,40.971h1.441v2.062c0,0.791-0.104,1.375-0.104,1.375h0.068c0,0,1.41-3.852,6.188-3.852
				c4.605,0,7.426,3.678,7.426,9.007c0,5.467-3.195,9.008-7.631,9.008c-4.473,0-6.02-3.886-6.02-3.886h-0.066
				c0,0,0.137,0.619,0.137,1.514v8.835h-1.441V40.971H197.323z M204.717,57.163c3.367,0,6.119-2.785,6.119-7.599
				c0-4.641-2.479-7.597-5.982-7.597c-3.162,0-6.119,2.233-6.119,7.632C198.735,53.416,200.864,57.163,204.717,57.163z"/>
		</g>
		<g>
			<path fill="#FFFFFF" d="M57.773,23.038c1.357,0,2.043,0.733,2.043,0.733l-0.299,0.413c0,0-0.662-0.63-1.727-0.63
				c-1.332,0.001-2.285,1.034-2.285,2.374c0,1.355,0.953,2.462,2.301,2.462c1.146,0,1.84-0.759,1.84-0.759l0.324,0.396
				c0,0-0.775,0.881-2.172,0.881c-1.681-0.002-2.873-1.317-2.873-2.972C54.926,24.289,56.152,23.038,57.773,23.038z"/>
			<path fill="#FFFFFF" d="M62.927,24.652c1.188,0,2.146,0.904,2.146,2.107c0,1.227-0.959,2.146-2.146,2.146
				c-1.188,0-2.146-0.921-2.146-2.146C60.78,25.557,61.741,24.652,62.927,24.652z M62.927,28.414c0.871,0,1.582-0.71,1.582-1.654
				c0-0.92-0.711-1.606-1.582-1.606s-1.582,0.686-1.582,1.605C61.345,27.704,62.056,28.414,62.927,28.414z"/>
			<path fill="#FFFFFF" d="M66.159,24.749H66.7v0.604c0,0.178-0.016,0.323-0.016,0.323H66.7c0.146-0.372,0.662-1.025,1.623-1.025
				c1,0,1.355,0.573,1.355,1.574v2.583H69.13v-2.436c0-0.639-0.1-1.203-0.879-1.203c-0.695,0-1.293,0.478-1.479,1.146
				c-0.049,0.169-0.062,0.354-0.062,0.55v1.944h-0.551L66.159,24.749L66.159,24.749z"/>
			<path fill="#FFFFFF" d="M71.008,24.749h0.541v0.604c0,0.178-0.018,0.323-0.018,0.323h0.018c0.145-0.372,0.662-1.025,1.623-1.025
				c1,0,1.354,0.573,1.354,1.574v2.583h-0.549v-2.436c0-0.639-0.098-1.203-0.879-1.203c-0.695,0-1.293,0.478-1.479,1.146
				c-0.049,0.169-0.062,0.354-0.062,0.55v1.944h-0.549L71.008,24.749L71.008,24.749z"/>
			<path fill="#FFFFFF" d="M77.573,24.652c1.123,0,1.695,0.864,1.695,1.873c0,0.098-0.016,0.282-0.016,0.282h-3.115
				c0.021,1.042,0.732,1.605,1.574,1.605c0.74,0,1.232-0.492,1.232-0.492l0.25,0.42c0,0-0.59,0.564-1.502,0.564
				c-1.209,0-2.123-0.872-2.123-2.123C75.571,25.452,76.476,24.652,77.573,24.652z M78.713,26.355
				c-0.031-0.847-0.551-1.243-1.154-1.243c-0.678,0-1.268,0.429-1.396,1.243H78.713z"/>
			<path fill="#FFFFFF" d="M82.22,24.652c0.992,0,1.482,0.582,1.482,0.582l-0.279,0.412c0,0-0.453-0.493-1.188-0.493
				c-0.887,0-1.582,0.662-1.582,1.632c0,0.951,0.703,1.63,1.602,1.63c0.82,0,1.299-0.572,1.299-0.572l0.25,0.428
				c0,0-0.549,0.639-1.582,0.639c-1.203,0-2.131-0.863-2.131-2.123C80.09,25.532,81.025,24.652,82.22,24.652z"/>
			<path fill="#FFFFFF" d="M85.017,25.258h-0.533v-0.46h0.541v-1.17h0.541v1.17h1.02v0.46h-1.02v2.018
				c0,0.953,0.605,1.074,0.912,1.074c0.113,0,0.186-0.017,0.186-0.017v0.492c0,0-0.088,0.017-0.232,0.017
				c-0.467,0-1.412-0.153-1.412-1.51L85.017,25.258L85.017,25.258z"/>
			<path fill="#FFFFFF" d="M89.349,24.652c1.123,0,1.695,0.864,1.695,1.873c0,0.098-0.018,0.282-0.018,0.282h-3.115
				c0.023,1.042,0.734,1.605,1.574,1.605c0.742,0,1.234-0.492,1.234-0.492l0.25,0.42c0,0-0.59,0.564-1.502,0.564
				c-1.209,0-2.123-0.872-2.123-2.123C87.347,25.452,88.252,24.652,89.349,24.652z M90.487,26.355
				c-0.031-0.847-0.549-1.243-1.152-1.243c-0.68,0-1.27,0.429-1.396,1.243H90.487z"/>
			<path fill="#FFFFFF" d="M93.704,24.652c0.984,0,1.324,0.768,1.324,0.768h0.018c0,0-0.018-0.137-0.018-0.308v-1.977h0.549v5.674
				h-0.531v-0.427c0-0.179,0.018-0.291,0.018-0.291h-0.018c0,0-0.33,0.814-1.396,0.814c-1.09,0-1.768-0.872-1.768-2.132
				C91.881,25.492,92.64,24.652,93.704,24.652z M93.73,28.414c0.678,0,1.314-0.483,1.314-1.64c0-0.822-0.42-1.63-1.291-1.63
				c-0.721,0-1.309,0.604-1.309,1.63C92.446,27.776,92.97,28.414,93.73,28.414z"/>
			<path fill="#FFFFFF" d="M102.159,27.001h-2.283l-0.646,1.809h-0.59l2.082-5.674h0.598l2.082,5.674h-0.588L102.159,27.001z
				 M101.013,23.724c0,0-0.121,0.468-0.219,0.734l-0.76,2.059h1.953l-0.741-2.059c-0.098-0.268-0.219-0.734-0.219-0.734H101.013z"/>
			<path fill="#FFFFFF" d="M106.079,24.652c0.992,0,1.484,0.582,1.484,0.582l-0.283,0.412c0,0-0.451-0.493-1.185-0.493
				c-0.891,0-1.582,0.662-1.582,1.632c0,0.951,0.701,1.63,1.598,1.63c0.824,0,1.298-0.572,1.298-0.572l0.252,0.428
				c0,0-0.549,0.639-1.582,0.639c-1.201,0-2.133-0.863-2.133-2.123C103.946,25.532,104.885,24.652,106.079,24.652z"/>
			<path fill="#FFFFFF" d="M108.877,25.258h-0.533v-0.46h0.541v-1.17h0.541v1.17h1.016v0.46h-1.016v2.018
				c0,0.953,0.604,1.074,0.912,1.074c0.111,0,0.186-0.017,0.186-0.017v0.492c0,0-0.09,0.017-0.234,0.017
				c-0.469,0-1.41-0.153-1.41-1.51L108.877,25.258L108.877,25.258z"/>
			<path fill="#FFFFFF" d="M111.473,23.135h0.574v0.687h-0.574V23.135z M111.489,24.749h0.549v4.061h-0.549V24.749z"/>
			<path fill="#FFFFFF" d="M115.276,24.652c1.188,0,2.146,0.904,2.146,2.107c0,1.227-0.961,2.146-2.146,2.146
				c-1.188,0-2.146-0.921-2.146-2.146C113.127,25.557,114.088,24.652,115.276,24.652z M115.276,28.414
				c0.871,0,1.582-0.71,1.582-1.654c0-0.92-0.711-1.606-1.582-1.606c-0.873,0-1.582,0.688-1.582,1.606
				C113.694,27.704,114.403,28.414,115.276,28.414z"/>
			<path fill="#FFFFFF" d="M118.496,24.749h0.541v0.604c0,0.178-0.016,0.323-0.016,0.323h0.016c0.146-0.372,0.662-1.025,1.623-1.025
				c1,0,1.355,0.573,1.355,1.574v2.583h-0.549v-2.436c0-0.639-0.1-1.203-0.879-1.203c-0.695,0-1.293,0.478-1.479,1.146
				c-0.049,0.169-0.062,0.354-0.062,0.55v1.944h-0.551V24.749L118.496,24.749z"/>
			<path fill="#FFFFFF" d="M125.758,25.258h-0.508v-0.46h0.508v-0.194c0-1.34,0.943-1.509,1.402-1.509
				c0.154,0,0.25,0.016,0.25,0.016v0.492c0,0-0.08-0.017-0.191-0.017c-0.314,0-0.912,0.113-0.912,1.018v0.194h1.041v0.46h-1.041
				v3.552h-0.549V25.258z"/>
			<path fill="#FFFFFF" d="M130.033,24.652c1.188,0,2.146,0.904,2.146,2.107c0,1.227-0.961,2.146-2.146,2.146
				c-1.188,0-2.146-0.921-2.146-2.146C127.887,25.557,128.848,24.652,130.033,24.652z M130.033,28.414
				c0.871,0,1.582-0.71,1.582-1.654c0-0.92-0.711-1.606-1.582-1.606c-0.873,0-1.582,0.688-1.582,1.606
				C128.451,27.704,129.16,28.414,130.033,28.414z"/>
			<path fill="#FFFFFF" d="M133.268,24.749h0.541v0.72c0,0.178-0.018,0.322-0.018,0.322h0.018c0.193-0.612,0.645-1.082,1.283-1.082
				c0.111,0,0.217,0.023,0.217,0.023v0.541c0,0-0.096-0.016-0.201-0.016c-0.574,0-1,0.451-1.178,1.049
				c-0.082,0.258-0.113,0.533-0.113,0.791v1.711h-0.549V24.749z"/>
			<path fill="#FFFFFF" d="M138.592,25.258h-0.533v-0.46h0.541v-1.17h0.541v1.17h1.016v0.46h-1.016v2.018
				c0,0.953,0.604,1.074,0.912,1.074c0.113,0,0.186-0.017,0.186-0.017v0.492c0,0-0.09,0.017-0.23,0.017
				c-0.473,0-1.412-0.153-1.412-1.51L138.592,25.258L138.592,25.258z"/>
			<path fill="#FFFFFF" d="M141.203,23.135h0.551v2.194c0,0.187-0.02,0.331-0.02,0.331h0.02c0.15-0.389,0.691-1.01,1.611-1.01
				c1.002,0,1.355,0.573,1.355,1.574v2.584h-0.545v-2.436c0-0.639-0.1-1.203-0.881-1.203c-0.693,0-1.291,0.478-1.479,1.154
				c-0.051,0.161-0.062,0.347-0.062,0.541v1.944h-0.551V23.135L141.203,23.135z"/>
			<path fill="#FFFFFF" d="M147.772,24.652c1.121,0,1.695,0.864,1.695,1.873c0,0.098-0.018,0.282-0.018,0.282h-3.115
				c0.023,1.042,0.732,1.605,1.572,1.605c0.742,0,1.234-0.492,1.234-0.492l0.25,0.42c0,0-0.59,0.564-1.502,0.564
				c-1.211,0-2.123-0.872-2.123-2.123C145.77,25.452,146.674,24.652,147.772,24.652z M148.908,26.355
				c-0.031-0.847-0.549-1.243-1.152-1.243c-0.68,0-1.27,0.429-1.396,1.243H148.908z"/>
			<path fill="#FFFFFF" d="M155.442,23.038c1.357,0,2.043,0.733,2.043,0.733l-0.299,0.412c0,0-0.662-0.63-1.727-0.63
				c-1.332,0-2.285,1.032-2.285,2.373c0,1.355,0.953,2.462,2.301,2.462c1.145,0,1.84-0.76,1.84-0.76l0.324,0.396
				c0,0-0.775,0.881-2.172,0.881c-1.682,0-2.873-1.314-2.873-2.971C152.594,24.289,153.821,23.038,155.442,23.038z"/>
			<path fill="#FFFFFF" d="M160.596,24.652c1.188,0,2.145,0.904,2.145,2.107c0,1.227-0.959,2.146-2.145,2.146
				c-1.188,0-2.146-0.921-2.146-2.146C158.448,25.557,159.408,24.652,160.596,24.652z M160.596,28.414
				c0.871,0,1.582-0.71,1.582-1.654c0-0.92-0.711-1.606-1.582-1.606s-1.582,0.688-1.582,1.606
				C159.014,27.704,159.725,28.414,160.596,28.414z"/>
			<path fill="#FFFFFF" d="M163.821,24.749h0.541v0.604c0,0.178-0.016,0.323-0.016,0.323h0.016c0.193-0.55,0.84-1.025,1.469-1.025
				c0.756,0,1.143,0.348,1.264,1.018h0.018c0.219-0.549,0.809-1.018,1.492-1.018c0.984,0,1.35,0.573,1.35,1.574v2.583h-0.549v-2.444
				c0-0.662-0.139-1.212-0.883-1.212c-0.619,0-1.129,0.55-1.281,1.146c-0.059,0.177-0.07,0.37-0.07,0.589v1.921h-0.551v-2.444
				c0-0.613-0.088-1.212-0.854-1.212c-0.662,0-1.162,0.573-1.332,1.195c-0.041,0.169-0.057,0.354-0.057,0.541v1.921h-0.551v-4.06
				H163.821z"/>
			<path fill="#FFFFFF" d="M171.274,24.749h0.541v0.604c0,0.178-0.018,0.323-0.018,0.323h0.018c0.193-0.55,0.838-1.025,1.469-1.025
				c0.75,0,1.141,0.348,1.262,1.018h0.018c0.219-0.549,0.809-1.018,1.492-1.018c0.98,0,1.35,0.573,1.35,1.574v2.583h-0.551v-2.444
				c0-0.662-0.137-1.212-0.879-1.212c-0.621,0-1.131,0.55-1.281,1.146c-0.059,0.177-0.072,0.37-0.072,0.589v1.921h-0.549v-2.444
				c0-0.613-0.09-1.212-0.854-1.212c-0.662,0-1.164,0.573-1.332,1.195c-0.041,0.169-0.059,0.354-0.059,0.541v1.921h-0.549v-4.06
				H171.274z"/>
			<path fill="#FFFFFF" d="M180.573,24.652c1.188,0,2.146,0.904,2.146,2.107c0,1.227-0.961,2.146-2.146,2.146
				c-1.188,0-2.146-0.921-2.146-2.146C178.426,25.557,179.387,24.652,180.573,24.652z M180.573,28.414
				c0.871,0,1.582-0.71,1.582-1.654c0-0.92-0.711-1.606-1.582-1.606c-0.873,0-1.582,0.688-1.582,1.606
				C178.99,27.704,179.699,28.414,180.573,28.414z"/>
			<path fill="#FFFFFF" d="M183.799,24.749h0.541v0.604c0,0.178-0.02,0.323-0.02,0.323h0.02c0.145-0.372,0.66-1.025,1.621-1.025
				c1.002,0,1.355,0.573,1.355,1.574v2.583h-0.551v-2.436c0-0.639-0.098-1.203-0.881-1.203c-0.691,0-1.291,0.478-1.48,1.146
				c-0.049,0.169-0.061,0.354-0.061,0.55v1.944h-0.549L183.799,24.749L183.799,24.749z"/>
			<path fill="#FFFFFF" d="M188.614,27.922c0,0,0.453,0.492,1.211,0.492c0.438,0,0.814-0.218,0.814-0.646
				c0-0.889-2.189-0.67-2.189-1.994c0-0.728,0.654-1.122,1.391-1.122c0.854,0,1.252,0.444,1.252,0.444l-0.25,0.419
				c0,0-0.35-0.371-1.02-0.371c-0.412,0-0.809,0.178-0.809,0.629c0,0.896,2.188,0.654,2.188,1.994c0,0.662-0.57,1.139-1.389,1.139
				c-0.984,0-1.502-0.59-1.502-0.59L188.614,27.922z"/>
		</g>
	</g>
	<circle fill="#1F140F" cx="69.259" cy="75.071" r="14.333"/>
	<g>
		<path fill="#FFFFFF" d="M73.23,74.488c-0.129-0.13-0.354-0.13-0.483,0c-0.063,0.063-0.101,0.149-0.101,0.241
			s0.035,0.177,0.101,0.24l0.945,0.946l-0.945,0.944c-0.063,0.064-0.1,0.15-0.1,0.24c0,0.094,0.034,0.18,0.1,0.244
			c0.131,0.127,0.354,0.127,0.483,0l0.945-0.947l0.944,0.947c0.131,0.127,0.354,0.127,0.483,0c0.063-0.063,0.1-0.15,0.1-0.244
			c0-0.09-0.033-0.176-0.1-0.24l-0.946-0.944l0.946-0.944c0.064-0.064,0.1-0.149,0.1-0.242c0-0.092-0.033-0.178-0.1-0.24
			c-0.13-0.133-0.354-0.131-0.483,0l-0.944,0.943L73.23,74.488z"/>
		<path fill="#FFFFFF" d="M79.104,67.998c-0.032-0.101-0.169-0.204-0.325-0.204c-0.035,0-0.1,0.016-0.102,0.016l-4.442,1.104
			l-4.648-1.105c-0.08-0.021-0.153-0.008-0.188,0l-4.653,1.104l-4.451-1.104c-0.001,0-0.062-0.013-0.094-0.014
			c-0.154,0-0.293,0.104-0.331,0.258l0.008,13.59c0.022,0.065,0.114,0.16,0.232,0.19l4.593,1.11
			c0.078,0.021,0.134,0.021,0.191,0.004l4.428-1.059c0.06-0.012,0.111-0.018,0.164-0.018c0.062,0,0.112,0.006,0.163,0.016
			l4.428,1.057c0.076,0.021,0.128,0.021,0.19,0l4.604-1.111c0.114-0.029,0.206-0.124,0.237-0.244L79.104,67.998z M78.437,81.233
			l-3.92,0.949v-3.406c0-0.188-0.152-0.344-0.342-0.344c-0.188,0-0.342,0.153-0.342,0.344v3.406l-3.983-0.949v-3.346
			c0-0.188-0.161-0.345-0.359-0.345c-0.196,0-0.357,0.154-0.357,0.345v3.346l-3.985,0.949V78.19c0-0.188-0.152-0.344-0.342-0.344
			c-0.188,0-0.341,0.153-0.341,0.344v3.992l-3.921-0.949v-3.801l0.148-0.047c0.989-0.32,2.011-0.591,3.035-0.801
			c0.18-0.025,0.306-0.172,0.306-0.34c0-0.21-0.205-0.374-0.404-0.336c-0.938,0.188-1.884,0.434-2.808,0.717l-0.277,0.086v-8.143
			l3.921,0.949v4.387c0.001,0.188,0.152,0.338,0.341,0.338c0.188,0,0.341-0.15,0.342-0.34v-4.385l3.985-0.951v4.957
			c0,0.188,0.161,0.344,0.357,0.344c0.198,0,0.359-0.152,0.359-0.344v-4.957l3.983,0.951v3.539c0,0.188,0.151,0.346,0.342,0.346
			c0.188,0,0.342-0.154,0.342-0.344v-3.541l3.92-0.947V81.233z"/>
		<path fill="#FFFFFF" d="M68.359,75.345c-0.006,0-1.664,0.1-2.479,0.198c-0.172,0.021-0.304,0.167-0.304,0.341
			c-0.001,0.207,0.196,0.367,0.399,0.336c0.816-0.101,2.4-0.197,2.467-0.201c0.142-0.024,0.259-0.166,0.259-0.332
			C68.701,75.497,68.548,75.345,68.359,75.345z"/>
		<path fill="#FFFFFF" d="M71.318,75.377c-0.004,0-0.706-0.032-0.706-0.032c-0.179,0-0.332,0.152-0.332,0.342
			c0,0.188,0.153,0.342,0.341,0.342l0.113,0.007c0.183,0.008,0.544,0.024,0.586,0.026c0.188-0.002,0.34-0.153,0.34-0.342
			C71.659,75.53,71.507,75.377,71.318,75.377z"/>
	</g>
	<g enable-background="new    ">
		<path fill="#FFFFFF" d="M100.316,68.188v0.068l0.068-0.068c1.652,0,2.812,0.841,3.479,2.521l0.139,0.82v0.745
			c-0.006,0.894-0.599,2.302-1.777,4.225c-0.748,1.121-1.77,2.1-3.062,2.934H98.82c-0.146,0-0.235-0.158-0.271-0.479l-0.273,0.068
			c-0.611,0-1.042-1.613-1.292-4.84c-0.228-1.976-0.41-3.224-0.547-3.746c0-0.483,0.16-0.959,0.479-1.43h0.067
			c0.091,0,0.16,0.135,0.205,0.402h0.068C98.479,68.597,99.501,68.188,100.316,68.188z M97.527,70.573
			c0.271,1.094,0.677,3.684,1.226,7.768l-0.068,0.342h0.068c0.732-0.42,1.481-1.306,2.249-2.652c1.18-1.745,1.771-3.088,1.771-4.026
			v-0.342c0-1.121-0.567-1.871-1.702-2.249l-0.684-0.13C99.595,69.281,98.643,69.712,97.527,70.573z"/>
		<path fill="#FFFFFF" d="M106.242,73.212h0.232c0.278,0,0.417,0.844,0.417,2.529l0.191,2.477c-0.119,0.777-0.244,1.168-0.377,1.168
			h-0.279c-0.319,0-0.506-1.466-0.562-4.396v-0.562C105.866,73.617,105.992,73.212,106.242,73.212z M106.291,69.897h0.185
			c0.25,0,0.406,0.17,0.464,0.513v0.048c0,0.27-0.109,0.473-0.328,0.607h-0.369c-0.127,0-0.221-0.202-0.278-0.607v-0.23
			C105.963,70.007,106.071,69.897,106.291,69.897z"/>
		<path fill="#FFFFFF" d="M111.916,70.177c0.773,0,1.504,0.438,2.188,1.312l0.055,0.273l-0.438,0.107h-0.109
			c-0.691-0.62-1.24-0.93-1.641-0.93h-0.164c-0.725,0-1.365,0.547-1.92,1.641l-0.164,0.984c0,0.523,0.365,0.814,1.094,0.875h0.055
			c0.686,0,1.434-0.512,2.248-1.531c0.426-0.512,0.771-0.766,1.039-0.766h0.273c0.693,0,1.439,1.133,2.242,3.396
			c0.182,0.507,0.271,1.054,0.271,1.642v0.219c0,2.093-0.801,3.732-2.404,4.923c-0.549,0.368-1.24,0.554-2.078,0.554
			c-1.117,0-2.121-1.277-3.016-3.835v-0.108c0-0.291,0.146-0.438,0.438-0.438h0.055c0.297,0,0.498,0.273,0.604,0.82
			c0.729,1.349,1.441,2.021,2.141,2.021c1.211,0,2.141-0.855,2.789-2.568c0.107-0.43,0.182-0.938,0.219-1.531
			c0-0.948-0.457-2.264-1.367-3.944l-0.055-0.055h-0.109c-1.229,1.39-2.068,2.085-2.516,2.085c0,0.072-0.312,0.128-0.938,0.164
			c-1.275-0.184-1.914-0.822-1.914-1.922c0-1.18,0.602-2.182,1.805-3.008C111.071,70.306,111.51,70.177,111.916,70.177z"/>
		<path fill="#FFFFFF" d="M119.321,73.212h0.232c0.275,0,0.416,0.844,0.416,2.529l0.189,2.477c-0.117,0.777-0.242,1.168-0.375,1.168
			h-0.279c-0.318,0-0.506-1.466-0.562-4.396v-0.562C118.944,73.617,119.069,73.212,119.321,73.212z M119.367,69.897h0.186
			c0.25,0,0.406,0.17,0.465,0.513v0.048c0,0.27-0.109,0.473-0.328,0.607h-0.369c-0.127,0-0.221-0.202-0.279-0.607v-0.23
			C119.039,70.007,119.149,69.897,119.367,69.897z"/>
		<path fill="#FFFFFF" d="M123.278,70.103h0.09c0.119,0.06,0.18,0.146,0.18,0.267c-0.297,2.073-0.445,3.368-0.445,3.883h0.623
			l1.961-0.137c0.127,0,0.232,0.089,0.314,0.269v0.137c0,0.328-0.461,0.492-1.383,0.492l-1.25,0.178l-0.227-0.049L123.1,75.19
			c0.164,2.045,0.402,3.324,0.711,3.834c0.375,0.89,0.998,1.334,1.873,1.334h0.049c0.441,0,0.889-0.252,1.34-0.752h0.088
			c0.205,0,0.311,0.104,0.311,0.312v0.082c-0.424,0.594-1.078,1.025-1.963,1.301h-0.355c-1.289,0-2.197-1.086-2.721-3.256
			c-0.178-0.971-0.268-1.834-0.268-2.591v-0.354c-0.387-0.035-0.58-0.17-0.58-0.402c0-0.237,0.209-0.354,0.621-0.354
			c0.023-1.209,0.275-2.576,0.76-4.104C123.073,70.147,123.178,70.103,123.278,70.103z"/>
		<path fill="#FFFFFF" d="M132.28,72.337h0.383c0.344,0.191,0.516,0.555,0.516,1.088v0.123c0,0.445-0.084,0.896-0.254,1.348
			c0,1.012,0.51,2.588,1.529,4.729c-0.055,0.174-0.158,0.303-0.312,0.385h-0.32c-0.609-0.298-1.166-1.148-1.662-2.559l-0.066-0.321
			h-0.123c-0.482,1.065-1.188,1.834-2.111,2.306l-0.896,0.252h-0.645c-0.893-0.184-1.34-0.842-1.34-1.981
			c0-2.354,1.131-4.04,3.391-5.052l0.957-0.062h0.451C131.951,72.421,132.121,72.337,132.28,72.337z M128.002,77.642
			c0,0.685,0.189,1.024,0.572,1.024c1.148,0,2.191-1.087,3.131-3.261l-0.062-0.834l0.062-0.896l-0.189-0.131h-0.383
			c-1.178,0-2.115,0.788-2.816,2.365C128.106,76.468,128.002,77.045,128.002,77.642z"/>
		<path fill="#FFFFFF" d="M136.881,67.921h0.197l0.191,0.191l-0.486,3.355c-0.156,0.906-0.236,1.846-0.236,2.815v0.923
			c0,2.467,0.209,3.986,0.629,4.566l0.047,0.144c0,0.19-0.129,0.308-0.389,0.343h-0.146c-0.5-0.496-0.875-1.273-1.121-2.33
			c-0.096-0.738-0.158-1.775-0.189-3.111c0-2.168,0.422-4.369,1.266-6.604L136.881,67.921z"/>
		<path fill="#FFFFFF" d="M142.672,72.222h0.189c0.188,0,0.559,0.879,1.105,2.639h0.049c0.297-1.025,0.775-1.745,1.441-2.16
			c0.439-0.159,1.082-0.303,1.922-0.432c0.225,0.062,0.334,0.207,0.334,0.432c0,0.205-0.271,0.316-0.812,0.335
			c-0.977,0.501-1.553,1.062-1.729,1.683c-0.355,1.115-0.533,2.047-0.533,2.789l0.145,1.299c-0.072,0.352-0.23,0.525-0.479,0.525
			h-0.287c-0.32-0.123-0.48-0.523-0.48-1.203l0.051-1.146c-0.379-1.879-0.748-3.32-1.107-4.327v-0.239L142.672,72.222z"/>
		<path fill="#FFFFFF" d="M152.155,73.069c0.773,0.137,1.35,0.383,1.725,0.738c0.455,0.592,0.684,1.293,0.684,2.104
			c0,1.354-0.639,2.449-1.914,3.288c-0.574,0.296-1.062,0.444-1.471,0.444c-0.492,0-0.982-0.196-1.479-0.588
			c-0.424-0.431-0.635-0.953-0.635-1.572v-0.438c0-1.032,0.359-2.083,1.078-3.146c0-0.368,0.328-0.614,0.984-0.737L152.155,73.069z
			 M150.047,76.992c0,0.752,0.26,1.243,0.777,1.478l0.352,0.049h0.096c1.053,0,1.805-0.722,2.256-2.16l0.049-0.541
			c0-0.771-0.324-1.311-0.979-1.619l-0.834-0.145c-0.523,0-0.854,0.131-0.984,0.391C150.291,75.121,150.047,75.972,150.047,76.992z"
			/>
		<path fill="#FFFFFF" d="M160.737,72.337h0.383c0.346,0.191,0.516,0.555,0.516,1.088v0.123c0,0.445-0.084,0.896-0.252,1.348
			c0,1.012,0.51,2.588,1.527,4.729c-0.055,0.174-0.156,0.303-0.311,0.385h-0.322c-0.607-0.298-1.164-1.148-1.66-2.559l-0.066-0.321
			h-0.125c-0.482,1.065-1.189,1.834-2.111,2.306l-0.896,0.252h-0.645c-0.895-0.184-1.34-0.842-1.34-1.981
			c0-2.354,1.129-4.04,3.391-5.052l0.957-0.062h0.451C160.408,72.421,160.578,72.337,160.737,72.337z M156.459,77.642
			c0,0.685,0.189,1.024,0.572,1.024c1.148,0,2.191-1.087,3.131-3.261l-0.062-0.834l0.062-0.896l-0.189-0.131h-0.383
			c-1.178,0-2.113,0.788-2.814,2.365C156.565,76.468,156.459,77.045,156.459,77.642z"/>
		<path fill="#FFFFFF" d="M168.701,68.297l0.396,0.261l-0.066,1.312v0.268c0,1.719,0.438,4.23,1.312,7.541
			c0.566,0.875,0.854,1.422,0.854,1.641v0.191l-0.26,0.266h-0.139c-1.006,0-1.793-1.094-2.357-3.28h-0.129
			c-0.795,2.274-1.822,3.411-3.084,3.411c-0.816,0-1.297-0.566-1.441-1.702v-0.267c0-1.736,0.984-3.092,2.953-4.067l0.588-0.062
			h0.262l0.328,0.062l-0.062-0.458v-0.588c0-2.932,0.195-4.396,0.588-4.396L168.701,68.297z M164.903,77.806
			c0.086,0.568,0.195,0.854,0.328,0.854c0.564,0,1.418-0.81,2.557-2.427l0.328-1.184c0-0.072-0.15-0.203-0.457-0.391h-0.26
			c-0.867,0-1.676,0.811-2.428,2.427L164.903,77.806z"/>
		<path fill="#FFFFFF" d="M172.614,67.306c0.215,0,0.43,1.197,0.645,3.596c0.604,2.084,0.9,3.262,0.9,3.535
			c0.906-1.373,1.766-2.06,2.57-2.06h0.703c0.68,0,1.195,0.517,1.547,1.546v0.703c0,1.495-0.857,2.975-2.57,4.438
			c-0.521,0.302-0.969,0.451-1.348,0.451h-0.197l-0.062-0.067h-0.062c-0.07,0.196-0.201,0.347-0.389,0.45h-0.451
			c-0.342,0-0.514-1.026-0.514-3.082c0-0.319-0.32-2.229-0.963-5.723c-0.127-0.496-0.191-1.203-0.191-2.119V68.46
			C172.231,67.95,172.358,67.565,172.614,67.306z M174.737,77.841v0.77h0.254c0.615,0,1.432-0.94,2.439-2.822
			c0.242-0.471,0.373-0.939,0.391-1.415c-0.025-0.603-0.242-0.901-0.643-0.901h-0.199c-0.578,0-1.154,0.492-1.729,1.478
			C174.908,75.654,174.737,76.618,174.737,77.841z"/>
		<path fill="#FFFFFF" d="M183.364,73.069c0.775,0.137,1.352,0.383,1.727,0.738c0.455,0.592,0.684,1.293,0.684,2.104
			c0,1.354-0.639,2.449-1.914,3.288c-0.574,0.296-1.061,0.444-1.471,0.444c-0.492,0-0.984-0.196-1.479-0.588
			c-0.424-0.431-0.637-0.953-0.637-1.572v-0.438c0-1.032,0.361-2.083,1.08-3.146c0-0.368,0.328-0.614,0.984-0.737L183.364,73.069z
			 M181.26,76.992c0,0.752,0.262,1.243,0.777,1.478l0.352,0.049h0.096c1.053,0,1.805-0.722,2.256-2.16l0.049-0.541
			c0-0.771-0.324-1.311-0.979-1.619l-0.834-0.145c-0.523,0-0.852,0.131-0.984,0.391C181.504,75.121,181.26,75.972,181.26,76.992z"/>
		<path fill="#FFFFFF" d="M190.209,73.069c0.773,0.137,1.35,0.383,1.723,0.738c0.455,0.592,0.684,1.293,0.684,2.104
			c0,1.354-0.639,2.449-1.914,3.288c-0.572,0.296-1.062,0.444-1.469,0.444c-0.492,0-0.982-0.196-1.479-0.588
			c-0.426-0.431-0.637-0.953-0.637-1.572v-0.438c0-1.032,0.359-2.083,1.08-3.146c0-0.368,0.328-0.614,0.982-0.737L190.209,73.069z
			 M188.104,76.992c0,0.752,0.26,1.243,0.779,1.478l0.35,0.049h0.096c1.055,0,1.807-0.722,2.258-2.16l0.047-0.541
			c0-0.771-0.326-1.311-0.979-1.619l-0.834-0.145c-0.523,0-0.854,0.131-0.982,0.391C188.348,75.121,188.104,75.972,188.104,76.992z"
			/>
		<path fill="#FFFFFF" d="M194.918,69.377c0.225,0.041,0.336,0.099,0.336,0.173v0.088c-0.135,0.457-0.23,1.965-0.287,4.524v0.041
			h0.047c1.26-1.663,2.031-2.495,2.316-2.495l0.287-0.041l0.049,0.041v0.041c0,0.292-0.271,0.743-0.82,1.354
			c-1.029,1.332-1.545,2.095-1.545,2.291c0.17,0.511,0.91,1.101,2.223,1.771c0.396,0.364,0.83,0.62,1.299,0.767
			c0.098,0.104,0.146,0.203,0.146,0.295c0,0.228-0.129,0.342-0.383,0.342h-0.051l-1.928-0.637c-0.547-0.281-1.062-0.637-1.545-1.061
			v0.089c0,0.636,0.162,1.324,0.484,2.071c-0.076,0.169-0.189,0.253-0.344,0.253c-0.473-0.255-0.875-0.989-1.201-2.201l-0.145-1.858
			C193.86,71.522,194.213,69.573,194.918,69.377z"/>
	</g>
	<g>
		<path fill="#ED8727" d="M47.909,101.852V0H0.001v125.076L47.909,101.852z M40.414,95.85h0.868l1.227,3.006V95.85h0.844v5.26
			h-0.762l-1.332-3.276v3.229h-0.845V95.85z M36.105,98.465c0-1.826,0.545-2.709,1.664-2.709c1.665,0,1.665,1.961,1.665,2.701v0.057
			c0.001,0.527,0.003,1.627-0.604,2.234c-0.27,0.271-0.628,0.41-1.062,0.41c-0.709,0-1.217-0.385-1.467-1.115
			C36.105,99.473,36.105,98.818,36.105,98.465 M32.824,95.85h2.164v0.762h-0.663v3.689h0.663v0.762h-2.164v-0.762h0.657v-3.689
			h-0.657V95.85z M32.385,88.623h0.843v4.451h2.114v0.761h-2.957V88.623z M32.261,81.394h0.869l1.226,3.008v-3.008h0.843v5.263
			h-0.762l-1.332-3.279v3.23h-0.844V81.394z M31.749,93.835h-0.903l-0.437-1.437h-1.232l-0.437,1.437h-0.9l1.695-5.212h0.51
			L31.749,93.835z M30.725,86.621l-0.435-1.438h-1.234l-0.436,1.438h-0.902l1.697-5.213h0.51l1.703,5.213H30.725z M28.049,95.85
			h3.593v0.762h-1.389v4.451h-0.845v-4.451h-1.359V95.85z M24.028,101.061l1.697-5.211h0.509l1.705,5.211h-0.904l-0.434-1.438
			h-1.235l-0.435,1.438H24.028z M19.678,88.623h0.843v3.766c0,0.727,0.521,0.78,0.68,0.78c0.446,0,0.672-0.284,0.672-0.841v-3.705
			h0.846v3.766c0,1.012-0.765,1.543-1.518,1.543c-0.734,0-1.521-0.479-1.521-1.812L19.678,88.623L19.678,88.623z M16.222,95.85
			h0.869l1.225,3.006V95.85h0.842v5.26h-0.76l-1.332-3.276v3.229h-0.844V95.85z M18.618,86.294
			c-0.271,0.272-0.629,0.409-1.062,0.409c-0.71,0-1.218-0.385-1.47-1.112c-0.195-0.57-0.195-1.227-0.195-1.578
			c0-1.828,0.545-2.711,1.665-2.711c1.664,0,1.664,1.963,1.664,2.7v0.058C19.22,84.588,19.222,85.687,18.618,86.294 M15.342,88.623
			h3.594v0.762h-1.389v4.45h-0.845v-4.45h-1.36V88.623z M14.302,84.349l1.382,2.259h-1.011l-1.187-2.029
			c-0.085,0.002-0.171,0.004-0.255,0.004c-0.072,0.002-0.143,0.003-0.215,0.004v2.021h-0.843v-5.214h1.434
			c1.454,0,1.497,1.394,1.497,1.551C15.107,83.543,14.85,83.992,14.302,84.349 M15.148,93.835H12.19v-5.212h0.844v4.451h2.114
			V93.835z M12.054,95.85h0.845v3.767c0,0.726,0.521,0.778,0.677,0.778c0.448,0,0.675-0.28,0.675-0.84V95.85h0.845v3.767
			c0,1.012-0.765,1.543-1.52,1.543c-0.732,0-1.521-0.479-1.521-1.813L12.054,95.85L12.054,95.85z M7.759,98.465
			c0-1.826,0.546-2.709,1.665-2.709c1.664,0,1.664,1.961,1.664,2.701v0.057c0.001,0.527,0.004,1.627-0.604,2.234
			c-0.271,0.271-0.628,0.41-1.062,0.41c-0.71,0-1.221-0.385-1.471-1.115C7.759,99.473,7.759,98.818,7.759,98.465 M10.096,85.099
			v-3.705h0.841v3.767c0,1.014-0.761,1.543-1.514,1.543c-0.736,0-1.521-0.477-1.521-1.812v-3.496h0.842v3.766
			c0,0.727,0.521,0.781,0.682,0.781C9.868,85.942,10.096,85.658,10.096,85.099 M10.937,88.623v3.766
			c0,1.012-0.761,1.543-1.514,1.543c-0.736,0-1.521-0.479-1.521-1.812v-3.494h0.842v3.768c0,0.725,0.521,0.778,0.682,0.778
			c0.443,0,0.673-0.282,0.673-0.841v-3.705L10.937,88.623L10.937,88.623z M4.187,95.85h2.951v0.762H5.031v1.357h1.578v0.764H5.031
			v2.33H4.187V95.85z M3.755,91.256c0-2.254,0.96-2.729,1.765-2.729c0.763,0,1.35,0.551,1.394,1.31l0.013,0.179H6.073L6.069,89.85
			c-0.004-0.324-0.23-0.561-0.543-0.561c-0.626,0-0.93,0.648-0.93,1.98c0,1.275,0.288,1.897,0.881,1.897
			c0.392,0,0.648-0.271,0.652-0.694l0.004-0.164h0.853l-0.013,0.178c-0.062,0.904-0.627,1.445-1.516,1.445
			C4.681,93.932,3.755,93.467,3.755,91.256 M4.099,81.394h2.869v0.764H4.943v1.398h1.456v0.762H4.943v1.529h2.072v0.761H4.099
			V81.394z M22.946,69.013H7.097c-1.499,0-2.723-1.193-2.723-2.66V51.094c0-1.463,1.214-2.654,2.702-2.654h15.867v5.741h-5.09
			c-0.517,0-0.938,0.42-0.938,0.936c0,0.512,0.423,0.929,0.938,0.929h5.09v5.736h-5.068c-0.52,0-0.938,0.416-0.938,0.926
			c0,0.512,0.421,0.93,0.938,0.93h5.068L22.946,69.013L22.946,69.013z M23.096,83.054c0,1.039-0.655,1.637-1.801,1.637h-0.261v1.917
			h-0.844v-5.212h1.34C22.511,81.394,23.096,82.015,23.096,83.054 M23.414,98.457c0,1.824-0.542,2.605-1.812,2.605h-1.333V95.85
			h1.407C22.862,95.85,23.414,96.678,23.414,98.457 M23.954,88.623h1.436c1.453,0,1.496,1.391,1.496,1.551
			c0,0.596-0.257,1.047-0.807,1.404l1.386,2.257h-1.014l-1.184-2.028c-0.087,0-0.173,0.002-0.257,0.004
			c-0.072,0-0.145,0.002-0.214,0.004v2.021h-0.845L23.954,88.623L23.954,88.623z M24.295,81.394h2.866v0.764h-2.024v1.398h1.455
			v0.762h-1.455v1.529h2.072v0.761h-2.914V81.394z M43.4,51.52c0,1.469-1.229,2.662-2.74,2.662H27.518
			c-1.495,0-2.708-1.195-2.708-2.665V36.289c0-1.461,1.217-2.648,2.715-2.648h13.154c1.501,0,2.721,1.194,2.721,2.66v6.551h-5.088
			c-0.518,0-0.938,0.416-0.938,0.926c0,0.512,0.422,0.928,0.938,0.928H43.4V51.52z M43.4,69.013h-5.041
			c-0.508,0-0.928,0.407-0.938,0.912v6.648l-9.903-0.032c-1.495,0-2.708-1.19-2.708-2.653V58.689c0-1.457,1.213-2.643,2.707-2.643
			h13.197c1.479,0,2.686,1.188,2.686,2.648v3.088h-5.057c-0.521,0-0.939,0.416-0.939,0.928s0.421,0.928,0.939,0.928H43.4V69.013z
			 M25.131,89.385h-0.333v1.664h0.312c0.618,0,0.932-0.306,0.932-0.902C26.041,89.641,25.9,89.385,25.131,89.385 M22.571,98.457
			c0-1.846-0.518-1.846-1.018-1.846h-0.442v3.689h0.454C22.083,100.301,22.571,100.301,22.571,98.457 M22.254,83.06
			c0-0.633-0.235-0.902-0.788-0.902h-0.431v1.771h0.396C21.962,83.929,22.254,83.621,22.254,83.06 M8.986,96.693
			c-0.268,0.271-0.396,0.842-0.384,1.693v0.109c0,0.398-0.001,1.338,0.384,1.725c0.115,0.116,0.259,0.174,0.438,0.174
			c0.224,0,0.82,0,0.82-1.938v-0.078c0.002-0.354,0.012-1.297-0.379-1.687c-0.115-0.117-0.263-0.178-0.441-0.178
			C9.246,96.516,9.103,96.575,8.986,96.693 M14.262,82.92c0-0.506-0.142-0.763-0.909-0.763h-0.334v1.665h0.314
			C13.95,83.822,14.262,83.517,14.262,82.92 M18.377,84.002l0.001-0.077c0.002-0.355,0.009-1.295-0.381-1.687
			c-0.116-0.118-0.263-0.177-0.441-0.177c-0.177,0-0.319,0.06-0.438,0.179c-0.267,0.272-0.396,0.842-0.384,1.694v0.109
			c0,0.4-0.002,1.338,0.384,1.725c0.118,0.115,0.261,0.174,0.438,0.174C17.779,85.942,18.377,85.942,18.377,84.002 M25.981,97.617
			l-0.391,1.247h0.784L25.981,97.617z M29.281,84.423h0.783l-0.394-1.246L29.281,84.423z M29.402,91.639h0.784l-0.396-1.248
			L29.402,91.639z M37.331,96.693c-0.268,0.271-0.396,0.842-0.385,1.693l0.001,0.109c-0.001,0.398-0.001,1.338,0.384,1.725
			c0.117,0.116,0.262,0.174,0.438,0.174c0.225,0,0.822,0,0.822-1.938v-0.078c0.003-0.354,0.01-1.297-0.377-1.687
			c-0.119-0.117-0.266-0.178-0.445-0.178C37.593,96.516,37.448,96.575,37.331,96.693"/>
	</g>
</g>
</svg>
