<?xml version="1.0" encoding="utf-8"?>
<!DOCTYPE svg PUBLIC "-//W3C//DTD SVG 1.1//EN" "http://www.w3.org/Graphics/SVG/1.1/DTD/svg11.dtd">
<svg version="1.1" id="Capa_1" xmlns="http://www.w3.org/2000/svg" xmlns:xlink="http://www.w3.org/1999/xlink" x="0px" y="0px"
	 width="491.349px" height="337.701px" viewBox="0 0 491.349 337.701" enable-background="new 0 0 491.349 337.701"
	 xml:space="preserve">
<g>
	<polygon fill="#EC8139" points="491.349,133.652 0,133.652 0,252 0,256.081 0,337.701 462.781,337.701 462.781,256.081
		491.349,256.081 	"/>
	<g>
		<path fill="#FFFFFF" d="M11.352,142.966h12.422v104.75H11.352V142.966z M49.516,184.417l18.705-36.506v24.086l-15.866,29.031
			H45.62l-15.856-29.031v-24.086L49.516,184.417z M86.621,247.716H74.2v-104.75h12.421V247.716z"/>
		<path fill="#FFFFFF" d="M118.194,142.966h15.853v12.873H123.43l-8.535,8.535v61.348l9.133,9.121h10.02v12.873h-15.109
			l-16.903-16.902v-71.676L118.194,142.966z M140.04,155.839v-12.873h14.211l16.159,16.172v71.676l-16.902,16.902H140.04v-12.873
			h8.38l9.118-9.121v-61.348l-8.521-8.535H140.04z"/>
		<path fill="#FFFFFF" d="M220.994,247.716h-13.47l-27.235-104.75h13.03L220.994,247.716z M225.473,241.578l-5.672-21.846
			l19.752-76.766h12.262L225.473,241.578z"/>
		<path fill="#FFFFFF" d="M277.396,247.716h-13.015v-104.75h13.015V247.716z"/>
		<path fill="#FFFFFF" d="M295.492,142.966h11.377v104.75h-11.377V142.966z M312.859,144.476l33.206,65.83v27.689l-33.206-65.242
			V144.476z M363.43,247.716h-11.371v-104.75h11.371V247.716z"/>
		<path fill="#FFFFFF" d="M396.49,142.966h13.773v12.873h-8.829l-9.584,9.582v59.4l10.034,10.021h8.379v12.873h-12.871
			l-18.398-18.414v-68.824L396.49,142.966z M447.368,176.332h-12.873v-12.857l-7.477-7.635h-10.775v-12.873h16.315l14.81,14.82
			V176.332z M416.243,247.716v-12.873h7.187l11.065-11.068V201.32h-18.252v-9.119h31.125v55.516h-12.421V235.89l-11.826,11.826
			H416.243z"/>
	</g>
	<path fill="#FFFFFF" d="M20.067,266.437h7.889v7.15h-5.098l-5.259,5.266v32.551l5.506,5.5h4.851v7.078h-7.399l-10.029-10.035
		v-37.889L20.067,266.437z M47.356,285.675h-7.152v-7.973l-4.108-4.115h-4.85v-7.15h7.975l8.136,8.135V285.675z M31.246,323.982
		v-7.078h4.604l4.354-4.348v-9.125h7.152v12.002l-8.631,8.549H31.246z"/>
	<path fill="#FFFFFF" d="M63.965,266.437h8.71v7.064h-5.833l-4.688,4.689v33.703l5.017,5.01h5.505v7.078h-8.301l-9.285-9.293
		v-39.375L63.965,266.437z M75.969,273.501v-7.064h7.805l8.877,8.877v39.375l-9.285,9.293h-7.396v-7.078h4.6l5.011-5.01v-33.703
		l-4.683-4.689H75.969z"/>
	<path fill="#FFFFFF" d="M101.119,266.437h6.824v57.545h-6.824V266.437z M122.084,289.208l10.275-20.057v13.232l-8.717,15.949
		h-3.699l-8.71-15.949v-13.232L122.084,289.208z M142.469,323.982h-6.823v-57.545h6.823V323.982z"/>
	<path fill="#FFFFFF" d="M151.673,266.437h6.822v57.545h-6.822V266.437z M172.639,289.208l10.273-20.057v13.232l-8.717,15.949
		h-3.699l-8.708-15.949v-13.232L172.639,289.208z M193.021,323.982h-6.824v-57.545h6.824V323.982z"/>
	<path fill="#FFFFFF" d="M214.308,316.904h4.361v7.078h-7.646l-8.797-8.805v-48.74h7.068v45.457L214.308,316.904z M238.149,315.177
		l-8.798,8.805h-7.397v-7.078h4.272l5.018-5.01v-45.457h6.905V315.177z"/>
	<path fill="#FFFFFF" d="M247.354,266.437h6.248v57.545h-6.248V266.437z M256.894,267.259l18.243,36.172v15.207l-18.243-35.844
		V267.259z M284.675,323.982h-6.247v-57.545h6.247V323.982z"/>
	<path fill="#FFFFFF" d="M301.854,323.982h-7.151v-57.545h7.151V323.982z"/>
	<path fill="#FFFFFF" d="M347.31,273.181h-39.046v-6.744h39.046V273.181z M324.209,323.982v-47.518h7.153v47.518H324.209z"/>
	<path fill="#FFFFFF" d="M360.789,323.982h-7.15v-57.545h7.15V323.982z"/>
	<path fill="#FFFFFF" d="M370.73,266.437h7.15v57.545h-7.15V266.437z M405.175,273.501h-24.002v-7.064h24.002V273.501z
		 M381.173,296.847v-6.246h16.356v6.246H381.173z M381.173,323.982v-7.078h24.163v7.078H381.173z"/>
	<path fill="#FFFFFF" d="M420.379,266.437h8.633v7.064h-5.507l-4.194,4.201v10.189l3.124,2.963h6.577v6.656h-10.11l-6.655-6.576
		v-16.363L420.379,266.437z M423.752,316.904h5.26v7.078h-8.223l-8.543-8.549v-10.529h7.064v7.564L423.752,316.904z
		 M448.162,274.572v8.141h-7.064v-5.01l-4.195-4.201h-4.6v-7.064h7.805L448.162,274.572z M432.303,297.511v-6.656h9.859l6.575,6.41
		v18.168l-8.549,8.549h-7.886v-7.078h4.928l4.356-4.436v-11.912l-2.958-3.045H432.303z"/>
	<g>
		<path fill="#FFFFFF" d="M22.335,37.054h14.798v9.745h-9.625l-4.451,4.331v17.925H12.709V46.438L22.335,37.054z M12.709,84.213
			V73.868h52.936l0.361,10.346H12.709z M25.342,0h11.791v10.347h-7.219l-6.016,6.136v7.458H13.432v-12.03L25.342,0z M65.645,37.054
			l-9.746,9.745H41.943v-9.745h8.783l4.572-4.451V16.482l-6.137-6.136h-7.219V0h11.791l11.91,11.911V37.054z"/>
		<path fill="#FFFFFF" d="M94.516,10.347l-6.857,6.857v21.174H77.312V12.993L90.304,0h28.995l12.992,12.993v25.384h-10.346V17.204
			l-6.857-6.857H94.516z M77.312,70.619V43.19h10.346v23.339l7.338,7.339h19.611l7.338-7.339V43.19h10.346v27.429l-13.594,13.594
			h-27.79L77.312,70.619z"/>
		<path fill="#FFFFFF" d="M165.375,73.868h8.783v10.346h-28.754V73.868h9.623V11.55l-8.301,5.173l-3.127-8.18L158.156,0h7.219
			V73.868z"/>
		<path fill="#FFFFFF" d="M224.324,9.625h-50.408V0h50.408V9.625z M213.137,17.805v-3.369h11.188v2.286l-27.43,67.491h-11.188
			L213.137,17.805z"/>
	</g>
	<g>
		<line fill="#FFFFFF" x1="10.896" y1="114.02" x2="448.393" y2="114.02"/>
		<rect x="10.896" y="108.734" fill="#FFFFFF" width="437.496" height="10.571"/>
	</g>
</g>
</svg>
