<?xml version="1.0" encoding="UTF-8"?>
<!-- Generator: Adobe Illustrator 16.0.0, SVG Export Plug-In . SVG Version: 6.00 Build 0)  -->
<!DOCTYPE svg PUBLIC "-//W3C//DTD SVG 1.1//EN" "http://www.w3.org/Graphics/SVG/1.1/DTD/svg11.dtd">
<svg version="1.1" id="Capa_1" xmlns="http://www.w3.org/2000/svg" xmlns:xlink="http://www.w3.org/1999/xlink" x="0px" y="0px" width="59px" height="42px" viewBox="0 0 59 42" enable-background="new 0 0 59 42" xml:space="preserve">
<circle cx="29.995" cy="20.82" r="8.832"/>
<g>
	<path fill="#FFFFFF" d="M49.547,20.926c-0.001-0.018-0.003-0.033-0.004-0.049c-0.001-0.009-0.001-0.018-0.003-0.025   c0-0.012-0.002-0.024-0.004-0.036c-0.002-0.014-0.003-0.027-0.007-0.041c0-0.002,0-0.004,0-0.006   c-0.049-0.31-0.194-0.601-0.42-0.824c-1.278-1.516-2.801-2.865-4.348-4.097c-3.332-2.655-7.144-4.877-11.352-5.771   c-2.432-0.516-4.878-0.539-7.322-0.102c-2.224,0.398-4.366,1.225-6.372,2.25c-3.139,1.604-6.006,3.815-8.504,6.294   c-0.462,0.459-0.922,0.927-1.343,1.426c-0.56,0.663-0.56,1.448,0,2.112c1.279,1.517,2.801,2.863,4.348,4.096   c3.333,2.656,7.145,4.878,11.352,5.771c2.431,0.516,4.878,0.539,7.324,0.102c2.224-0.397,4.365-1.225,6.371-2.25   c3.139-1.604,6.006-3.813,8.506-6.293c0.461-0.459,0.922-0.928,1.342-1.426c0.224-0.225,0.369-0.516,0.418-0.826   c0,0,0-0.003,0-0.004c0.004-0.015,0.007-0.028,0.008-0.042c0.001-0.012,0.003-0.023,0.005-0.036   c0.001-0.008,0.001-0.017,0.001-0.024c0.001-0.016,0.004-0.032,0.004-0.049c0.001-0.025,0.003-0.05,0.003-0.075   S49.548,20.95,49.547,20.926z M29.5,28.715c-4.261,0-7.715-3.454-7.715-7.715c0-4.26,3.454-7.715,7.715-7.715   c4.262,0,7.716,3.454,7.716,7.715S33.762,28.715,29.5,28.715z"/>
	<circle fill="#FFFFFF" cx="29.5" cy="21" r="2.553"/>
</g>
</svg>