<?xml version="1.0" encoding="UTF-8"?>
<!-- Generator: Adobe Illustrator 16.0.0, SVG Export Plug-In . SVG Version: 6.00 Build 0)  -->
<!DOCTYPE svg PUBLIC "-//W3C//DTD SVG 1.1//EN" "http://www.w3.org/Graphics/SVG/1.1/DTD/svg11.dtd">
<svg version="1.1" id="Capa_1" xmlns="http://www.w3.org/2000/svg" xmlns:xlink="http://www.w3.org/1999/xlink" x="0px" y="0px" width="46px" height="49px" viewBox="0 0 46 49" enable-background="new 0 0 46 49" xml:space="preserve">
<polyline fill="#FFFFFF" points="22.216,19.454 17.391,24.772 23.477,30.694 28.85,26.088 26.108,22.963 22.051,19.344 "/>
<polygon fill="#FFFFFF" points="26.236,29.418 28.948,38.057 38.592,40.668 36.181,31.326 28.848,29.418 27.04,28.111 "/>
<g>
	<path d="M7.783,16.739l8.628,8.646c0.012,0.014,0.016,0.031,0.028,0.043c0.013,0.014,0.029,0.018,0.042,0.029l6.498,6.511   c0,0,0,0,0.001,0.001l0,0c0.053,0.054,0.12,0.08,0.181,0.12c0.181,0.12,0.38,0.198,0.589,0.198c0.207,0,0.406-0.078,0.587-0.197   c0.061-0.04,0.127-0.066,0.181-0.119c0,0,0,0,0-0.002c0.001,0,0.001,0,0.002,0l1.417-1.418l2.399,7.721   c0.105,0.337,0.369,0.604,0.705,0.713l9.469,3.051c0.108,0.036,0.223,0.053,0.334,0.053c0.007,0,0.016,0,0.021,0   c0.602,0,1.087-0.486,1.087-1.088c0-0.191-0.048-0.373-0.137-0.529l-2.986-9.275c-0.107-0.332-0.368-0.594-0.701-0.7l-7.659-2.475   l1.435-1.435c0.048-0.048,0.069-0.107,0.105-0.16c0.046-0.066,0.103-0.127,0.133-0.199c0.021-0.053,0.019-0.107,0.031-0.162   c0.021-0.082,0.048-0.163,0.048-0.247c0-0.062-0.024-0.122-0.035-0.185c-0.014-0.075-0.015-0.152-0.044-0.225   c-0.009-0.023-0.03-0.041-0.042-0.064c-0.051-0.104-0.109-0.208-0.196-0.295L14.708,9.819c0,0,0,0-0.001,0c0,0,0,0,0,0   c-1.909-1.907-5.015-1.907-6.922,0c-0.925,0.924-1.435,2.154-1.435,3.461c0,1.306,0.509,2.533,1.431,3.458   C7.782,16.736,7.783,16.738,7.783,16.739z M36.415,37.01l-2.999-3.021c-0.424-0.429-1.114-0.432-1.539-0.008   c-0.426,0.424-0.429,1.112-0.007,1.539l3.051,3.074l-4.676-1.508l-2.143-6.898l6.825,2.205L36.415,37.01z M27.596,25.815   l-3.846,3.846l-4.996-5.009l3.845-3.845L27.596,25.815z M9.323,11.356c1.061-1.06,2.785-1.06,3.845,0l7.895,7.911l-3.846,3.845   l-7.893-7.911c-0.001,0-0.001,0-0.001,0c-0.513-0.514-0.796-1.197-0.796-1.923C8.527,12.552,8.811,11.869,9.323,11.356z"/>
</g>
</svg>