<?xml version="1.0" encoding="UTF-8" standalone="no"?>
<svg
   xmlns:dc="http://purl.org/dc/elements/1.1/"
   xmlns:cc="http://creativecommons.org/ns#"
   xmlns:rdf="http://www.w3.org/1999/02/22-rdf-syntax-ns#"
   xmlns:svg="http://www.w3.org/2000/svg"
   xmlns="http://www.w3.org/2000/svg"
   style="fill:#000000"
   height="15.054"
   width="29.999441"
   id="svg8"
   xml:space="preserve"
   enable-background="new 0 0 100 100"
   viewBox="0 0 29.999441 15.054"
   y="0px"
   x="0px"
   version="1.1"><metadata
     id="metadata14"><rdf:RDF><cc:Work
         rdf:about=""><dc:format>image/svg+xml</dc:format><dc:type
           rdf:resource="http://purl.org/dc/dcmitype/StillImage" /><dc:title></dc:title></cc:Work></rdf:RDF></metadata><defs
     id="defs12" /><polygon
     style="fill:none"
     transform="matrix(0.36187503,0,0,0.36187503,-3.1121256,-10.566752)"
     id="polygon2"
     points="51.6,39.9 48.4,39.9 47.8,49.4 52.2,49.4 " /><polygon
     style="fill:none"
     transform="matrix(0.36187503,0,0,0.36187503,-3.1121256,-10.566752)"
     id="polygon4"
     points="51.4,37.1 51.2,32.5 48.8,32.5 48.6,37.1 " /><path
     style="stroke-width:0.36187506"
     id="path6"
     d="m 15.343501,0 0.03619,0.6513742 H 14.583567 L 14.619758,0 H 10.675313 L 0,15.054 H 13.751251 L 14.07694,9.734438 h 1.845561 L 16.248189,15.054 H 29.99944 L 19.287939,0 Z m -0.796125,1.1941874 h 0.868501 l 0.108556,1.6646239 h -1.049439 z m -0.361874,6.1156873 0.217124,-3.4378121 h 1.158001 l 0.217124,3.4378121 z" /></svg>