<?xml version="1.0" encoding="utf-8"?>
<!-- Generator: Adobe Illustrator 16.0.0, SVG Export Plug-In . SVG Version: 6.00 Build 0)  -->
<!DOCTYPE svg PUBLIC "-//W3C//DTD SVG 1.1//EN" "http://www.w3.org/Graphics/SVG/1.1/DTD/svg11.dtd">
<svg version="1.1" xmlns="http://www.w3.org/2000/svg" xmlns:xlink="http://www.w3.org/1999/xlink" x="0px" y="0px" width="18.17px"
	 height="18.171px" viewBox="0 0 18.17 18.171" enable-background="new 0 0 18.17 18.171" xml:space="preserve">
<g id="Capa_1">
</g>
<g id="Capa_2">
</g>
<g id="Capa_3">
	<g>
		<g>
			<path d="M6.319,6.318C6.174,6.462,5.975,6.547,5.764,6.547H2.443c-0.433,0-0.783-0.35-0.783-0.782s0.35-0.781,0.783-0.781h1.431
				L0.229,1.337c-0.306-0.307-0.306-0.802,0-1.107c0.306-0.307,0.801-0.307,1.107,0l4.982,4.981c0.223,0.223,0.29,0.561,0.169,0.853
				C6.448,6.16,6.388,6.246,6.319,6.318z"/>
			<path d="M6.319,6.318C6.176,6.46,5.981,6.547,5.764,6.547c-0.432,0-0.782-0.35-0.782-0.782V2.443
				c0-0.433,0.351-0.783,0.782-0.783c0.433,0,0.783,0.351,0.783,0.783v3.321C6.547,5.981,6.459,6.176,6.319,6.318z"/>
		</g>
		<g>
			<path d="M17.94,17.94c-0.304,0.307-0.799,0.308-1.106,0l-4.981-4.981c-0.225-0.223-0.291-0.56-0.17-0.853
				c0.12-0.293,0.406-0.483,0.724-0.483h3.321c0.433,0,0.783,0.35,0.783,0.783s-0.35,0.784-0.783,0.784h-1.431l3.644,3.644
				C18.248,17.141,18.247,17.636,17.94,17.94z"/>
			<path d="M12.959,16.281c-0.141,0.141-0.337,0.229-0.553,0.229c-0.434,0-0.783-0.35-0.783-0.782v-3.321
				c0-0.434,0.35-0.783,0.783-0.783c0.433,0,0.783,0.35,0.783,0.783v3.321C13.19,15.943,13.102,16.139,12.959,16.281z"/>
		</g>
		<g>
			<path d="M17.94,1.337l-4.981,4.981c-0.223,0.223-0.561,0.291-0.853,0.17c-0.292-0.122-0.483-0.407-0.483-0.724V2.443
				c0-0.433,0.35-0.782,0.783-0.783c0.433,0,0.783,0.351,0.783,0.783v1.432l3.645-3.646c0.307-0.307,0.802-0.307,1.106,0
				C18.247,0.535,18.248,1.03,17.94,1.337z"/>
			<path d="M16.282,6.318c-0.143,0.142-0.338,0.229-0.554,0.229h-3.321c-0.434,0-0.783-0.35-0.783-0.782s0.35-0.781,0.783-0.781
				h3.321c0.433,0,0.783,0.349,0.783,0.781C16.51,5.981,16.422,6.176,16.282,6.318z"/>
		</g>
		<g>
			<path d="M6.319,16.281c-0.143,0.141-0.338,0.229-0.555,0.229c-0.432,0-0.782-0.35-0.782-0.782v-1.432L1.336,17.94
				c-0.306,0.307-0.801,0.307-1.107,0c-0.306-0.305-0.306-0.801,0-1.106l4.981-4.981c0.223-0.223,0.561-0.291,0.852-0.17
				c0.294,0.122,0.484,0.406,0.484,0.724v3.321C6.547,15.943,6.459,16.139,6.319,16.281z"/>
			<path d="M6.319,12.959c-0.143,0.143-0.338,0.231-0.555,0.231H2.443c-0.433,0-0.783-0.351-0.783-0.784s0.35-0.783,0.783-0.783
				h3.321c0.433,0,0.783,0.35,0.783,0.783C6.547,12.622,6.459,12.818,6.319,12.959z"/>
		</g>
		<circle cx="9.085" cy="9.085" r="2.255"/>
	</g>
</g>
<g id="Capa_4">
</g>
</svg>
