<svg height="55px" width="55px" fill="#000000" xmlns="http://www.w3.org/2000/svg" xmlns:xlink="http://www.w3.org/1999/xlink" version="1.0" x="0px" y="0px" viewBox="0 0 100 100" enable-background="new 0 0 100 100" xml:space="preserve"><g><g><path fill="#000000" d="M43.0161133,29.0908203c-0.5732422,0.5981445-0.5532227,1.5473633,0.0449219,2.1210938    l6.1171875,5.8642578c0.0064697,0.0062256,0.0151978,0.0078735,0.0217285,0.013916    c0.1325073,0.1228638,0.2854004,0.2234497,0.4557495,0.2922974c0.0125122,0.0050659,0.0250854,0.0070801,0.0376587,0.0117188    c0.163269,0.0610352,0.3378906,0.0988159,0.5223999,0.098938l0.0005493,0.0001221l0.0001831-0.000061    c0.0001221,0,0.0001831,0.000061,0.0001831,0.000061c0.1856079,0,0.361145-0.0380249,0.5250854-0.0995483    c0.0114136-0.0042725,0.0228882-0.0061035,0.0342407-0.0106201c0.1724243-0.069458,0.3273315-0.1710205,0.4610596-0.2957153    c0.005188-0.0048828,0.012146-0.0061646,0.017334-0.0111084l6.1176758-5.8642578    c0.5981445-0.5732422,0.6181641-1.5229492,0.0449219-2.1210938c-0.5737305-0.5981445-1.5229492-0.6176758-2.1210938-0.0449219    l-3.5791016,3.4308472V12.3320312c0-0.8286133-0.6713867-1.5-1.5-1.5s-1.5,0.6713867-1.5,1.5v20.1455078l-3.5795898-3.4316406    C44.5380859,28.4731445,43.590332,28.4926758,43.0161133,29.0908203z"/><path fill="#000000" d="M34.4981689,36.3129883l-4.9576416,0.1049805    c-0.828125,0.0175781-1.4853516,0.703125-1.4677734,1.53125c0.0170898,0.8173828,0.6850586,1.4682617,1.4990234,1.4682617    c0.0107422,0,0.0214844,0,0.0322266-0.0004883l8.472168-0.1791992c0.1791992-0.0037842,0.3485718-0.0431519,0.506897-0.1043701    c0.0118408-0.0045776,0.0237427-0.0066528,0.0355225-0.0115356c0.3658447-0.1519165,0.6572876-0.4432983,0.8093262-0.8091431    c0.0050049-0.0119629,0.007019-0.0241089,0.0117188-0.0361328c0.0610962-0.1582642,0.1005249-0.3275146,0.1043091-0.5065918    l0.1791992-8.472168c0.0175781-0.828125-0.6396484-1.5136719-1.4677734-1.53125    c-0.7998047-0.0092773-1.5136719,0.6401367-1.53125,1.4677734l-0.1049805,4.9574585L23.84375,21.4160156    c-0.5859375-0.5859375-1.5351562-0.5859375-2.1210938,0c-0.5859375,0.5854492-0.5859375,1.5351562,0,2.1210938    L34.4981689,36.3129883z"/><path fill="#000000" d="M29.0458984,54.862793c-0.5732422,0.5981445-0.5532227,1.5473633,0.0449219,2.1210938    c0.2910156,0.2783203,0.6645508,0.4169922,1.0380859,0.4169922c0.394043,0,0.7880859-0.1547852,1.0830078-0.4619141    l5.8642578-6.1171875c0.0062256-0.0064697,0.0078735-0.0151978,0.0139771-0.0217896    c0.1226807-0.1323242,0.2232056-0.2849731,0.2920532-0.4550171c0.0053711-0.0131836,0.0074463-0.0266113,0.0123901-0.039917    c0.0604858-0.1622314,0.0979004-0.3358154,0.0982666-0.519043c0-0.0009766,0.0003052-0.0018311,0.0003052-0.0028076l0,0    c0-0.1849976-0.0379639-0.3601074-0.0991821-0.5237427c-0.0043945-0.0119019-0.0062866-0.0238037-0.0110474-0.0356445    c-0.069397-0.1723633-0.1709595-0.3271484-0.2955933-0.4608154c-0.0048828-0.005249-0.0062256-0.012207-0.0111694-0.017395    l-5.8642578-6.1176758c-0.5742188-0.5981445-1.5234375-0.6176758-2.1210938-0.0449219    c-0.5981445,0.5732422-0.6181641,1.5229492-0.0449219,2.1210938l3.4308472,3.5791016H12.3320312    c-0.8286133,0-1.5,0.6713867-1.5,1.5s0.6713867,1.5,1.5,1.5h20.1455078L29.0458984,54.862793z"/><path fill="#000000" d="M36.4179688,70.4594727c0.0170898,0.8173828,0.6850586,1.4682617,1.4990234,1.4682617    c0.0107422,0,0.0214844,0,0.0322266-0.0004883c0.828125-0.0175781,1.4853516-0.703125,1.4677734-1.53125l-0.1791992-8.472168    c-0.0037842-0.1791992-0.0432129-0.3485718-0.1044312-0.506958c-0.0045166-0.0117798-0.0065308-0.0236206-0.0114136-0.0353394    c-0.1519775-0.3660889-0.4434814-0.6575928-0.8095093-0.8095703c-0.0117798-0.0048828-0.0236816-0.007019-0.0355225-0.0115356    c-0.1583252-0.0612183-0.3276978-0.1005859-0.506897-0.1043701l-8.472168-0.1791992    c-0.8017578-0.0185547-1.5141602,0.6396484-1.53125,1.4677734c-0.0175781,0.828125,0.6396484,1.5136719,1.4677734,1.53125    l4.9574585,0.1049805L21.4160156,76.15625c-0.5859375,0.5854492-0.5859375,1.5351562,0,2.1210938    c0.2929688,0.2929688,0.6767578,0.4394531,1.0605469,0.4394531s0.7675781-0.1464844,1.0605469-0.4394531l12.7758789-12.7755127    L36.4179688,70.4594727z"/><path fill="#000000" d="M56.9838867,70.9091797c0.5732422-0.5981445,0.5532227-1.5473633-0.0449219-2.1210938    l-6.1171875-5.8642578c-0.0064697-0.0061646-0.0151978-0.0078735-0.0217285-0.013916    c-0.1326294-0.1230469-0.2856445-0.2235107-0.4561157-0.2924194c-0.0120239-0.0048218-0.0241699-0.0067749-0.0362549-0.0112305    c-0.1638184-0.0614014-0.3391724-0.0994263-0.5244751-0.0994263c-0.1858521,0-0.3617554,0.0380859-0.526001,0.0998535    c-0.0109863,0.0040894-0.0219727,0.0059204-0.0328369,0.0102539c-0.1726074,0.069458-0.3276367,0.1710205-0.4614258,0.2957764    c-0.005188,0.0048218-0.012207,0.0061646-0.017334,0.0111084l-6.1176758,5.8642578    c-0.5981445,0.5732422-0.6181641,1.5229492-0.0449219,2.1210938c0.2949219,0.3071289,0.6884766,0.4619141,1.0830078,0.4619141    c0.3735352,0,0.7470703-0.1386719,1.0380859-0.4169922l3.5791016-3.4308472v20.1447144c0,0.8286133,0.6713867,1.5,1.5,1.5    s1.5-0.6713867,1.5-1.5V67.5224609l3.5795898,3.4316406C55.4604492,71.5258789,56.409668,71.5073242,56.9838867,70.9091797z"/><path fill="#000000" d="M65.5018311,63.6870117l4.9576416-0.1049805    c0.828125-0.0175781,1.4853516-0.703125,1.4677734-1.53125s-0.7036133-1.5-1.53125-1.4677734l-8.472168,0.1791992    c-0.1791992,0.0037842-0.3485718,0.0431519-0.506897,0.1043701c-0.0118408,0.0045166-0.0237427,0.0066528-0.0355225,0.0115356    c-0.3658447,0.1519165-0.6572876,0.4432983-0.8093262,0.8091431c-0.0050049,0.0119629-0.007019,0.0241089-0.0117188,0.0361328    c-0.0610962,0.1582642-0.1005249,0.3275146-0.1043091,0.5065918l-0.1791992,8.472168    c-0.0175781,0.828125,0.6396484,1.5136719,1.4677734,1.53125c0.0107422,0.0004883,0.0214844,0.0004883,0.0322266,0.0004883    c0.8139648,0,1.4819336-0.6508789,1.4990234-1.4682617l0.1049805-4.9574585L76.15625,78.5839844    c0.2929688,0.2929688,0.6767578,0.4394531,1.0605469,0.4394531s0.7675781-0.1464844,1.0605469-0.4394531    c0.5859375-0.5854492,0.5859375-1.5351562,0-2.1210938L65.5018311,63.6870117z"/><path fill="#000000" d="M87.6679688,48.7167969H67.5224609l3.4316406-3.5795898    c0.5732422-0.5981445,0.5532227-1.5473633-0.0449219-2.1210938c-0.5981445-0.5717773-1.5463867-0.5527344-2.1210938,0.0449219    l-5.8642578,6.1171875c-0.0062256,0.0064697-0.0078735,0.0151978-0.0139771,0.0217896    c-0.1228027,0.1323853-0.2232666,0.2850342-0.2921143,0.4552002c-0.005249,0.0129395-0.0072632,0.026123-0.012146,0.0392456    c-0.0606079,0.1623535-0.0980835,0.3361206-0.0984497,0.5195312c0,0.0009766-0.0003052,0.0018311-0.0003052,0.0028076l0,0    c0,0.1851807,0.0379639,0.3604736,0.0993042,0.524231c0.0043945,0.0116577,0.0062256,0.0233765,0.0108643,0.0349731    c0.069458,0.1724243,0.1710205,0.3273315,0.2957153,0.4610596c0.0048828,0.005188,0.0061646,0.012146,0.0111084,0.017334    l5.8642578,6.1176758c0.2949219,0.3071289,0.6884766,0.4619141,1.0830078,0.4619141    c0.3735352,0,0.7470703-0.1386719,1.0380859-0.4169922c0.5981445-0.5732422,0.6181641-1.5229492,0.0449219-2.1210938    l-3.4308472-3.5791016h20.1447144c0.8286133,0,1.5-0.6713867,1.5-1.5S88.496582,48.7167969,87.6679688,48.7167969z"/><path fill="#000000" d="M63.5820312,29.5405273c-0.0170898-0.828125-0.7182617-1.4907227-1.53125-1.4677734    c-0.828125,0.0175781-1.4853516,0.703125-1.4677734,1.53125l0.1791992,8.472168    c0.0037842,0.1791992,0.0432129,0.3485718,0.1044312,0.506958c0.0045166,0.0117798,0.0065308,0.0236206,0.0114136,0.0353394    c0.1519775,0.3660889,0.4434814,0.6575928,0.8095093,0.8095703c0.0117798,0.0048828,0.0236816,0.006958,0.0355225,0.0115356    c0.1583252,0.0612183,0.3276978,0.1005859,0.506897,0.1043701l8.472168,0.1791992    c0.0107422,0.0004883,0.0214844,0.0004883,0.0322266,0.0004883c0.8139648,0,1.4819336-0.6508789,1.4990234-1.4682617    c0.0175781-0.828125-0.6396484-1.5136719-1.4677734-1.53125l-4.9574585-0.1049805L78.5839844,23.84375    c0.5859375-0.5854492,0.5859375-1.5351562,0-2.1210938s-1.5351562-0.5859375-2.1210938,0L63.6870117,34.4981689    L63.5820312,29.5405273z"/><path fill="#000000" d="M68.6850586,23.5854492c-3.8808594-2.75-8.2163086-4.5727539-12.8857422-5.418457    l-0.5341797,2.9521484c4.2338867,0.7666016,8.1655273,2.4199219,11.6855469,4.9140625L68.6850586,23.5854492z"/><path fill="#000000" d="M45.0664062,21.0595703l-0.5009766-2.9580078    c-4.6918945,0.7939453-9.0639648,2.5810547-12.9951172,5.3115234l1.7109375,2.4638672    C36.8476562,23.4003906,40.8124924,21.7792969,45.0664062,21.0595703z"/><path fill="#000000" d="M55.2651367,78.8808594l0.5341797,2.9521484    c4.6611328-0.8442383,8.9956055-2.668457,12.8833008-5.4223633l-1.734375-2.4482422    C63.4213867,76.4609375,59.4907227,78.1157227,55.2651367,78.8808594z"/><path fill="#000000" d="M31.5664062,76.5927734c3.9130859,2.7177734,8.2871094,4.5009766,12.9995117,5.300293    l0.5019531-2.9580078c-4.2749023-0.7250977-8.2416992-2.3417969-11.7905273-4.8061523L31.5664062,76.5927734z"/><path fill="#000000" d="M26.0126953,66.9145508c-2.512207-3.5576172-4.1669922-7.5229492-4.918457-11.7856445    l-2.9541016,0.5205078c0.8286133,4.7016602,2.652832,9.0742188,5.4223557,12.9956055L26.0126953,66.9145508z"/><path fill="#000000" d="M26.0092773,33.0834961l-2.4501953-1.7314453    c-2.7548828,3.8994141-4.5756836,8.2729492-5.4111328,12.9990234l2.9541016,0.5224609    C21.8598633,40.5859375,23.5112305,36.6191406,26.0092773,33.0834961z"/><path fill="#000000" d="M74.1044922,66.7568359l2.4619141,1.7148438    c2.6987305-3.8745117,4.480957-8.2104492,5.2973633-12.8876953l-2.9550781-0.515625    C78.1679688,59.3115234,76.5512695,63.2441406,74.1044922,66.7568359z"/><path fill="#000000" d="M74.0986328,33.2470703c2.4624023,3.534668,4.0830078,7.465332,4.8173828,11.6826172    l2.9550781-0.5146484c-0.8095703-4.6518555-2.5966797-8.9863281-5.3105469-12.8828125L74.0986328,33.2470703z"/><circle fill="#000000" cx="50" cy="50" r="6"/></g></g></svg>
