<svg height='55px' width='55px'  fill="#000000" xmlns="http://www.w3.org/2000/svg" xmlns:xlink="http://www.w3.org/1999/xlink" version="1.1" x="0px" y="0px" viewBox="0 0 66 66" enable-background="new 0 0 66 66" xml:space="preserve"><g><path d="M5.8,38.8c1.6,0,3-0.8,3.8-1.9c0.9,2.6,3,4.3,5.4,4.8c2.1,0.4,6.9-0.1,9.2-0.7c0.1-0.5,0.3-1,0.5-1.5c-3,0.5-8.2,0.1-9-0.2   c-2-0.5-3.4-2.5-3.4-4.8c-0.2-6.8,7.3-5.3,7.5-5.3c4.7,0.4,7.7,2.2,10.6,4.2c-2.4,3.3-4.6,6.8-4.8,12.6c-0.3,4,0.6,7.9,4.1,9.8   c0.5,0.2,0.9,0.4,1.4,0.6c-1.1,0.9-1.8,2.2-1.8,3.7c0,2.7,2.2,4.8,4.8,4.8c2.7,0,4.8-2.2,4.8-4.8c0-1.6-0.8-3-1.9-3.8   c2.6-0.9,4.3-3,4.8-5.4c0.3-1.6,0.1-6.3-0.7-9.2c-0.4-0.1-0.8-0.2-1.5-0.5c0.5,3.1,0.1,8.3-0.2,9.1c-0.5,2-2.5,3.4-4.8,3.4   c-2.3,0.1-4.7-1.2-5.2-3.4c-0.3-1.1-0.2-2.9-0.1-4c0.5-4.8,2.2-7.8,4.2-10.6c3.7,2.7,7.9,5.1,15.5,4.8c1.4-0.2,1.6-0.1,2.9-0.6   c2.4-0.9,3.9-2.8,4.6-4.9c0.9,1.1,2.2,1.8,3.7,1.8c2.7,0,4.8-2.2,4.8-4.8s-2.2-4.8-4.8-4.8c-1.6,0-2.9,0.8-3.8,1.9   c-1.1-2.9-3.7-5.1-7.8-4.9c-2.3,0.1-4.6,0.3-6.9,1.1c-0.1,0.5-0.3,1-0.5,1.5c2.4-0.6,4.6-0.6,7.3-0.4c7.4,0.4,6.4,10.2,0.9,10.5   c-2.7-0.2-6.4,0.4-11.9-3.2c-0.6-0.4-1.1-0.7-1.6-1.1c2.7-3.7,5.1-7.9,4.7-16.2c-0.2-3.1-2.4-5.8-5.4-6.8c1.1-0.9,1.8-2.2,1.8-3.7   C36.8,3.2,34.7,1,32,1s-4.8,2.2-4.8,4.8c0,1.6,0.8,2.9,1.9,3.8c-3,1.1-5.1,3.8-4.9,7.8c0.1,2.2,0.3,4.6,1.1,6.8   c0.5,0.2,1,0.3,1.5,0.5c-0.6-2.4-0.6-4.8-0.4-7.3c0.2-3.4,2.2-5.1,4.8-5.3c2.7-0.3,5.5,1.5,5.7,4.4c0,0.1,0.1,0.9,0,2.7   c-0.4,4.8-2.2,8-4.2,10.9c-1.6-1.2-3.4-2.3-5.5-3.2c0,0,0,0-0.1,0c-5.3-2.1-13.9-3.1-16.8,2.6C9.9,30,9.7,30.5,9.6,31   c-0.9-1.1-2.2-1.8-3.7-1.8C3.2,29.2,1,31.3,1,34S3.2,38.8,5.8,38.8z"></path></g></svg>
