<svg height='55px' width='55px'  fill="#000000" xmlns="http://www.w3.org/2000/svg" xmlns:xlink="http://www.w3.org/1999/xlink" version="1.1" x="0px" y="0px" viewBox="0 0 100 100" enable-background="new 0 0 100 100" xml:space="preserve"><path d="M53.791,94.83h-4.863c-0.677,0-1.225-0.548-1.225-1.225l-0.039-25.339H44.6c-0.19,0-0.378-0.044-0.548-0.129l-18.629-9.312  c-0.418-0.209-0.681-0.639-0.677-1.106s0.273-0.893,0.695-1.094l18.844-9.021c0.165-0.079,0.347-0.12,0.529-0.12h2.889v-3.163  H18.996c-0.52,0-0.982-0.327-1.155-0.816s-0.019-1.035,0.386-1.361l10.024-8.095l-9.878-7.563c-0.417-0.319-0.584-0.868-0.415-1.366  c0.169-0.497,0.635-0.831,1.16-0.831h28.585v-6.53h-4.388c-0.677,0-1.225-0.548-1.225-1.225v-2.619c0-0.677,0.548-1.225,1.225-1.225  h1.021v-1.394c0-0.677,0.548-1.225,1.225-1.225h1.719c-0.101-0.368-0.153-0.749-0.153-1.121c0-2.12,1.711-3.78,3.895-3.78  s3.895,1.675,3.895,3.813c0,0.36-0.051,0.73-0.147,1.089h2.017c0.677,0,1.225,0.548,1.225,1.225v1.394h1.021  c0.677,0,1.225,0.548,1.225,1.225v2.619c0,0.677-0.548,1.225-1.225,1.225h-4.014v6.53h1.898c0.146,0,0.29,0.025,0.426,0.076  L81.43,33.3c0.483,0.179,0.803,0.642,0.799,1.157c-0.003,0.516-0.329,0.974-0.815,1.146l-24.387,8.648  c-0.131,0.047-0.27,0.07-0.409,0.07h-1.602v3.163h17.033c0.496,0,0.942,0.299,1.132,0.757s0.084,0.985-0.268,1.336l-8.48,8.45  l8.422,8.134c0.359,0.347,0.473,0.877,0.285,1.34s-0.637,0.766-1.136,0.766H55.016v25.339C55.016,94.282,54.468,94.83,53.791,94.83z   M50.152,92.381h2.414V68.267h-2.414V92.381z M44.889,65.817h24.083l-6.456-6.236c-0.424-0.411-0.656-0.953-0.658-1.527  c-0.005-0.581,0.228-1.149,0.639-1.556l6.588-6.564H45.093l-16.335,7.82L44.889,65.817z M50.152,47.484h2.414v-3.163h-2.414V47.484z   M22.463,41.872h33.943l21.006-7.449l-20.718-7.686H22.732l7.297,5.588c0.52,0.399,0.836,1.033,0.847,1.696  c0.01,0.665-0.283,1.285-0.803,1.705L22.463,41.872z M50.152,24.288h2.414v-6.53h-2.414V24.288z M53.791,15.309h4.014v-0.17h-0.102  c-1.202,0-2.144-0.933-2.144-2.123v-0.495h-8.774v0.495c0,1.171-0.977,2.123-2.177,2.123H44.54v0.17H53.791z M49.967,10.071h2.122  c0.136-0.141,0.377-0.563,0.377-1.089c0-0.777-0.621-1.363-1.445-1.363s-1.445,0.572-1.445,1.331  C49.575,9.456,49.81,9.909,49.967,10.071z"></path></svg>
