<svg height="55px" width="55px" fill="#000000" xmlns="http://www.w3.org/2000/svg" viewBox="0 0 100 100" x="0px" y="0px"><defs><style>.cls-1{fill:#000000;}</style></defs><title>Facilitated Partnership</title><path class="cls-1" d="M75.9,36A3.49,3.49,0,0,1,73,37.54a3.43,3.43,0,0,1-2-.62l-12.79-8.8v18h0V67.37a3.8,3.8,0,1,1-7.6,0v-21H49.23v21a3.8,3.8,0,1,1-7.59,0V46.16h0v-18l-12.78,8.8a3.5,3.5,0,1,1-4-5.77L39.65,21a3.49,3.49,0,0,1,2-.62H58.25a3.49,3.49,0,0,1,2,.62L75,31.15A3.49,3.49,0,0,1,75.9,36Zm-26-17a6.7,6.7,0,1,0-6.7-6.7A6.7,6.7,0,0,0,49.94,19.05Zm45.5,22.76-.11,27.57a1.52,1.52,0,0,1-1.49,1.5L81.5,71A18.75,18.75,0,0,1,62.81,88.63H60.52l3.06,3.18a1.5,1.5,0,1,1-2.16,2.08l-6.5-6.76,6.5-6.77a1.51,1.51,0,0,1,2.12,0,1.49,1.49,0,0,1,0,2.12l-3.06,3.19h2.29A15.75,15.75,0,0,0,78.5,71L66,71.09h0a1.5,1.5,0,0,1-1.06-.44,1.54,1.54,0,0,1-.44-1.07L64.56,42a1.49,1.49,0,0,1,1.49-1.49l27.88-.21a1.5,1.5,0,0,1,1.51,1.5Zm-3,1.51-24.88.19-.1,24.56,24.88-.18ZM45.2,87.13l-6.5,6.76a1.5,1.5,0,0,1-2.16-2.08l3.05-3.18H37.31A18.77,18.77,0,0,1,18.62,71.16l-12.46-.1a1.5,1.5,0,0,1-1.49-1.49L4.56,41.78A1.52,1.52,0,0,1,5,40.71a1.69,1.69,0,0,1,1.07-.44L34,40.49A1.49,1.49,0,0,1,35.44,42l.12,27.79a1.54,1.54,0,0,1-.44,1.07,1.49,1.49,0,0,1-1.06.43h0l-12.43-.09A15.77,15.77,0,0,0,37.31,85.63H39.6l-3.06-3.19a1.49,1.49,0,0,1,0-2.12,1.51,1.51,0,0,1,2.12,0ZM7.67,68.07l24.88.19-.1-24.78L7.56,43.29Z"/></svg>
