<svg height="55px" width="55px" fill="#000000" xmlns="http://www.w3.org/2000/svg" data-name="Ebene 1" viewBox="0 0 100 100" x="0px" y="0px"><title>future</title><g><path d="M75.09992,56.13672l-3.11914,3.11914L76.30891,63.584H36.6009c-9.22754,0-16.73535-7.79-16.73535-17.36621,0-9.57568,7.50781-17.36572,16.73535-17.36572s16.73535,7.79,16.73535,17.36572A17.81282,17.81282,0,0,1,49.69563,57l-.37891.49512,3.46094,3.84082.55664-.6211a21.65241,21.65241,0,0,0,5.44336-14.49707c0-12.21093-9.74121-21.77636-22.17676-21.77636S14.42414,34.00684,14.42414,46.21777c0,12.21192,9.74121,21.77735,22.17676,21.77735h39.709l-4.3291,4.3291,3.11914,3.11816L81.6341,68.9082l.002.002,3.11816-3.12207Z"/><polygon points="31.795 32.869 27.985 34.792 35.38 49.444 35.386 49.47 46.181 47.13 45.482 43.908 38.167 45.494 31.795 32.869"/></g></svg>
