<svg height="55px" width="55px" fill="#000000" xmlns="http://www.w3.org/2000/svg" xmlns:xlink="http://www.w3.org/1999/xlink" version="1.1" x="0px" y="0px" viewBox="0 0 100 100" style="enable-background:new 0 0 100 100;" xml:space="preserve"><style type="text/css">
	.st0{fill:none;stroke:#000000;stroke-width:2;stroke-linecap:round;stroke-linejoin:round;stroke-miterlimit:10;}
	.st1{fill:none;stroke:#000000;stroke-width:1.8;stroke-linecap:round;stroke-linejoin:round;stroke-miterlimit:10;}
	.st2{fill:none;stroke:#000000;stroke-width:2;stroke-linecap:round;stroke-linejoin:round;}
	.st3{fill:none;stroke:#000000;stroke-width:2;stroke-linecap:round;stroke-linejoin:round;stroke-dasharray:2.9177,3.8902;}
	.st4{fill:none;stroke:#000000;stroke-width:2;stroke-miterlimit:10;}
</style><path d="M41.372,64.236c0.348,0,0.68-0.203,0.827-0.543c0.197-0.457-0.013-0.986-0.469-1.184l-21.308-9.206  c-0.456-0.195-0.986,0.013-1.183,0.469c-0.197,0.457,0.013,0.986,0.469,1.184l21.308,9.206  C41.132,64.212,41.253,64.236,41.372,64.236z"/><path d="M80.805,24.167c-0.213-0.156-0.483-0.222-0.743-0.182L64.755,26.34c-0.585-1.575-1.781-2.92-3.442-3.638l-29.21-12.62  c-0.244-0.105-0.518-0.109-0.765-0.012c-0.247,0.098-0.444,0.29-0.549,0.533L10.082,58.535c-0.219,0.507,0.014,1.096,0.521,1.314  l29.21,12.619c0.255,0.11,0.515,0.197,0.777,0.272l2.525,16.411C43.192,89.646,43.618,90,44.103,90c0.051,0,0.102-0.004,0.153-0.012  l44.896-6.906c0.546-0.084,0.92-0.595,0.836-1.141l-8.786-57.12C81.162,24.56,81.019,24.324,80.805,24.167z M12.314,58.41  l19.913-46.096L60.52,24.538c2.215,0.957,3.239,3.538,2.282,5.754L46.36,68.352c-0.463,1.073-1.317,1.901-2.404,2.332  c-1.087,0.431-2.276,0.414-3.35-0.051L12.314,58.41z M42.649,72.966c0.692-0.034,1.382-0.16,2.044-0.423  c1.583-0.628,2.827-1.835,3.502-3.398l7.695-17.813c1.169,6.604,7.836,9.123,7.857,9.127c1.626,0.759,3.029,1.486,4.269,2.21  l-0.212,0.682c-0.197,0.627-0.417,1.247-0.653,1.842c-0.204,0.513,0.047,1.095,0.56,1.299c0.121,0.048,0.246,0.07,0.369,0.07  c0.398,0,0.774-0.238,0.93-0.631c0.254-0.64,0.491-1.307,0.703-1.98l0.058-0.187c1.056,0.71,1.975,1.429,2.785,2.182  c5.143,4.78,6.488,11.578,6.678,16.639l-34.293,5.275L42.649,72.966z M81.224,82.279c-0.237-5.42-1.745-12.63-7.306-17.798  c-2.213-2.058-5.089-3.857-9.403-5.867c-0.364-0.134-8.863-3.384-6.322-12.609l6.445-14.92c0.392-0.907,0.548-1.855,0.51-2.782  l14.229-2.188l8.482,55.144L81.224,82.279z"/><path d="M61.493,73.654c-0.673,0.641-1.392,1.25-2.136,1.811c-0.441,0.332-0.529,0.959-0.197,1.4c0.197,0.261,0.496,0.398,0.8,0.398  c0.209,0,0.42-0.065,0.601-0.201c0.806-0.607,1.583-1.266,2.312-1.959c0.4-0.381,0.416-1.014,0.035-1.414  C62.526,73.291,61.895,73.274,61.493,73.654z"/><path d="M77.366,36.091c-0.494-0.248-1.095-0.049-1.343,0.444c-0.477,0.948-0.906,1.821-1.294,2.629  c-0.239,0.498-0.029,1.095,0.469,1.334c0.14,0.067,0.287,0.099,0.432,0.099c0.373,0,0.73-0.209,0.902-0.567  c0.383-0.798,0.808-1.659,1.278-2.596C78.058,36.94,77.859,36.339,77.366,36.091z"/><path d="M66.889,68.192c-0.478-0.279-1.09-0.118-1.368,0.359c-0.471,0.806-0.992,1.588-1.55,2.324  c-0.333,0.44-0.247,1.067,0.193,1.4c0.181,0.137,0.393,0.203,0.603,0.203c0.303,0,0.602-0.137,0.798-0.396  c0.605-0.799,1.171-1.648,1.683-2.523C67.527,69.083,67.366,68.471,66.889,68.192z"/><path d="M74.413,42.208c-0.51-0.218-1.096,0.02-1.312,0.528c-0.432,1.014-0.785,1.921-1.081,2.771  c-0.181,0.521,0.095,1.092,0.617,1.272c0.108,0.038,0.219,0.056,0.328,0.056c0.414,0,0.801-0.259,0.945-0.672  c0.28-0.808,0.618-1.673,1.031-2.645C75.158,43.012,74.921,42.424,74.413,42.208z"/><path d="M50.112,79.914c-1.636,0.436-2.705,0.551-2.715,0.552c-0.548,0.059-0.948,0.55-0.891,1.099  c0.054,0.514,0.487,0.896,0.993,0.896c0.034,0,0.068-0.002,0.103-0.005c0.049-0.006,1.222-0.129,3.024-0.608  c0.534-0.143,0.851-0.69,0.709-1.224C51.194,80.09,50.649,79.775,50.112,79.914z"/><path d="M56.208,77.486c-0.811,0.441-1.666,0.851-2.54,1.216c-0.51,0.213-0.75,0.799-0.538,1.308  c0.16,0.384,0.532,0.615,0.923,0.615c0.128,0,0.259-0.024,0.385-0.077c0.938-0.392,1.855-0.831,2.726-1.306  c0.485-0.265,0.664-0.872,0.399-1.356C57.301,77.401,56.693,77.222,56.208,77.486z"/><path d="M72.148,48.589c-0.545-0.102-1.066,0.255-1.168,0.797c-0.131,0.693-0.236,1.376-0.348,2.11l-0.122,0.787  c-0.086,0.546,0.287,1.058,0.833,1.144c0.053,0.008,0.105,0.012,0.157,0.012c0.483,0,0.909-0.352,0.986-0.845l0.123-0.795  c0.109-0.711,0.209-1.371,0.336-2.042C73.048,49.214,72.691,48.691,72.148,48.589z"/><path d="M71.002,55.271c-0.541-0.117-1.073,0.221-1.192,0.761c-0.183,0.826-0.405,1.746-0.681,2.785  c-0.142,0.534,0.176,1.081,0.709,1.224c0.086,0.022,0.172,0.033,0.257,0.033c0.442,0,0.847-0.296,0.966-0.743  c0.285-1.07,0.513-2.016,0.701-2.867C71.882,55.924,71.542,55.39,71.002,55.271z"/><path d="M28.182,51.845l10.843,4.409c0.121,0.049,0.249,0.073,0.376,0.073c0.17,0,0.341-0.044,0.493-0.13  c0.266-0.15,0.448-0.415,0.495-0.717l0.448-2.896c3.191-0.811,5.793-3.063,7.044-6.139c1.355-3.334,0.886-7.092-1.205-9.979  c0.092-0.171,0.174-0.345,0.245-0.52c0.337-0.827,0.466-1.723,0.378-2.612l1.317-1.796c1.087,0.079,2.123-0.547,2.55-1.599  l0.333-0.818c0.208-0.511-0.038-1.095-0.55-1.303l-11.471-4.664c-0.245-0.1-0.521-0.098-0.765,0.006  c-0.245,0.103-0.438,0.299-0.538,0.545l-0.333,0.817c-0.259,0.636-0.254,1.335,0.013,1.969c0.158,0.375,0.397,0.7,0.698,0.957  l-0.309,2.205c-0.683,0.576-1.215,1.306-1.552,2.134c-0.071,0.175-0.133,0.356-0.187,0.543c-3.513,0.609-6.472,2.975-7.827,6.308  c-1.25,3.075-0.958,6.505,0.762,9.313l-1.699,2.386c-0.178,0.249-0.231,0.565-0.146,0.859  C27.683,51.491,27.898,51.729,28.182,51.845z M30.533,39.393c1.168-2.875,3.814-4.856,6.905-5.172  c0.456-0.047,0.822-0.397,0.888-0.852c0.043-0.301,0.115-0.571,0.22-0.828c0.25-0.613,0.67-1.145,1.215-1.534  c0.223-0.159,0.371-0.403,0.409-0.675l0.455-3.244c0.063-0.453-0.189-0.893-0.613-1.065c-0.142-0.057-0.252-0.167-0.312-0.308  c-0.044-0.104-0.056-0.217-0.036-0.325l9.596,3.901c-0.148,0.221-0.436,0.317-0.691,0.211c-0.425-0.175-0.912-0.035-1.183,0.335  l-1.938,2.642c-0.163,0.222-0.227,0.499-0.178,0.77c0.119,0.659,0.049,1.331-0.201,1.946c-0.104,0.256-0.242,0.5-0.42,0.747  c-0.27,0.37-0.252,0.877,0.042,1.229c1.994,2.383,2.506,5.648,1.338,8.522c-1.083,2.662-3.42,4.561-6.254,5.079  c-0.419,0.076-0.743,0.409-0.809,0.83l-0.36,2.323l-8.5-3.457l1.363-1.914c0.247-0.347,0.248-0.812,0.001-1.159  C29.801,45.045,29.451,42.054,30.533,39.393z"/></svg>
