<svg height='55px' width='55px'  fill="#000000" xmlns="http://www.w3.org/2000/svg" data-name="Layer 1" viewBox="0 0 64 64" x="0px" y="0px"><title>impact-influence-attraction-sway-spell-hypnotize</title><path d="M32,2A29.77944,29.77944,0,0,0,14.41309,7.69336L15.58691,9.3125A28.00993,28.00993,0,0,1,57.91553,42.62012l1.85058.75976A30.01685,30.01685,0,0,0,32,2Z"></path><path d="M32,62a30.02984,30.02984,0,0,0,14.4834-3.72168l-.9668-1.751A28.01834,28.01834,0,0,1,4.96533,24.68359l-1.93066-.52148A30.02384,30.02384,0,0,0,32,62Z"></path><path d="M32,12a20.003,20.003,0,0,0-8.42139,38.14551l.84278-1.81348a18,18,0,1,1,15.15722,0l.84278,1.81348A20.003,20.003,0,0,0,32,12Z"></path><path d="M10,21V15h2V9.32428a1.97352,1.97352,0,0,0-2-1.94592H8.98633a2.39169,2.39169,0,0,0,.91443-2.63843A2.43659,2.43659,0,0,0,8.17285,3.08539,2.49142,2.49142,0,0,0,5,5.43243,2.40139,2.40139,0,0,0,6.01367,7.37836H5A1.97352,1.97352,0,0,0,3,9.32428V15H5v6Z"></path><path d="M56.90076,45.46185a2.43659,2.43659,0,0,0-1.72791-1.65454A2.49142,2.49142,0,0,0,52,46.1543a2.4014,2.4014,0,0,0,1.01367,1.946H52a1.97353,1.97353,0,0,0-2,1.94592v5.67572h2v6h5v-6h2V50.0462a1.97353,1.97353,0,0,0-2-1.94592H55.98633A2.39169,2.39169,0,0,0,56.90076,45.46185Z"></path><rect x="60" y="2" width="2" height="2"></rect><rect x="57" y="5" width="2" height="2"></rect><rect x="5" y="57" width="2" height="2"></rect><rect x="2" y="60" width="2" height="2"></rect><path d="M41,38V28.49622A4.49619,4.49619,0,0,0,36.50378,24h-1.8833a4.00006,4.00006,0,1,0-5.241,0h-1.8833A4.49619,4.49619,0,0,0,23,28.49622V38h3V29.91418A3.414,3.414,0,0,1,27,27.5V52h4.5V38h1V52H37V27.5a6.25124,6.25124,0,0,1,1,3.41425V38Z"></path></svg>