<svg height="55px" width="55px" fill="#000000" xmlns="http://www.w3.org/2000/svg" xmlns:xlink="http://www.w3.org/1999/xlink" xml:space="preserve" version="1.1" style="shape-rendering:geometricPrecision;text-rendering:geometricPrecision;image-rendering:optimizeQuality;" viewBox="0 0 847 847" x="0px" y="0px" fill-rule="evenodd" clip-rule="evenodd"><defs><style type="text/css">

    .str0 {stroke:black;stroke-width:7.62}
    .fil0 {fill:#000000}

  </style></defs><g><g><path class="fil0 str0" d="M107 170l632 0c10,0 17,9 17,20l0 425c0,11 -7,20 -17,20l-255 0 -121 0 -256 0c-9,0 -17,-9 -17,-20l0 -425c0,-11 8,-20 17,-20zm19 43l594 0 0 378 -594 0 0 -378z"/><path class="fil0" d="M39 618l769 0c16,0 29,13 29,30l0 0c0,16 -13,29 -29,29l-769 0c-16,0 -30,-13 -30,-29l0 0c0,-17 14,-30 30,-30zm324 17l121 0c7,0 12,6 12,13l0 0c0,6 -5,12 -12,12l-121 0c-7,0 -12,-6 -12,-12l0 0c0,-7 5,-13 12,-13z"/></g></g></svg>
