<svg height='55px' width='55px'  fill="#000000" xmlns:dc="http://purl.org/dc/elements/1.1/" xmlns:cc="http://creativecommons.org/ns#" xmlns:rdf="http://www.w3.org/1999/02/22-rdf-syntax-ns#" xmlns:svg="http://www.w3.org/2000/svg" xmlns="http://www.w3.org/2000/svg" xmlns:sodipodi="http://sodipodi.sourceforge.net/DTD/sodipodi-0.dtd" xmlns:inkscape="http://www.inkscape.org/namespaces/inkscape" version="1.1" x="0px" y="0px" viewBox="0 0 100 100"><g transform="translate(0,-952.36218)"><path style="text-indent:0;text-transform:none;direction:ltr;block-progression:tb;baseline-shift:baseline;color:#000000;enable-background:accumulate;" d="m 9.6874324,966.4049 c -1.4638174,0.15333 -2.6953289,1.52714 -2.6874613,2.99799 l 0,32.94671 c 1.088e-4,1.5697 1.4291953,2.9979 2.9999568,2.9981 l 79.9988461,0 c 1.570762,-2e-4 2.999848,-1.4284 2.999957,-2.9981 l 0,-32.94671 c -1.61e-4,-1.5697 -1.429229,-2.99783 -2.999957,-2.99799 -26.763359,0 -53.57028,0 -80.3113416,0 z m 3.3124526,5.99599 73.998932,0 0,26.95077 -1.999971,0 0,-6.9641 c 0.0333,-1.60087 -1.429042,-3.07732 -3.031206,-3.06046 -1.581333,0.0163 -3.001574,1.48042 -2.968707,3.06046 l 0,6.9641 -1.999971,0 0,-13.95944 c 0.0333,-1.60086 -1.429043,-3.07732 -3.031207,-3.06045 -1.581333,0.0163 -3.001574,1.48041 -2.968707,3.06045 l 0,13.95944 -1.999971,0 0,-6.9641 c 0.0333,-1.60087 -1.429042,-3.07732 -3.031206,-3.06046 -1.581333,0.0163 -3.001574,1.48042 -2.968707,3.06046 l 0,6.9641 -1.999972,0 0,-13.95944 c 0.0333,-1.60086 -1.429042,-3.07732 -3.031206,-3.06045 -1.581333,0.0163 -3.001574,1.48041 -2.968707,3.06045 l 0,13.95944 -1.999971,0 0,-6.9641 c 0.0333,-1.60087 -1.429043,-3.07732 -3.031207,-3.06046 -1.581333,0.0163 -3.001574,1.48042 -2.968707,3.06046 l 0,6.9641 -1.999971,0 0,-13.95944 c 0.0333,-1.60086 -1.429042,-3.07732 -3.031206,-3.06045 -1.581333,0.0163 -3.001574,1.48041 -2.968707,3.06045 l 0,13.95944 -1.999971,0 0,-6.9641 c 0.0333,-1.60087 -1.429043,-3.07732 -3.031207,-3.06046 -1.581333,0.0163 -3.001574,1.48042 -2.968707,3.06046 l 0,6.9641 -1.999971,0 0,-13.95944 c 0.0333,-1.60086 -1.429042,-3.07732 -3.031206,-3.06045 -1.581333,0.0163 -3.001575,1.48041 -2.968708,3.06045 l 0,13.95944 -1.999971,0 0,-6.9641 c 0.0333,-1.60087 -1.429042,-3.07732 -3.031206,-3.06046 -1.581333,0.0163 -3.001574,1.48042 -2.968707,3.06046 l 0,6.9641 -1.999971,0 z m -5.0311778,35.91351 c -1.5813466,0.016 -3.001596,1.4804 -2.9687072,3.0605 l 0,15.9893 c -0.022422,1.5839 1.4148783,3.0407 2.9999565,3.0407 1.5850782,0 3.0223785,-1.4568 2.9999565,-3.0407 l 0,-15.9893 c 0.03333,-1.6009 -1.4290284,-3.0774 -3.0312058,-3.0605 z m 83.9987888,0 c -1.581347,0.016 -3.001596,1.4804 -2.968707,3.0605 l 0,15.9893 c -0.02242,1.5839 1.414878,3.0407 2.999957,3.0407 1.585078,0 3.022378,-1.4568 2.999956,-3.0407 l 0,-15.9893 c 0.03333,-1.6009 -1.429029,-3.0774 -3.031206,-3.0605 z m -67.342779,0.062 c -0.600761,0.078 -1.175755,0.3437 -1.624977,0.7499 l -8.99987,7.9948 c -1.251407,1.1206 -1.251407,3.3451 0,4.4657 l 8.99987,7.9946 c 0.855274,0.7642 2.167984,0.9705 3.216641,0.5055 1.048657,-0.465 1.776416,-1.5762 1.783287,-2.7227 l 0,-4.9966 43.999366,0 0,4.9966 c 0.0069,1.1465 0.73463,2.2577 1.783287,2.7227 1.048657,0.465 2.361367,0.2587 3.216641,-0.5055 l 8.99987,-7.9946 c 1.251407,-1.1206 1.251407,-3.3451 0,-4.4657 l -8.99987,-7.9948 c -0.599275,-0.5326 -1.418978,-0.8095 -2.218718,-0.7494 -1.496416,0.1095 -2.78506,1.4986 -2.78121,2.998 l 0,4.9966 -43.999366,0 0,-4.9966 c 0.01317,-1.7027 -1.684381,-3.2107 -3.374951,-2.998 z m -2.624962,9.6498 0,2.6545 -1.499979,-1.3117 z m 55.999192,0 1.499979,1.3428 -1.499979,1.3117 z" fill="#000000" fill-opacity="1" stroke="none" marker="none" visibility="visible" display="inline" overflow="visible"></path></g></svg>