<svg height="55px" width="55px" fill="#000000" xmlns="http://www.w3.org/2000/svg" viewBox="0 0 64 64" x="0px" y="0px"><g><path d="M61,10H58V7a1,1,0,0,0-1-1H53a1,1,0,0,0-1,1v3H12V7a1,1,0,0,0-1-1H7A1,1,0,0,0,6,7v3H3c-.015,0-.146.019-.2.03a.832.832,0,0,0-.139.035c-.015.005-.1.045-.127.06a1.065,1.065,0,0,0-.13.078,1.328,1.328,0,0,0-.2.2,2.9,2.9,0,0,0-.138.257,1.011,1.011,0,0,0-.036.144C2.019,10.856,2,10.984,2,11V23a1,1,0,0,0,1,1H6v4H3c-.015,0-.146.019-.2.029a.958.958,0,0,0-.14.036c-.015,0-.1.045-.127.06a1.065,1.065,0,0,0-.13.078,1.328,1.328,0,0,0-.2.2,1.065,1.065,0,0,0-.078.13c-.015.028-.055.112-.06.127a1.011,1.011,0,0,0-.036.144C2.019,28.856,2,28.984,2,29V41a1,1,0,0,0,1,1H6V52H3a1,1,0,0,0-1,1v4a1,1,0,0,0,1,1H15a1,1,0,0,0,1-1V53a1,1,0,0,0-1-1H12V42H52V52H49a1,1,0,0,0-1,1v4a1,1,0,0,0,1,1H61a1,1,0,0,0,1-1V53a1,1,0,0,0-1-1H58V42h3a.977.977,0,0,0,.345-.069c.013,0,.091-.041.119-.056a1.065,1.065,0,0,0,.13-.078,1.328,1.328,0,0,0,.2-.2,1.065,1.065,0,0,0,.078-.13c.015-.028.055-.112.06-.127a1.011,1.011,0,0,0,.036-.144c.01-.049.029-.177.029-.193V29a1,1,0,0,0-1-1H58V24h3a.977.977,0,0,0,.345-.069c.013,0,.091-.041.119-.056a1.065,1.065,0,0,0,.13-.078,1.328,1.328,0,0,0,.2-.2,2.268,2.268,0,0,0,.127-.211c.006-.015.037-.141.047-.19S62,23.016,62,23V11A1,1,0,0,0,61,10ZM54,8h2v2H54Zm6,4v8.586L51.414,12ZM40.586,12l10,10H42.414l-10-10ZM12,28V24H52v4ZM29.586,12l10,10H34.414l-10-10Zm-8,0,10,10H23.414l-10-10ZM8,8h2v2H8Zm2.586,4,10,10H15.414l-10-10ZM4,13.414,12.586,22H4ZM8,24h2v4H8Zm6,32H4V54H14Zm-4-4H8V42h2ZM4,40V31.414L12.586,40Zm11.414,0-10-10h5.172l10,10Zm8,0-10-10h8.172l10,10Zm11,0-10-10h5.172l10,10Zm8,0-10-10h8.172l10,10ZM60,56H50V54H60Zm-4-4H54V42h2ZM53.414,40l-10-10h5.172l10,10ZM60,38.586,51.414,30H60ZM56,28H54V24h2Zm-2.586-6-10-10h5.172l10,10Z"/></g></svg>
