<svg height="55px" width="55px" fill="#000000" xmlns="http://www.w3.org/2000/svg" xmlns:xlink="http://www.w3.org/1999/xlink" xmlns:serif="http://www.serif.com/" viewBox="0 0 16 16" version="1.1" xml:space="preserve" style="" x="0px" y="0px" fill-rule="evenodd" clip-rule="evenodd" stroke-linejoin="round" stroke-miterlimit="1.41421"><path d="M7.5,3.765c-0.608,-0.209 -1.051,-0.789 -1.051,-1.464c0,-0.85 0.701,-1.551 1.551,-1.551c0.85,0 1.551,0.701 1.551,1.551c0,0.675 -0.443,1.255 -1.051,1.464l0,2.286c0.76,0.149 1.403,0.631 1.771,1.287l2.172,-0.705c0.012,-0.643 0.428,-1.244 1.071,-1.453l0.002,0c0.808,-0.261 1.688,0.188 1.951,0.996c0.262,0.808 -0.186,1.69 -0.994,1.953c-0.643,0.208 -1.332,-0.033 -1.72,-0.546l-2.171,0.705c0.013,0.103 0.02,0.208 0.02,0.314c0,0.681 -0.266,1.304 -0.7,1.768l1.345,1.85c0.228,-0.07 0.469,-0.085 0.7,-0.048c0.451,0.097 0.782,0.301 1.012,0.617c0.499,0.688 0.344,1.666 -0.344,2.166c-0.688,0.499 -1.666,0.344 -2.166,-0.344c-0.396,-0.546 -0.38,-1.275 -0.012,-1.803l-1.343,-1.848c-0.332,0.156 -0.704,0.243 -1.094,0.243c-0.39,0 -0.762,-0.087 -1.094,-0.243l-1.343,1.848c0.368,0.528 0.384,1.257 -0.012,1.803c-0.5,0.688 -1.478,0.843 -2.166,0.344c-0.688,-0.5 -0.843,-1.478 -0.344,-2.166c0.25,-0.344 0.619,-0.555 1.012,-0.617c0.256,-0.027 0.488,-0.01 0.698,0.05l1.347,-1.852c-0.434,-0.464 -0.7,-1.087 -0.7,-1.768c0,-0.106 0.007,-0.211 0.02,-0.314l-2.171,-0.705c-0.388,0.513 -1.077,0.754 -1.72,0.546c-0.808,-0.263 -1.256,-1.145 -0.994,-1.953c0.263,-0.808 1.143,-1.257 1.951,-0.996l0.002,0c0.643,0.209 1.059,0.81 1.071,1.453l2.172,0.705c0.368,-0.656 1.012,-1.138 1.771,-1.287l0,-2.286Z" style="" fill="#000000"/></svg>
