<svg height='55px' width='55px'  fill="#000000" xmlns="http://www.w3.org/2000/svg" xmlns:xlink="http://www.w3.org/1999/xlink" version="1.1" x="0px" y="0px" viewBox="0 0 64 64" style="enable-background:new 0 0 64 64;" xml:space="preserve"><path style="" d="M40,3h1  c11.046,0,20,8.954,20,20v18c0,11.046-8.954,20-20,20H23C11.954,61,3,52.046,3,41V23C3,11.954,11.954,3,23,3h1" fill="none" stroke="#000000" stroke-width="2" stroke-linejoin="round" stroke-miterlimit="10"></path><path style="" d="M25,3h-1  C16.896,3,12.477,5.239,8.858,8.858L32,32L55.142,8.858C51.523,5.239,46.523,3,41,3h-1H25z" fill="none" stroke="#000000" stroke-width="2" stroke-linejoin="round" stroke-miterlimit="10"></path><path style="" d="M32,32L8.858,55.142  C12.477,58.761,17.477,61,23,61h18c5.523,0,10.523-2.239,14.142-5.858L32,32z" fill="none" stroke="#000000" stroke-width="2" stroke-linejoin="round" stroke-miterlimit="10"></path><rect x="27" y="57" style="" width="10" height="4" fill="none" stroke="#000000" stroke-width="2" stroke-linejoin="round" stroke-miterlimit="10"></rect><path style="" d="M27,57l-4.243-5.94  c-0.456-0.638-0.47-1.492-0.035-2.144l0,0c0.661-0.991,2.063-1.13,2.905-0.288L27,50v-3c0-2.209,1.791-4,4-4h3c2.209,0,4,1.791,4,4  v6l-1,4H27" fill="none" stroke="#000000" stroke-width="2" stroke-linejoin="round" stroke-miterlimit="10"></path><polyline style="" points="27,3 27,7 37,7   37,3 " fill="none" stroke="#000000" stroke-width="2" stroke-linejoin="round" stroke-miterlimit="10"></polyline><path style="" d="M27,7l-4.243,5.94  c-0.456,0.638-0.47,1.492-0.035,2.144l0,0c0.661,0.991,2.063,1.13,2.905,0.288L27,14v3c0,2.209,1.791,4,4,4h3c2.209,0,4-1.791,4-4  v-6l-1-4H27" fill="none" stroke="#000000" stroke-width="2" stroke-linejoin="round" stroke-miterlimit="10"></path><rect y="30" transform="matrix(-1.836970e-16 1 -1 -1.836970e-16 37 27)" style="" width="10" height="4" fill="none" stroke="#000000" stroke-width="2" stroke-linejoin="round" stroke-miterlimit="10"></rect><path style="" d="M7,27l5.94-4.243  c0.638-0.456,1.492-0.47,2.144-0.035l0,0c0.991,0.661,1.13,2.063,0.288,2.905L14,27h3c2.209,0,4,1.791,4,4v3c0,2.209-1.791,4-4,4h-6  l-4-1V27" fill="none" stroke="#000000" stroke-width="2" stroke-linejoin="round" stroke-miterlimit="10"></path><rect x="54" y="29" transform="matrix(-4.492958e-11 1 -1 -4.492958e-11 90 -28)" style="" width="10" height="4" fill="none" stroke="#000000" stroke-width="2" stroke-linejoin="round" stroke-miterlimit="10"></rect><path style="" d="M57,26l-5.94-4.243  c-0.638-0.456-1.492-0.47-2.144-0.035l0,0c-0.991,0.661-1.13,2.063-0.288,2.905L50,26h-3c-2.209,0-4,1.791-4,4v3  c0,2.209,1.791,4,4,4h6l4-1V26" fill="none" stroke="#000000" stroke-width="2" stroke-linejoin="round" stroke-miterlimit="10"></path></svg>