<svg height="55px" width="55px" fill="#000000" xmlns="http://www.w3.org/2000/svg" xmlns:xlink="http://www.w3.org/1999/xlink" viewBox="0 0 60 60" version="1.1" x="0px" y="0px"><title>047 - Planning </title><desc>Created with Sketch.</desc><g stroke="none" stroke-width="1" fill="none" fill-rule="evenodd"><g fill="#000000" fill-rule="nonzero"><path d="M55,10 L53,10 C52.4477153,10 52,10.4477153 52,11 L52,18 L41,18 C40.4477153,18 40,18.4477153 40,19 C40,19.5522847 40.4477153,20 41,20 L52,20 L52,43 C52,43.5522847 52.4477153,44 53,44 L55,44 C56.6568542,44.0000001 57.9999999,45.3431458 57.9999999,47 C57.9999999,48.6568542 56.6568542,49.9999999 55,50 L5,50 C3.91453073,50.0036768 2.86038886,50.3641933 2,51.026 L2,23 C2,21.3431458 3.34314575,20 5,20 L19,20 C19.5522847,20 20,19.5522847 20,19 C20,18.4477153 19.5522847,18 19,18 L5,18 C2.23994685,18.0033061 0.00330611633,20.2399468 0,23 L0,55 C0.00330611633,57.7600532 2.23994685,59.9966939 5,60 L8,60 C8.55228475,60 9,59.5522847 9,59 L9,52 L55,52 C57.7600532,51.9966939 59.9966939,49.7600532 60,47 L60,15 C59.9966939,12.2399468 57.7600532,10.0033061 55,10 Z M7,58 L5,58 C3.34314575,58 2,56.6568542 2,55 C2,53.3431458 3.34314575,52 5,52 L7,52 L7,58 Z M55,42 L54,42 L54,12 L55,12 C56.6568542,12 58,13.3431458 58,15 L58,43.026 C57.1396111,42.3641933 56.0854693,42.0036768 55,42 Z"/><path d="M33,5.684 L33,2 C33,0.8954305 32.1045695,6.76353751e-17 31,0 L29,0 C27.8954305,-6.76353751e-17 27,0.8954305 27,2 L27,5.686 C23.6088149,7.2902403 22.0911544,11.2872908 23.563,14.738 L16.284,37.738 C15.618,40.216 16.117,42.638 17.556,43.915 L18.54,44.79 L18.032,46.747 C17.9075413,47.2763486 18.2288889,47.8081281 18.7553961,47.9441062 C19.2819034,48.0800843 19.8205672,47.7704152 19.968,47.247 L20.63,44.7 L24.561,32 L35.376,32 L39.325,44.746 C39.3554939,44.8388247 39.3992825,44.9267388 39.455,45.007 L40.031,47.249 C40.1446853,47.6911875 40.5434323,48.0002267 41,48 C41.0842948,48.0000468 41.1682696,47.9896339 41.25,47.969 C41.5070644,47.903075 41.7273816,47.7376713 41.8624277,47.5092183 C41.9974738,47.2807653 42.0361723,47.0080009 41.97,46.751 L41.454,44.751 L42.384,43.924 C43.824,42.649 44.324,40.224 43.645,37.703 L36.4,14.824 C37.93918,11.3596244 36.4291147,7.30021349 33,5.684 Z M29,2 L31,2 L31,5.08 C30.3376,4.97333333 29.6624,4.97333333 29,5.08 L29,2 Z M30,7 C32.7614237,7 35,9.23857625 35,12 C35,14.7614237 32.7614237,17 30,17 C27.2385763,17 25,14.7614237 25,12 C25,9.23857625 27.2385763,7 30,7 Z M30,19 C30.4386976,18.998994 30.8763154,18.956471 31.307,18.873 L33.517,26 L26.417,26 L28.627,18.86 C29.078918,18.9519092 29.5388322,18.998805 30,19 Z M18.2,38.3 L24.983,16.867 C25.4962756,17.3957849 26.0895239,17.8405524 26.741,18.185 L19.161,42.669 L18.88,42.42 C18.033,41.669 17.759,39.957 18.2,38.3 Z M25.18,30 L25.799,28 L34.137,28 L34.757,30 L25.18,30 Z M41.725,38.26 C42.182,39.96 41.907,41.669 41.055,42.423 L40.776,42.671 L35.8,26.62 L35.8,26.608 L33.2,18.216 C33.8528909,17.8803077 34.4491274,17.4443498 34.967,16.924 L41.725,38.26 Z"/></g></g></svg>
