<svg height="55px" width="55px" fill="#000000" xmlns="http://www.w3.org/2000/svg" data-name="Layer 1" viewBox="0 0 64 64" x="0px" y="0px"><title>power-fight-energy-authority-brave</title><path d="M43,34h-.05054A3.45469,3.45469,0,0,0,43,33.5v-5A3.50424,3.50424,0,0,0,39.5,25a3.45784,3.45784,0,0,0-1.51428.35883,3.48662,3.48662,0,0,0-5.98267-2.3042c-.00964-.00989-.01623-.02192-.026-.03168a3.48849,3.48849,0,0,0-5.79651,1.42139A3.47918,3.47918,0,0,0,21,27.5v4.82074A5.42441,5.42441,0,0,0,20,35.46v6.25a4.35788,4.35788,0,0,0,1.31641,3.11084L24,47.42334V62h2V47a1.00138,1.00138,0,0,0-.30371-.71777l-2.98731-2.897A2.34548,2.34548,0,0,1,22,41.71V35.46A3.464,3.464,0,0,1,25.46,32h3.88037a1.73459,1.73459,0,0,1,1.25684.54492,1.40426,1.40426,0,0,1,.39825,1.00244c-.00091.02948-.00586.05793-.00842.087a1.51739,1.51739,0,0,1-.11572.47266c-.00482.01117-.012.02117-.01709.03216A1.46694,1.46694,0,0,1,29.5,35H26a1,1,0,0,0-1,1v2a1.02927,1.02927,0,0,0,.30176.71582,5.22075,5.22075,0,0,0,2.70556,1.38574A5.01615,5.01615,0,0,1,32,45h2a7.02331,7.02331,0,0,0-5.59082-6.85742A3.50958,3.50958,0,0,1,27,37.5459V37h2.5a3.55942,3.55942,0,0,0,.69-.06708,3.459,3.459,0,0,0,1.25379-.51788c.03161-.02112.05786-.05072.0888-.07294a3.50341,3.50341,0,0,0,.44446-.36505l.00024-.00024.00025-.00025c.00958-.00958.01623-.0213.02569-.03094A3.48269,3.48269,0,0,0,37,35.94171a3.44574,3.44574,0,0,0,4,.70722v6.19091a3.38786,3.38786,0,0,1-2.31787,3.21192A1,1,0,0,0,38,47V62h2V47.667a5.38372,5.38372,0,0,0,3-4.82715ZM23,30.59216V27.5a1.5,1.5,0,1,1,3,0V30h-.54A5.41923,5.41923,0,0,0,23,30.59216ZM29.34033,30H28V25.5a1.5,1.5,0,1,1,3,0v4.90961A3.71134,3.71134,0,0,0,29.34033,30ZM34.5,35A1.50164,1.50164,0,0,1,33,33.5v-8a1.5,1.5,0,0,1,3,0v8A1.50164,1.50164,0,0,1,34.5,35Zm5,0A1.50164,1.50164,0,0,1,38,33.5v-5a1.5,1.5,0,0,1,3,0v5A1.50164,1.50164,0,0,1,39.5,35Z"/><path d="M61.8335,30.44775A.999.999,0,0,0,61,30H53.38721l5.56152-16.68359a1.00031,1.00031,0,0,0-1.13281-1.29932L42.41846,14.9043l-9.626-12.51416a1.03522,1.03522,0,0,0-1.585,0l-9.626,12.51416L6.18408,12.01709a.9997.9997,0,0,0-1.14746,1.25049L9.68457,30H3a1.00048,1.00048,0,0,0-.93359,1.35889l10,26,1.86718-.71778L4.45605,32H11a1.00023,1.00023,0,0,0,.96338-1.26758L7.39307,14.27881l14.42285,2.7041a.99364.99364,0,0,0,.97656-.373L32,4.64014l9.20752,11.96972a.99949.99949,0,0,0,.97656.373l14.32959-2.687-5.4624,16.38769A1.00055,1.00055,0,0,0,52,32h7.49121L49.0791,56.61035l1.8418.7793,11-26A.99827.99827,0,0,0,61.8335,30.44775Z"/><path d="M53.82812,34.43945A.99957.99957,0,0,0,53,34H47.36035l4.59424-14.70166a1.00043,1.00043,0,0,0-1.1333-1.28223l-10.38184,1.8877L32.80859,9.41162a1.03747,1.03747,0,0,0-1.61718,0L23.56055,19.90381l-10.38184-1.8877a1,1,0,0,0-1.14892,1.22657L15.71924,34H10a1.00033,1.00033,0,0,0-.92871,1.37158l8,20,1.85742-.74316L11.47705,36H17a1.00046,1.00046,0,0,0,.97021-1.24268l-3.624-14.49609,9.4751,1.72266a.99725.99725,0,0,0,.9873-.39551L32,11.7002l7.19141,9.88818a.99838.99838,0,0,0,.9873.39551l9.37354-1.7041L45.04541,34.70166A1.00023,1.00023,0,0,0,46,36h5.523L44.07129,54.62842l1.85742.74316,8-20A1.0008,1.0008,0,0,0,53.82812,34.43945Z"/><rect x="2" y="60" width="2" height="2"/><rect x="16" y="60" width="2" height="2"/><rect x="60" y="60" width="2" height="2"/><rect x="54" y="58" width="2" height="2"/><rect x="8" y="58" width="2" height="2"/><rect x="43" y="59" width="2" height="2"/></svg>
