<svg height="300px" width="300px" fill="#000000" xmlns="http://www.w3.org/2000/svg" xmlns:xlink="http://www.w3.org/1999/xlink" version="1.1" x="0px" y="0px" viewBox="0 0 66 66" enable-background="new 0 0 66 66" xml:space="preserve"><g><g><path d="M17.3,22.1l0.7-2.6c0.2-0.5-0.2-1.1-0.7-1.2c-0.5-0.2-1.1,0.2-1.2,0.7l-1.4,5c-0.2,0.5,0.2,1.1,0.7,1.2l5,1.4    c0.5,0.2,1.1-0.2,1.2-0.7c0.2-0.5-0.2-1.1-0.7-1.2L18,23.9c15.9-8.8,32.7,10.4,22,25c-0.3,0.4-0.2,1.1,0.2,1.4    c0.4,0.3,1.1,0.2,1.4-0.2c2.4-3.3,3.7-7.2,3.7-11.2C45.3,24.5,29.9,15.3,17.3,22.1z"/></g><g><path d="M37.2,52.4l-5-1.4c-0.5-0.2-1.1,0.2-1.2,0.7c-0.2,0.5,0.2,1.1,0.7,1.2l3,0.8C23.3,60,9.2,51.9,9.2,38.9    c0-3.6,1.1-7.1,3.3-10.1c0.3-0.4,0.2-1.1-0.2-1.4c-0.4-0.3-1.1-0.2-1.4,0.2c-2.4,3.3-3.7,7.2-3.7,11.2c0,14.4,15.4,23.5,28,16.8    l-0.7,2.5c-0.2,0.5,0.2,1.1,0.7,1.2c0.5,0.2,1.1-0.2,1.2-0.7l1.4-5C38,53.1,37.7,52.5,37.2,52.4z"/></g><g><path d="M21.8,49.8c0,0.6,0.4,1,1,1h6.9c0.6,0,1-0.4,1-1c0-0.1,0-5.8,0-5.4c0-1.2,0.4-2.2,1.2-3c1.9-1.7,2.8-4.2,2.6-6.8    c-0.3-3.9-3.4-7-7.3-7.5c-2.4-0.3-4.7,0.5-6.5,2C19,30.8,18,33.1,18,35.4c0,2.2,0.9,4.3,2.5,5.9c0.9,0.9,1.3,2,1.3,3.1    C21.8,44.5,21.8,50.2,21.8,49.8z M28.7,48.8h-4.9v-1.5h4.9V48.8z M26.2,37.1c-0.8,0-1.4-0.6-1.4-1.4c0-0.8,0.6-1.4,1.4-1.4    c0.8,0,1.4,0.6,1.4,1.4C27.6,36.4,27,37.1,26.2,37.1z M20,35.4c0-1.8,0.8-3.5,2.1-4.7c1.3-1.2,3.1-1.8,4.9-1.5    c2.9,0.3,5.2,2.8,5.5,5.6c0.2,1.9-0.5,3.8-1.9,5.1c-1.2,1.1-1.8,2.7-1.8,4.4v0.9h-1.5v-6.4c1.4-0.4,2.4-1.7,2.4-3.2    c0-1.9-1.5-3.4-3.4-3.4c-1.9,0-3.4,1.5-3.4,3.4c0,1.5,1,2.8,2.4,3.2v6.4h-1.5v-0.9c0-1.7-0.7-3.3-1.9-4.5    C20.6,38.7,20,37.1,20,35.4z"/></g><g><path d="M47.7,7.5h-8.1V5.4c0-0.6-0.4-1-1-1h-3.1C35,2.2,33,0.5,30.6,0.5h-8.7c-2.4,0-4.4,1.7-4.8,3.9h-3.1c-0.6,0-1,0.4-1,1v2.1    H4.8c-1.6,0-3,1.3-3,3v52c0,1.6,1.3,3,3,3h42.9c1.6,0,3-1.3,3-3v-52C50.7,8.8,49.3,7.5,47.7,7.5z M14.9,6.4h3c0.6,0,1-0.4,1-1    c0-1.6,1.3-2.9,2.9-2.9h8.7c1.6,0,2.9,1.3,2.9,2.9c0,0.6,0.4,1,1,1h3v4H14.9V6.4z M48.7,62.5c0,0.5-0.4,1-1,1H4.8    c-0.5,0-1-0.4-1-1v-52c0-0.5,0.4-1,1-1h8.1v1.9c0,0.6,0.4,1,1,1h24.7c0.6,0,1-0.4,1-1V9.5h8.1c0.5,0,1,0.4,1,1V62.5z"/></g><g><path d="M64.2,11.9c0-1.7-1.4-3.1-3.1-3.1h-4.7c-1.7,0-3.1,1.4-3.1,3.1c0,11.9,0,37.4,0,43.3c0,0.1,0.1,0.4,0.1,0.5l4.4,8.7    c0.2,0.3,0.5,0.5,0.9,0.5c0.4,0,0.7-0.2,0.9-0.5l4.4-8.7c0-0.1,0.1-0.3,0.1-0.5C64.2,46.4,64.2,77.6,64.2,11.9z M55.3,54.2V16.8    h2.4v37.4H55.3z M59.8,54.2V16.8h2.4v37.4H59.8z M55.3,11.9c0-0.6,0.5-1.1,1.1-1.1h4.7c0.6,0,1.1,0.5,1.1,1.1v2.9h-6.9V11.9z     M58.8,61.7L56,56.2h5.6L58.8,61.7z"/></g></g></svg>