<svg height="55px" width="55px" fill="#000000" xmlns="http://www.w3.org/2000/svg" xmlns:xlink="http://www.w3.org/1999/xlink" version="1.1" x="0px" y="0px" viewBox="0 0 100 100" style="enable-background:new 0 0 100 100;" xml:space="preserve"><g><path d="M90.5488281,41.1699219c-0.7094727-1.4169922-2.1342773-2.296875-3.7192383-2.296875l-8.4790039-0.0205078   c0,0,0.0009766-0.0039063,0.0039063-0.0087891l2.1362305-3.7587891c0.7202148-1.2666016,0.7124023-2.7753906-0.0205078-4.0351563   s-2.0405273-2.0117188-3.4980469-2.0117188h-5.5566406c-1.4550781,0-2.8046875,0.7861328-3.5219727,2.0527344   l-8.2133789,14.5302734c-0.7324219,1.3017578-0.7192383,2.8486328,0.034668,4.1376953   c0.7543945,1.2900391,2.0966797,2.0595703,3.590332,2.0595703l9.9453125,0.0253906l-4.8833008,16.7041016   c-0.2597656,0.8876953,0.1367188,1.796875,0.9638672,2.2109375c0.2758789,0.1376953,0.5673828,0.2041016,0.8535156,0.2041016   c0.5722656,0,1.1245117-0.265625,1.4941406-0.7597656l18.4799805-24.6787109   C91.1088867,44.2558594,91.2583008,42.5869141,90.5488281,41.1699219z"/><path d="M52.5258789,25.6796875H33.3266602c-6.6235352,0-12.8193359,2.6240234-17.4458008,7.390625   c-4.6230469,4.7626953-7.0610352,11.0361328-6.8642578,17.6640625C9.402832,63.7402344,20.53125,74.3203125,33.8232422,74.3203125   h18.7026367c1.9365234,0,3.5117188-1.5751953,3.5117188-3.5117188v-7.4082031c0-1.9365234-1.5751953-3.5117188-3.5117188-3.5117188   H33.3266602c-2.7290039,0-5.2719727-1.0927734-7.1601563-3.0761719c-1.8862305-1.9814453-2.8505859-4.578125-2.7158203-7.3115234   c0.2592773-5.2646484,4.7358398-9.3896484,10.190918-9.3896484h18.8842773c1.9365234,0,3.5117188-1.5751953,3.5117188-3.5117188   v-7.4082031C56.0375977,27.2548828,54.4624023,25.6796875,52.5258789,25.6796875z M44.7607422,61.8769531h7.7651367   c0.8398438,0,1.5234375,0.6835938,1.5234375,1.5234375v7.4082031c0,0.8398438-0.6835938,1.5234375-1.5234375,1.5234375h-7.7651367   V61.8769531z M25.1518555,34.7128906c-1.5620117,0.8398438-2.9936523,1.9248047-4.2558594,3.2236328   c-3.2958984,3.3945313-5.0336914,7.8662109-4.8935547,12.5908203c0.1220703,4.1201172,1.8007813,8.0878906,4.7270508,11.1708984   c0.3779297,0.3984375,0.3618164,1.0273438-0.0366211,1.40625c-0.1923828,0.1816406-0.4384766,0.2724609-0.6845703,0.2724609   c-0.2631836,0-0.5258789-0.1035156-0.7211914-0.3095703c-3.2631836-3.4384766-5.1357422-7.8710938-5.2719727-12.4814453   c-0.1567383-5.2666016,1.7802734-10.2509766,5.4541016-14.0341797c1.4042969-1.4462891,2.9990234-2.6533203,4.7402344-3.5908203   c0.484375-0.2587891,1.0874023-0.078125,1.3466797,0.4052734C25.8164063,33.8496094,25.6352539,34.4521484,25.1518555,34.7128906z    M33.3271484,32.6669922c-0.7124023,0-1.4335938,0.0439453-2.1435547,0.1308594   c-0.0405273,0.0048828-0.0810547,0.0068359-0.121582,0.0068359c-0.4951172,0-0.9238281-0.3691406-0.9853516-0.8740234   c-0.0664063-0.5449219,0.3212891-1.0410156,0.8666992-1.1074219c0.7890625-0.0957031,1.5913086-0.1445313,2.3837891-0.1445313   c0.5493164,0,0.9941406,0.4453125,0.9941406,0.9941406S33.8764648,32.6669922,33.3271484,32.6669922z M54.0493164,36.5996094   c0,0.8398438-0.6835938,1.5234375-1.5234375,1.5234375h-7.7651367V27.6679688h7.7651367   c0.8398438,0,1.5234375,0.6835938,1.5234375,1.5234375V36.5996094z"/></g></svg>
