<svg height='55px' width='55px'  fill="#000000" xmlns="http://www.w3.org/2000/svg" xmlns:xlink="http://www.w3.org/1999/xlink" version="1.1" x="0px" y="0px" viewBox="0 0 48 48" enable-background="new 0 0 48 48" xml:space="preserve"><g><path d="M36,13.233V9H5v30h31V25.939l4-3.706v18.504c0,0,0,0.01,0,0.02c0,0.029-0.048,0.049-0.058,0.078   c-0.03,0.715-0.528,1.539-1.194,1.877c-0.234,0.096-0.497,0.154-0.769,0.154c0,0-34.788,0.029-34.942,0.029   C1.972,42.896,1,42.006,1,40.941V7.058c0-0.251-0.024-0.871,0.328-1.339c0.381-0.507,0.98-0.616,1.774-0.616   c0.125,0,34.853,0.019,34.853,0.019c0.136,0,0.315,0.01,0.441,0.039C39.277,5.345,40,6.129,40,7.058v3.02L36,13.233z"></path><g><path d="M46.554,9.515c-0.291-0.321-0.704-0.505-1.136-0.505c-0.24,0-0.597,0.057-0.965,0.344L21.822,28.566l-10.317-8.463    l-0.087-0.061c-0.196-0.117-0.425-0.189-0.663-0.207C10.271,19.8,9.795,20,9.486,20.368c-0.489,0.573-0.484,1.432,0.017,2.006    l11.354,12.681c0,0,0.308,0.408,0.977,0.408c0.669,0,0.921-0.262,1.21-0.549L46.5,11.533C47.069,10.96,47.095,10.122,46.554,9.515    z"></path></g></g></svg>