<svg height='55px' width='55px'  fill="#000000" xmlns="http://www.w3.org/2000/svg" data-name="Layer 1" viewBox="0 0 512 512" x="0px" y="0px"><title>Untitled-2</title><path d="M0,251.32c1.28-9.08,2.17-18.23,3.89-27.22C19.25,144.06,84.37,82.73,165,72.43a214.87,214.87,0,0,1,26.52-1.68c51.05-.15,102.11-0.08,153.17-0.08h7.21V7.6l131.71,95.53L352.28,196.37c-0.13-2.85-.29-4.62-0.29-6.39,0-16.24-.14-32.48.07-48.71,0.05-4.2-.87-5.85-5.5-5.83-51.72.16-103.45-.19-155.17,0.18C125.21,136.09,72,187.81,68.55,254.68c-0.23,4.53-1.67,5.48-5.86,5.49-18.75.07-37.49,0.5-56.24,0.73A64.06,64.06,0,0,1,0,260.36Q0,255.84,0,251.32Z"></path><path d="M31.76,406.9L158,311.67v65.41c2.25,0.1,3.84.25,5.43,0.23q79.33-.89,158.67-1.8A127.72,127.72,0,0,0,448.88,253.26c0.08-1.64.18-3.29,0.33-5.79h62.63c0,4.89.42,10.35-.06,15.72-7.31,82-64,148.82-143.62,169.4a191.14,191.14,0,0,1-48.24,5.72q-76.08-.07-152.16,0H160.4v66.1Z"></path></svg>