<svg height='55px' width='55px'  fill="#000000" xmlns="http://www.w3.org/2000/svg" xmlns:xlink="http://www.w3.org/1999/xlink" version="1.1" x="0px" y="0px" viewBox="0 0 100 100" style="enable-background:new 0 0 100 100;" xml:space="preserve"><path d="M50,5C25.187,5,5,25.187,5,50s20.187,45,45,45s45-20.187,45-45S74.813,5,50,5z M50,92C26.841,92,8,73.159,8,50  S26.841,8,50,8s42,18.841,42,42S73.159,92,50,92z"></path><path d="M73.27,33.958l0.155,4.765l-0.733,2.966c-0.979,0.069-1.941,0.459-2.688,1.205l-5.272,5.275l-1.73,0.299  c-1.299,0.221-2.479,0.83-3.412,1.763l-3.692,3.692c-1.16,1.16-1.82,2.7-1.858,4.338l-0.13,5.846  c-0.577,0.23-1.111,0.574-1.57,1.023c-0.911,0.892-1.42,2.082-1.434,3.351l-0.085,8.012c-0.014,1.269,0.47,2.469,1.362,3.38  s2.082,1.42,3.351,1.434l13.293,0.143c0.018,0,0.034,0,0.051,0c2.604,0,4.735-2.104,4.763-4.712l0.086-8.012  c0.021-1.948-1.14-3.635-2.812-4.39c0.208-1.229,0.774-2.343,1.655-3.225l6.237-6.237c1.658-1.657,2.704-3.847,2.946-6.165  l0.662-6.28c0.042-0.225,0.067-0.457,0.074-0.698l0.003-0.026c0.001-0.014-0.001-0.027,0-0.041c0.001-0.055,0.008-0.108,0.007-0.164  l-0.323-10.125c-0.031-0.852-0.379-1.652-0.981-2.253c-0.643-0.644-1.537-0.998-2.472-0.981  C75.621,28.243,73.175,30.852,73.27,33.958z M70.64,76.705c-0.005,0.468-0.194,0.907-0.532,1.239  c-0.338,0.331-0.771,0.516-1.25,0.506l-13.293-0.143c-0.468-0.005-0.908-0.194-1.239-0.533c-0.332-0.338-0.511-0.782-0.506-1.25  l0.085-8.012c0.005-0.467,0.194-0.907,0.533-1.239c0.334-0.327,0.77-0.506,1.23-0.506c0.006,0,0.013,0,0.019,0l13.293,0.142  c0.972,0.01,1.755,0.81,1.745,1.782L70.64,76.705z M79.074,31.244c0.066,0.066,0.1,0.144,0.104,0.232l0.32,10.014l-0.075,0.706  c-0.002,0.025-0.007,0.05-0.008,0.075l-0.646,6.123c-0.171,1.637-0.912,3.184-2.084,4.357l-6.237,6.237  c-1.34,1.34-2.198,3.036-2.503,4.91l-11.028-0.118l0.122-5.45c0.021-0.863,0.369-1.675,0.98-2.287l3.692-3.692  c0.483-0.483,1.12-0.812,1.797-0.927l2.204-0.381c0.106-0.018,0.207-0.048,0.303-0.087c0.007-0.003,0.013-0.007,0.02-0.01  c0.18-0.075,0.34-0.182,0.474-0.315c0.003-0.003,0.006-0.003,0.009-0.006l5.607-5.611c0.475-0.475,1.249-0.476,1.725,0  c0.229,0.228,0.354,0.534,0.354,0.862c0,0.328-0.125,0.634-0.354,0.863l-6.442,6.442c-0.586,0.586-0.586,1.536,0,2.121  c0.293,0.293,0.677,0.439,1.061,0.439s0.768-0.146,1.061-0.439l6.442-6.442c0.795-0.795,1.233-1.854,1.233-2.984  c0-1.129-0.438-2.189-1.233-2.983c-0.126-0.126-0.268-0.224-0.406-0.331l0.821-3.322c0.004-0.017,0.004-0.034,0.007-0.051  c0.01-0.05,0.016-0.101,0.022-0.152c0.006-0.052,0.011-0.104,0.011-0.156c0-0.017,0.004-0.033,0.003-0.05l-0.161-4.97  c-0.044-1.454,1.101-2.676,2.536-2.724C78.92,31.149,79.033,31.203,79.074,31.244z"></path><circle cx="68.487" cy="69.707" r="1.885"></circle><path d="M47.66,65.13c-0.46-0.45-0.992-0.794-1.57-1.025l-0.13-5.846c-0.039-1.637-0.699-3.177-1.858-4.336l-3.692-3.692  c-0.932-0.933-2.112-1.542-3.407-1.762l-1.734-0.3l-5.272-5.275c-0.747-0.747-1.708-1.137-2.687-1.206l-0.733-2.966l0.155-4.768  c0.094-3.104-2.352-5.712-5.472-5.815c-0.915-0.014-1.811,0.339-2.453,0.98c-0.602,0.602-0.951,1.402-0.981,2.26l-0.324,10.137  c-0.001,0.057,0.007,0.113,0.008,0.17c0.001,0.006-0.001,0.011,0,0.017l0.001,0.011c0.006,0.244,0.032,0.482,0.076,0.715  l0.662,6.276c0.242,2.318,1.289,4.508,2.946,6.166l6.237,6.237c0.883,0.883,1.449,1.999,1.655,3.225  c-1.672,0.755-2.833,2.442-2.812,4.39l0.086,8.012c0.028,2.609,2.159,4.712,4.763,4.712c0.017,0,0.034,0,0.051,0l13.293-0.143  c1.269-0.014,2.458-0.523,3.351-1.434s1.375-2.112,1.362-3.38l-0.085-8.012C49.081,67.212,48.571,66.022,47.66,65.13z   M23.315,52.752c-1.172-1.173-1.913-2.72-2.084-4.358l-0.646-6.123c-0.001-0.025-0.006-0.049-0.008-0.074l-0.074-0.706l0.32-10.009  c0.003-0.094,0.037-0.172,0.104-0.239c0.041-0.04,0.15-0.098,0.251-0.104c1.453,0.048,2.599,1.271,2.555,2.722l-0.162,4.973  c-0.001,0.017,0.003,0.033,0.003,0.05c0,0.052,0.005,0.104,0.011,0.156c0.005,0.051,0.011,0.102,0.022,0.152  c0.004,0.017,0.003,0.034,0.007,0.051l0.82,3.321c-0.137,0.107-0.279,0.205-0.405,0.331c-0.795,0.795-1.233,1.854-1.233,2.984  c0,1.13,0.438,2.189,1.233,2.984l6.442,6.442c0.293,0.293,0.677,0.439,1.061,0.439s0.768-0.146,1.061-0.439  c0.586-0.585,0.586-1.535,0-2.121L26.15,46.74c-0.229-0.228-0.354-0.534-0.354-0.862c0-0.328,0.125-0.634,0.354-0.862  c0.476-0.476,1.25-0.476,1.724,0l5.608,5.611c0.003,0.003,0.006,0.003,0.009,0.006c0.134,0.133,0.294,0.24,0.474,0.315  c0.007,0.003,0.013,0.007,0.02,0.01c0.096,0.038,0.197,0.068,0.303,0.087l2.208,0.382c0.673,0.114,1.31,0.443,1.792,0.926  l3.692,3.692c0.612,0.612,0.96,1.424,0.98,2.285l0.122,5.452l-11.028,0.118c-0.302-1.872-1.161-3.569-2.503-4.91L23.315,52.752z   M45.674,77.774c-0.331,0.339-0.771,0.528-1.239,0.533L31.142,78.45c-0.485-0.001-0.912-0.175-1.25-0.506  c-0.338-0.332-0.527-0.771-0.532-1.239l-0.086-8.012c-0.01-0.972,0.772-1.772,1.745-1.782l13.293-0.142c0.007,0,0.013,0,0.02,0  c0.46,0,0.896,0.179,1.23,0.506c0.338,0.332,0.528,0.771,0.533,1.239l0.085,8.012C46.185,76.993,46.005,77.436,45.674,77.774z"></path><circle cx="31.513" cy="69.707" r="1.885"></circle><path d="M58.418,32.091c0-4.642-3.776-8.418-8.418-8.418s-8.418,3.776-8.418,8.418c0,4.642,3.776,8.418,8.418,8.418  S58.418,36.732,58.418,32.091z M50,37.509c-2.987,0-5.418-2.431-5.418-5.418c0-2.988,2.431-5.418,5.418-5.418  s5.418,2.431,5.418,5.418C55.418,35.078,52.987,37.509,50,37.509z"></path><path d="M54.612,46.76V44.69c1.452-0.53,2.8-1.31,3.993-2.306l1.793,1.036c0.451,0.26,0.944,0.384,1.43,0.384  c0.994,0,1.961-0.516,2.493-1.436l1.74-3.014c0.384-0.664,0.486-1.438,0.287-2.179c-0.198-0.742-0.674-1.361-1.338-1.744  l-1.793-1.035c0.132-0.759,0.223-1.527,0.223-2.305c0-0.782-0.067-1.558-0.199-2.319l1.769-1.021  c1.372-0.792,1.843-2.551,1.051-3.923l-1.741-3.015c-0.792-1.372-2.551-1.845-3.923-1.051l-1.792,1.035  c-1.191-0.996-2.54-1.775-3.993-2.306v-2.069c0-1.583-1.289-2.872-2.872-2.872h-3.481c-1.583,0-2.872,1.288-2.872,2.872v2.069  c-1.453,0.531-2.802,1.309-3.993,2.306l-1.792-1.034c-1.372-0.793-3.132-0.32-3.923,1.051l-1.74,3.015  c-0.792,1.372-0.321,3.131,1.051,3.923l1.792,1.035c-0.132,0.759-0.223,1.526-0.223,2.306c0,0.778,0.091,1.546,0.223,2.305  l-1.793,1.035c-0.665,0.383-1.14,1.003-1.338,1.744c-0.199,0.741-0.097,1.515,0.287,2.179l1.741,3.015  c0.531,0.92,1.499,1.435,2.492,1.435c0.486,0,0.979-0.124,1.431-0.384l1.792-1.035c1.193,0.997,2.541,1.776,3.993,2.306v2.069  c0,1.583,1.288,2.872,2.872,2.872h3.481C53.324,49.631,54.612,48.343,54.612,46.76z M51.612,46.631h-3.225v-2.733  c0-0.157-0.011-0.315-0.03-0.466c0-0.003-0.002-0.006-0.002-0.009c-0.01-0.074-0.029-0.145-0.049-0.215  c-0.007-0.025-0.01-0.052-0.018-0.077c-0.017-0.051-0.044-0.099-0.066-0.147c-0.189-0.405-0.545-0.708-0.972-0.821  c-1.73-0.468-3.323-1.388-4.609-2.663c-0.001-0.001-0.002-0.001-0.002-0.002c-0.143-0.141-0.311-0.252-0.495-0.325  c0,0-0.001,0-0.001,0c-0.346-0.139-0.743-0.146-1.115,0.002c-0.006,0.003-0.013,0.003-0.019,0.006  c-0.005,0.002-0.01,0.003-0.016,0.005c-0.139,0.06-0.279,0.128-0.415,0.206l-2.367,1.367l-1.612-2.792l2.372-1.369  c0.134-0.078,0.262-0.165,0.382-0.254c0.004-0.003,0.008-0.008,0.012-0.011c0.032-0.025,0.059-0.054,0.088-0.081  c0.345-0.312,0.521-0.751,0.497-1.191c-0.001-0.013-0.005-0.026-0.006-0.039c-0.007-0.086-0.019-0.171-0.041-0.256  c-0.001-0.003-0.001-0.005-0.001-0.007c-0.229-0.861-0.344-1.758-0.344-2.665c0-0.91,0.116-1.808,0.344-2.668c0,0,0-0.001,0-0.001  c0.049-0.187,0.061-0.38,0.037-0.569c-0.05-0.402-0.262-0.769-0.586-1.012c0,0,0,0,0,0c-0.121-0.091-0.252-0.179-0.387-0.256  l-2.367-1.367l1.612-2.792l2.368,1.367c0.134,0.078,0.275,0.146,0.414,0.206h0c0.026,0.011,0.052,0.015,0.079,0.025  c0.162,0.059,0.328,0.094,0.492,0.096c0.005,0,0.01,0.003,0.015,0.003c0.007,0,0.014-0.004,0.021-0.004  c0.184-0.002,0.366-0.037,0.535-0.104c0.005-0.002,0.009-0.004,0.014-0.006c0.181-0.074,0.346-0.183,0.487-0.322  c0,0,0.001,0,0.001-0.001c1.285-1.278,2.882-2.201,4.619-2.668c0.001,0,0.002-0.001,0.003-0.001  c0.429-0.116,0.783-0.424,0.968-0.833c0.02-0.044,0.043-0.086,0.059-0.131c0.01-0.03,0.014-0.063,0.022-0.094  c0.018-0.065,0.036-0.13,0.045-0.198c0-0.004,0.002-0.007,0.002-0.01c0.018-0.151,0.029-0.308,0.029-0.465V17.55h3.225v2.733  c0,0.158,0.011,0.314,0.029,0.465c0,0.003,0.002,0.005,0.002,0.007c0.022,0.171,0.077,0.334,0.153,0.486  c0.008,0.016,0.013,0.032,0.022,0.048c0.077,0.139,0.178,0.263,0.295,0.372c0.016,0.015,0.031,0.031,0.048,0.045  c0.116,0.099,0.249,0.179,0.396,0.24c0.026,0.011,0.051,0.02,0.077,0.029c0.036,0.013,0.068,0.03,0.106,0.04  c1.737,0.467,3.334,1.39,4.619,2.668c0.001,0.001,0.002,0.001,0.002,0.001c0.14,0.138,0.304,0.246,0.483,0.319  c0.007,0.003,0.013,0.006,0.02,0.009c0.168,0.066,0.348,0.101,0.531,0.103c0.007,0,0.014,0.004,0.022,0.004  c0.005,0,0.009-0.003,0.014-0.003c0.165-0.002,0.331-0.037,0.494-0.096c0.026-0.01,0.053-0.014,0.079-0.025h0  c0.139-0.06,0.279-0.128,0.415-0.206l2.367-1.366l1.612,2.792l-2.366,1.366c-0.121,0.069-0.238,0.147-0.348,0.228  c-0.308,0.216-0.533,0.546-0.611,0.936c-0.05,0.248-0.035,0.499,0.036,0.73c0.219,0.844,0.33,1.724,0.33,2.614  c0,0.907-0.116,1.803-0.344,2.665c-0.001,0.003-0.001,0.005-0.001,0.007c-0.022,0.084-0.034,0.17-0.041,0.256  c-0.001,0.013-0.005,0.026-0.006,0.039c-0.024,0.44,0.152,0.88,0.497,1.191c0.03,0.027,0.056,0.057,0.088,0.081  c0.004,0.003,0.007,0.008,0.012,0.011c0.121,0.091,0.252,0.179,0.387,0.256l2.367,1.367l-1.612,2.792l-2.368-1.367  c-0.134-0.078-0.275-0.146-0.414-0.206c-0.005-0.002-0.01-0.003-0.016-0.005c-0.006-0.003-0.012-0.003-0.019-0.006  c-0.37-0.148-0.767-0.14-1.113-0.002c-0.002,0.001-0.004,0.002-0.006,0.003c-0.182,0.073-0.348,0.183-0.49,0.323  c-0.001,0.001-0.002,0.001-0.003,0.002c-1.288,1.278-2.884,2.2-4.618,2.667c-0.002,0-0.003,0.001-0.005,0.002  c-0.078,0.021-0.153,0.052-0.226,0.086c-0.018,0.008-0.039,0.013-0.056,0.022c-0.035,0.018-0.066,0.043-0.1,0.063  c-0.218,0.133-0.399,0.312-0.523,0.527c-0.005,0.008-0.007,0.018-0.012,0.026c-0.042,0.077-0.08,0.156-0.108,0.24  c-0.008,0.023-0.01,0.048-0.017,0.071c-0.021,0.072-0.04,0.145-0.05,0.22c0,0.003-0.002,0.006-0.002,0.009  c-0.019,0.151-0.03,0.309-0.03,0.466V46.631z"></path></svg>