<svg height='55px' width='55px'  fill="#000000" xmlns="http://www.w3.org/2000/svg" xmlns:xlink="http://www.w3.org/1999/xlink" version="1.1" x="0px" y="0px" viewBox="0 0 64 64" style="enable-background:new 0 0 64 64;" xml:space="preserve"><g><text transform="matrix(1 0 0 1 -460.29 -309)" style="" font-family="&apos;Montserrat-Regular&apos;" font-size="10px">idea</text><text transform="matrix(1 0 0 1 -386.3198 -309)"><tspan x="0" y="0" style="" font-family="&apos;Montserrat-Regular&apos;" font-size="10px">brains</tspan><tspan x="38.669" y="0" style="" font-family="&apos;Montserrat-Regular&apos;" font-size="10px">t</tspan><tspan x="43.899" y="0" style="" font-family="&apos;Montserrat-Regular&apos;" font-size="10px">orm</tspan></text><text transform="matrix(1 0 0 1 -370.1597 -213)" style="" font-family="&apos;Montserrat-Regular&apos;" font-size="10px">policy</text><text transform="matrix(1 0 0 1 -276.3101 -309)" style="" font-family="&apos;Montserrat-Regular&apos;" font-size="10px">leader</text><text transform="matrix(1 0 0 1 -181.2598 -309)"><tspan x="0" y="0" style="" font-family="&apos;Montserrat-Regular&apos;" font-size="10px">or</tspan><tspan x="15.35" y="0" style="" font-family="&apos;Montserrat-Regular&apos;" font-size="10px">a</tspan><tspan x="21.94" y="0" style="" font-family="&apos;Montserrat-Regular&apos;" font-size="10px">t</tspan><tspan x="27.17" y="0" style="" font-family="&apos;Montserrat-Regular&apos;" font-size="10px">or</tspan></text><text transform="matrix(1 0 0 1 -89.3247 -309)"><tspan x="0" y="0" style="" font-family="&apos;Montserrat-Regular&apos;" font-size="10px">business</tspan><tspan x="-9.195" y="12" style="" font-family="&apos;Montserrat-Regular&apos;" font-size="10px">c</tspan><tspan x="-2.365" y="12" style="" font-family="&apos;Montserrat-Regular&apos;" font-size="10px">onnection</tspan></text><text transform="matrix(1 0 0 1 21.5952 -309)" style="" font-family="&apos;Montserrat-Regular&apos;" font-size="10px">SEO</text><text transform="matrix(1 0 0 1 -478.7397 -213)" style="" font-family="&apos;Montserrat-Regular&apos;" font-size="10px">developer</text><text transform="matrix(1 0 0 1 -269.2549 -213)"><tspan x="0" y="0" style="" font-family="&apos;Montserrat-Regular&apos;" font-size="10px">D</tspan><tspan x="7.66" y="0" style="" font-family="&apos;Montserrat-Regular&apos;" font-size="10px">at</tspan><tspan x="19.25" y="0" style="" font-family="&apos;Montserrat-Regular&apos;" font-size="10px">a</tspan><tspan x="-11.475" y="12" style="" font-family="&apos;Montserrat-Regular&apos;" font-size="10px">Security</tspan></text><text transform="matrix(1 0 0 1 -167.5801 -213)" style="" font-family="&apos;Montserrat-Regular&apos;" font-size="10px">HR</text><text transform="matrix(1 0 0 1 -89.7749 -213)"><tspan x="0" y="0" style="" font-family="&apos;Montserrat-Regular&apos;" font-size="10px">L</tspan><tspan x="5.24" y="0" style="" font-family="&apos;Montserrat-Regular&apos;" font-size="10px">o</tspan><tspan x="13.14" y="0" style="" font-family="&apos;Montserrat-Regular&apos;" font-size="10px">gistics</tspan></text><text transform="matrix(1 0 0 1 8.0103 -213)"><tspan x="0" y="0" style="" font-family="&apos;Montserrat-Regular&apos;" font-size="10px">ch</tspan><tspan x="14.92" y="0" style="" font-family="&apos;Montserrat-Regular&apos;" font-size="10px">a</tspan><tspan x="21.51" y="0" style="" font-family="&apos;Montserrat-Regular&apos;" font-size="10px">tb</tspan><tspan x="34.3" y="0" style="" font-family="&apos;Montserrat-Regular&apos;" font-size="10px">o</tspan><tspan x="42.31" y="0" style="" font-family="&apos;Montserrat-Regular&apos;" font-size="10px">t</tspan></text><text transform="matrix(1 0 0 1 -472.1396 -117)"><tspan x="0" y="0" style="" font-family="&apos;Montserrat-Regular&apos;" font-size="10px">venture</tspan><tspan x="3.45" y="12" style="" font-family="&apos;Montserrat-Regular&apos;" font-size="10px">c</tspan><tspan x="10.399" y="12" style="" font-family="&apos;Montserrat-Regular&apos;" font-size="10px">api</tspan><tspan x="27.33" y="12" style="" font-family="&apos;Montserrat-Regular&apos;" font-size="10px">t</tspan><tspan x="32.33" y="12" style="" font-family="&apos;Montserrat-Regular&apos;" font-size="10px">al</tspan></text><text transform="matrix(1 0 0 1 -378.71 -117)"><tspan x="0" y="0" style="" font-family="&apos;Montserrat-Regular&apos;" font-size="10px">lever</tspan><tspan x="32.29" y="0" style="" font-family="&apos;Montserrat-Regular&apos;" font-size="10px">a</tspan><tspan x="39.38" y="0" style="" font-family="&apos;Montserrat-Regular&apos;" font-size="10px">ge</tspan></text><text transform="matrix(1 0 0 1 -280.6299 -117)"><tspan x="0" y="0" style="" font-family="&apos;Montserrat-Regular&apos;" font-size="10px">cre</tspan><tspan x="20.75" y="0" style="" font-family="&apos;Montserrat-Regular&apos;" font-size="10px">a</tspan><tspan x="27.34" y="0" style="" font-family="&apos;Montserrat-Regular&apos;" font-size="10px">tive</tspan></text><text transform="matrix(1 0 0 1 -196.5498 -117)"><tspan x="0" y="0" style="" font-family="&apos;Montserrat-Regular&apos;" font-size="10px">s</tspan><tspan x="6.16" y="0" style="" font-family="&apos;Montserrat-Regular&apos;" font-size="10px">o</tspan><tspan x="14.06" y="0" style="" font-family="&apos;Montserrat-Regular&apos;" font-size="10px">cial media</tspan><tspan x="2.19" y="12" style="" font-family="&apos;Montserrat-Regular&apos;" font-size="10px">a</tspan><tspan x="9.45" y="12" style="" font-family="&apos;Montserrat-Regular&apos;" font-size="10px">d</tspan><tspan x="17.19" y="12" style="" font-family="&apos;Montserrat-Regular&apos;" font-size="10px">vertising</tspan></text><text transform="matrix(1 0 0 1 -85.54 -117)"><tspan x="0" y="0" style="" font-family="&apos;Montserrat-Regular&apos;" font-size="10px">se</tspan><tspan x="12.69" y="0" style="" font-family="&apos;Montserrat-Regular&apos;" font-size="10px">r</tspan><tspan x="19.84" y="0" style="" font-family="&apos;Montserrat-Regular&apos;" font-size="10px">vice</tspan><tspan x="7.48" y="12" style="" font-family="&apos;Montserrat-Regular&apos;" font-size="10px">mind</tspan></text><text transform="matrix(1 0 0 1 12.4004 -117)"><tspan x="0" y="0" style="" font-family="&apos;Montserrat-Regular&apos;" font-size="10px">t</tspan><tspan x="5" y="0" style="" font-family="&apos;Montserrat-Regular&apos;" font-size="10px">arget</tspan></text><text transform="matrix(1 0 0 1 -486.6899 -21)"><tspan x="0" y="0" style="" font-family="&apos;Montserrat-Regular&apos;" font-size="10px">presen</tspan><tspan x="41.1" y="0" style="" font-family="&apos;Montserrat-Regular&apos;" font-size="10px">ta</tspan><tspan x="52.69" y="0" style="" font-family="&apos;Montserrat-Regular&apos;" font-size="10px">tion</tspan></text><text transform="matrix(1 0 0 1 -377.8296 -21)"><tspan x="0" y="0" style="" font-family="&apos;Montserrat-Regular&apos;" font-size="10px">str</tspan><tspan x="19.06" y="0" style="" font-family="&apos;Montserrat-Regular&apos;" font-size="10px">a</tspan><tspan x="25.65" y="0" style="" font-family="&apos;Montserrat-Regular&apos;" font-size="10px">tegy</tspan></text><text transform="matrix(1 0 0 1 -268.0547 -21)"><tspan x="0" y="0" style="" font-family="&apos;Montserrat-Regular&apos;" font-size="10px">Web</tspan><tspan x="-18.685" y="12" style="" font-family="&apos;Montserrat-Regular&apos;" font-size="10px">developer</tspan></text><text transform="matrix(1 0 0 1 -180.2446 -21)"><tspan x="0" y="0" style="" font-family="&apos;Montserrat-Regular&apos;" font-size="10px">global</tspan><tspan x="-5.08" y="12" style="" font-family="&apos;Montserrat-Regular&apos;" font-size="10px">business</tspan></text><text transform="matrix(1 0 0 1 -90.0698 -21)"><tspan x="0" y="0" style="" font-family="&apos;Montserrat-Regular&apos;" font-size="10px">c</tspan><tspan x="6.83" y="0" style="" font-family="&apos;Montserrat-Regular&apos;" font-size="10px">om</tspan><tspan x="24.34" y="0" style="" font-family="&apos;Montserrat-Regular&apos;" font-size="10px">p</tspan><tspan x="30.64" y="0" style="" font-family="&apos;Montserrat-Regular&apos;" font-size="10px">any</tspan><tspan x="4.835" y="12" style="" font-family="&apos;Montserrat-Regular&apos;" font-size="10px">profile</tspan></text><text transform="matrix(1 0 0 1 4.3452 -21)"><tspan x="0" y="0" style="" font-family="&apos;Montserrat-Regular&apos;" font-size="10px">empl</tspan><tspan x="27.87" y="0" style="" font-family="&apos;Montserrat-Regular&apos;" font-size="10px">o</tspan><tspan x="35.95" y="0" style="" font-family="&apos;Montserrat-Regular&apos;" font-size="10px">yee</tspan><tspan x="13.02" y="12" style="" font-family="&apos;Montserrat-Regular&apos;" font-size="10px">c</tspan><tspan x="19.97" y="12" style="" font-family="&apos;Montserrat-Regular&apos;" font-size="10px">ard</tspan></text><text transform="matrix(1 0 0 1 -473.3247 75)"><tspan x="0" y="0" style="" font-family="&apos;Montserrat-Regular&apos;" font-size="10px">business</tspan><tspan x="1.245" y="12" style="" font-family="&apos;Montserrat-Regular&apos;" font-size="10px">p</tspan><tspan x="7.545" y="12" style="" font-family="&apos;Montserrat-Regular&apos;" font-size="10px">artner</tspan></text><text transform="matrix(1 0 0 1 -374.8247 75)"><tspan x="0" y="0" style="" font-family="&apos;Montserrat-Regular&apos;" font-size="10px">s</tspan><tspan x="6.16" y="0" style="" font-family="&apos;Montserrat-Regular&apos;" font-size="10px">t</tspan><tspan x="11.16" y="0" style="" font-family="&apos;Montserrat-Regular&apos;" font-size="10px">artup</tspan></text><text transform="matrix(1 0 0 1 -279.9897 75)"><tspan x="0" y="0" style="" font-family="&apos;Montserrat-Regular&apos;" font-size="10px">re</tspan><tspan x="13.76" y="0" style="" font-family="&apos;Montserrat-Regular&apos;" font-size="10px">t</tspan><tspan x="18.76" y="0" style="" font-family="&apos;Montserrat-Regular&apos;" font-size="10px">ailer</tspan></text><text transform="matrix(1 0 0 1 -173.6099 75)"><tspan x="0" y="0" style="" font-family="&apos;Montserrat-Regular&apos;" font-size="10px">p</tspan><tspan x="6.71" y="0" style="" font-family="&apos;Montserrat-Regular&apos;" font-size="10px">l</tspan><tspan x="12.02" y="0" style="" font-family="&apos;Montserrat-Regular&apos;" font-size="10px">an</tspan></text><text transform="matrix(1 0 0 1 -87.7397 75)" style="" font-family="&apos;Montserrat-Regular&apos;" font-size="10px">funding</text><text transform="matrix(1 0 0 1 14.5503 75)" style="" font-family="&apos;Montserrat-Regular&apos;" font-size="10px">vision</text><text transform="matrix(1 0 0 1 -472.5898 171)" style="" font-family="&apos;Montserrat-Regular&apos;" font-size="10px">building</text><text transform="matrix(1 0 0 1 -372.8647 171)"><tspan x="0" y="0" style="" font-family="&apos;Montserrat-Regular&apos;" font-size="10px">c</tspan><tspan x="6.95" y="0" style="" font-family="&apos;Montserrat-Regular&apos;" font-size="10px">areer</tspan><tspan x="7.62" y="12" style="" font-family="&apos;Montserrat-Regular&apos;" font-size="10px">p</tspan><tspan x="13.919" y="12" style="" font-family="&apos;Montserrat-Regular&apos;" font-size="10px">a</tspan><tspan x="20.51" y="12" style="" font-family="&apos;Montserrat-Regular&apos;" font-size="10px">th</tspan></text><text transform="matrix(1 0 0 1 -276.7446 171)" style="" font-family="&apos;Montserrat-Regular&apos;" font-size="10px">report</text><text transform="matrix(1 0 0 1 -188.6348 171)"><tspan x="0" y="0" style="" font-family="&apos;Montserrat-Regular&apos;" font-size="10px">cus</tspan><tspan x="20.77" y="0" style="" font-family="&apos;Montserrat-Regular&apos;" font-size="10px">t</tspan><tspan x="26" y="0" style="" font-family="&apos;Montserrat-Regular&apos;" font-size="10px">omer</tspan><tspan x="4.525" y="12" style="" font-family="&apos;Montserrat-Regular&apos;" font-size="10px">support</tspan></text><text transform="matrix(1 0 0 1 -90.0698 171)"><tspan x="0" y="0" style="" font-family="&apos;Montserrat-Regular&apos;" font-size="10px">c</tspan><tspan x="6.83" y="0" style="" font-family="&apos;Montserrat-Regular&apos;" font-size="10px">om</tspan><tspan x="24.34" y="0" style="" font-family="&apos;Montserrat-Regular&apos;" font-size="10px">p</tspan><tspan x="30.64" y="0" style="" font-family="&apos;Montserrat-Regular&apos;" font-size="10px">any</tspan><tspan x="13.815" y="12" style="" font-family="&apos;Montserrat-Regular&apos;" font-size="10px">visit</tspan></text><text transform="matrix(1 0 0 1 20.7549 171)"><tspan x="0" y="0" style="" font-family="&apos;Montserrat-Regular&apos;" font-size="10px">v</tspan><tspan x="6.76" y="0" style="" font-family="&apos;Montserrat-Regular&apos;" font-size="10px">d</tspan><tspan x="14.37" y="0" style="" font-family="&apos;Montserrat-Regular&apos;" font-size="10px">o</tspan><tspan x="-23.915" y="12" style="" font-family="&apos;Montserrat-Regular&apos;" font-size="10px">c</tspan><tspan x="-17.084" y="12" style="" font-family="&apos;Montserrat-Regular&apos;" font-size="10px">onference</tspan></text></g><path d="M32,52c21.416,0,29.839-19.416,29.922-19.612c0.104-0.248,0.104-0.527,0-0.775C61.839,31.416,53.416,12,32,12  S2.161,31.416,2.078,31.612c-0.104,0.248-0.104,0.527,0,0.775C2.161,32.584,10.584,52,32,52z M14,32c0-9.925,8.075-18,18-18  s18,8.075,18,18s-8.075,18-18,18S14,41.925,14,32z M59.898,32c-0.92,1.909-5.405,10.352-14.675,14.965  C49.368,43.298,52,37.957,52,32s-2.632-11.298-6.777-14.965C54.494,21.648,58.979,30.091,59.898,32z M18.777,17.035  C14.632,20.702,12,26.043,12,32s2.632,11.298,6.777,14.965C9.506,42.352,5.021,33.909,4.102,32  C5.021,30.091,9.506,21.648,18.777,17.035z"></path><path d="M45.867,39.498c0.179-0.311,0.177-0.692-0.003-1.002L39,26.729V18c0-0.379-0.214-0.725-0.553-0.895  c-0.339-0.168-0.744-0.133-1.047,0.095l-4,3c-0.277,0.208-0.428,0.545-0.396,0.89s0.239,0.649,0.549,0.805L37,23.618v3.079  l-7.1,10.649l-5.142-5.997c-0.379-0.443-1.139-0.443-1.518,0l-6,7c-0.255,0.296-0.313,0.714-0.149,1.068S17.609,40,18,40h11.998  c0.001,0,0.001,0,0.002,0c0,0,0.001,0,0.002,0H45C45.358,40,45.688,39.809,45.867,39.498z M20.174,38L24,33.536L27.826,38H20.174z   M35.895,20.829L37,20v1.382L35.895,20.829z M31.868,38l6.075-9.112L43.259,38H31.868z"></path><rect x="28" y="18" width="2" height="2"></rect><rect x="30" y="20" width="2" height="2"></rect><rect x="28" y="22" width="2" height="2"></rect><rect x="26" y="20" width="2" height="2"></rect><rect x="43" y="21" width="2" height="2"></rect><rect x="42" y="26" width="2" height="2"></rect><path d="M4,4h10V2H3C2.447,2,2,2.447,2,3v11h2V4z"></path><path d="M62,14V3c0-0.553-0.447-1-1-1H50v2h10v10H62z"></path><path d="M2,50v11c0,0.553,0.447,1,1,1h11v-2H4V50H2z"></path><path d="M60,60H50v2h11c0.553,0,1-0.447,1-1V50h-2V60z"></path></svg>