<svg height="55px" width="55px" fill="#000000" xmlns="http://www.w3.org/2000/svg" xmlns:xlink="http://www.w3.org/1999/xlink" version="1.1" x="0px" y="0px" viewBox="0 0 100 100" style="enable-background:new 0 0 100 100;" xml:space="preserve"><g><path d="M32.3,77l0.4-3.2h-4.6l-5.5,14.3h12l1-4.9C33.4,82.1,32,79.7,32.3,77z M3.2,88.2h12l7-14.3h-9.5L3.2,88.2z    M85.5,73.8H76l7,14.3h12L85.5,73.8z M68.8,83.4C67.9,83.8,67,84,66,84c-1.8,0-3.5-0.8-4.6-2.1l1.2,6.2h12l-2.9-7.9   C71.1,81.6,70.1,82.7,68.8,83.4z M45.3,73.8l-0.6,4.8c-0.1,0.9-0.5,1.8-0.9,2.5l-0.6,7.1h12l-1.2-14.3H45.3z M51.4,55.4l11.8,23.8   c0.5,1.1,1.7,1.8,2.8,1.8c0.5,0,0.9-0.1,1.4-0.3c1.6-0.8,2.2-2.7,1.4-4.2L57.1,52.6c-0.9-1.8-0.4-10,0.1-14.8l4.3,1.8l1.5,8.1   c0.3,1.7,2,2.8,3.7,2.5c1.7-0.3,2.8-2,2.5-3.7l-1.8-9.7c-0.2-1-0.9-1.9-1.9-2.3l-14.7-6.3c0,0,0,0,0,0C50.5,28.1,50.2,28,50,28   c-0.1,0-0.1,0-0.2,0c-0.2,0-0.4,0-0.5,0c-0.1,0-0.2,0-0.2,0c-0.2,0-0.4,0.1-0.6,0.2c0,0-0.1,0-0.1,0c-0.2,0.1-0.4,0.2-0.7,0.4   c0,0,0,0-0.1,0c0,0-0.1,0.1-0.1,0.1c-0.1,0.1-0.2,0.1-0.2,0.2l-8.5,8.8l-11.5,5.3c-1.6,0.7-2.3,2.6-1.6,4.2   c0.5,1.2,1.7,1.8,2.9,1.8c0.4,0,0.9-0.1,1.3-0.3l12.1-5.5c0.4-0.2,0.7-0.4,1-0.7l2.1-2.2c0.7,3.6,1.2,8.6,1.4,11.3l-8.5,10   c-0.4,0.5-0.6,1-0.7,1.6l-1.8,14.2c-0.2,1.7,1,3.3,2.7,3.5c0.1,0,0.3,0,0.4,0c1.6,0,2.9-1.2,3.1-2.7L43.3,65L51.4,55.4z M49.5,26.3   c3.2,0,5.7-2.6,5.7-5.7c0-3.2-2.6-5.7-5.7-5.7s-5.7,2.6-5.7,5.7C43.8,23.7,46.3,26.3,49.5,26.3z"/></g></svg>
