<?xml version="1.0" encoding="utf-8"?>
<!-- Generator: Adobe Illustrator 21.1.0, SVG Export Plug-In . SVG Version: 6.00 Build 0)  -->
<svg version="1.1" id="Layer_2" xmlns="http://www.w3.org/2000/svg" xmlns:xlink="http://www.w3.org/1999/xlink" x="0px" y="0px"
	 viewBox="0 0 195.1 68.6" style="enable-background:new 0 0 195.1 68.6;" xml:space="preserve">
<style type="text/css">
	.st0{fill:#1C82CB;}
	.st1{fill:#FFFFFF;}
</style>
<g>
	<rect y="23" class="st0" width="195.1" height="45.6"/>
	<circle class="st0" cx="23" cy="23" r="23"/>
	<g>
		<path class="st1" d="M21.9,15.7c-0.2,0-0.3,0.1-0.5,0.2l0,0l0,0c0,0-0.1,0.1-0.1,0.1l-1.7,1.7l-3.1-3.1c-0.3-0.3-0.8-0.3-1.1,0
			c-0.3,0.3-0.3,0.8,0,1.1l3.1,3.1l-1.7,1.7c0,0-0.1,0.1-0.1,0.1l0,0l0,0c-0.1,0.1-0.2,0.3-0.2,0.5c0,0.4,0.3,0.8,0.8,0.8h4.6
			c0.1,0,0.1,0,0.2,0c0,0,0,0,0.1,0c0,0,0.1,0,0.1,0c0,0,0,0,0.1,0c0,0,0,0,0.1,0c0,0,0.1-0.1,0.1-0.1c0,0,0,0,0,0c0,0,0,0,0,0
			c0,0,0.1-0.1,0.1-0.1c0,0,0,0,0-0.1c0,0,0,0,0-0.1c0,0,0-0.1,0-0.1c0,0,0,0,0-0.1c0-0.1,0-0.1,0-0.2l0-4.6
			C22.6,16,22.3,15.7,21.9,15.7z"/>
		<path class="st1" d="M22.6,24.4C22.6,24.4,22.6,24.3,22.6,24.4c0-0.1,0-0.1-0.1-0.2c0,0,0,0,0-0.1c0,0-0.1-0.1-0.1-0.1
			c0,0,0,0,0,0c0,0,0,0,0,0c0,0-0.1-0.1-0.1-0.1c0,0,0,0-0.1,0c0,0,0,0-0.1,0c0,0-0.1,0-0.1,0c0,0,0,0-0.1,0c0,0-0.1,0-0.2,0h-4.6
			c-0.4,0-0.8,0.4-0.8,0.8c0,0.2,0.1,0.3,0.2,0.5l0,0l0,0c0,0,0.1,0.1,0.1,0.1l1.7,1.7l-3.1,3.1c-0.3,0.3-0.3,0.8,0,1.1
			c0.3,0.3,0.8,0.3,1.1,0l3.1-3.1l1.7,1.7c0,0,0.1,0.1,0.1,0.1l0,0l0,0c0.1,0.1,0.3,0.2,0.5,0.2c0.4,0,0.8-0.4,0.8-0.8v-4.6
			C22.6,24.6,22.6,24.5,22.6,24.4C22.6,24.4,22.6,24.4,22.6,24.4z"/>
		<path class="st1" d="M28.9,26.9l1.7-1.7c0,0,0.1-0.1,0.1-0.1l0,0l0,0c0.1-0.1,0.2-0.3,0.2-0.5c0-0.4-0.3-0.8-0.8-0.8h-4.6
			c-0.1,0-0.1,0-0.2,0c0,0,0,0-0.1,0c0,0-0.1,0-0.1,0c0,0,0,0-0.1,0c0,0,0,0-0.1,0c0,0-0.1,0.1-0.1,0.1c0,0,0,0,0,0c0,0,0,0,0,0
			c0,0-0.1,0.1-0.1,0.1c0,0,0,0,0,0.1c0,0,0,0,0,0.1c0,0,0,0.1,0,0.1c0,0,0,0,0,0.1c0,0.1,0,0.1,0,0.2v4.6c0,0.4,0.3,0.8,0.8,0.8
			c0.2,0,0.3-0.1,0.5-0.2l0,0l0,0c0,0,0.1-0.1,0.1-0.1l1.7-1.7l7.5,7.3c0.3,0.3,0.8,0.3,1.1,0c0.3-0.3,0.3-0.8,0-1.1L28.9,26.9z"/>
		<path class="st1" d="M24.7,21.3C24.7,21.3,24.7,21.4,24.7,21.3c0,0.1,0,0.1,0.1,0.2c0,0,0,0,0,0.1c0,0,0.1,0.1,0.1,0.1
			c0,0,0,0,0,0c0,0,0,0,0,0c0,0,0.1,0.1,0.1,0.1c0,0,0,0,0.1,0c0,0,0,0,0.1,0c0,0,0.1,0,0.1,0c0,0,0,0,0.1,0c0,0,0.1,0,0.2,0l4.6,0
			c0.4,0,0.8-0.3,0.8-0.8c0-0.2-0.1-0.3-0.2-0.5l0,0l0,0c0,0-0.1-0.1-0.1-0.1l-1.7-1.7l3.1-3.1c0.3-0.3,0.3-0.8,0-1.1
			c-0.3-0.3-0.8-0.3-1.1,0l-3.1,3.1L26,16c0,0-0.1-0.1-0.1-0.1l0,0l0,0c-0.1-0.1-0.3-0.2-0.5-0.2c-0.4,0-0.8,0.3-0.8,0.8v4.6
			C24.7,21.2,24.7,21.2,24.7,21.3C24.7,21.3,24.7,21.3,24.7,21.3z"/>
	</g>
	<path d="M11.8,10.1C17.8,4.4,27,3.8,33.8,8.9c5.6,4.2,8.3,11.4,6.7,18c-0.3,1.3-1.2,1.9-2.3,1.6c-1-0.3-1.6-1.3-1.3-2.5
		c1.2-5.4-0.9-11-5.3-14.1c-4.7-3.4-10.5-3.6-15.2-0.6c-6.3,4-7.7,13.1-2.8,19.1c3.6,4.4,8.2,6,13.7,5c1.3-0.2,2.3,0.3,2.5,1.3
		c0.3,1.1-0.4,2-1.6,2.3c-6.7,1.5-14-1.3-17.9-7C6.1,25.8,5.9,18.1,10,12.3C10.6,11.5,11.2,10.8,11.8,10.1z"/>
	<circle cx="23.6" cy="22.7" r="3.3"/>
</g>
</svg>
