<?xml version="1.0" encoding="utf-8"?>
<!-- Generator: Adobe Illustrator 21.1.0, SVG Export Plug-In . SVG Version: 6.00 Build 0)  -->
<svg version="1.1" id="Layer_2" xmlns="http://www.w3.org/2000/svg" xmlns:xlink="http://www.w3.org/1999/xlink" x="0px" y="0px"
	 viewBox="0 0 195.1 68.6" style="enable-background:new 0 0 195.1 68.6;" xml:space="preserve">
<style type="text/css">
	.st0{fill:#1C82CB;}
	.st1{fill:#FFFFFF;}
</style>
<g>
	<rect x="0" y="23" class="st0" width="195.1" height="45.6"/>
	<circle class="st0" cx="23" cy="23" r="23"/>
	<path d="M40.9,22.6c-0.1,8.2-6.2,15.2-14.5,16.5c-6.9,1.1-13.9-2.1-17.5-7.9c-0.7-1.1-0.5-2.2,0.4-2.7c0.9-0.6,2-0.2,2.7,0.8
		c3,4.7,8.5,7.1,13.8,6.2c5.7-1,9.9-4.9,11.1-10.4c1.6-7.3-4-14.7-11.7-15.4c-5.7-0.6-10.1,1.6-13.2,6.2c-0.7,1.1-1.8,1.4-2.7,0.9
		c-1-0.6-1.1-1.7-0.5-2.7c3.6-5.8,10.8-9,17.5-7.8c7.4,1.3,12.9,6.6,14.2,13.5C40.8,20.7,40.8,21.7,40.9,22.6z"/>
	<rect x="15.8" y="18.7" class="st1" width="15.7" height="10.1"/>
	<g transform="translate(0,-972.36218)">
		<path d="M15.7,990.1c-0.4,0-0.8,0.4-0.8,0.8v10c0,0.4,0.4,0.8,0.8,0.8h15.8c0.4,0,0.8-0.4,0.8-0.8v-10c0-0.4-0.4-0.8-0.8-0.8H15.7
			z M18.3,991.8H29l-5.4,4L18.3,991.8z M16.6,992.6l6.6,4.9c0.3,0.2,0.7,0.2,1,0l6.6-4.9v7.5H16.6V992.6z"/>
	</g>
	<path class="st1" d="M6.3,24.5l0-2.6c0,0,0-1.3,0-2c0-0.9,0.4-1.2,1.1-0.7c1.5,1.1,3,2.2,4.5,3.3c0.5,0.3,0.5,0.7,0,1.1
		c-1.5,1.2-3,2.3-4.5,3.4c-0.6,0.5-0.9,0.1-1-0.6C6.3,25.9,6.3,24.5,6.3,24.5z"/>
</g>
</svg>
