<?xml version="1.0" encoding="utf-8"?>
<!-- Generator: Adobe Illustrator 21.1.0, SVG Export Plug-In . SVG Version: 6.00 Build 0)  -->
<svg version="1.1" id="Layer_2" xmlns="http://www.w3.org/2000/svg" xmlns:xlink="http://www.w3.org/1999/xlink" x="0px" y="0px"
	 viewBox="0 0 195.1 68.6" style="enable-background:new 0 0 195.1 68.6;" xml:space="preserve">
<style type="text/css">
	.st0{fill:#1C82CB;}
	.st1{fill:#FFFFFF;}
</style>
<g>
	<rect y="23" class="st0" width="195.1" height="45.6"/>
	<circle class="st0" cx="23" cy="23" r="23"/>
	<ellipse class="st1" cx="22.9" cy="21" rx="5.4" ry="6.1"/>
	<rect x="31.8" y="26.6" class="st1" width="2.6" height="9.8"/>
	<rect x="28.4" y="30.2" class="st1" width="9.8" height="2.6"/>
	<g>
		<g>
			<path d="M13.8,33.9c0,0,2.3-2.9,3.9-3.9c1,0.5,3.3,1.5,5.1,1.5c0.7,0,1.5-0.2,2.5-0.5c0.4-0.1,0.7-0.6,0.5-1
				c-0.1-0.4-0.6-0.7-1-0.5c-0.8,0.3-1.4,0.4-2,0.4c-1.5,0-3.9-1.1-4.7-1.6c-0.3-0.1-0.6-0.1-0.8,0c-1.9,1.1-4.6,4.4-4.6,4.4
				L13.8,33.9z"/>
			<path d="M23,14.3c-3.9,0-6.1,2.4-6.1,6.7c0,4,3,7.9,6.1,7.9c3.2,0,6.1-3.8,6.1-7.9C29.1,16.7,26.9,14.3,23,14.3z M23,27.2
				c-2.3,0-4.4-3.5-4.4-6.2c0-2.3,0.8-5,4.4-5s4.4,2.7,4.4,5C27.5,24.1,25.3,27.2,23,27.2z"/>
			<path d="M35.1,26.6c0-0.4-0.3-0.7-0.7-0.7h-2.6c-0.4,0-0.7,0.3-0.7,0.7v3h-3c-0.4,0-0.7,0.3-0.7,0.7v2.6c0,0.4,0.3,0.7,0.7,0.7h3
				v3c0,0.4,0.3,0.7,0.7,0.7h2.6c0.4,0,0.7-0.3,0.7-0.7v-3h3c0.4,0,0.7-0.3,0.7-0.7v-2.6c0-0.4-0.3-0.7-0.7-0.7h-3V26.6z M37.4,31
				v1.3h-3c-0.4,0-0.7,0.3-0.7,0.7v3h-1.3v-3c0-0.4-0.3-0.7-0.7-0.7h-3V31h3c0.4,0,0.7-0.3,0.7-0.7v-3h1.3v3c0,0.4,0.3,0.7,0.7,0.7
				H37.4z"/>
		</g>
		<path d="M9,13.3c5.2-6.4,14.3-8.1,21.6-3.9c6.1,3.4,9.6,10.2,8.8,17c-0.1,1.3-0.9,2-2,1.9c-1.1-0.1-1.7-1.1-1.6-2.4
			c0.5-5.5-2.2-10.8-7-13.4c-5.1-2.7-10.8-2.2-15.1,1.3c-5.8,4.7-6,14-0.4,19.3c4.1,4,8.9,5,14.2,3.3c1.2-0.4,2.3,0,2.7,1
			c0.4,1-0.1,2-1.3,2.4c-6.4,2.3-14,0.4-18.6-4.7c-5-5.6-6.1-13.2-2.8-19.4C7.9,14.9,8.5,14.2,9,13.3z"/>
	</g>
</g>
</svg>
