<?xml version="1.0" encoding="utf-8"?>
<!-- Generator: Adobe Illustrator 21.1.0, SVG Export Plug-In . SVG Version: 6.00 Build 0)  -->
<svg version="1.1" id="Layer_2" xmlns="http://www.w3.org/2000/svg" xmlns:xlink="http://www.w3.org/1999/xlink" x="0px" y="0px"
	 viewBox="0 0 195.1 68.6" style="enable-background:new 0 0 195.1 68.6;" xml:space="preserve">
<style type="text/css">
	.st0{fill:#1C82CB;}
	.st1{fill:#FFFFFF;}
</style>
<g>
	<rect y="23" class="st0" width="195.1" height="45.6"/>
	<circle class="st0" cx="23" cy="23" r="23"/>
	<g>
		<path d="M40.5,23.2c-0.1,8.2-6.2,15.2-14.5,16.5c-6.9,1.1-13.9-2.1-17.5-7.9c-0.7-1.1-0.5-2.2,0.4-2.7c0.9-0.6,2-0.2,2.7,0.8
			c3,4.7,8.5,7.1,13.8,6.2c5.7-1,9.9-4.9,11.1-10.4c1.6-7.3-4-14.7-11.7-15.4c-5.7-0.6-10.1,1.6-13.2,6.2c-0.7,1.1-1.8,1.4-2.7,0.9
			c-1-0.6-1.1-1.7-0.5-2.7c3.6-5.8,10.8-9,17.5-7.8c7.4,1.3,12.9,6.6,14.2,13.5C40.4,21.3,40.4,22.2,40.5,23.2z"/>
		<path class="st1" d="M19.7,25.9c-3.2,0-6,0.1-8.9,0.1c-2.4,0-3.8-1-3.6-2.7c0.2-2.1,1.7-2.7,3.5-2.7c2.9,0,5.7,0,8.9-0.1
			c0-1.5-0.1-2.8,0-4.1c0.1-2,0.8-2.4,2.2-1.4c3.2,2.3,6.3,4.6,9.5,7c1,0.7,1,1.6,0,2.3c-3.2,2.4-6.3,4.9-9.6,7.3
			c-1.3,1-2,0.3-2.1-1.2C19.7,29,19.7,27.6,19.7,25.9z"/>
	</g>
</g>
</svg>
