<?xml version="1.0" encoding="utf-8"?>
<!-- Generator: Adobe Illustrator 21.1.0, SVG Export Plug-In . SVG Version: 6.00 Build 0)  -->
<svg version="1.1" id="Layer_2" xmlns="http://www.w3.org/2000/svg" xmlns:xlink="http://www.w3.org/1999/xlink" x="0px" y="0px"
	 viewBox="0 0 195.1 68.6" style="enable-background:new 0 0 195.1 68.6;" xml:space="preserve">
<style type="text/css">
	.st0{fill:#1C82CB;}
	.st1{fill:#FFFFFF;}
</style>
<g>
	<rect y="23" class="st0" width="195.1" height="45.6"/>
	<circle class="st0" cx="23" cy="23" r="23"/>
	<circle class="st1" cx="22.1" cy="21.2" r="7.9"/>
	<rect x="18.3" y="26.5" class="st1" width="7.5" height="3.7"/>
	<g>
		<polygon points="22.9,5.7 22.2,5.7 21.5,5.7 21.5,10.8 22.9,10.8 		"/>
		<polygon points="17.3,11.9 14.8,7.5 14.1,7.8 13.5,8.2 16.1,12.6 		"/>
		<polygon points="8.3,13.7 7.9,14.3 12.3,16.9 12.7,16.2 13,15.6 8.6,13.1 		"/>
		<rect x="33.2" y="25.9" transform="matrix(0.5002 -0.8659 0.8659 0.5002 -7.7252 43.554)" width="1.4" height="5.1"/>
		<polygon points="11.2,21.7 11.2,21 6.1,21 6.1,22.4 11.2,22.4 		"/>
		<rect x="33.1" y="21" width="5.1" height="1.4"/>
		<rect x="8" y="27.7" transform="matrix(0.866 -0.5001 0.5001 0.866 -12.8101 9.0685)" width="5.1" height="1.4"/>
		<polygon points="36.1,13.7 35.7,13.1 31.3,15.6 31.7,16.2 32,16.9 36.4,14.3 		"/>
		<polygon points="30.2,7.8 29.6,7.5 27,11.9 28.3,12.6 30.8,8.2 		"/>
		<path d="M21.2,35.9h2c2,0,3.6-1.6,3.6-3.6v-3.1c2.6-1.6,4.2-4.4,4.2-7.5c0-4.8-3.9-8.8-8.8-8.8c-4.8,0-8.8,3.9-8.8,8.8
			c0,3.1,1.6,5.9,4.2,7.5v3.1C17.6,34.3,19.2,35.9,21.2,35.9z M24.9,32.4c0,0.9-0.8,1.7-1.7,1.7h-2c-0.9,0-1.7-0.8-1.7-1.7v-1.7h5.4
			V32.4L24.9,32.4z M15.2,21.7c0-3.8,3.1-6.9,6.9-6.9s6.9,3.1,6.9,6.9c0,2.6-1.4,5-3.7,6.2l-0.5,0.3v1.4h-2.1v-4.7
			c1.2-0.3,2.1-1.3,2.1-2.6c0-1.4-1.2-2.6-2.6-2.6c-1.4,0-2.6,1.2-2.6,2.6c0,1.3,0.9,2.3,2.1,2.6v4.7h-2.1v-1.4L19,27.9
			C16.7,26.7,15.2,24.3,15.2,21.7z M22.2,23.7c-0.8,0-1.5-0.6-1.5-1.5c0-0.8,0.7-1.5,1.5-1.5c0.8,0,1.5,0.6,1.5,1.5
			S23,23.7,22.2,23.7z"/>
	</g>
</g>
</svg>
