<?xml version="1.0" encoding="utf-8"?>
<!-- Generator: Adobe Illustrator 21.1.0, SVG Export Plug-In . SVG Version: 6.00 Build 0)  -->
<svg version="1.1" id="Layer_2" xmlns="http://www.w3.org/2000/svg" xmlns:xlink="http://www.w3.org/1999/xlink" x="0px" y="0px"
	 viewBox="0 0 195.1 68.6" style="enable-background:new 0 0 195.1 68.6;" xml:space="preserve">
<style type="text/css">
	.st0{fill:#1C82CB;}
	.st1{fill:#FFFFFF;}
</style>
<g>
	<rect y="23" class="st0" width="195.1" height="45.6"/>
	<circle class="st0" cx="23" cy="23" r="23"/>
	<g>
		<g>
			<path d="M22.9,12.8c-2.3,0-4.3,1.4-5.2,3.5c-0.3,0.6,0.1,1.4,0.7,1.6c0.6,0.3,1.4-0.1,1.6-0.7c0.5-1.2,1.6-1.9,2.8-1.9
				c1.7,0,3.1,1.4,3.1,3.1c0,1.7-1.2,2.4-1.4,2.6c-1.6,1.2-3.4,2.6-3.4,6.4c0,0.7,0.6,1.2,1.2,1.2c0.7,0,1.2-0.6,1.2-1.2
				c0-2.6,1-3.4,2.4-4.5c0.2-0.2,2.4-1.7,2.4-4.6C28.5,15.3,26,12.8,22.9,12.8z"/>
			<path d="M22.4,29.3c-0.9,0-1.6,0.7-1.6,1.6s0.7,1.6,1.6,1.6c0.9,0,1.6-0.7,1.6-1.6C24.1,30.1,23.3,29.3,22.4,29.3z"/>
		</g>
	</g>
	<path d="M24,4.6c8.2,0.6,14.7,7.1,15.5,15.6c0.6,6.9-3,13.7-9,16.9c-1.1,0.6-2.2,0.4-2.7-0.6c-0.5-1-0.1-2.1,1-2.7
		c4.9-2.7,7.7-8,7.1-13.3c-0.6-5.8-4.3-10.2-9.7-11.7c-7.2-2-14.9,3-16.1,10.6c-0.9,5.6,1,10.1,5.4,13.5c1,0.8,1.3,1.9,0.7,2.8
		c-0.6,0.9-1.7,1-2.8,0.3c-5.6-4-8.3-11.3-6.7-18c1.8-7.3,7.4-12.5,14.4-13.3C22.1,4.6,23.1,4.6,24,4.6z"/>
	<circle class="st1" cx="19.5" cy="36.2" r="1.7"/>
	<circle class="st1" cx="24.4" cy="36.5" r="1.7"/>
</g>
</svg>
