<?xml version="1.0" encoding="utf-8"?>
<!-- Generator: Adobe Illustrator 16.0.0, SVG Export Plug-In . SVG Version: 6.00 Build 0)  -->
<!DOCTYPE svg PUBLIC "-//W3C//DTD SVG 1.1//EN" "http://www.w3.org/Graphics/SVG/1.1/DTD/svg11.dtd">
<svg version="1.1" xmlns="http://www.w3.org/2000/svg" xmlns:xlink="http://www.w3.org/1999/xlink" x="0px" y="0px"
	 width="33.016px" height="16.476px" viewBox="0 0 33.016 16.476" enable-background="new 0 0 33.016 16.476" xml:space="preserve">
<g id="Capa_1">
</g>
<g id="Capa_2">
</g>
<g id="Capa_3">
</g>
<g id="Capa_4">
	<g>
		<g>
			<path d="M8.446,11.751c-1.161,0-2.111-0.949-2.111-2.111c0-0.105,0.007-0.203,0.021-0.303c0.148-1.035,1.049-1.809,2.091-1.809
				h0.007c0.388,0.008,0.698,0.316,0.698,0.703c0,0.389-0.317,0.705-0.705,0.705c-0.344,0-0.647,0.26-0.696,0.598L7.743,9.64
				c0,0.387,0.317,0.705,0.704,0.705c0.388,0,0.705-0.318,0.705-0.705V9.591c-0.028-0.387,0.26-0.725,0.647-0.754
				c0.395-0.027,0.726,0.268,0.754,0.656l0.007,0.146C10.559,10.802,9.607,11.751,8.446,11.751z M8.446,14.567
				c-3.91,0-7.285-1.875-8.396-4.666c-0.067-0.168-0.067-0.355,0-0.521c1.111-2.791,4.487-4.668,8.396-4.668
				c3.912,0,7.286,1.877,8.398,4.668c0.067,0.166,0.067,0.354,0,0.521C15.732,12.692,12.358,14.567,8.446,14.567L8.446,14.567z
				 M1.472,9.64c1.003,2.086,3.817,3.52,6.974,3.52s5.972-1.434,6.975-3.52c-1.003-2.086-3.816-3.52-6.975-3.52
				C5.289,6.12,2.475,7.554,1.472,9.64L1.472,9.64z M8.446,14.567c-2.717,0-4.927-2.211-4.927-4.928s2.21-4.928,4.927-4.928
				s4.928,2.211,4.928,4.928S11.163,14.567,8.446,14.567z M8.446,6.12c-1.94,0-3.519,1.58-3.519,3.52c0,1.941,1.579,3.52,3.519,3.52
				c1.941,0,3.52-1.578,3.52-3.52C11.966,7.7,10.388,6.12,8.446,6.12z M16.189,6.12c-0.185,0-0.368-0.072-0.507-0.217
				c-1.56-1.619-4.265-2.588-7.236-2.588c-2.97,0-5.675,0.969-7.235,2.59c-0.27,0.279-0.716,0.289-0.995,0.02
				c-0.28-0.27-0.289-0.717-0.02-0.996c1.82-1.891,4.905-3.021,8.25-3.021c3.346,0,6.431,1.131,8.251,3.021
				c0.27,0.279,0.261,0.727-0.019,0.996C16.542,6.056,16.366,6.12,16.189,6.12L16.189,6.12z"/>
		</g>
		<g>
			<path d="M32.985,5.532c-0.242-1.715-1.069-3.217-2.327-4.232c-1.286-1.035-2.925-1.475-4.614-1.236
				c-1.702,0.24-3.032,1.027-3.848,2.279c-0.773,1.188-1.052,2.744-0.804,4.498c0.032,0.225,0.24,0.383,0.466,0.35
				c0.225-0.031,0.382-0.24,0.35-0.465c-0.22-1.555,0.015-2.914,0.679-3.934c0.682-1.045,1.813-1.707,3.273-1.914
				c1.461-0.205,2.875,0.172,3.981,1.064c1.095,0.883,1.816,2.199,2.028,3.705c0.206,1.457-1.068,3.641-2.192,5.566
				c-0.118,0.201-0.235,0.402-0.35,0.6c-0.153,0.266-0.298,0.527-0.438,0.783c-0.855,1.555-1.53,2.781-3.312,3.031
				c-0.774,0.109-1.636-0.176-2.195-0.725c-0.63-0.619-0.89-1.543-0.75-2.67c0.028-0.227-0.133-0.432-0.358-0.459
				c-0.226-0.027-0.431,0.131-0.459,0.357c-0.217,1.758,0.419,2.797,0.991,3.359c0.638,0.627,1.539,0.984,2.432,0.984
				c0.152,0,0.305-0.01,0.456-0.031c2.189-0.309,3.029-1.834,3.918-3.449c0.139-0.252,0.28-0.508,0.431-0.77
				c0.114-0.197,0.23-0.396,0.347-0.596C31.938,9.487,33.231,7.272,32.985,5.532z"/>
			<path d="M23.263,9.122c0.687,0.17,1.446,0.393,1.454,0.395c0.219,0.064,0.446-0.062,0.511-0.279
				c0.064-0.219-0.062-0.447-0.28-0.512c-0.032-0.01-0.783-0.229-1.487-0.402c-0.737-0.184-1.258,0.223-1.392,0.719
				c-0.137,0.506,0.115,1.135,0.86,1.352c0.425,0.125,0.85,0.527,0.838,1.057c-0.019,0.885,0.379,1.537,1.015,1.662
				c0.06,0.012,0.123,0.018,0.188,0.018c0.45,0,1.011-0.295,1.34-1.156c0.191-0.5,0.295-0.844,0.379-1.119
				c0.151-0.502,0.233-0.777,0.697-1.502c0.193-0.303,0.427-0.59,0.654-0.867c0.633-0.775,1.35-1.652,0.769-2.699
				c-0.621-1.119-2.274-1.971-3.682-2.008c0.43-0.469,1.061-0.779,1.813-0.887c0.767-0.107,1.547,0.145,2.2,0.711
				c0.755,0.656,1.205,1.615,1.205,2.566c0,1.225-1.179,3.025-2.041,4.34c-0.271,0.416-0.528,0.809-0.716,1.133
				c-0.114,0.195-0.046,0.449,0.15,0.562c0.065,0.037,0.136,0.055,0.206,0.055c0.142,0,0.28-0.074,0.356-0.205
				c0.177-0.305,0.428-0.688,0.693-1.094c0.969-1.48,2.174-3.32,2.174-4.791c0-1.188-0.556-2.379-1.488-3.188
				c-0.835-0.727-1.85-1.047-2.855-0.906c-1.113,0.158-2.03,0.688-2.582,1.49c-0.509,0.742-0.667,1.678-0.446,2.637
				c0.213,0.926,0.697,1.594,1.479,2.041c0.198,0.113,0.449,0.043,0.562-0.154c0.113-0.197,0.045-0.449-0.153-0.562
				c-0.587-0.334-0.921-0.801-1.085-1.508c-0.114-0.494-0.1-0.961,0.033-1.385c1.224-0.225,2.96,0.658,3.457,1.551
				c0.296,0.533-0.05,1-0.686,1.779c-0.242,0.297-0.492,0.602-0.711,0.945c-0.523,0.82-0.63,1.174-0.791,1.705
				c-0.083,0.277-0.179,0.592-0.359,1.064c-0.182,0.475-0.438,0.656-0.601,0.625c-0.182-0.035-0.36-0.334-0.35-0.836
				c0.021-0.943-0.703-1.652-1.429-1.865c-0.268-0.078-0.327-0.234-0.297-0.346C22.9,9.122,23.053,9.071,23.263,9.122z"/>
		</g>
	</g>
</g>
</svg>
