<?xml version="1.0" encoding="utf-8"?>
<!-- Generator: Adobe Illustrator 16.0.0, SVG Export Plug-In . SVG Version: 6.00 Build 0)  -->
<!DOCTYPE svg PUBLIC "-//W3C//DTD SVG 1.1//EN" "http://www.w3.org/Graphics/SVG/1.1/DTD/svg11.dtd">
<svg version="1.1" xmlns="http://www.w3.org/2000/svg" xmlns:xlink="http://www.w3.org/1999/xlink" x="0px" y="0px"
	 width="29.733px" height="30.283px" viewBox="0 0 29.733 30.283" enable-background="new 0 0 29.733 30.283" xml:space="preserve">
<g id="Capa_1">
</g>
<g id="Capa_2">
</g>
<g id="Capa_3">
</g>
<g id="Capa_4">
	<g>
		<path d="M9.36,19.221c0.92-0.011,1.945,0.022,2.865,0.011c0.43-0.005,0.859-0.01,1.289-0.015c0.279-0.005,0.764,0.091,1.025-0.022
			c0.37-0.16,0.062-1.062-0.02-1.324c-0.184-0.597-0.52-1.153-1.006-1.551c-0.342-0.28-0.741-0.47-1.154-0.558
			c0.518-0.202,0.983-0.583,1.031-1.165c0.065-0.77-0.546-1.58-1.319-1.677c-0.772-0.096-1.364,0.545-1.389,1.289
			c-0.021,0.668,0.423,1.194,0.977,1.502c-0.46,0.029-0.912,0.186-1.306,0.487c-0.793,0.603-1.645,2-1.137,2.998"/>
		<path d="M7.973,9.377c0.919-0.011,1.944,0.021,2.864,0.011c0.43-0.004,0.859-0.011,1.288-0.016
			c0.279-0.003,0.763,0.093,1.026-0.022c0.37-0.158,0.062-1.061-0.019-1.322c-0.184-0.598-0.521-1.154-1.007-1.552
			c-0.342-0.279-0.74-0.47-1.154-0.558c0.518-0.202,0.982-0.584,1.031-1.164c0.065-0.771-0.545-1.583-1.319-1.678
			C9.911,2.979,9.319,3.62,9.295,4.364C9.274,5.033,9.717,5.56,10.271,5.867c-0.46,0.03-0.913,0.186-1.306,0.485
			c-0.794,0.604-1.645,2-1.137,2.998"/>
		<path d="M12.416,30.254c0.919-0.011,1.944,0.021,2.865,0.01c0.429-0.005,0.858-0.01,1.287-0.016
			c0.279-0.002,0.764,0.092,1.026-0.021c0.37-0.16,0.062-1.061-0.019-1.325c-0.184-0.595-0.52-1.151-1.007-1.55
			c-0.343-0.28-0.74-0.47-1.154-0.559c0.518-0.201,0.983-0.582,1.032-1.164c0.065-0.771-0.546-1.581-1.319-1.677
			c-0.774-0.096-1.366,0.544-1.389,1.289c-0.021,0.668,0.422,1.194,0.976,1.502c-0.46,0.029-0.913,0.186-1.306,0.485
			c-0.793,0.604-1.644,2.001-1.137,2.998"/>
		<path d="M4.013,27.442c0.921-0.011,1.946,0.021,2.866,0.011c0.429-0.005,0.858-0.01,1.287-0.016
			c0.279-0.004,0.764,0.093,1.026-0.021c0.368-0.16,0.062-1.062-0.019-1.324c-0.184-0.598-0.521-1.153-1.006-1.551
			c-0.343-0.281-0.741-0.47-1.155-0.559C7.53,23.78,7.995,23.4,8.043,22.818c0.065-0.77-0.545-1.581-1.319-1.677
			c-0.773-0.096-1.365,0.544-1.388,1.289c-0.021,0.668,0.422,1.194,0.976,1.501c-0.459,0.03-0.912,0.187-1.306,0.485
			c-0.792,0.605-1.645,2.001-1.137,3"/>
		<path d="M26.02,13.849c0.507-0.997-0.343-2.395-1.137-2.998c-0.393-0.3-0.846-0.456-1.306-0.486
			c0.555-0.307,0.998-0.832,0.977-1.5c-0.023-0.746-0.615-1.386-1.388-1.291c-0.774,0.097-1.385,0.907-1.319,1.678
			c0.048,0.581,0.513,0.963,1.03,1.165c-0.413,0.087-0.811,0.276-1.154,0.557c-0.486,0.398-0.823,0.954-1.006,1.552
			c-0.081,0.262-0.389,1.164-0.019,1.323c0.262,0.114,0.747,0.019,1.025,0.022c0.429,0.006,0.859,0.011,1.289,0.016
			c0.92,0.011,1.944-0.021,2.864-0.01"/>
		<path d="M21.326,26.265c0.919-0.011,1.945,0.021,2.865,0.011c0.429-0.006,0.859-0.01,1.289-0.016
			c0.279-0.003,0.763,0.092,1.024-0.022c0.371-0.159,0.062-1.061-0.018-1.324c-0.184-0.596-0.521-1.151-1.006-1.551
			c-0.343-0.28-0.741-0.47-1.154-0.558c0.517-0.201,0.982-0.583,1.03-1.164c0.065-0.771-0.545-1.582-1.318-1.677
			c-0.773-0.096-1.365,0.544-1.389,1.289c-0.021,0.668,0.422,1.195,0.977,1.501c-0.46,0.029-0.912,0.187-1.307,0.486
			c-0.793,0.604-1.644,2-1.137,2.999"/>
		<path d="M0.184,23.934c0.272,0.118,0.772,0.021,1.06,0.024c0.443,0.005,0.888,0.01,1.332,0.015
			c0.951,0.012,1.901,0.023,2.852,0.033c0.111,0.003,0.109-0.17-0.002-0.172c-1.268-0.014-2.537-0.029-3.804-0.044
			c-0.317-0.004-0.634-0.008-0.952-0.013c-0.191-0.002-0.332,0.061-0.422-0.12c-0.082-0.167-0.019-0.414,0.009-0.578
			c0.099-0.571,0.327-1.116,0.69-1.569c0.44-0.546,1.085-0.913,1.762-0.998c0.016,0.006,0.033,0.009,0.055,0
			c0.008-0.003,0.017-0.007,0.025-0.01c0.006,0,0.013,0,0.021-0.001c0.047,0.011,0.095,0.021,0.143,0.029
			c0.04,0.006,0.07-0.012,0.089-0.037c0.351,0.004,0.703,0.087,1.032,0.263c0.912,0.488,1.998,2.041,1.463,3.093
			c-0.049,0.1,0.1,0.185,0.148,0.086c0.524-1.031-0.354-2.474-1.175-3.1c-0.407-0.309-0.875-0.471-1.35-0.501
			c0.572-0.318,1.031-0.862,1.01-1.552c-0.025-0.771-0.637-1.433-1.437-1.333c-0.799,0.098-1.43,0.938-1.363,1.732
			c0.051,0.602,0.531,0.995,1.065,1.205c-0.427,0.091-0.838,0.286-1.192,0.576c-0.503,0.41-0.851,0.986-1.04,1.602
			C0.12,22.837-0.198,23.77,0.184,23.934z M2.789,20.319c-0.504-0.126-1.027-0.407-1.2-0.923c-0.234-0.704,0.331-1.582,1.027-1.752
			c0.8-0.194,1.424,0.499,1.379,1.267C3.957,19.593,3.388,20.088,2.789,20.319z"/>
		<path d="M5.691,19.11c0.272,0.117,0.772,0.019,1.061,0.023c0.443,0.004,0.887,0.01,1.332,0.015
			c0.951,0.012,1.901,0.022,2.853,0.033c0.11,0.002,0.107-0.17-0.003-0.172c-1.268-0.014-2.535-0.029-3.803-0.044
			c-0.317-0.005-0.635-0.009-0.952-0.012c-0.191-0.002-0.332,0.061-0.422-0.122c-0.082-0.166-0.02-0.413,0.009-0.577
			c0.099-0.571,0.327-1.116,0.69-1.569c0.44-0.546,1.086-0.913,1.763-0.999c0.015,0.006,0.034,0.01,0.054,0.001
			c0.008-0.003,0.017-0.006,0.026-0.009c0.006-0.001,0.013-0.002,0.021-0.002c0.047,0.011,0.096,0.021,0.143,0.029
			c0.04,0.006,0.07-0.012,0.088-0.039c0.352,0.006,0.703,0.089,1.033,0.265c0.913,0.488,1.998,2.041,1.463,3.093
			c-0.05,0.099,0.098,0.185,0.148,0.086c0.524-1.03-0.356-2.475-1.175-3.099c-0.407-0.31-0.875-0.471-1.35-0.502
			c0.572-0.318,1.031-0.862,1.01-1.553c-0.025-0.77-0.637-1.432-1.436-1.332c-0.8,0.098-1.432,0.937-1.364,1.732
			c0.051,0.602,0.531,0.996,1.065,1.205c-0.427,0.091-0.839,0.286-1.192,0.575c-0.502,0.412-0.851,0.987-1.041,1.604
			C5.627,18.013,5.309,18.946,5.691,19.11z M8.296,15.495c-0.504-0.126-1.027-0.406-1.199-0.922
			c-0.235-0.704,0.331-1.583,1.027-1.753c0.799-0.194,1.424,0.499,1.38,1.267C9.464,14.769,8.896,15.264,8.296,15.495z"/>
		<path d="M23.475,22.153c0.271,0.117,0.771,0.02,1.06,0.022c0.443,0.006,0.888,0.011,1.331,0.016
			c0.951,0.012,1.902,0.023,2.853,0.034c0.111,0.001,0.108-0.171-0.001-0.172c-1.269-0.016-2.537-0.03-3.805-0.045
			c-0.317-0.004-0.634-0.008-0.952-0.012c-0.191-0.001-0.332,0.062-0.422-0.122c-0.082-0.165-0.02-0.412,0.009-0.576
			c0.1-0.571,0.327-1.117,0.691-1.57c0.439-0.547,1.084-0.913,1.762-0.998c0.015,0.006,0.033,0.009,0.053,0
			c0.009-0.002,0.018-0.006,0.026-0.008c0.006-0.002,0.013-0.002,0.02-0.003c0.047,0.011,0.095,0.021,0.143,0.029
			c0.04,0.006,0.07-0.012,0.088-0.038c0.351,0.004,0.703,0.089,1.033,0.264c0.913,0.489,1.998,2.042,1.463,3.092
			c-0.05,0.1,0.1,0.186,0.148,0.089c0.524-1.033-0.354-2.477-1.175-3.101c-0.407-0.31-0.875-0.471-1.35-0.502
			c0.572-0.318,1.031-0.863,1.009-1.552c-0.024-0.771-0.636-1.433-1.436-1.334c-0.8,0.1-1.43,0.938-1.363,1.733
			c0.05,0.602,0.531,0.996,1.065,1.205c-0.427,0.091-0.839,0.287-1.192,0.576c-0.502,0.411-0.851,0.986-1.041,1.604
			C23.41,21.057,23.092,21.989,23.475,22.153z M26.081,18.538c-0.505-0.126-1.028-0.407-1.2-0.922
			c-0.235-0.705,0.33-1.583,1.027-1.752c0.8-0.194,1.424,0.498,1.379,1.266C27.247,17.812,26.678,18.307,26.081,18.538z"/>
		<path d="M3.746,8.801c0.271,0.117,0.771,0.02,1.06,0.022C5.25,8.83,5.693,8.835,6.137,8.84c0.95,0.011,1.902,0.022,2.853,0.033
			c0.11,0.001,0.107-0.17-0.002-0.172C7.719,8.687,6.451,8.672,5.183,8.657C4.866,8.652,4.55,8.648,4.232,8.645
			C4.041,8.643,3.9,8.705,3.81,8.522C3.728,8.357,3.791,8.11,3.819,7.946c0.1-0.571,0.327-1.117,0.69-1.569
			c0.44-0.547,1.085-0.913,1.763-0.999c0.015,0.006,0.033,0.008,0.054,0.001c0.009-0.003,0.017-0.007,0.025-0.01
			c0.007,0,0.014,0,0.021-0.001c0.048,0.011,0.096,0.02,0.143,0.028c0.04,0.007,0.07-0.012,0.088-0.038
			c0.351,0.006,0.703,0.09,1.032,0.264c0.913,0.489,1.998,2.042,1.463,3.094c-0.049,0.099,0.1,0.184,0.149,0.086
			c0.524-1.032-0.355-2.475-1.175-3.1C7.666,5.394,7.198,5.231,6.723,5.2c0.572-0.317,1.031-0.861,1.009-1.552
			c-0.025-0.77-0.636-1.432-1.436-1.332c-0.8,0.098-1.431,0.937-1.364,1.732c0.05,0.602,0.531,0.995,1.066,1.205
			C5.571,5.344,5.16,5.54,4.805,5.829c-0.502,0.411-0.85,0.987-1.04,1.603C3.681,7.704,3.364,8.637,3.746,8.801z M6.351,5.187
			C5.847,5.061,5.323,4.778,5.152,4.264c-0.235-0.705,0.33-1.582,1.026-1.752c0.8-0.194,1.425,0.499,1.38,1.266
			C7.518,4.46,6.95,4.955,6.351,5.187z"/>
		<path d="M17.652,11.373c0.271,0.118,0.772,0.021,1.06,0.022c0.443,0.006,0.889,0.013,1.332,0.017
			c0.951,0.012,1.902,0.023,2.853,0.034c0.111,0.002,0.108-0.17-0.002-0.172c-1.269-0.016-2.536-0.03-3.805-0.045
			c-0.317-0.004-0.633-0.008-0.952-0.012c-0.191-0.002-0.332,0.061-0.422-0.123c-0.081-0.165-0.019-0.411,0.01-0.575
			c0.099-0.571,0.327-1.118,0.69-1.57c0.44-0.547,1.086-0.913,1.763-0.998c0.016,0.005,0.033,0.008,0.054,0.001
			c0.009-0.003,0.017-0.006,0.025-0.01c0.007-0.001,0.014-0.001,0.021-0.002c0.047,0.011,0.096,0.021,0.143,0.029
			c0.04,0.007,0.07-0.012,0.088-0.038c0.351,0.004,0.703,0.087,1.032,0.265c0.913,0.486,1.998,2.04,1.464,3.092
			c-0.05,0.099,0.099,0.185,0.149,0.087c0.523-1.032-0.356-2.476-1.176-3.1c-0.407-0.311-0.875-0.471-1.35-0.502
			c0.573-0.317,1.031-0.862,1.009-1.553c-0.025-0.77-0.637-1.432-1.436-1.333c-0.799,0.1-1.43,0.938-1.364,1.733
			c0.051,0.602,0.532,0.996,1.066,1.204c-0.428,0.092-0.839,0.287-1.193,0.576c-0.502,0.412-0.85,0.987-1.041,1.604
			C17.587,10.276,17.27,11.209,17.652,11.373z M20.257,7.76c-0.505-0.128-1.028-0.408-1.2-0.923
			c-0.234-0.705,0.331-1.583,1.027-1.754c0.8-0.193,1.425,0.499,1.38,1.268C21.424,7.033,20.856,7.527,20.257,7.76z"/>
		<path d="M13.779,25.245c-0.19-0.616-0.538-1.191-1.042-1.603c-0.354-0.289-0.765-0.485-1.192-0.577
			c0.535-0.208,1.015-0.603,1.066-1.203c0.067-0.796-0.564-1.635-1.363-1.732c-0.799-0.1-1.411,0.562-1.437,1.332
			c-0.021,0.69,0.438,1.234,1.01,1.552c-0.476,0.031-0.943,0.192-1.35,0.502c-0.819,0.624-1.699,2.067-1.176,3.099
			c0.05,0.099,0.199,0.013,0.149-0.086c-0.535-1.051,0.55-2.604,1.464-3.093c0.328-0.176,0.681-0.259,1.032-0.264
			c0.018,0.026,0.048,0.044,0.088,0.038c0.048-0.009,0.095-0.019,0.143-0.029c0.006,0.001,0.013,0.002,0.02,0.002
			c0.009,0.003,0.017,0.007,0.025,0.009c0.021,0.008,0.039,0.007,0.054-0.001c0.678,0.086,1.323,0.453,1.764,1
			c0.363,0.452,0.591,0.998,0.689,1.569c0.029,0.164,0.091,0.411,0.01,0.576c-0.09,0.183-0.23,0.12-0.422,0.122
			c-0.318,0.004-0.634,0.007-0.952,0.012c-1.268,0.015-2.536,0.029-3.804,0.045c-0.11,0.001-0.113,0.173-0.003,0.172
			c0.951-0.012,1.902-0.022,2.854-0.034c0.443-0.005,0.889-0.01,1.331-0.017c0.289-0.003,0.789,0.096,1.061-0.021
			C14.18,26.449,13.863,25.518,13.779,25.245z M9.986,21.591c-0.045-0.767,0.579-1.461,1.379-1.267
			c0.697,0.17,1.263,1.048,1.027,1.753c-0.172,0.515-0.695,0.796-1.2,0.922C10.593,22.768,10.025,22.273,9.986,21.591z"/>
		<path d="M22.257,19.257c-0.19-0.616-0.538-1.192-1.04-1.602c-0.354-0.291-0.767-0.486-1.193-0.578
			c0.535-0.208,1.016-0.603,1.065-1.204c0.067-0.796-0.563-1.634-1.363-1.733c-0.799-0.098-1.411,0.563-1.435,1.333
			c-0.022,0.69,0.437,1.234,1.009,1.552c-0.476,0.032-0.943,0.192-1.349,0.502c-0.82,0.625-1.7,2.068-1.175,3.1
			c0.049,0.099,0.198,0.013,0.149-0.086c-0.535-1.051,0.551-2.605,1.463-3.092c0.33-0.178,0.682-0.261,1.033-0.265
			c0.018,0.026,0.048,0.045,0.087,0.037c0.047-0.008,0.095-0.018,0.144-0.028c0.006,0.001,0.013,0.001,0.02,0.002
			c0.008,0.004,0.017,0.007,0.025,0.01c0.021,0.007,0.039,0.004,0.054-0.002c0.678,0.086,1.323,0.453,1.763,1
			c0.364,0.451,0.591,0.997,0.69,1.568c0.029,0.163,0.092,0.411,0.009,0.576c-0.089,0.184-0.23,0.121-0.422,0.123
			c-0.317,0.004-0.634,0.008-0.952,0.011c-1.267,0.016-2.536,0.03-3.803,0.046c-0.111,0.001-0.114,0.173-0.003,0.172
			c0.951-0.012,1.902-0.022,2.853-0.034c0.444-0.004,0.888-0.011,1.332-0.016c0.288-0.004,0.789,0.095,1.06-0.023
			C22.659,20.46,22.341,19.528,22.257,19.257z M18.464,15.603c-0.044-0.768,0.58-1.461,1.38-1.268
			c0.697,0.171,1.262,1.049,1.026,1.754c-0.171,0.515-0.694,0.795-1.199,0.923C19.073,16.78,18.504,16.285,18.464,15.603z"/>
		<path d="M17.481,5.128c-0.19-0.617-0.537-1.192-1.04-1.604c-0.354-0.289-0.766-0.485-1.193-0.576
			c0.535-0.209,1.016-0.603,1.066-1.204c0.067-0.796-0.564-1.635-1.364-1.734c-0.799-0.098-1.411,0.563-1.435,1.333
			c-0.022,0.69,0.437,1.235,1.009,1.552c-0.475,0.032-0.943,0.192-1.35,0.503c-0.82,0.625-1.7,2.067-1.175,3.099
			c0.049,0.1,0.198,0.014,0.148-0.086c-0.535-1.052,0.551-2.604,1.464-3.093c0.329-0.176,0.681-0.26,1.031-0.263
			c0.019,0.026,0.049,0.044,0.088,0.037c0.047-0.009,0.095-0.019,0.143-0.03c0.007,0.001,0.014,0.003,0.021,0.004
			c0.009,0.002,0.018,0.006,0.025,0.009c0.021,0.007,0.038,0.005,0.055-0.001c0.677,0.085,1.322,0.451,1.762,1
			c0.364,0.451,0.591,0.997,0.69,1.568c0.029,0.163,0.091,0.41,0.009,0.575c-0.09,0.185-0.231,0.122-0.423,0.123
			c-0.316,0.005-0.633,0.008-0.951,0.012c-1.268,0.016-2.536,0.03-3.804,0.045c-0.111,0.002-0.113,0.173-0.003,0.172
			c0.951-0.011,1.902-0.022,2.854-0.033c0.443-0.005,0.887-0.012,1.331-0.017c0.289-0.003,0.788,0.096,1.06-0.023
			C17.882,6.33,17.565,5.399,17.481,5.128z M13.688,1.473c-0.044-0.769,0.58-1.461,1.379-1.267c0.697,0.171,1.262,1.048,1.027,1.753
			c-0.172,0.515-0.696,0.796-1.2,0.922C14.296,2.65,13.729,2.155,13.688,1.473z"/>
		<path d="M21.736,27.346c-0.19-0.616-0.538-1.192-1.04-1.604c-0.354-0.289-0.766-0.484-1.193-0.576
			c0.535-0.209,1.016-0.603,1.065-1.204c0.067-0.796-0.563-1.634-1.363-1.733c-0.799-0.099-1.412,0.563-1.436,1.332
			c-0.021,0.69,0.437,1.235,1.01,1.554c-0.476,0.03-0.943,0.191-1.351,0.502c-0.819,0.624-1.699,2.066-1.175,3.099
			c0.05,0.099,0.199,0.013,0.148-0.087c-0.534-1.051,0.551-2.604,1.464-3.093c0.329-0.176,0.682-0.259,1.033-0.264
			c0.018,0.027,0.048,0.045,0.088,0.038c0.047-0.009,0.095-0.018,0.143-0.029c0.007,0.002,0.014,0.002,0.021,0.003
			c0.009,0.003,0.017,0.007,0.025,0.009c0.021,0.008,0.039,0.005,0.054-0.001c0.678,0.086,1.323,0.452,1.762,0.999
			c0.365,0.452,0.592,0.998,0.691,1.569c0.029,0.163,0.091,0.411,0.009,0.575c-0.09,0.185-0.23,0.122-0.422,0.123
			c-0.318,0.004-0.634,0.008-0.952,0.012c-1.267,0.016-2.535,0.03-3.803,0.045c-0.11,0.002-0.114,0.174-0.002,0.172
			c0.951-0.011,1.901-0.022,2.853-0.033c0.444-0.005,0.889-0.012,1.332-0.016c0.288-0.004,0.788,0.094,1.06-0.024
			C22.137,28.549,21.82,27.617,21.736,27.346z M17.943,23.69c-0.045-0.768,0.58-1.46,1.379-1.267
			c0.696,0.171,1.262,1.048,1.027,1.753c-0.171,0.515-0.695,0.796-1.2,0.923C18.55,24.868,17.983,24.373,17.943,23.69z"/>
		<path d="M12.159,15.319c0.271,0.117,0.771,0.021,1.06,0.022c0.445,0.006,0.889,0.011,1.332,0.016
			c0.951,0.013,1.902,0.022,2.853,0.035c0.112,0,0.109-0.172-0.001-0.173c-1.268-0.015-2.536-0.03-3.804-0.044
			c-0.317-0.004-0.634-0.009-0.951-0.013c-0.192-0.002-0.332,0.061-0.423-0.122c-0.082-0.165-0.02-0.412,0.009-0.576
			c0.099-0.571,0.327-1.117,0.691-1.57c0.439-0.546,1.085-0.913,1.762-0.999c0.016,0.007,0.033,0.01,0.055,0.001
			c0.008-0.003,0.017-0.006,0.024-0.009c0.007-0.001,0.015-0.002,0.021-0.002c0.048,0.011,0.096,0.021,0.144,0.029
			c0.04,0.006,0.07-0.01,0.088-0.037c0.351,0.004,0.704,0.087,1.033,0.263c0.912,0.488,1.998,2.041,1.463,3.093
			c-0.05,0.099,0.099,0.185,0.148,0.086c0.525-1.03-0.355-2.474-1.175-3.099c-0.406-0.31-0.874-0.471-1.349-0.502
			c0.572-0.318,1.031-0.862,1.009-1.552c-0.024-0.771-0.636-1.433-1.436-1.333c-0.799,0.098-1.43,0.938-1.363,1.732
			c0.05,0.602,0.531,0.996,1.066,1.205c-0.428,0.09-0.839,0.286-1.194,0.576c-0.502,0.411-0.85,0.986-1.04,1.604
			C12.095,14.222,11.777,15.155,12.159,15.319z M14.764,11.704c-0.504-0.126-1.027-0.407-1.199-0.922
			c-0.235-0.704,0.33-1.583,1.027-1.752c0.8-0.195,1.424,0.498,1.379,1.267C15.932,10.978,15.363,11.473,14.764,11.704z"/>
		<path d="M5.655,14.105c-0.19-0.616-0.538-1.191-1.04-1.603c-0.354-0.29-0.766-0.485-1.194-0.577
			c0.535-0.209,1.016-0.603,1.066-1.204c0.066-0.796-0.564-1.634-1.363-1.732c-0.799-0.1-1.411,0.562-1.436,1.331
			c-0.021,0.69,0.437,1.235,1.009,1.554c-0.475,0.031-0.942,0.191-1.349,0.501c-0.82,0.625-1.7,2.067-1.176,3.099
			c0.049,0.1,0.199,0.014,0.149-0.086c-0.534-1.051,0.551-2.605,1.464-3.092c0.329-0.178,0.681-0.26,1.032-0.264
			c0.018,0.025,0.048,0.044,0.087,0.037c0.048-0.009,0.097-0.019,0.144-0.028c0.007,0.001,0.013,0.001,0.02,0.001
			c0.009,0.004,0.018,0.008,0.025,0.01c0.021,0.008,0.039,0.005,0.055-0.001c0.677,0.086,1.322,0.452,1.762,0.999
			c0.364,0.452,0.592,0.999,0.69,1.569c0.029,0.164,0.092,0.411,0.01,0.577c-0.091,0.182-0.231,0.12-0.422,0.122
			c-0.317,0.005-0.635,0.007-0.952,0.012c-1.268,0.015-2.535,0.029-3.804,0.045c-0.11,0.001-0.113,0.173-0.002,0.171
			c0.95-0.011,1.902-0.022,2.854-0.033c0.443-0.005,0.888-0.012,1.332-0.017c0.289-0.003,0.789,0.096,1.06-0.022
			C6.057,15.31,5.739,14.377,5.655,14.105z M1.862,10.45c-0.044-0.768,0.58-1.461,1.379-1.267c0.698,0.17,1.263,1.048,1.028,1.753
			c-0.172,0.515-0.695,0.796-1.2,0.923C2.47,11.627,1.902,11.133,1.862,10.45z"/>
		<path d="M29.53,12.867c-0.19-0.616-0.538-1.192-1.041-1.603c-0.354-0.29-0.765-0.484-1.192-0.576
			c0.534-0.21,1.015-0.604,1.065-1.205c0.066-0.795-0.564-1.635-1.363-1.732c-0.799-0.099-1.411,0.562-1.436,1.332
			c-0.021,0.69,0.437,1.234,1.009,1.553c-0.475,0.031-0.943,0.192-1.35,0.501c-0.819,0.626-1.7,2.069-1.176,3.1
			c0.051,0.099,0.199,0.013,0.149-0.085c-0.535-1.052,0.55-2.605,1.463-3.094c0.33-0.176,0.683-0.259,1.033-0.263
			c0.018,0.026,0.048,0.044,0.088,0.036c0.048-0.008,0.096-0.018,0.144-0.028c0.006,0.001,0.014,0.002,0.021,0.002
			c0.008,0.003,0.016,0.006,0.024,0.01c0.021,0.009,0.039,0.004,0.055-0.001c0.677,0.085,1.322,0.452,1.762,0.999
			c0.364,0.452,0.592,0.997,0.691,1.569c0.028,0.163,0.09,0.411,0.009,0.576c-0.09,0.183-0.23,0.12-0.422,0.122
			c-0.317,0.004-0.634,0.008-0.951,0.012c-1.268,0.015-2.536,0.03-3.804,0.045c-0.11,0.001-0.113,0.173-0.003,0.172
			c0.952-0.011,1.902-0.022,2.854-0.034c0.443-0.005,0.888-0.01,1.331-0.015c0.289-0.004,0.789,0.094,1.061-0.023
			C29.931,14.071,29.613,13.139,29.53,12.867z M25.737,9.213c-0.045-0.767,0.579-1.461,1.378-1.267
			c0.697,0.17,1.263,1.049,1.027,1.753c-0.171,0.515-0.695,0.796-1.199,0.922C26.345,10.39,25.777,9.895,25.737,9.213z"/>
	</g>
</g>
</svg>
