<?xml version="1.0" encoding="utf-8"?>
<!-- Generator: Adobe Illustrator 16.0.0, SVG Export Plug-In . SVG Version: 6.00 Build 0)  -->
<!DOCTYPE svg PUBLIC "-//W3C//DTD SVG 1.1//EN" "http://www.w3.org/Graphics/SVG/1.1/DTD/svg11.dtd">
<svg version="1.1" xmlns="http://www.w3.org/2000/svg" xmlns:xlink="http://www.w3.org/1999/xlink" x="0px" y="0px"
	 width="26.665px" height="24.163px" viewBox="0 0 26.665 24.163" enable-background="new 0 0 26.665 24.163" xml:space="preserve">
<g id="Capa_1">
</g>
<g id="Capa_2">
</g>
<g id="Capa_3">
</g>
<g id="Capa_4">
	<g transform="matrix( 1, 0, 0, 1, 0,0) ">
		<g>
			<g id="a">
				<path d="M5.131,18.512c-0.046,0.017-0.091,0.03-0.134,0.042c-0.259,0.029-0.487,0.133-0.685,0.312
					c-0.239,0.216-0.363,0.479-0.372,0.791l-0.104,3.349c-0.009,0.311,0.101,0.578,0.327,0.805c0.228,0.227,0.506,0.345,0.833,0.354
					c0.327,0.008,0.609-0.096,0.848-0.311c0.239-0.217,0.363-0.48,0.372-0.792l0.03-1.285c1.69,1.133,3.625,1.731,5.803,1.794h0.014
					c2.895,0.074,5.419-0.812,7.574-2.656c0.019-0.009,0.034-0.023,0.044-0.042c0.044-0.032,0.089-0.07,0.133-0.113
					c0.264-0.228,0.502-0.463,0.715-0.706c0.218-0.234,0.312-0.508,0.283-0.819c-0.018-0.31-0.152-0.568-0.401-0.777
					c-0.249-0.198-0.537-0.288-0.864-0.269c-0.325,0.025-0.597,0.152-0.818,0.382c-0.154,0.181-0.328,0.354-0.52,0.522
					c-0.012,0.012-0.027,0.021-0.045,0.028c-0.037,0.045-0.077,0.083-0.119,0.113c-1.684,1.44-3.657,2.133-5.923,2.077l0,0
					c-1.541-0.045-2.925-0.432-4.151-1.159l1.086-0.269c0.319-0.074,0.562-0.248,0.729-0.522c0.167-0.265,0.207-0.547,0.119-0.848
					c-0.078-0.302-0.262-0.532-0.551-0.692c-0.279-0.158-0.577-0.2-0.893-0.127L5.131,18.512 M5.25,0.033
					C4.931,0.114,4.683,0.288,4.506,0.556C4.341,0.821,4.297,1.104,4.372,1.403c0.083,0.303,0.261,0.534,0.535,0.692L6.053,2.76
					C4.201,3.599,2.708,4.897,1.575,6.659v0.014c-1.468,2.337-1.91,4.828-1.325,7.474c0.024,0.142,0.059,0.273,0.104,0.396
					c0.077,0.292,0.161,0.57,0.253,0.834c0.101,0.3,0.294,0.521,0.581,0.664c0.298,0.143,0.6,0.166,0.907,0.07
					c0.316-0.096,0.55-0.283,0.7-0.565c0.15-0.273,0.175-0.562,0.075-0.861c-0.079-0.229-0.148-0.47-0.209-0.72
					c-0.012-0.047-0.027-0.095-0.044-0.143c-0.004-0.018-0.01-0.037-0.015-0.057c-0.488-2.102-0.15-4.079,1.012-5.933l0,0
					c0.801-1.243,1.833-2.194,3.095-2.854L6.411,6.009C6.332,6.314,6.378,6.602,6.545,6.871c0.165,0.271,0.402,0.445,0.714,0.522
					C7.58,7.478,7.882,7.439,8.166,7.28c0.286-0.156,0.47-0.388,0.551-0.691L9.61,3.425c0.014-0.029,0.024-0.062,0.03-0.1
					C9.753,3.1,9.772,2.859,9.699,2.604C9.626,2.302,9.447,2.066,9.164,1.898L6.143,0.161C5.865,0.005,5.567-0.038,5.25,0.033
					 M22.615,6.772V6.758c-1.323-2.447-3.342-4.134-6.057-5.058c-0.078-0.025-0.167-0.054-0.268-0.084
					c-0.005-0.002-0.016-0.008-0.029-0.015c-0.32-0.091-0.642-0.171-0.967-0.24c-0.32-0.056-0.619,0-0.893,0.169
					c-0.275,0.177-0.448,0.417-0.52,0.721c-0.06,0.305,0,0.588,0.179,0.848c0.186,0.262,0.438,0.422,0.759,0.48
					c0.24,0.053,0.479,0.113,0.713,0.184c0.061,0.018,0.11,0.031,0.149,0.043c0.029,0.014,0.053,0.023,0.074,0.027
					c2.126,0.725,3.708,2.043,4.747,3.956h-0.015c0.7,1.308,1.002,2.645,0.907,4.013l-0.759-0.777
					c-0.219-0.224-0.492-0.342-0.819-0.354c-0.328-0.011-0.615,0.088-0.862,0.297c-0.236,0.217-0.36,0.48-0.372,0.791
					c-0.011,0.311,0.093,0.58,0.312,0.806l2.351,2.388c0.023,0.022,0.042,0.041,0.06,0.057c0.148,0.23,0.356,0.391,0.625,0.48
					c0.318,0.098,0.626,0.074,0.923-0.071l3.154-1.512c0.293-0.135,0.491-0.352,0.595-0.649c0.104-0.291,0.079-0.578-0.074-0.862
					c-0.142-0.276-0.371-0.464-0.685-0.565c-0.308-0.098-0.611-0.078-0.907,0.057l-1.206,0.58
					C23.973,10.521,23.601,8.622,22.615,6.772z"/>
			</g>
		</g>
	</g>
</g>
</svg>
