<?xml version="1.0" encoding="utf-8"?>
<!-- Generator: Adobe Illustrator 16.0.0, SVG Export Plug-In . SVG Version: 6.00 Build 0)  -->
<!DOCTYPE svg PUBLIC "-//W3C//DTD SVG 1.1//EN" "http://www.w3.org/Graphics/SVG/1.1/DTD/svg11.dtd">
<svg version="1.1" xmlns="http://www.w3.org/2000/svg" xmlns:xlink="http://www.w3.org/1999/xlink" x="0px" y="0px"
	 width="89.939px" height="83.356px" viewBox="0 0 89.939 83.356" enable-background="new 0 0 89.939 83.356" xml:space="preserve">
<g id="Capa_1">
	<g>
		<path fill="#E5054F" d="M-6894.372-262.936l-76.075-24.784c-12.598,22.922-19.324,49.075-19.324,76.244
			c0,29.898,8.145,58.565,23.297,83.049l77.729-25.264c-13.967-13.966-22.844-34.682-22.844-57.785
			C-6911.589-231.304-6905.053-249.38-6894.372-262.936z"/>
	</g>
	<rect x="-8266.813" y="-460.569" fill="#F9CD63" width="1133.858" height="4251.968"/>
</g>
<g id="Capa_2">
</g>
<g id="Capa_3">
	
		<line opacity="0.3" fill="none" stroke="#000000" stroke-width="9.1133" stroke-linecap="round" stroke-miterlimit="10" x1="-7258.266" y1="-4003.409" x2="-7515.51" y2="-4087.216"/>
	
		<line opacity="0.3" fill="none" stroke="#000000" stroke-width="9.1133" stroke-linecap="round" stroke-miterlimit="10" x1="-7260.088" y1="-4003.409" x2="-6999.117" y2="-4088.23"/>
	
		<line opacity="0.3" fill="none" stroke="#000000" stroke-width="9.6816" stroke-linecap="round" stroke-miterlimit="10" x1="-7260.088" y1="-4003.409" x2="-7260.088" y2="-3843.926"/>
	<path fill="#DADADA" d="M-7426.396-3947.922l-78.469,25.504c4.592,7.122,9.785,13.874,15.555,20.179
		c27.213,29.733,63.785,46.108,102.979,46.108h124.877v-75.641h-124.877C-7401.432-3931.771-7415.336-3937.817-7426.396-3947.922z"
		/>
	<rect x="-7599.303" y="-4182.604" fill="none" width="678.068" height="345.034"/>
	<path fill="#DADADA" d="M-7432.415-4061.582c11.801-13.799,28.103-22.349,46.083-22.349h124.959v-75.641h-124.959
		c-39.194,0-75.765,16.375-102.979,46.107c-7.567,8.269-14.138,17.308-19.664,26.94L-7432.415-4061.582z"/>
	<path fill="#F39200" d="M-7083.589-4062.213l76.761-24.948c-5.449-9.395-11.9-18.216-19.302-26.303
		c-27.213-29.732-63.785-46.107-102.979-46.107h-129.529v75.641h129.529C-7111.408-4083.931-7095.344-4075.636-7083.589-4062.213z"
		/>
	<path fill="#DADADA" d="M-7088.51-3948.412l78.251,25.493c15.914-24.891,24.487-54.264,24.487-84.933
		c0-27.423-6.854-53.81-19.679-76.883l-76.245,24.781c10.988,13.625,17.742,31.954,17.742,52.102
		C-7063.953-3983.817-7073.558-3962.365-7088.51-3948.412z"/>
	<path fill="#DADADA" d="M-7090.87-3946.307c-10.749,9.131-23.96,14.535-38.239,14.535h-129.611v75.641h129.611
		c39.194,0,75.767-16.375,102.979-46.108c5.263-5.749,10.038-11.875,14.323-18.31L-7090.87-3946.307z"/>
	<g>
		<path fill="#DADADA" d="M-7434.269-4059.312l-76.075-24.784c-12.598,22.922-19.324,49.075-19.324,76.244
			c0,29.898,8.145,58.565,23.297,83.049l77.729-25.264c-13.967-13.966-22.844-34.682-22.844-57.785
			C-7451.486-4027.68-7444.95-4045.756-7434.269-4059.312z"/>
	</g>
	
		<line opacity="0.3" fill="none" stroke="#000000" stroke-width="9.1133" stroke-linecap="round" stroke-miterlimit="10" x1="-7258.266" y1="-3479.409" x2="-7515.51" y2="-3563.216"/>
	
		<line opacity="0.3" fill="none" stroke="#000000" stroke-width="9.1133" stroke-linecap="round" stroke-miterlimit="10" x1="-7260.088" y1="-3479.409" x2="-6999.117" y2="-3564.23"/>
	
		<line opacity="0.3" fill="none" stroke="#000000" stroke-width="9.6816" stroke-linecap="round" stroke-miterlimit="10" x1="-7260.088" y1="-3479.409" x2="-7260.088" y2="-3319.926"/>
	<path fill="#DADADA" d="M-7426.396-3423.922l-78.469,25.504c4.592,7.122,9.785,13.874,15.555,20.179
		c27.213,29.733,63.785,46.108,102.979,46.108h124.877v-75.641h-124.877C-7401.432-3407.771-7415.336-3413.817-7426.396-3423.922z"
		/>
	<rect x="-7599.303" y="-3658.604" fill="none" width="678.068" height="345.034"/>
	<path fill="#DADADA" d="M-7432.415-3537.582c11.801-13.799,28.103-22.349,46.083-22.349h124.959v-75.641h-124.959
		c-39.194,0-75.765,16.375-102.979,46.107c-7.567,8.269-14.138,17.308-19.664,26.94L-7432.415-3537.582z"/>
	<path fill="#DADADA" d="M-7083.589-3538.213l76.761-24.948c-5.449-9.395-11.9-18.216-19.302-26.303
		c-27.213-29.732-63.785-46.107-102.979-46.107h-129.529v75.641h129.529C-7111.408-3559.931-7095.344-3551.636-7083.589-3538.213z"
		/>
	<path fill="#36A9E1" d="M-7088.51-3424.412l78.251,25.493c15.914-24.891,24.487-54.264,24.487-84.933
		c0-27.423-6.854-53.81-19.679-76.883l-76.245,24.781c10.988,13.625,17.742,31.954,17.742,52.102
		C-7063.953-3459.817-7073.558-3438.365-7088.51-3424.412z"/>
	<path fill="#DADADA" d="M-7090.87-3422.307c-10.749,9.131-23.96,14.535-38.239,14.535h-129.611v75.641h129.611
		c39.194,0,75.767-16.375,102.979-46.108c5.263-5.749,10.038-11.875,14.323-18.31L-7090.87-3422.307z"/>
	<g>
		<path fill="#DADADA" d="M-7434.269-3535.312l-76.075-24.784c-12.598,22.922-19.324,49.075-19.324,76.244
			c0,29.898,8.145,58.565,23.297,83.049l77.729-25.264c-13.967-13.966-22.844-34.682-22.844-57.785
			C-7451.486-3503.68-7444.95-3521.756-7434.269-3535.312z"/>
	</g>
	
		<line opacity="0.3" fill="none" stroke="#000000" stroke-width="9.1133" stroke-linecap="round" stroke-miterlimit="10" x1="-7258.266" y1="-2941.409" x2="-7515.51" y2="-3025.216"/>
	
		<line opacity="0.3" fill="none" stroke="#000000" stroke-width="9.1133" stroke-linecap="round" stroke-miterlimit="10" x1="-7260.088" y1="-2941.409" x2="-6999.117" y2="-3026.23"/>
	
		<line opacity="0.3" fill="none" stroke="#000000" stroke-width="9.6816" stroke-linecap="round" stroke-miterlimit="10" x1="-7260.088" y1="-2941.409" x2="-7260.088" y2="-2781.926"/>
	<path fill="#DADADA" d="M-7426.396-2885.922l-78.469,25.504c4.592,7.122,9.785,13.874,15.555,20.179
		c27.213,29.733,63.785,46.108,102.979,46.108h124.877v-75.641h-124.877C-7401.432-2869.771-7415.336-2875.817-7426.396-2885.922z"
		/>
	<rect x="-7599.303" y="-3120.604" fill="none" width="678.068" height="345.034"/>
	<path fill="#DADADA" d="M-7432.415-2999.582c11.801-13.799,28.103-22.349,46.083-22.349h124.959v-75.641h-124.959
		c-39.194,0-75.765,16.375-102.979,46.107c-7.567,8.269-14.138,17.308-19.664,26.94L-7432.415-2999.582z"/>
	<path fill="#DADADA" d="M-7083.589-3000.213l76.761-24.948c-5.449-9.395-11.9-18.216-19.302-26.303
		c-27.213-29.732-63.785-46.107-102.979-46.107h-129.529v75.641h129.529C-7111.408-3021.931-7095.344-3013.636-7083.589-3000.213z"
		/>
	<path fill="#DADADA" d="M-7088.51-2886.412l78.251,25.493c15.914-24.891,24.487-54.264,24.487-84.933
		c0-27.423-6.854-53.81-19.679-76.883l-76.245,24.781c10.988,13.625,17.742,31.954,17.742,52.102
		C-7063.953-2921.817-7073.558-2900.365-7088.51-2886.412z"/>
	<path fill="#007CBB" d="M-7090.87-2884.307c-10.749,9.131-23.96,14.535-38.239,14.535h-129.611v75.641h129.611
		c39.194,0,75.767-16.375,102.979-46.108c5.263-5.749,10.038-11.875,14.323-18.31L-7090.87-2884.307z"/>
	<g>
		<path fill="#DADADA" d="M-7434.269-2997.312l-76.075-24.784c-12.598,22.922-19.324,49.075-19.324,76.244
			c0,29.898,8.145,58.565,23.297,83.049l77.729-25.264c-13.967-13.966-22.844-34.682-22.844-57.785
			C-7451.486-2965.68-7444.95-2983.756-7434.269-2997.312z"/>
	</g>
	
		<line opacity="0.3" fill="none" stroke="#000000" stroke-width="9.1133" stroke-linecap="round" stroke-miterlimit="10" x1="-7258.266" y1="-2317.409" x2="-7515.51" y2="-2401.216"/>
	
		<line opacity="0.3" fill="none" stroke="#000000" stroke-width="9.1133" stroke-linecap="round" stroke-miterlimit="10" x1="-7260.088" y1="-2317.409" x2="-6999.117" y2="-2402.23"/>
	
		<line opacity="0.3" fill="none" stroke="#000000" stroke-width="9.6816" stroke-linecap="round" stroke-miterlimit="10" x1="-7260.088" y1="-2317.409" x2="-7260.088" y2="-2157.926"/>
	<path fill="#7C398D" d="M-7426.396-2261.922l-78.469,25.504c4.592,7.122,9.785,13.874,15.555,20.179
		c27.213,29.733,63.785,46.108,102.979,46.108h124.877v-75.641h-124.877C-7401.432-2245.771-7415.336-2251.817-7426.396-2261.922z"
		/>
	<rect x="-7599.303" y="-2496.604" fill="none" width="678.068" height="345.034"/>
	<path fill="#DADADA" d="M-7432.415-2375.582c11.801-13.799,28.103-22.349,46.083-22.349h124.959v-75.641h-124.959
		c-39.194,0-75.765,16.375-102.979,46.107c-7.567,8.269-14.138,17.308-19.664,26.94L-7432.415-2375.582z"/>
	<path fill="#DADADA" d="M-7083.589-2376.213l76.761-24.948c-5.449-9.395-11.9-18.216-19.302-26.303
		c-27.213-29.732-63.785-46.107-102.979-46.107h-129.529v75.641h129.529C-7111.408-2397.931-7095.344-2389.636-7083.589-2376.213z"
		/>
	<path fill="#DADADA" d="M-7088.51-2262.412l78.251,25.493c15.914-24.891,24.487-54.264,24.487-84.933
		c0-27.423-6.854-53.81-19.679-76.883l-76.245,24.781c10.988,13.625,17.742,31.954,17.742,52.102
		C-7063.953-2297.817-7073.558-2276.365-7088.51-2262.412z"/>
	<path fill="#DADADA" d="M-7090.87-2260.307c-10.749,9.131-23.96,14.535-38.239,14.535h-129.611v75.641h129.611
		c39.194,0,75.767-16.375,102.979-46.108c5.263-5.749,10.038-11.875,14.323-18.31L-7090.87-2260.307z"/>
	<g>
		<path fill="#DADADA" d="M-7434.269-2373.312l-76.075-24.784c-12.598,22.922-19.324,49.075-19.324,76.244
			c0,29.898,8.145,58.565,23.297,83.049l77.729-25.264c-13.967-13.966-22.844-34.682-22.844-57.785
			C-7451.486-2341.68-7444.95-2359.756-7434.269-2373.312z"/>
	</g>
	
		<line opacity="0.3" fill="none" stroke="#000000" stroke-width="9.1133" stroke-linecap="round" stroke-miterlimit="10" x1="-7258.266" y1="-1797.409" x2="-7515.51" y2="-1881.216"/>
	
		<line opacity="0.3" fill="none" stroke="#000000" stroke-width="9.1133" stroke-linecap="round" stroke-miterlimit="10" x1="-7260.088" y1="-1797.409" x2="-6999.117" y2="-1882.23"/>
	
		<line opacity="0.3" fill="none" stroke="#000000" stroke-width="9.6816" stroke-linecap="round" stroke-miterlimit="10" x1="-7260.088" y1="-1797.409" x2="-7260.088" y2="-1637.926"/>
	<path fill="#DADADA" d="M-7426.396-1741.922l-78.469,25.504c4.592,7.122,9.785,13.874,15.555,20.179
		c27.213,29.733,63.785,46.108,102.979,46.108h124.877v-75.641h-124.877C-7401.432-1725.771-7415.336-1731.817-7426.396-1741.922z"
		/>
	<rect x="-7599.303" y="-1976.604" fill="none" width="678.068" height="345.034"/>
	<path fill="#DADADA" d="M-7432.415-1855.582c11.801-13.799,28.103-22.349,46.083-22.349h124.959v-75.641h-124.959
		c-39.194,0-75.765,16.375-102.979,46.107c-7.567,8.269-14.138,17.308-19.664,26.94L-7432.415-1855.582z"/>
	<path fill="#DADADA" d="M-7083.589-1856.213l76.761-24.948c-5.449-9.395-11.9-18.216-19.302-26.303
		c-27.213-29.732-63.785-46.107-102.979-46.107h-129.529v75.641h129.529C-7111.408-1877.931-7095.344-1869.636-7083.589-1856.213z"
		/>
	<path fill="#DADADA" d="M-7088.51-1742.412l78.251,25.493c15.914-24.891,24.487-54.264,24.487-84.933
		c0-27.423-6.854-53.81-19.679-76.883l-76.245,24.781c10.988,13.625,17.742,31.954,17.742,52.102
		C-7063.953-1777.817-7073.558-1756.365-7088.51-1742.412z"/>
	<path fill="#DADADA" d="M-7090.87-1740.307c-10.749,9.131-23.96,14.535-38.239,14.535h-129.611v75.641h129.611
		c39.194,0,75.767-16.375,102.979-46.108c5.263-5.749,10.038-11.875,14.323-18.31L-7090.87-1740.307z"/>
	<g>
		<path fill="#E5054F" d="M-7434.269-1853.312l-76.075-24.784c-12.598,22.922-19.324,49.075-19.324,76.244
			c0,29.898,8.145,58.565,23.297,83.049l77.729-25.264c-13.967-13.966-22.844-34.682-22.844-57.785
			C-7451.486-1821.68-7444.95-1839.756-7434.269-1853.312z"/>
	</g>
	<g>
		<circle fill="#FFFFFF" cx="36.414" cy="-121.934" r="41.173"/>
		<path fill="#878787" d="M54.508-108.894c-1.249-4.054-3.534-7.834-6.838-10.536c-2.329-1.906-5.033-3.192-7.844-3.793
			c3.515-1.371,6.675-3.963,7.007-7.914c0.439-5.23-3.709-10.743-8.964-11.393c-5.253-0.651-9.274,3.697-9.435,8.76
			c-0.143,4.537,2.87,8.115,6.633,10.203c-3.125,0.203-6.198,1.264-8.872,3.299c-5.391,4.108-11.174,13.595-7.727,20.373
			c0.327,0.649,1.307,0.084,0.978-0.565c-3.514-6.912,3.619-17.123,9.621-20.332c2.164-1.156,4.479-1.702,6.787-1.73
			c0.119,0.173,0.318,0.289,0.578,0.244c0.312-0.054,0.627-0.118,0.943-0.189c0.043,0.004,0.088,0.009,0.133,0.013
			c0.055,0.02,0.11,0.044,0.166,0.063c0.137,0.049,0.255,0.032,0.355-0.007c4.451,0.562,8.693,2.973,11.584,6.567
			c2.393,2.974,3.889,6.561,4.542,10.314c0.188,1.076,0.597,2.704,0.06,3.788c-0.594,1.205-1.518,0.794-2.777,0.806
			c-2.086,0.025-4.169,0.051-6.254,0.076c-8.334,0.099-16.67,0.197-25.005,0.296c-0.728,0.009-0.745,1.138-0.017,1.13
			c6.25-0.074,12.502-0.147,18.754-0.222c2.916-0.034,5.836-0.07,8.752-0.104c1.896-0.022,5.185,0.622,6.968-0.15
			C57.146-100.983,55.06-107.107,54.508-108.894z M29.577-132.918c-0.295-5.046,3.809-9.603,9.064-8.326
			c4.584,1.116,8.297,6.891,6.753,11.521c-1.128,3.386-4.569,5.233-7.886,6.065C33.573-125.184,29.838-128.435,29.577-132.918z"/>
	</g>
	<g>
		<path fill="#B2B2B2" d="M32.106-593.499h49.781c0,0,0,0.284-0.002,0.425c-0.221,26.438-21.645,48.037-47.277,49.318
			c-0.836,0.042-2.527,0.063-2.527,0.063L32.106-593.499z"/>
		<g>
			<circle fill="#FFFFFF" cx="32.114" cy="-593.551" r="41.173"/>
			<path fill="#878787" d="M37.215-583.08c-1.253-4.062-3.543-7.852-6.854-10.56c-2.334-1.91-5.044-3.199-7.861-3.801
				c3.522-1.374,6.69-3.972,7.022-7.932c0.441-5.243-3.717-10.768-8.984-11.419c-5.266-0.653-9.295,3.706-9.455,8.779
				c-0.143,4.548,2.877,8.134,6.648,10.227c-3.133,0.204-6.214,1.267-8.893,3.306c-5.402,4.118-11.199,13.625-7.745,20.419
				c0.329,0.65,1.31,0.084,0.979-0.567c-3.521-6.927,3.629-17.162,9.645-20.377c2.168-1.16,4.488-1.706,6.803-1.734
				c0.119,0.173,0.318,0.29,0.579,0.245c0.312-0.054,0.628-0.118,0.944-0.19c0.043,0.005,0.088,0.009,0.133,0.013
				c0.055,0.02,0.111,0.044,0.167,0.063c0.138,0.05,0.255,0.033,0.356-0.007c4.461,0.564,8.713,2.98,11.61,6.583
				c2.397,2.98,3.897,6.575,4.552,10.337c0.188,1.079,0.599,2.711,0.061,3.797c-0.596,1.208-1.521,0.796-2.785,0.808
				c-2.09,0.025-4.177,0.05-6.267,0.077c-8.354,0.098-16.708,0.197-25.062,0.296c-0.729,0.009-0.747,1.14-0.017,1.132
				c6.264-0.074,12.531-0.148,18.797-0.222c2.923-0.034,5.85-0.07,8.771-0.105c1.9-0.022,5.195,0.624,6.983-0.15
				C39.86-575.151,37.769-581.29,37.215-583.08z M12.228-607.158c-0.296-5.057,3.817-9.625,9.086-8.345
				c4.593,1.118,8.314,6.906,6.768,11.546c-1.132,3.394-4.58,5.246-7.903,6.079C16.233-599.406,12.489-602.665,12.228-607.158z"/>
			<path fill="#878787" d="M26.952-573.879c6.264-0.074,13.247,0.146,19.512,0.071c2.924-0.034,5.85-0.07,8.773-0.105
				c1.899-0.022,5.195,0.624,6.982-0.15c2.516-1.089,0.424-7.227-0.129-9.017c-1.252-4.062-3.543-7.852-6.854-10.56
				c-2.334-1.91-5.045-3.199-7.861-3.801c3.523-1.374,6.689-3.972,7.022-7.932c0.44-5.243-3.717-10.768-8.983-11.419
				c-5.266-0.653-9.297,3.706-9.457,8.779c-0.143,4.548,2.878,8.134,6.648,10.227c-3.133,0.204-6.213,1.267-8.893,3.306
				c-5.402,4.118-11.197,13.625-7.744,20.419"/>
		</g>
	</g>
	<g>
		<path fill="#878787" d="M81.318,28.209c-0.699-2.269-1.979-4.384-3.826-5.896c-1.303-1.066-2.816-1.787-4.389-2.123
			c1.967-0.767,3.734-2.217,3.92-4.428c0.246-2.928-2.074-6.013-5.016-6.376c-2.939-0.364-5.191,2.069-5.28,4.901
			c-0.079,2.539,1.606,4.542,3.712,5.711c-1.748,0.113-3.469,0.707-4.965,1.846c-3.016,2.299-6.252,7.607-4.324,11.4
			c0.184,0.363,0.732,0.047,0.549-0.316c-1.967-3.867,2.024-9.582,5.383-11.377c1.211-0.648,2.507-0.953,3.799-0.969
			c0.066,0.096,0.178,0.162,0.323,0.137c0.175-0.031,0.351-0.066,0.527-0.106c0.024,0.003,0.05,0.005,0.074,0.007
			c0.03,0.012,0.062,0.025,0.094,0.035c0.076,0.028,0.142,0.019,0.198-0.004c2.491,0.314,4.865,1.664,6.482,3.676
			c1.34,1.664,2.176,3.672,2.542,5.771c0.104,0.603,0.333,1.514,0.033,2.12c-0.331,0.675-0.849,0.444-1.554,0.451
			c-1.168,0.015-2.334,0.028-3.5,0.043c-4.664,0.055-9.328,0.11-13.993,0.165c-0.407,0.005-0.417,0.637-0.009,0.633
			c3.496-0.042,6.996-0.083,10.494-0.125c1.633-0.019,3.266-0.039,4.898-0.059c1.061-0.012,2.9,0.349,3.898-0.083
			C82.795,32.636,81.627,29.208,81.318,28.209z M67.367,14.766c-0.166-2.823,2.131-5.374,5.073-4.659
			c2.564,0.624,4.642,3.855,3.778,6.446c-0.632,1.895-2.557,2.929-4.412,3.394C69.604,19.093,67.514,17.274,67.367,14.766z"/>
		<g>
			<path fill="#B2B2B2" d="M71.463,39.089c-1.43,0-2.588,1.159-2.588,2.589v18.47L39.613,76.373V39.747l13.179-7.308
				c1.25-0.692,1.701-2.269,1.009-3.52c-0.695-1.249-2.27-1.7-3.518-1.008l-13.258,7.351L8.224,19.293L37.025,5.459l12.926,6.198
				c1.289,0.619,2.834,0.074,3.452-1.215c0.62-1.289,0.075-2.834-1.214-3.453L38.145,0.254c-0.707-0.34-1.532-0.339-2.239,0.001
				L1.468,16.794c-0.006,0.002-0.01,0.006-0.016,0.01c-0.101,0.048-0.197,0.104-0.293,0.166c-0.013,0.01-0.025,0.02-0.039,0.029
				c-0.079,0.055-0.157,0.114-0.23,0.18c-0.016,0.012-0.031,0.025-0.045,0.039c-0.082,0.074-0.159,0.152-0.231,0.238
				c-0.005,0.007-0.011,0.015-0.017,0.021c-0.062,0.074-0.119,0.152-0.172,0.235c-0.018,0.027-0.035,0.054-0.051,0.081
				c-0.016,0.025-0.033,0.051-0.049,0.078c-0.027,0.047-0.049,0.098-0.072,0.146c-0.01,0.022-0.022,0.044-0.031,0.065
				c-0.044,0.101-0.082,0.202-0.113,0.305c-0.005,0.019-0.008,0.036-0.014,0.055c-0.025,0.092-0.045,0.184-0.061,0.277
				c-0.004,0.022-0.008,0.045-0.01,0.067c-0.016,0.112-0.023,0.224-0.023,0.335C0.001,19.124,0,19.125,0,19.127v42.545
				c0,0.94,0.509,1.807,1.333,2.264L35.77,83.031c0.002,0,0.003,0,0.004,0c0.09,0.054,0.186,0.097,0.283,0.136
				c0.016,0.007,0.032,0.012,0.049,0.019c0.077,0.028,0.156,0.056,0.238,0.076c0.025,0.009,0.052,0.015,0.076,0.021
				c0.075,0.019,0.15,0.033,0.228,0.043c0.025,0.005,0.05,0.01,0.077,0.014c0.098,0.01,0.199,0.018,0.301,0.018
				s0.201-0.008,0.3-0.018c0.026-0.004,0.052-0.009,0.077-0.014c0.076-0.01,0.152-0.024,0.227-0.043
				c0.025-0.007,0.051-0.013,0.076-0.021c0.081-0.021,0.162-0.048,0.239-0.076c0.017-0.007,0.032-0.012,0.048-0.019
				c0.099-0.039,0.191-0.083,0.284-0.136c0.001,0,0.003,0,0.003,0l34.436-19.096c0.824-0.456,1.334-1.323,1.334-2.264V41.678
				C74.051,40.248,72.894,39.089,71.463,39.089z M34.438,76.373L5.177,60.147V23.522l29.261,16.225V76.373z"/>
			<path fill="#B2B2B2" d="M71.463,0.65c-10.189,0-18.477,8.288-18.477,18.477s8.287,18.477,18.477,18.477
				c10.188,0,18.477-8.288,18.477-18.477S81.65,0.65,71.463,0.65z M71.463,32.427c-7.334,0-13.3-5.967-13.3-13.299
				c0-7.334,5.966-13.301,13.3-13.301c7.332,0,13.3,5.967,13.3,13.301C84.763,26.46,78.795,32.427,71.463,32.427z"/>
		</g>
	</g>
	<g>
		<path fill="#B2B2B2" d="M40.732-431.674H-9.049c0,0,0.002,0.284,0.002,0.426c0.221,26.438,21.645,48.037,47.277,49.318
			c0.836,0.041,2.527,0.062,2.527,0.062L40.732-431.674z"/>
		<circle fill="#FFFFFF" cx="40.704" cy="-431.877" r="41.173"/>
		<path fill="#878787" d="M29.152-424.793c2.006-0.023,4.24,0.047,6.244,0.022c0.936-0.011,1.871-0.022,2.809-0.034
			c0.607-0.006,1.662,0.2,2.234-0.047c0.805-0.35,0.137-2.313-0.041-2.887c-0.402-1.3-1.135-2.513-2.193-3.379
			c-0.746-0.611-1.615-1.024-2.516-1.217c1.127-0.439,2.141-1.271,2.248-2.539c0.141-1.678-1.191-3.445-2.877-3.654
			c-1.684-0.209-2.975,1.187-3.027,2.811c-0.045,1.455,0.922,2.603,2.129,3.273c-1.002,0.064-1.988,0.404-2.846,1.057
			c-1.729,1.318-3.584,4.361-2.479,6.535"/>
		<path fill="#878787" d="M26.129-446.248c2.004-0.023,4.238,0.047,6.244,0.022c0.936-0.011,1.873-0.022,2.809-0.033
			c0.607-0.007,1.662,0.199,2.234-0.048c0.805-0.35,0.135-2.313-0.041-2.887c-0.4-1.3-1.135-2.512-2.193-3.379
			c-0.748-0.611-1.615-1.023-2.518-1.217c1.129-0.439,2.143-1.271,2.248-2.539c0.143-1.678-1.189-3.445-2.875-3.654
			c-1.684-0.209-2.975,1.187-3.025,2.811c-0.047,1.455,0.92,2.604,2.127,3.273c-1.002,0.064-1.988,0.404-2.846,1.057
			c-1.73,1.318-3.584,4.361-2.479,6.535"/>
		<path fill="#878787" d="M35.811-400.749c2.004-0.024,4.238,0.046,6.246,0.022c0.936-0.011,1.871-0.021,2.807-0.033
			c0.607-0.008,1.662,0.199,2.234-0.049c0.805-0.348,0.135-2.312-0.041-2.885c-0.4-1.301-1.133-2.514-2.193-3.38
			c-0.748-0.611-1.615-1.024-2.518-1.216c1.129-0.44,2.143-1.271,2.25-2.539c0.141-1.678-1.191-3.446-2.875-3.654
			c-1.688-0.209-2.977,1.186-3.027,2.81c-0.047,1.456,0.92,2.603,2.127,3.272c-1.002,0.065-1.988,0.406-2.846,1.059
			c-1.729,1.318-3.584,4.36-2.479,6.535"/>
		<path fill="#878787" d="M17.5-406.875c2.006-0.023,4.24,0.047,6.246,0.022c0.936-0.011,1.869-0.022,2.805-0.034
			c0.609-0.006,1.664,0.2,2.236-0.047c0.805-0.35,0.137-2.313-0.041-2.887c-0.4-1.3-1.135-2.513-2.193-3.379
			c-0.746-0.611-1.615-1.023-2.516-1.217c1.127-0.439,2.141-1.271,2.246-2.539c0.143-1.678-1.188-3.445-2.875-3.654
			c-1.684-0.209-2.975,1.187-3.025,2.811c-0.047,1.455,0.92,2.603,2.127,3.272c-1.002,0.065-1.988,0.405-2.846,1.058
			c-1.729,1.318-3.584,4.361-2.479,6.535"/>
		<path fill="#878787" d="M65.463-436.504c1.105-2.174-0.748-5.217-2.479-6.535c-0.857-0.652-1.844-0.992-2.846-1.058
			c1.207-0.669,2.174-1.817,2.127-3.272c-0.051-1.624-1.34-3.02-3.025-2.811s-3.016,1.977-2.875,3.654
			c0.105,1.268,1.119,2.1,2.246,2.539c-0.9,0.193-1.768,0.605-2.514,1.217c-1.061,0.867-1.793,2.079-2.193,3.379
			c-0.178,0.574-0.848,2.537-0.043,2.887c0.572,0.247,1.627,0.041,2.236,0.047c0.934,0.012,1.871,0.023,2.807,0.034
			c2.006,0.024,4.24-0.046,6.244-0.022"/>
		<path fill="#878787" d="M55.23-409.441c2.006-0.024,4.24,0.046,6.246,0.021c0.936-0.01,1.871-0.021,2.807-0.033
			c0.609-0.007,1.664,0.2,2.234-0.048c0.807-0.349,0.137-2.312-0.041-2.886c-0.4-1.301-1.133-2.513-2.193-3.379
			c-0.746-0.611-1.613-1.024-2.516-1.217c1.127-0.439,2.141-1.271,2.246-2.539c0.143-1.678-1.188-3.445-2.873-3.654
			s-2.977,1.186-3.027,2.811c-0.047,1.455,0.92,2.603,2.129,3.272c-1.004,0.065-1.988,0.405-2.848,1.058
			c-1.729,1.318-3.582,4.361-2.479,6.535"/>
		<path fill="#878787" d="M9.152-414.521c0.592,0.256,1.682,0.042,2.311,0.049c0.967,0.012,1.936,0.023,2.902,0.035
			c2.072,0.025,4.146,0.049,6.217,0.074c0.242,0.002,0.236-0.373-0.004-0.375c-2.764-0.033-5.529-0.066-8.291-0.098
			c-0.691-0.01-1.383-0.018-2.074-0.025c-0.416-0.004-0.723,0.132-0.92-0.268c-0.178-0.359-0.043-0.899,0.02-1.256
			c0.217-1.244,0.713-2.434,1.504-3.42c0.961-1.191,2.365-1.991,3.842-2.178c0.035,0.014,0.072,0.02,0.119,0.002
			c0.018-0.006,0.037-0.014,0.055-0.021c0.014-0.001,0.029-0.003,0.045-0.005c0.104,0.024,0.207,0.046,0.312,0.063
			c0.086,0.015,0.152-0.023,0.191-0.081c0.766,0.01,1.531,0.19,2.25,0.574c1.99,1.063,4.355,4.449,3.189,6.74
			c-0.109,0.216,0.217,0.403,0.324,0.188c1.143-2.247-0.775-5.393-2.562-6.754c-0.887-0.675-1.904-1.026-2.939-1.094
			c1.246-0.692,2.246-1.879,2.199-3.383c-0.055-1.679-1.389-3.121-3.129-2.904c-1.742,0.215-3.117,2.043-2.973,3.777
			c0.109,1.31,1.158,2.169,2.322,2.623c-0.932,0.199-1.828,0.626-2.6,1.258c-1.096,0.896-1.854,2.149-2.268,3.494
			C9.014-416.912,8.32-414.882,9.152-414.521z M14.832-422.4c-1.1-0.275-2.24-0.888-2.615-2.01c-0.512-1.535,0.721-3.45,2.24-3.82
			c1.742-0.424,3.104,1.088,3.006,2.761C17.375-423.983,16.137-422.905,14.832-422.4z"/>
		<path fill="#878787" d="M21.156-425.036c0.592,0.257,1.682,0.042,2.311,0.05c0.967,0.012,1.934,0.023,2.902,0.035
			c2.072,0.023,4.145,0.049,6.219,0.072c0.24,0.004,0.234-0.371-0.008-0.373c-2.764-0.033-5.525-0.066-8.289-0.099
			c-0.691-0.009-1.383-0.017-2.074-0.025c-0.418-0.004-0.723,0.132-0.92-0.267c-0.18-0.359-0.043-0.9,0.02-1.257
			c0.215-1.245,0.713-2.434,1.506-3.419c0.957-1.192,2.365-1.992,3.842-2.178c0.031,0.013,0.072,0.019,0.115,0.002
			c0.02-0.006,0.037-0.015,0.057-0.021c0.014-0.001,0.029-0.002,0.045-0.004c0.104,0.023,0.209,0.045,0.312,0.062
			c0.086,0.016,0.152-0.023,0.189-0.08c0.768,0.01,1.533,0.189,2.252,0.574c1.99,1.062,4.355,4.449,3.189,6.74
			c-0.109,0.215,0.217,0.402,0.324,0.188c1.143-2.248-0.773-5.393-2.561-6.755c-0.889-0.675-1.906-1.026-2.941-1.093
			c1.246-0.693,2.246-1.879,2.199-3.384c-0.055-1.679-1.387-3.12-3.129-2.904s-3.119,2.043-2.973,3.777
			c0.111,1.31,1.158,2.169,2.322,2.624c-0.932,0.199-1.828,0.625-2.6,1.258c-1.094,0.896-1.852,2.148-2.268,3.492
			C21.016-427.427,20.324-425.396,21.156-425.036z M26.834-432.914c-1.098-0.275-2.238-0.889-2.613-2.011
			c-0.512-1.535,0.721-3.45,2.24-3.819c1.742-0.424,3.102,1.088,3.006,2.76C29.379-434.498,28.141-433.42,26.834-432.914z"/>
		<path fill="#878787" d="M59.916-418.403c0.59,0.256,1.682,0.042,2.309,0.05c0.967,0.012,1.936,0.023,2.902,0.035
			c2.072,0.023,4.146,0.049,6.219,0.072c0.24,0.003,0.234-0.371-0.006-0.374c-2.764-0.032-5.527-0.065-8.291-0.099
			c-0.691-0.008-1.383-0.016-2.074-0.024c-0.416-0.005-0.725,0.132-0.92-0.268c-0.178-0.359-0.043-0.899,0.02-1.256
			c0.217-1.245,0.713-2.434,1.506-3.42c0.959-1.191,2.365-1.991,3.842-2.177c0.033,0.013,0.072,0.018,0.117,0.002
			c0.018-0.006,0.037-0.015,0.055-0.021c0.016-0.001,0.029-0.002,0.045-0.004c0.104,0.023,0.207,0.045,0.311,0.062
			c0.088,0.016,0.154-0.023,0.193-0.08c0.766,0.009,1.533,0.189,2.25,0.573c1.99,1.063,4.355,4.45,3.189,6.741
			c-0.109,0.215,0.217,0.402,0.324,0.188c1.143-2.248-0.773-5.393-2.561-6.755c-0.887-0.675-1.906-1.026-2.941-1.094
			c1.246-0.692,2.246-1.878,2.199-3.384c-0.055-1.678-1.387-3.119-3.129-2.903c-1.744,0.216-3.117,2.043-2.973,3.777
			c0.109,1.31,1.158,2.169,2.324,2.624c-0.932,0.199-1.83,0.625-2.602,1.258c-1.094,0.895-1.854,2.148-2.268,3.492
			C59.775-420.794,59.082-418.764,59.916-418.403z M65.594-426.281c-1.1-0.275-2.24-0.889-2.615-2.012
			c-0.512-1.535,0.721-3.449,2.238-3.818c1.744-0.424,3.105,1.087,3.008,2.76C68.137-427.865,66.898-426.787,65.594-426.281z"/>
		<path fill="#878787" d="M16.916-447.504c0.592,0.256,1.682,0.042,2.311,0.049c0.967,0.012,1.934,0.023,2.902,0.035
			c2.07,0.024,4.145,0.049,6.217,0.073c0.242,0.003,0.234-0.372-0.006-0.374c-2.764-0.033-5.527-0.066-8.291-0.098
			c-0.689-0.01-1.381-0.018-2.072-0.025c-0.418-0.005-0.725,0.132-0.92-0.268c-0.18-0.359-0.043-0.899,0.02-1.256
			c0.217-1.244,0.713-2.434,1.504-3.42c0.959-1.191,2.365-1.99,3.842-2.178c0.033,0.014,0.072,0.019,0.117,0.002
			c0.02-0.006,0.037-0.014,0.057-0.021c0.014-0.001,0.029-0.003,0.043-0.005c0.105,0.024,0.209,0.045,0.312,0.063
			c0.086,0.015,0.152-0.024,0.191-0.081c0.766,0.01,1.533,0.19,2.252,0.574c1.988,1.063,4.354,4.449,3.188,6.74
			c-0.107,0.216,0.217,0.402,0.326,0.188c1.141-2.247-0.775-5.393-2.562-6.754c-0.887-0.676-1.904-1.027-2.941-1.094
			c1.246-0.693,2.246-1.879,2.199-3.383c-0.055-1.68-1.387-3.121-3.127-2.904c-1.744,0.215-3.119,2.043-2.973,3.777
			c0.109,1.31,1.156,2.17,2.322,2.623c-0.932,0.199-1.828,0.627-2.6,1.258c-1.096,0.896-1.854,2.149-2.268,3.494
			C16.775-449.895,16.084-447.865,16.916-447.504z M22.596-455.383c-1.1-0.275-2.24-0.889-2.615-2.011
			c-0.514-1.535,0.719-3.45,2.238-3.819c1.744-0.424,3.104,1.088,3.006,2.76C25.139-456.967,23.898-455.889,22.596-455.383z"/>
		<path fill="#878787" d="M47.225-441.896c0.59,0.256,1.682,0.042,2.309,0.049c0.967,0.012,1.938,0.023,2.904,0.035
			c2.072,0.024,4.145,0.049,6.217,0.073c0.242,0.003,0.236-0.372-0.006-0.374c-2.764-0.033-5.527-0.066-8.291-0.099
			c-0.691-0.009-1.381-0.017-2.074-0.024c-0.416-0.005-0.723,0.132-0.92-0.268c-0.178-0.359-0.041-0.898,0.02-1.256
			c0.217-1.245,0.713-2.434,1.506-3.42c0.959-1.191,2.367-1.991,3.842-2.178c0.033,0.014,0.072,0.019,0.117,0.002
			c0.02-0.006,0.037-0.014,0.057-0.021c0.014-0.001,0.029-0.003,0.043-0.005c0.104,0.024,0.209,0.045,0.312,0.064
			c0.086,0.014,0.152-0.025,0.191-0.082c0.766,0.01,1.533,0.189,2.25,0.574c1.99,1.063,4.355,4.449,3.191,6.74
			c-0.109,0.215,0.215,0.402,0.324,0.188c1.143-2.247-0.775-5.393-2.562-6.754c-0.887-0.676-1.906-1.027-2.941-1.094
			c1.248-0.693,2.246-1.879,2.199-3.383c-0.053-1.68-1.387-3.121-3.129-2.904c-1.742,0.215-3.117,2.043-2.971,3.777
			c0.109,1.311,1.158,2.169,2.322,2.623c-0.932,0.199-1.828,0.626-2.602,1.258c-1.094,0.896-1.852,2.149-2.268,3.493
			C47.084-444.287,46.393-442.258,47.225-441.896z M52.904-449.775c-1.1-0.275-2.24-0.889-2.615-2.011
			c-0.512-1.535,0.719-3.45,2.238-3.819c1.742-0.424,3.104,1.088,3.006,2.76C55.447-451.359,54.209-450.281,52.904-449.775z"/>
		<path fill="#878787" d="M38.783-411.664c-0.416-1.344-1.172-2.598-2.27-3.493c-0.771-0.632-1.668-1.058-2.6-1.257
			c1.166-0.455,2.213-1.314,2.324-2.625c0.145-1.734-1.23-3.561-2.973-3.777c-1.742-0.215-3.074,1.227-3.129,2.904
			c-0.047,1.506,0.953,2.691,2.199,3.384c-1.037,0.067-2.055,0.419-2.941,1.093c-1.787,1.363-3.703,4.508-2.562,6.756
			c0.109,0.215,0.434,0.027,0.326-0.188c-1.166-2.292,1.199-5.678,3.189-6.741c0.717-0.384,1.484-0.564,2.25-0.573
			c0.039,0.057,0.105,0.096,0.191,0.08c0.104-0.018,0.207-0.039,0.312-0.062c0.014,0.002,0.029,0.003,0.045,0.004
			c0.018,0.007,0.035,0.015,0.055,0.021c0.045,0.016,0.084,0.01,0.117-0.002c1.477,0.186,2.883,0.984,3.842,2.177
			c0.793,0.985,1.289,2.175,1.504,3.42c0.064,0.356,0.199,0.896,0.021,1.256c-0.197,0.399-0.504,0.263-0.92,0.267
			c-0.691,0.01-1.383,0.018-2.074,0.025c-2.764,0.033-5.527,0.066-8.291,0.099c-0.24,0.003-0.246,0.377-0.006,0.374
			c2.072-0.023,4.146-0.049,6.219-0.073c0.967-0.011,1.936-0.022,2.9-0.034c0.629-0.008,1.719,0.206,2.311-0.05
			C39.658-409.041,38.965-411.072,38.783-411.664z M30.516-419.629c-0.098-1.673,1.264-3.184,3.006-2.761
			c1.52,0.37,2.752,2.284,2.24,3.819c-0.375,1.123-1.516,1.736-2.615,2.012C31.842-417.064,30.604-418.143,30.516-419.629z"/>
		<path fill="#878787" d="M57.262-424.716c-0.414-1.344-1.172-2.597-2.266-3.493c-0.773-0.632-1.67-1.059-2.602-1.258
			c1.166-0.454,2.213-1.313,2.322-2.623c0.146-1.734-1.229-3.562-2.971-3.777c-1.742-0.217-3.076,1.225-3.129,2.904
			c-0.047,1.504,0.953,2.69,2.199,3.383c-1.037,0.066-2.055,0.418-2.941,1.094c-1.787,1.361-3.703,4.507-2.561,6.754
			c0.107,0.216,0.432,0.028,0.324-0.188c-1.166-2.291,1.199-5.677,3.189-6.74c0.717-0.384,1.484-0.564,2.25-0.574
			c0.039,0.057,0.105,0.096,0.191,0.081c0.104-0.019,0.207-0.039,0.312-0.063c0.016,0.002,0.029,0.004,0.045,0.005
			c0.018,0.007,0.037,0.015,0.055,0.021c0.045,0.018,0.084,0.012,0.117-0.002c1.477,0.187,2.883,0.986,3.842,2.178
			c0.793,0.986,1.289,2.175,1.506,3.42c0.062,0.356,0.197,0.896,0.018,1.256c-0.195,0.399-0.502,0.264-0.92,0.268
			c-0.691,0.008-1.381,0.016-2.072,0.025c-2.764,0.031-5.527,0.064-8.291,0.098c-0.24,0.002-0.248,0.377-0.006,0.374
			c2.072-0.024,4.146-0.049,6.219-0.073c0.967-0.012,1.934-0.023,2.902-0.035c0.627-0.007,1.719,0.207,2.309-0.049
			C58.137-422.093,57.445-424.123,57.262-424.716z M48.996-432.681c-0.098-1.673,1.264-3.185,3.006-2.761
			c1.52,0.369,2.752,2.285,2.238,3.82c-0.373,1.121-1.514,1.734-2.613,2.01C50.322-430.117,49.082-431.193,48.996-432.681z"/>
		<path fill="#878787" d="M46.854-455.511c-0.414-1.345-1.172-2.598-2.27-3.493c-0.77-0.632-1.668-1.059-2.6-1.258
			c1.166-0.454,2.215-1.314,2.324-2.623c0.146-1.734-1.23-3.562-2.973-3.778c-1.74-0.216-3.074,1.226-3.127,2.904
			c-0.049,1.505,0.951,2.69,2.199,3.384c-1.037,0.066-2.057,0.418-2.943,1.093c-1.785,1.362-3.703,4.507-2.561,6.755
			c0.109,0.215,0.434,0.027,0.324-0.188c-1.166-2.291,1.199-5.677,3.189-6.74c0.717-0.385,1.484-0.564,2.25-0.574
			c0.039,0.057,0.105,0.096,0.191,0.081c0.104-0.019,0.207-0.04,0.312-0.063c0.016,0.002,0.029,0.004,0.045,0.004
			c0.018,0.008,0.037,0.016,0.055,0.021c0.045,0.017,0.084,0.012,0.119-0.002c1.475,0.186,2.881,0.986,3.84,2.178
			c0.793,0.985,1.289,2.175,1.506,3.42c0.062,0.356,0.197,0.896,0.02,1.256c-0.197,0.4-0.504,0.263-0.922,0.267
			c-0.689,0.009-1.381,0.017-2.072,0.025c-2.764,0.032-5.527,0.065-8.291,0.099c-0.24,0.002-0.246,0.377-0.006,0.374
			c2.074-0.024,4.146-0.049,6.219-0.073c0.967-0.012,1.934-0.023,2.9-0.035c0.631-0.008,1.721,0.207,2.311-0.049
			C47.729-452.889,47.035-454.918,46.854-455.511z M38.586-463.477c-0.098-1.672,1.264-3.184,3.006-2.76
			c1.52,0.369,2.752,2.284,2.24,3.819c-0.375,1.122-1.518,1.735-2.615,2.011C39.912-460.912,38.674-461.99,38.586-463.477z"/>
		<path fill="#878787" d="M56.125-407.087c-0.414-1.344-1.172-2.597-2.266-3.493c-0.773-0.632-1.67-1.059-2.602-1.258
			c1.166-0.454,2.213-1.313,2.322-2.623c0.146-1.734-1.229-3.562-2.971-3.777c-1.742-0.217-3.076,1.225-3.129,2.904
			c-0.047,1.504,0.953,2.689,2.199,3.383c-1.035,0.066-2.055,0.418-2.941,1.094c-1.787,1.361-3.705,4.507-2.561,6.754
			c0.107,0.216,0.434,0.028,0.322-0.188c-1.164-2.291,1.201-5.677,3.191-6.74c0.717-0.384,1.484-0.564,2.25-0.574
			c0.039,0.057,0.105,0.096,0.191,0.081c0.104-0.019,0.209-0.039,0.312-0.063c0.016,0.002,0.029,0.004,0.045,0.005
			c0.018,0.007,0.037,0.015,0.055,0.021c0.045,0.017,0.084,0.012,0.117-0.002c1.477,0.187,2.883,0.986,3.842,2.178
			c0.793,0.986,1.289,2.175,1.506,3.42c0.062,0.356,0.197,0.896,0.02,1.256c-0.197,0.399-0.504,0.264-0.92,0.268
			c-0.693,0.008-1.383,0.016-2.076,0.025c-2.762,0.031-5.525,0.064-8.289,0.098c-0.24,0.002-0.248,0.377-0.006,0.374
			c2.072-0.024,4.145-0.049,6.219-0.073c0.967-0.012,1.936-0.023,2.902-0.035c0.627-0.007,1.719,0.207,2.309-0.049
			C57-404.465,56.309-406.494,56.125-407.087z M47.859-415.053c-0.098-1.672,1.264-3.184,3.006-2.76
			c1.52,0.369,2.75,2.284,2.238,3.82c-0.373,1.121-1.514,1.734-2.613,2.01C49.184-412.488,47.947-413.565,47.859-415.053z"/>
		<path fill="#878787" d="M35.254-433.298c0.59,0.256,1.68,0.042,2.309,0.05c0.969,0.012,1.936,0.023,2.902,0.035
			c2.072,0.023,4.146,0.049,6.217,0.072c0.244,0.003,0.238-0.371-0.004-0.374c-2.764-0.032-5.527-0.065-8.291-0.099
			c-0.691-0.008-1.381-0.016-2.072-0.024c-0.42-0.005-0.725,0.132-0.922-0.268c-0.178-0.358-0.043-0.899,0.02-1.256
			c0.217-1.245,0.713-2.435,1.506-3.419c0.959-1.192,2.365-1.992,3.842-2.178c0.033,0.013,0.072,0.018,0.117,0.002
			c0.018-0.006,0.037-0.015,0.055-0.021c0.016,0,0.031-0.002,0.045-0.004c0.104,0.023,0.207,0.045,0.312,0.062
			c0.086,0.016,0.152-0.023,0.191-0.08c0.766,0.009,1.533,0.189,2.25,0.573c1.99,1.063,4.355,4.45,3.191,6.741
			c-0.109,0.215,0.215,0.402,0.322,0.188c1.145-2.248-0.773-5.393-2.562-6.755c-0.885-0.675-1.904-1.026-2.939-1.094
			c1.246-0.692,2.246-1.878,2.199-3.384c-0.053-1.678-1.387-3.119-3.129-2.903s-3.117,2.043-2.971,3.777
			c0.107,1.31,1.156,2.169,2.322,2.624c-0.934,0.199-1.83,0.625-2.602,1.258c-1.096,0.895-1.852,2.148-2.266,3.492
			C35.113-435.688,34.422-433.658,35.254-433.298z M40.932-441.176c-1.1-0.275-2.24-0.889-2.615-2.012
			c-0.51-1.535,0.721-3.449,2.24-3.819c1.742-0.423,3.104,1.088,3.006,2.761C43.477-442.76,42.236-441.682,40.932-441.176z"/>
		<path fill="#878787" d="M21.078-435.943c-0.414-1.344-1.172-2.598-2.268-3.494c-0.771-0.631-1.668-1.058-2.6-1.256
			c1.164-0.455,2.213-1.314,2.322-2.625c0.146-1.734-1.229-3.562-2.971-3.777c-1.742-0.216-3.076,1.227-3.129,2.904
			c-0.047,1.504,0.951,2.691,2.199,3.383c-1.035,0.068-2.055,0.42-2.941,1.094c-1.787,1.362-3.705,4.508-2.562,6.755
			c0.109,0.216,0.434,0.028,0.324-0.188c-1.164-2.292,1.201-5.677,3.191-6.741c0.717-0.383,1.484-0.564,2.25-0.573
			c0.039,0.058,0.105,0.096,0.189,0.081c0.105-0.018,0.209-0.039,0.314-0.062c0.014,0.002,0.029,0.002,0.043,0.004
			c0.02,0.006,0.037,0.014,0.055,0.021c0.047,0.017,0.084,0.011,0.119-0.003c1.477,0.188,2.881,0.986,3.842,2.178
			c0.791,0.986,1.289,2.176,1.504,3.42c0.062,0.357,0.199,0.896,0.021,1.256c-0.199,0.4-0.504,0.264-0.922,0.268
			c-0.691,0.008-1.383,0.017-2.072,0.025c-2.764,0.033-5.527,0.064-8.293,0.098c-0.24,0.004-0.246,0.377-0.004,0.375
			c2.07-0.024,4.145-0.049,6.219-0.074c0.967-0.011,1.934-0.022,2.9-0.034c0.629-0.007,1.719,0.206,2.311-0.05
			C21.953-433.32,21.262-435.352,21.078-435.943z M12.812-443.908c-0.098-1.674,1.264-3.185,3.004-2.762
			c1.521,0.371,2.752,2.285,2.24,3.82c-0.375,1.123-1.516,1.735-2.615,2.011C14.137-441.344,12.898-442.422,12.812-443.908z"/>
		<path fill="#878787" d="M73.111-438.641c-0.414-1.344-1.172-2.598-2.268-3.494c-0.771-0.632-1.668-1.059-2.6-1.258
			c1.166-0.454,2.213-1.313,2.322-2.623c0.146-1.734-1.229-3.562-2.971-3.777c-1.742-0.217-3.076,1.227-3.129,2.904
			c-0.047,1.504,0.953,2.69,2.199,3.383c-1.035,0.067-2.055,0.419-2.941,1.094c-1.787,1.361-3.705,4.507-2.562,6.754
			c0.109,0.217,0.434,0.028,0.324-0.188c-1.164-2.291,1.201-5.677,3.191-6.74c0.717-0.384,1.484-0.564,2.25-0.574
			c0.039,0.058,0.105,0.096,0.191,0.081c0.104-0.018,0.207-0.039,0.312-0.063c0.014,0.002,0.029,0.004,0.045,0.005
			c0.018,0.007,0.035,0.015,0.055,0.021c0.045,0.018,0.084,0.012,0.117-0.002c1.477,0.187,2.883,0.986,3.842,2.178
			c0.793,0.986,1.289,2.176,1.506,3.42c0.061,0.356,0.197,0.896,0.018,1.256c-0.195,0.399-0.502,0.264-0.92,0.268
			c-0.691,0.008-1.381,0.016-2.072,0.025c-2.764,0.031-5.527,0.064-8.291,0.098c-0.242,0.002-0.248,0.377-0.006,0.375
			c2.072-0.025,4.145-0.049,6.219-0.074c0.967-0.012,1.934-0.023,2.9-0.035c0.629-0.007,1.719,0.207,2.311-0.049
			C73.986-436.019,73.295-438.049,73.111-438.641z M64.846-446.606c-0.098-1.673,1.264-3.185,3.004-2.761
			c1.521,0.37,2.752,2.285,2.24,3.82c-0.373,1.122-1.516,1.734-2.613,2.01C66.172-444.042,64.934-445.12,64.846-446.606z"/>
	</g>
	<g>
		<path fill="#B2B2B2" d="M40.705-276.669h-49.78c0,0,0-0.283,0.002-0.426c0.221-26.465,21.084-48.009,47.275-49.317
			c0.839-0.042,2.529-0.063,2.529-0.063L40.705-276.669z"/>
		<circle fill="#FFFFFF" cx="40.73" cy="-276.669" r="41.173"/>
		<path fill="#878787" d="M24.911-255.755c1.691,0.732,4.813,0.121,6.612,0.142c2.769,0.033,5.539,0.067,8.307,0.1
			c5.933,0.07,11.866,0.14,17.799,0.21c0.69,0.008,0.675-1.063-0.016-1.072c-7.911-0.094-15.822-0.188-23.732-0.28
			c-1.978-0.024-3.954-0.048-5.935-0.072c-1.195-0.012-2.072,0.379-2.636-0.765c-0.509-1.028-0.121-2.574,0.057-3.596
			c0.62-3.562,2.04-6.967,4.31-9.788c2.744-3.411,6.771-5.7,10.995-6.233c0.095,0.037,0.207,0.054,0.337,0.006
			c0.053-0.018,0.106-0.041,0.158-0.06c0.042-0.003,0.085-0.008,0.126-0.013c0.3,0.068,0.599,0.13,0.894,0.181
			c0.247,0.043,0.437-0.067,0.549-0.231c2.191,0.027,4.389,0.544,6.442,1.643c5.696,3.045,12.466,12.736,9.131,19.295
			c-0.312,0.617,0.618,1.153,0.927,0.537c3.271-6.434-2.217-15.437-7.332-19.335c-2.537-1.932-5.455-2.938-8.42-3.131
			c3.57-1.981,6.431-5.377,6.295-9.684c-0.151-4.805-3.969-8.932-8.954-8.313c-4.987,0.617-8.925,5.849-8.507,10.812
			c0.314,3.75,3.313,6.21,6.65,7.512c-2.668,0.569-5.234,1.79-7.444,3.599c-3.135,2.564-5.304,6.152-6.491,9.999
			C24.511-262.599,22.529-256.786,24.911-255.755z M41.165-278.306c-3.146-0.789-6.412-2.543-7.482-5.756
			c-1.465-4.395,2.059-9.875,6.408-10.935c4.988-1.211,8.884,3.114,8.604,7.902C48.446-282.839,44.901-279.753,41.165-278.306z"/>
	</g>
</g>
<g id="Capa_4">
</g>
</svg>
