<?xml version="1.0" encoding="utf-8"?>
<!-- Generator: Adobe Illustrator 16.0.0, SVG Export Plug-In . SVG Version: 6.00 Build 0)  -->
<!DOCTYPE svg PUBLIC "-//W3C//DTD SVG 1.1//EN" "http://www.w3.org/Graphics/SVG/1.1/DTD/svg11.dtd">
<svg version="1.1" xmlns="http://www.w3.org/2000/svg" xmlns:xlink="http://www.w3.org/1999/xlink" x="0px" y="0px"
	 width="24.755px" height="26.521px" viewBox="0 0 24.755 26.521" enable-background="new 0 0 24.755 26.521" xml:space="preserve">
<g id="Capa_1">
</g>
<g id="Capa_2">
</g>
<g id="Capa_3">
	<g>
		<path fill="#FFFFFF" d="M19.284,7.405c0,2.657-2.155,4.812-4.811,4.812c-2.658,0-4.812-2.154-4.812-4.813
			c0-2.654,2.153-4.811,4.812-4.811C17.129,2.593,19.284,4.749,19.284,7.405z"/>
		<path d="M7.565,8.794l1.12,0.199c0.132,0.486,0.326,0.955,0.579,1.393l-0.651,0.932c-0.241,0.342-0.201,0.807,0.095,1.104
			l0.671,0.672c0.295,0.295,0.761,0.335,1.104,0.094l0.93-0.651c0.438,0.253,0.906,0.447,1.395,0.579l0.197,1.121
			c0.072,0.41,0.43,0.71,0.848,0.71h0.96c0.418,0,0.776-0.3,0.848-0.71l0.198-1.121c0.487-0.133,0.954-0.326,1.391-0.579l0.93,0.651
			c0.343,0.241,0.809,0.201,1.104-0.094l0.671-0.672c0.295-0.297,0.336-0.762,0.095-1.104l-0.664-0.932
			c0.25-0.438,0.441-0.906,0.568-1.393l1.121-0.199c0.411-0.07,0.711-0.429,0.711-0.847V6.999c0-0.418-0.3-0.776-0.711-0.848
			l-1.121-0.197c-0.131-0.488-0.326-0.957-0.58-1.395l0.652-0.93c0.247-0.339,0.216-0.803-0.073-1.105l-0.682-0.671
			c-0.295-0.297-0.761-0.337-1.104-0.098l-0.92,0.651c-0.439-0.252-0.906-0.447-1.394-0.578l-0.197-1.12
			C15.583,0.3,15.228,0.001,14.812,0h-0.963c-0.417,0-0.774,0.301-0.848,0.711l-0.197,1.121c-0.489,0.13-0.957,0.324-1.394,0.575
			l-0.928-0.651C10.14,1.517,9.673,1.557,9.378,1.854L8.707,2.524C8.411,2.82,8.371,3.286,8.612,3.628L9.264,4.56
			C9.01,4.997,8.815,5.466,8.682,5.954L7.562,6.15C7.15,6.223,6.851,6.581,6.85,6.999v0.948C6.851,8.366,7.152,8.724,7.565,8.794z
			 M14.331,4.275c1.764,0.005,3.192,1.439,3.187,3.205c-0.004,1.767-1.438,3.191-3.203,3.188c-1.763-0.003-3.188-1.436-3.188-3.196
			c0.003-1.765,1.434-3.195,3.198-3.196H14.331z M5.368,26.521L0,21.292l3.844-3.818c1.593-1.582,3.949-2.115,6.067-1.373
			l0.842,0.296h5.195c0.897,0,1.624,0.727,1.625,1.622c0,0.021-0.001,0.043-0.001,0.064c-0.05,0.901-0.804,1.601-1.705,1.585h-3.106
			c-0.352,0-0.637,0.285-0.636,0.637c0,0.351,0.285,0.635,0.636,0.636h3.117c1.58,0.001,2.885-1.231,2.975-2.809
			c0,0,0-0.027,0-0.041l2.884-3.248c0.61-0.704,1.665-0.805,2.397-0.229c0.726,0.596,0.832,1.666,0.235,2.392
			c-0.012,0.017-0.024,0.029-0.037,0.044l-5.759,6.584c-0.767,0.879-1.877,1.386-3.045,1.386H6.869L5.368,26.521z M12.622,7.472
			c0-0.94,0.762-1.702,1.702-1.702c0.941,0,1.703,0.762,1.703,1.702c0,0.941-0.762,1.702-1.703,1.702
			C13.384,9.174,12.622,8.413,12.622,7.472L12.622,7.472z"/>
	</g>
</g>
<g id="Capa_4">
</g>
</svg>
