<?xml version="1.0" encoding="utf-8"?>
<!-- Generator: Adobe Illustrator 16.0.0, SVG Export Plug-In . SVG Version: 6.00 Build 0)  -->
<!DOCTYPE svg PUBLIC "-//W3C//DTD SVG 1.1//EN" "http://www.w3.org/Graphics/SVG/1.1/DTD/svg11.dtd">
<svg version="1.1" xmlns="http://www.w3.org/2000/svg" xmlns:xlink="http://www.w3.org/1999/xlink" x="0px" y="0px"
	 width="19.761px" height="19.726px" viewBox="0 0 19.761 19.726" enable-background="new 0 0 19.761 19.726" xml:space="preserve">
<g id="Capa_1">
</g>
<g id="Capa_2">
</g>
<g id="Capa_3">
	<g>
		<g>
			<path d="M17.417,3.494l-1.156,1.157c1.17,1.424,1.872,3.246,1.872,5.229c0,1.982-0.703,3.803-1.873,5.228l-1.486-1.487
				c0.794-1.037,1.267-2.333,1.267-3.74c0-3.127-2.329-5.708-5.347-6.106V1.668c1.666,0.164,3.188,0.824,4.415,1.832l1.156-1.157
				C14.545,0.883,12.316,0,9.881,0C4.423,0,0,4.424,0,9.881c0,5.182,3.991,9.43,9.066,9.844v-1.631
				c-4.17-0.411-7.439-3.937-7.439-8.213s3.269-7.804,7.439-8.214v2.106c-2.75,0.364-4.928,2.541-5.292,5.293h1.65
				c0.385-2.112,2.235-3.72,4.457-3.72c2.5,0,4.533,2.034,4.533,4.534c0,2.499-2.034,4.533-4.533,4.533
				c-2.222,0-4.071-1.607-4.457-3.721h-1.65c0.398,3.018,2.979,5.348,6.106,5.348c1.407,0,2.705-0.474,3.742-1.268l1.485,1.486
				c-1.227,1.008-2.748,1.67-4.414,1.834v1.632c5.076-0.415,9.067-4.663,9.067-9.845C19.761,7.445,18.879,5.217,17.417,3.494z"/>
		</g>
		<circle fill="#FFFFFF" cx="9.881" cy="9.881" r="3.926"/>
		<circle cx="9.881" cy="9.88" r="1.958"/>
	</g>
</g>
<g id="Capa_4">
</g>
</svg>
