<?xml version="1.0" encoding="utf-8"?>
<!-- Generator: Adobe Illustrator 16.0.0, SVG Export Plug-In . SVG Version: 6.00 Build 0)  -->
<!DOCTYPE svg PUBLIC "-//W3C//DTD SVG 1.1//EN" "http://www.w3.org/Graphics/SVG/1.1/DTD/svg11.dtd">
<svg version="1.1" xmlns="http://www.w3.org/2000/svg" xmlns:xlink="http://www.w3.org/1999/xlink" x="0px" y="0px"
	 width="47.385px" height="55.089px" viewBox="0 0 47.385 55.089" enable-background="new 0 0 47.385 55.089" xml:space="preserve">
<g id="Capa_1">
</g>
<g id="Capa_2">
</g>
<g id="Capa_3">
	<g>
		<polygon fill="#FFFFFF" points="11.637,6.003 7.07,15.44 5.549,20.311 2.504,26.4 2.047,30.51 4.635,32.336 5.699,37.816 
			6.461,42.991 11.789,45.274 20.465,47.862 23.51,52.885 25.184,52.885 39.188,45.274 39.796,37.359 44.971,26.856 45.428,19.398 
			43.449,13.157 35.99,4.785 27.924,1.741 		"/>
		<g>
			<path fill="#1A1414" d="M46.973,17.311c-1.576-7.576-6.137-12.886-13.56-15.783c-4.431-1.726-9.337-1.993-14.546-0.785
				c-4.459,1.036-7.651,2.991-10.35,6.339c-2.686,3.34-4.012,7.043-3.943,11.022c0.016,0.598,0.062,1.203,0.142,1.797
				c-0.062,0.216-0.162,0.439-0.308,0.678c-0.062,0.098-0.121,0.204-0.17,0.301c-0.437,0.788-0.867,1.567-1.303,2.36
				c-0.803,1.462-1.633,2.976-2.457,4.458c-0.506,0.913-0.613,1.918-0.31,3.022c0.167,0.563,0.437,1.077,0.828,1.562
				c0.546,0.646,1.281,1.119,2.243,1.443c-0.308,0.797-0.266,1.521,0.129,2.153c-0.013,0.064-0.023,0.131-0.032,0.202
				c-0.153,1.145,0.225,2.126,1.095,2.848c-0.601,2.291,0.25,4.796,2.107,6.146c0.563,0.402,1.173,0.747,1.856,1.04
				c0.283,0.116,0.606,0.249,0.952,0.358c2.188,0.712,4.41,0.988,6.561,1.253l0.453,0.056c2.929,0.388,4.233,2.956,5.521,6.021
				c0.327,0.782,1.089,1.287,1.938,1.287c0.332,0,0.662-0.08,0.957-0.231c0.955-0.489,4.422-2.277,7.307-3.764l2.064-1.064
				c2.066-1.074,4.205-2.182,6.355-3.29l0.227-0.117l0.235-0.222c0.411-0.409,0.843-1.133,0.573-2.254
				c-0.33-1.386-0.558-2.45-0.477-3.536c0.111-1.501,0.551-3.013,1.383-4.757c0.433-0.909,0.893-1.833,1.339-2.728l0.027-0.057
				c0.548-1.097,1.114-2.23,1.653-3.39C47.334,25.654,47.842,21.492,46.973,17.311z M37.703,44.014
				c-1.458,0.752-2.904,1.502-4.32,2.237l-8.775,4.526c-1.229-2.644-3.369-6.091-7.773-6.673l-0.472-0.059
				c-2.071-0.257-4.026-0.498-5.892-1.106c-0.203-0.063-0.422-0.154-0.662-0.253c-0.394-0.17-0.768-0.381-1.105-0.623
				c-0.616-0.45-0.906-1.409-0.678-2.222l0.028-0.088c0.04-0.128,0.086-0.271,0.128-0.431c0.311-1.186-0.078-2.301-1.042-3.016
				c0.216-0.598,0.163-1.19-0.155-1.764c0.205-0.403,0.579-1.245,0.334-2.227c-0.257-1.01-1.014-1.663-2.244-1.937l-0.405-0.094
				c-0.428-0.118-0.708-0.248-0.823-0.375c-0.053-0.067-0.09-0.139-0.115-0.221c-0.037-0.143-0.024-0.164-0.01-0.189
				c0.828-1.489,1.66-3.006,2.469-4.481l0.205-0.371c0.363-0.662,0.729-1.326,1.104-1.997l0.072-0.132
				c0.455-0.748,0.736-1.49,0.858-2.267l0.044-0.285L8.429,19.68c-0.083-0.542-0.132-1.101-0.147-1.659
				c-0.053-3.116,0.97-5.933,3.124-8.614c2.171-2.692,4.653-4.204,8.3-5.052c4.479-1.036,8.623-0.826,12.361,0.627
				c6.178,2.413,9.972,6.814,11.275,13.084c0.703,3.383,0.286,6.766-1.239,10.054c-0.513,1.099-1.068,2.215-1.61,3.303
				c-0.463,0.927-0.94,1.885-1.394,2.841c-1.034,2.17-1.586,4.101-1.733,6.075C37.265,41.697,37.484,43,37.703,44.014z"/>
			<path fill="#1A1414" d="M38.71,17.465l-0.116-0.382c-0.058-0.188-0.096-0.382-0.123-0.61c-0.021-0.194-0.035-0.381-0.05-0.622
				c-0.025-0.441-0.052-0.897-0.187-1.389c-0.344-1.247-1.179-2.195-2.486-2.817l-0.092-0.081c-0.638-1-1.611-1.627-2.895-1.865
				c-0.24-0.044-0.478-0.062-0.708-0.078l-0.108-0.019c-1.001-0.415-2.065-0.691-3.191-0.983c-0.35-0.091-0.699-0.182-1.047-0.276
				c-1.46-0.398-2.604-0.529-3.723-0.434C22.799,8.011,21.822,8.325,21,8.87c-0.285,0.19-0.617,0.326-0.982,0.403
				c-0.188,0.039-0.373,0.071-0.58,0.104c-0.145,0.023-0.283,0.047-0.412,0.077c-1.92,0.444-3.113,1.384-3.75,2.956
				c-0.179,0.444-0.492,0.705-0.799,0.961c-0.113,0.095-0.219,0.183-0.318,0.279c-1.037,1-1.49,2.712-1.074,4.072
				c0.179,0.587,0.488,0.895,0.883,1.286c0.097,0.097,0.196,0.196,0.3,0.303c0.188,0.199,0.341,0.444,0.474,0.659
				c0.203,0.329,0.395,0.638,0.699,0.812c0.436,0.25,1.142,0.169,1.889,0.03c0.368-0.068,0.817-0.152,1.226-0.145
				c0.278,0.008,0.892,0.422,1.214,0.706c0.236,0.229,0.367,0.511,0.493,0.784c0.09,0.194,0.181,0.394,0.31,0.558
				c0.357,0.458,1.057,0.759,1.968,0.848c0.545,0.055,1.073,0.025,1.638-0.114c0.037-0.013,0.15-0.056,0.363-0.15
				c0.206-0.09,0.438-0.137,0.688-0.137c1.429,0,3.087,1.44,3.114,2.704l0.021,0.77c0.024,0.652,0.048,4.37,0.007,5.49l-0.018,0.451
				h5.434l0.076-4.371c0.012-0.096,0.02-0.189,0.029-0.289c0.013-0.143,0.023-0.275,0.051-0.401c0.3-1.407,0.779-2.464,1.319-2.903
				c0.081-0.065,0.198-0.13,0.323-0.178c1.6-0.605,2.498-1.797,2.531-3.352l0.033-0.114c0.197-0.31,0.35-0.657,0.459-1.053
				c0.035-0.064,0.068-0.132,0.098-0.201C39.072,18.857,38.908,18.131,38.71,17.465z"/>
		</g>
	</g>
</g>
<g id="Capa_4">
</g>
</svg>
