<?xml version="1.0" encoding="utf-8"?>
<!-- Generator: Adobe Illustrator 16.0.0, SVG Export Plug-In . SVG Version: 6.00 Build 0)  -->
<!DOCTYPE svg PUBLIC "-//W3C//DTD SVG 1.1//EN" "http://www.w3.org/Graphics/SVG/1.1/DTD/svg11.dtd">
<svg version="1.1" xmlns="http://www.w3.org/2000/svg" xmlns:xlink="http://www.w3.org/1999/xlink" x="0px" y="0px"
	 width="63.009px" height="43.111px" viewBox="0 0 63.009 43.111" enable-background="new 0 0 63.009 43.111" xml:space="preserve">
<g id="Capa_1">
</g>
<g id="Capa_2">
</g>
<g id="Capa_3">
	<g>
		<circle fill="#FFFFFF" cx="13.001" cy="29.896" r="10.498"/>
		<circle fill="#FFFFFF" cx="50.024" cy="29.896" r="10.498"/>
		<g>
			<path fill="#1A1414" d="M60.816,22.538L48.374,3.723l-0.001,0.001C46.889,1.479,44.346,0,41.453,0c-4.578,0-8.29,3.712-8.29,8.29
				c0,0.425,0.032,0.842,0.094,1.25l0.002,0.014l0.06,0.395h-3.627l0.06-0.395l0.001-0.014c0.062-0.408,0.095-0.825,0.095-1.25
				c0-4.579-3.712-8.29-8.29-8.29c-2.892,0-5.436,1.48-6.92,3.724V3.723L2.193,22.538l0.002,0.001C0.81,24.634,0,27.145,0,29.846
				c0,7.326,5.939,13.266,13.266,13.266c6.646,0,12.15-4.889,13.114-11.267h0.001l0.588-3.896c1.159,1.17,2.764,1.896,4.535,1.896
				c1.773,0,3.377-0.727,4.536-1.896l0.589,3.896h0.001c0.966,6.378,6.469,11.267,13.114,11.267c7.326,0,13.265-5.939,13.265-13.266
				c0-2.7-0.81-5.211-2.194-7.307L60.816,22.538z M13.266,38.468c-4.754,0-8.623-3.868-8.623-8.622c0-4.755,3.869-8.622,8.623-8.622
				s8.621,3.868,8.621,8.622C21.889,34.6,18.02,38.468,13.266,38.468z M31.504,26.529c-1.694,0-3.07-1.375-3.07-3.07
				c0-1.696,1.376-3.071,3.07-3.071c1.695,0,3.071,1.375,3.071,3.071C34.575,25.154,33.199,26.529,31.504,26.529z M49.744,38.468
				c-4.754,0-8.623-3.868-8.623-8.622c0-4.755,3.869-8.622,8.623-8.622c4.755,0,8.623,3.868,8.623,8.622
				S54.499,38.468,49.744,38.468z"/>
		</g>
	</g>
</g>
<g id="Capa_4">
</g>
</svg>
