<?xml version="1.0" encoding="utf-8"?>
<!-- Generator: Adobe Illustrator 15.0.0, SVG Export Plug-In . SVG Version: 6.00 Build 0)  -->
<!DOCTYPE svg PUBLIC "-//W3C//DTD SVG 1.1//EN" "http://www.w3.org/Graphics/SVG/1.1/DTD/svg11.dtd">
<svg version="1.1" id="Layer_2" xmlns="http://www.w3.org/2000/svg" xmlns:xlink="http://www.w3.org/1999/xlink" x="0px" y="0px"
	 width="195.068px" height="68.605px" viewBox="-1023.259 0 195.068 68.605" enable-background="new -1023.259 0 195.068 68.605"
	 xml:space="preserve">
<g>
	<rect x="-1023.259" y="23" fill="#FF5A61" width="195.068" height="45.605"/>
	<circle fill="#FF5A61" cx="-1000.278" cy="22.98" r="22.98"/>
	<g>
		<path d="M-982.77,23.189c-0.078,8.243-6.18,15.179-14.545,16.474c-6.884,1.063-13.89-2.089-17.462-7.859
			c-0.681-1.098-0.509-2.155,0.444-2.734c0.925-0.562,2.048-0.214,2.729,0.848c3.009,4.672,8.475,7.129,13.768,6.186
			c5.71-1.018,9.886-4.941,11.068-10.411c1.579-7.289-3.973-14.686-11.659-15.429c-5.684-0.55-10.062,1.623-13.17,6.227
			c-0.717,1.058-1.793,1.423-2.723,0.87c-0.95-0.563-1.139-1.655-0.471-2.733c3.613-5.828,10.77-9.033,17.523-7.849
			c7.392,1.299,12.938,6.576,14.196,13.538C-982.896,21.26-982.865,22.229-982.77,23.189z"/>
		<path fill="#FFFFFF" d="M-1003.595,25.873c-3.18,0.027-6.039,0.075-8.898,0.072c-2.39,0-3.767-1.017-3.602-2.74
			c0.203-2.145,1.669-2.67,3.496-2.67c2.864,0.005,5.729-0.044,8.948-0.072c-0.015-1.467-0.069-2.803-0.029-4.136
			c0.058-1.959,0.775-2.449,2.248-1.404c3.204,2.271,6.34,4.649,9.491,7.004c0.992,0.74,1.021,1.562,0.023,2.333
			c-3.176,2.445-6.336,4.915-9.557,7.295c-1.335,0.986-2.008,0.269-2.07-1.228C-1003.6,28.968-1003.578,27.603-1003.595,25.873z"/>
	</g>
</g>
</svg>
