<?xml version="1.0" encoding="utf-8"?>
<!-- Generator: Adobe Illustrator 15.0.0, SVG Export Plug-In . SVG Version: 6.00 Build 0)  -->
<!DOCTYPE svg PUBLIC "-//W3C//DTD SVG 1.1//EN" "http://www.w3.org/Graphics/SVG/1.1/DTD/svg11.dtd">
<svg version="1.1" id="Layer_2" xmlns="http://www.w3.org/2000/svg" xmlns:xlink="http://www.w3.org/1999/xlink" x="0px" y="0px"
	 width="195.068px" height="68.605px" viewBox="-409.304 0 195.068 68.605" enable-background="new -409.304 0 195.068 68.605"
	 xml:space="preserve">
<g>
	<rect x="-409.304" y="23" fill="#FF5A61" width="195.068" height="45.605"/>
	<circle fill="#FF5A61" cx="-386.323" cy="22.98" r="22.98"/>
	<g>
		<path fill="#FFFFFF" d="M-387.444,15.698c-0.181-0.001-0.343,0.062-0.475,0.162l-0.001-0.002l-0.018,0.019
			c-0.04,0.032-0.076,0.068-0.108,0.107l-1.707,1.707l-3.143-3.143c-0.305-0.305-0.797-0.305-1.104,0
			c-0.306,0.307-0.305,0.797,0,1.103l3.143,3.144l-1.707,1.707c-0.039,0.032-0.076,0.067-0.107,0.107l-0.012,0.013l0.001,0.001
			c-0.104,0.133-0.168,0.298-0.169,0.479c0,0.434,0.349,0.781,0.779,0.781h4.626c0.052-0.001,0.103-0.006,0.152-0.018
			c0.022-0.003,0.043-0.012,0.064-0.019c0.024-0.008,0.055-0.014,0.081-0.025c0.023-0.009,0.047-0.023,0.068-0.036
			c0.021-0.012,0.044-0.021,0.064-0.034c0.039-0.026,0.075-0.058,0.11-0.089c0.002-0.002,0.005-0.006,0.009-0.009
			c0.003-0.004,0.006-0.009,0.011-0.012c0.031-0.034,0.061-0.067,0.086-0.106c0.014-0.021,0.024-0.045,0.036-0.066
			c0.013-0.022,0.026-0.045,0.036-0.066c0.013-0.028,0.02-0.058,0.025-0.087c0.008-0.02,0.015-0.038,0.02-0.06
			c0.012-0.051,0.016-0.103,0.016-0.154l-0.001-4.624C-386.664,16.047-387.014,15.698-387.444,15.698z"/>
		<path fill="#FFFFFF" d="M-386.698,24.384c-0.01-0.026-0.016-0.054-0.025-0.082c-0.01-0.024-0.024-0.046-0.037-0.068
			c-0.013-0.021-0.02-0.045-0.035-0.063c-0.025-0.039-0.057-0.075-0.09-0.109c-0.002-0.003-0.004-0.006-0.007-0.01
			c-0.004-0.003-0.008-0.005-0.011-0.009c-0.034-0.032-0.069-0.062-0.108-0.087c-0.021-0.016-0.044-0.025-0.066-0.037
			c-0.021-0.014-0.044-0.026-0.065-0.035c-0.027-0.012-0.059-0.02-0.087-0.026c-0.021-0.008-0.039-0.013-0.061-0.019
			c-0.05-0.011-0.102-0.017-0.152-0.017h-4.625c-0.432,0-0.779,0.352-0.779,0.781c0,0.179,0.061,0.34,0.163,0.473l-0.002,0.003
			l0.018,0.016c0.032,0.041,0.069,0.076,0.108,0.11l1.707,1.706l-3.144,3.143c-0.305,0.304-0.305,0.797,0,1.103
			c0.307,0.306,0.8,0.306,1.104,0l3.142-3.143l1.707,1.708c0.032,0.039,0.069,0.075,0.108,0.106l0.012,0.013l0.001-0.002
			c0.133,0.104,0.298,0.17,0.479,0.17c0.432,0.001,0.779-0.35,0.779-0.78v-4.626c0-0.051-0.006-0.102-0.017-0.151
			C-386.684,24.427-386.692,24.406-386.698,24.384z"/>
		<path fill="#FFFFFF" d="M-380.448,26.909l1.706-1.706c0.039-0.033,0.075-0.069,0.107-0.109l0.012-0.011l-0.003-0.002
			c0.105-0.134,0.17-0.298,0.171-0.479c0-0.433-0.349-0.781-0.778-0.781h-4.626c-0.053,0-0.103,0.007-0.153,0.017
			c-0.021,0.006-0.042,0.013-0.063,0.02c-0.025,0.008-0.055,0.015-0.082,0.025c-0.023,0.009-0.046,0.021-0.067,0.037
			c-0.022,0.011-0.045,0.02-0.064,0.034c-0.039,0.025-0.074,0.057-0.108,0.089c-0.004,0.004-0.007,0.005-0.011,0.008
			c-0.003,0.004-0.007,0.01-0.01,0.012c-0.031,0.034-0.062,0.068-0.087,0.106c-0.014,0.021-0.023,0.045-0.036,0.066
			c-0.013,0.022-0.025,0.044-0.035,0.066c-0.012,0.028-0.019,0.058-0.026,0.086c-0.007,0.021-0.015,0.04-0.02,0.06
			c-0.01,0.052-0.015,0.104-0.015,0.155v4.624c0,0.43,0.349,0.78,0.779,0.78c0.181,0,0.342-0.062,0.474-0.164l0.001,0.002
			l0.019-0.018c0.039-0.032,0.076-0.069,0.107-0.107l1.707-1.708l7.465,7.347c0.304,0.306,0.797,0.306,1.104,0
			c0.306-0.305,0.305-0.797,0-1.103L-380.448,26.909z"/>
		<path fill="#FFFFFF" d="M-384.605,21.319c0.009,0.026,0.015,0.055,0.024,0.082c0.011,0.024,0.024,0.046,0.037,0.068
			c0.014,0.021,0.021,0.045,0.035,0.064c0.026,0.038,0.057,0.074,0.09,0.108c0.002,0.003,0.003,0.007,0.007,0.01
			c0.005,0.003,0.011,0.007,0.013,0.01c0.032,0.031,0.067,0.062,0.106,0.087c0.021,0.015,0.044,0.024,0.066,0.037
			c0.021,0.011,0.044,0.025,0.065,0.034c0.027,0.013,0.059,0.02,0.086,0.026c0.021,0.008,0.04,0.015,0.062,0.019
			c0.05,0.012,0.102,0.017,0.153,0.017l4.625-0.001c0.431,0.001,0.778-0.349,0.778-0.78c0.001-0.179-0.062-0.342-0.163-0.472
			l0.002-0.003l-0.018-0.018c-0.032-0.04-0.068-0.074-0.108-0.106l-1.707-1.707l3.145-3.145c0.304-0.304,0.304-0.796-0.001-1.103
			c-0.306-0.305-0.797-0.305-1.104,0l-3.141,3.141l-1.708-1.706c-0.031-0.039-0.068-0.075-0.107-0.106l-0.012-0.013l-0.001,0.001
			c-0.133-0.104-0.299-0.168-0.479-0.168c-0.432-0.002-0.779,0.348-0.779,0.779v4.624c0,0.053,0.006,0.104,0.015,0.153
			C-384.62,21.276-384.61,21.297-384.605,21.319z"/>
	</g>
	<path d="M-397.459,10.086c5.926-5.731,15.146-6.255,21.942-1.205c5.591,4.155,8.262,11.354,6.66,17.953
		c-0.306,1.254-1.18,1.874-2.262,1.602c-1.048-0.263-1.589-1.308-1.312-2.537c1.216-5.423-0.871-11.04-5.26-14.146
		c-4.733-3.354-10.458-3.57-15.185-0.574c-6.301,3.992-7.671,13.138-2.804,19.135c3.599,4.435,8.22,6.025,13.68,5.009
		c1.255-0.231,2.271,0.278,2.53,1.327c0.266,1.073-0.379,1.974-1.617,2.254c-6.688,1.521-13.993-1.329-17.89-6.971
		c-4.266-6.175-4.4-13.831-0.325-19.614C-398.744,11.53-398.074,10.827-397.459,10.086z"/>
	<circle cx="-385.722" cy="22.688" r="3.325"/>
</g>
</svg>
