<?xml version="1.0" encoding="utf-8"?>
<!-- Generator: Adobe Illustrator 15.0.0, SVG Export Plug-In . SVG Version: 6.00 Build 0)  -->
<!DOCTYPE svg PUBLIC "-//W3C//DTD SVG 1.1//EN" "http://www.w3.org/Graphics/SVG/1.1/DTD/svg11.dtd">
<svg version="1.1" id="Layer_2" xmlns="http://www.w3.org/2000/svg" xmlns:xlink="http://www.w3.org/1999/xlink" x="0px" y="0px"
	 width="195.067px" height="68.605px" viewBox="-818.606 0 195.067 68.605" enable-background="new -818.606 0 195.067 68.605"
	 xml:space="preserve">
<g>
	<rect x="-818.606" y="23" fill="#FF5A61" width="195.067" height="45.605"/>
	<circle fill="#FF5A61" cx="-795.626" cy="22.98" r="22.98"/>
	<ellipse fill="#FFFFFF" cx="-795.667" cy="21.022" rx="5.356" ry="6.14"/>
	<rect x="-786.784" y="26.64" fill="#FFFFFF" width="2.613" height="9.798"/>
	<rect x="-790.206" y="30.232" fill="#FFFFFF" width="9.798" height="2.612"/>
	<g>
		<g>
			<path d="M-804.807,33.897c0,0,2.303-2.889,3.895-3.936c0.964,0.502,3.267,1.549,5.066,1.549c0.712,0,1.549-0.168,2.47-0.461
				c0.419-0.125,0.671-0.628,0.545-1.047c-0.126-0.418-0.628-0.67-1.047-0.544c-0.796,0.251-1.424,0.377-1.968,0.377
				c-1.508,0-3.896-1.131-4.69-1.591c-0.251-0.126-0.586-0.126-0.837,0c-1.884,1.13-4.604,4.396-4.604,4.396L-804.807,33.897z"/>
			<path d="M-795.595,14.302c-3.895,0-6.113,2.428-6.113,6.699c0,3.978,3.016,7.872,6.113,7.872c3.183,0,6.113-3.77,6.113-7.872
				C-789.481,16.729-791.7,14.302-795.595,14.302z M-795.595,27.198c-2.345,0-4.438-3.476-4.438-6.196
				c0-2.304,0.754-5.024,4.438-5.024s4.438,2.722,4.438,5.024C-791.156,24.1-793.334,27.198-795.595,27.198z"/>
			<path d="M-783.536,26.615c0-0.365-0.3-0.666-0.666-0.666h-2.601c-0.366,0-0.667,0.301-0.667,0.666v3.034h-3.033
				c-0.366,0-0.667,0.3-0.667,0.667v2.601c0,0.367,0.301,0.667,0.667,0.667h3.033v3.033c0,0.366,0.301,0.667,0.667,0.667h2.601
				c0.366,0,0.666-0.301,0.666-0.667v-3.033h3.034c0.366,0,0.666-0.3,0.666-0.667v-2.601c0-0.367-0.3-0.667-0.666-0.667h-3.034
				V26.615z M-781.169,30.982v1.268h-3.033c-0.366,0-0.667,0.301-0.667,0.667v3.032h-1.267v-3.032c0-0.366-0.3-0.667-0.667-0.667
				h-3.033v-1.268h3.033c0.367,0,0.667-0.3,0.667-0.666v-3.034h1.267v3.034c0,0.366,0.301,0.666,0.667,0.666H-781.169z"/>
		</g>
		<path d="M-809.573,13.34c5.171-6.421,14.256-8.082,21.624-3.912c6.062,3.432,9.604,10.247,8.831,16.99
			c-0.146,1.283-0.938,2.007-2.045,1.87c-1.071-0.133-1.737-1.103-1.615-2.355c0.534-5.531-2.231-10.847-6.971-13.387
			c-5.111-2.741-10.819-2.249-15.139,1.309c-5.758,4.742-5.985,13.987-0.414,19.335c4.12,3.954,8.903,4.962,14.195,3.276
			c1.217-0.385,2.288-0.005,2.676,1.005c0.396,1.032-0.134,2.005-1.327,2.438c-6.447,2.334-14.049,0.413-18.614-4.702
			c-4.997-5.602-6.077-13.182-2.751-19.425C-810.67,14.933-810.094,14.152-809.573,13.34z"/>
	</g>
</g>
</svg>
