<?xml version="1.0" encoding="utf-8"?>
<!-- Generator: Adobe Illustrator 15.0.0, SVG Export Plug-In . SVG Version: 6.00 Build 0)  -->
<!DOCTYPE svg PUBLIC "-//W3C//DTD SVG 1.1//EN" "http://www.w3.org/Graphics/SVG/1.1/DTD/svg11.dtd">
<svg version="1.1" id="Layer_2" xmlns="http://www.w3.org/2000/svg" xmlns:xlink="http://www.w3.org/1999/xlink" x="0px" y="0px"
	 width="195.068px" height="68.605px" viewBox="0 0 195.068 68.605" enable-background="new 0 0 195.068 68.605"
	 xml:space="preserve">
<g>
	<rect x="0.001" y="23" fill="#FF5A61" width="195.067" height="45.605"/>
	<circle fill="#FF5A61" cx="22.98" cy="22.98" r="22.98"/>
	<path d="M38.913,24.621c-0.078,8.241-6.179,15.177-14.545,16.472c-6.885,1.065-13.889-2.088-17.463-7.858
		c-0.68-1.098-0.507-2.155,0.446-2.734c0.923-0.562,2.047-0.213,2.728,0.847c3.01,4.672,8.476,7.129,13.769,6.187
		c5.711-1.019,9.885-4.941,11.067-10.41c1.58-7.29-3.973-14.688-11.658-15.431c-5.685-0.55-10.062,1.624-13.17,6.228
		c-0.717,1.058-1.793,1.423-2.723,0.87c-0.951-0.564-1.139-1.655-0.47-2.734c3.611-5.828,10.769-9.032,17.521-7.847
		c7.394,1.297,12.939,6.576,14.197,13.537C38.786,22.69,38.817,23.661,38.913,24.621z"/>
	<rect x="13.806" y="20.706" fill="#FFFFFF" width="15.743" height="10.061"/>
	<g transform="translate(0,-972.36218)">
		<path d="M13.742,992.128c-0.449,0-0.831,0.395-0.834,0.833v10.001c0.001,0.437,0.397,0.833,0.834,0.833h15.834
			c0.438,0,0.834-0.396,0.834-0.833v-10.001c0-0.438-0.396-0.833-0.834-0.833H13.742z M16.281,993.794h10.756l-5.378,3.959
			L16.281,993.794z M14.575,994.601l6.589,4.857c0.295,0.217,0.696,0.217,0.99,0l6.589-4.857v7.526H14.575V994.601z"/>
	</g>
	<path fill="#FFFFFF" d="M4.341,26.457l-0.025-2.553c0,0-0.032-1.321-0.015-1.95c0.027-0.925,0.366-1.155,1.062-0.662
		c1.512,1.07,2.99,2.192,4.477,3.304c0.469,0.349,0.481,0.736,0.013,1.1c-1.498,1.153-2.988,2.318-4.509,3.441
		c-0.629,0.465-0.946,0.126-0.977-0.579C4.339,27.916,4.341,26.457,4.341,26.457z"/>
</g>
</svg>
