<?xml version="1.0" encoding="utf-8"?>
<!-- Generator: Adobe Illustrator 15.0.0, SVG Export Plug-In . SVG Version: 6.00 Build 0)  -->
<!DOCTYPE svg PUBLIC "-//W3C//DTD SVG 1.1//EN" "http://www.w3.org/Graphics/SVG/1.1/DTD/svg11.dtd">
<svg version="1.1" id="Layer_2" xmlns="http://www.w3.org/2000/svg" xmlns:xlink="http://www.w3.org/1999/xlink" x="0px" y="0px"
	 width="195.066px" height="68.605px" viewBox="-613.954 0 195.066 68.605" enable-background="new -613.954 0 195.066 68.605"
	 xml:space="preserve">
<g>
	<rect x="-613.954" y="23" fill="#FF5A61" width="195.066" height="45.605"/>
	<circle fill="#FF5A61" cx="-590.933" cy="22.98" r="22.98"/>
	<circle fill="#FFFFFF" cx="-591.872" cy="21.167" r="7.902"/>
	<rect x="-595.671" y="26.517" fill="#FFFFFF" width="7.535" height="3.676"/>
	<g>
		<polygon points="-591.072,5.666 -591.784,5.666 -592.495,5.666 -592.495,10.762 -591.072,10.762 		"/>
		<polygon points="-596.646,11.873 -599.193,7.461 -599.81,7.816 -600.426,8.172 -597.878,12.585 		"/>
		<polygon points="-605.685,13.691 -606.041,14.308 -601.628,16.855 -601.271,16.239 -600.916,15.623 -605.329,13.075 		"/>
		
			<rect x="-580.801" y="25.914" transform="matrix(-0.5002 0.8659 -0.8659 -0.5002 -845.6034 545.005)" width="1.423" height="5.095"/>
		<polygon points="-602.74,21.717 -602.74,21.006 -607.836,21.006 -607.836,22.429 -602.74,22.429 		"/>
		<rect x="-580.828" y="21.006" width="5.097" height="1.423"/>
		
			<rect x="-606.017" y="27.743" transform="matrix(0.8659 -0.5001 0.5001 0.8659 -95.1283 -298.0026)" width="5.096" height="1.423"/>
		<polygon points="-577.883,13.691 -578.238,13.075 -582.651,15.623 -582.296,16.239 -581.939,16.855 -577.526,14.308 		"/>
		<polygon points="-583.758,7.816 -584.374,7.461 -586.922,11.873 -585.689,12.585 -583.142,8.172 		"/>
		<path d="M-592.759,35.929h1.95c1.969,0,3.569-1.602,3.569-3.569v-3.12c2.634-1.59,4.247-4.422,4.247-7.521
			c0-4.849-3.943-8.792-8.793-8.792c-4.848,0-8.792,3.943-8.792,8.791c0,3.101,1.614,5.933,4.248,7.521v3.12
			C-596.328,34.327-594.727,35.929-592.759,35.929z M-589.095,32.359c0,0.945-0.769,1.714-1.714,1.714h-1.95
			c-0.945,0-1.715-0.769-1.715-1.714v-1.672h5.379V32.359L-589.095,32.359z M-598.721,21.717c0-3.825,3.111-6.938,6.937-6.938
			c3.826,0,6.938,3.111,6.938,6.938c0,2.597-1.436,4.955-3.748,6.156l-0.5,0.26v1.44h-2.142v-4.726
			c1.18-0.252,2.065-1.302,2.065-2.556c0-1.441-1.173-2.614-2.614-2.614c-1.44,0-2.613,1.173-2.613,2.614
			c0,1.254,0.888,2.303,2.066,2.556v4.728h-2.143v-1.441l-0.5-0.26C-597.285,26.673-598.721,24.313-598.721,21.717z
			 M-591.784,23.744c-0.8,0-1.45-0.65-1.45-1.451c0-0.8,0.65-1.451,1.45-1.451c0.802,0,1.452,0.65,1.452,1.451
			S-590.983,23.744-591.784,23.744z"/>
	</g>
</g>
</svg>
