<?xml version="1.0" encoding="utf-8"?>
<!-- Generator: Adobe Illustrator 15.0.0, SVG Export Plug-In . SVG Version: 6.00 Build 0)  -->
<!DOCTYPE svg PUBLIC "-//W3C//DTD SVG 1.1//EN" "http://www.w3.org/Graphics/SVG/1.1/DTD/svg11.dtd">
<svg version="1.1" id="Layer_2" xmlns="http://www.w3.org/2000/svg" xmlns:xlink="http://www.w3.org/1999/xlink" x="0px" y="0px"
	 width="195.067px" height="68.604px" viewBox="-204.651 0.001 195.067 68.604"
	 enable-background="new -204.651 0.001 195.067 68.604" xml:space="preserve">
<g>
	<rect x="-204.651" y="23" fill="#FF5A61" width="195.067" height="45.605"/>
	<circle fill="#FF5A61" cx="-181.672" cy="22.98" r="22.979"/>
	<g>
		<g>
			<path d="M-182.733,12.768c-2.285,0-4.316,1.374-5.163,3.497c-0.254,0.638,0.059,1.367,0.696,1.621
				c0.639,0.254,1.367-0.059,1.621-0.696c0.47-1.173,1.582-1.928,2.846-1.928c1.687,0,3.061,1.374,3.061,3.061
				c0,1.66-1.218,2.396-1.433,2.56c-1.596,1.204-3.398,2.571-3.398,6.445c0,0.689,0.561,1.25,1.25,1.25c0.69,0,1.25-0.561,1.25-1.25
				c0-2.631,0.957-3.354,2.409-4.453c0.228-0.177,2.422-1.674,2.422-4.552C-177.179,15.262-179.673,12.768-182.733,12.768z"/>
			<path d="M-183.234,29.345c-0.905,0-1.635,0.729-1.635,1.634s0.729,1.635,1.635,1.635c0.904,0,1.635-0.729,1.635-1.635
				C-181.6,30.073-182.336,29.345-183.234,29.345z"/>
		</g>
	</g>
	<path d="M-181.603,4.583c8.221,0.607,14.748,7.143,15.503,15.573c0.619,6.938-2.979,13.727-8.967,16.921
		c-1.14,0.608-2.185,0.367-2.7-0.62c-0.501-0.958-0.081-2.058,1.02-2.668c4.857-2.702,7.659-7.999,7.06-13.342
		c-0.647-5.765-4.296-10.182-9.677-11.716c-7.174-2.045-14.911,3.021-16.147,10.644c-0.913,5.638,0.974,10.146,5.367,13.544
		c1.009,0.782,1.304,1.88,0.692,2.771c-0.624,0.913-1.726,1.029-2.76,0.293c-5.583-3.979-8.321-11.327-6.703-17.99
		c1.771-7.295,7.396-12.489,14.422-13.298C-183.537,4.586-182.567,4.617-181.603,4.583z"/>
	<circle fill="#FFFFFF" cx="-186.193" cy="36.156" r="1.731"/>
	<circle fill="#FFFFFF" cx="-181.286" cy="36.48" r="1.731"/>
</g>
</svg>
