<?xml version="1.0" encoding="utf-8"?>
<!-- Generator: Adobe Illustrator 16.0.0, SVG Export Plug-In . SVG Version: 6.00 Build 0)  -->
<!DOCTYPE svg PUBLIC "-//W3C//DTD SVG 1.1//EN" "http://www.w3.org/Graphics/SVG/1.1/DTD/svg11.dtd">
<svg version="1.1" xmlns="http://www.w3.org/2000/svg" xmlns:xlink="http://www.w3.org/1999/xlink" x="0px" y="0px" width="20.35px"
	 height="24.904px" viewBox="0 0 20.35 24.904" enable-background="new 0 0 20.35 24.904" xml:space="preserve">
<g id="Capa_1">
</g>
<g id="Capa_2">
</g>
<g id="Capa_3">
	<g>
		<path d="M18.382,9.848c0-0.656,0-0.361,0-0.656C18.382,4.115,14.265,0,9.19,0C4.114,0,0,4.115,0,9.191
			c0,2.142,0.739,4.109,1.969,5.672v10.041h11.816v-3.24c2.176,0,3.939-1.764,3.939-3.939v-1.969h1.97
			c0.362,0,0.655-0.295,0.655-0.656C20.35,14.928,18.382,9.848,18.382,9.848z M14.788,9.744c-0.634-0.137-0.529-0.541-1.005-0.541
			c-0.479,0-0.592,0.307-0.621,0.504c-0.083,0.543-0.071,2.239-0.071,2.239s-2.214,0.059-2.757-0.024
			c-0.196-0.029-0.505-0.142-0.505-0.621c0-0.477,0.403-0.371,0.543-1.006c0.058-0.643-0.484-1.117-1.091-1.117
			c-0.604,0-1.148,0.475-1.088,1.117c0.137,0.635,0.54,0.529,0.54,1.006c0,0.479-0.307,0.592-0.507,0.621
			c-0.54,0.083-2.817,0.024-2.817,0.024s0.043-1.698-0.04-2.239c-0.03-0.198-0.142-0.506-0.62-0.506
			c-0.478,0-0.372,0.404-1.006,0.541C3.099,9.803,2.626,9.26,2.626,8.654c0-0.606,0.473-1.149,1.117-1.09
			c0.634,0.139,0.528,0.541,1.006,0.541c0.479,0,0.59-0.307,0.62-0.505C5.452,7.057,5.44,5.361,5.44,5.361s2.246-0.338,2.786-0.256
			c0.2,0.029,0.507,0.141,0.507,0.62c0,0.478-0.403,0.372-0.54,1.007C8.133,7.376,8.677,7.85,9.281,7.85
			c0.606,0,1.148-0.474,1.091-1.117c-0.14-0.635-0.543-0.53-0.543-1.007c0-0.479,0.309-0.591,0.505-0.62
			c0.543-0.082,2.789,0.256,2.789,0.256s-0.044,1.698,0.037,2.24c0.031,0.197,0.145,0.505,0.621,0.505
			c0.478,0,0.373-0.403,1.007-0.542c0.643-0.06,1.115,0.483,1.115,1.092C15.903,9.262,15.431,9.803,14.788,9.744z"/>
	</g>
</g>
<g id="Capa_4">
</g>
</svg>
