<?xml version="1.0" encoding="utf-8"?>
<!-- Generator: Adobe Illustrator 16.0.0, SVG Export Plug-In . SVG Version: 6.00 Build 0)  -->
<!DOCTYPE svg PUBLIC "-//W3C//DTD SVG 1.1//EN" "http://www.w3.org/Graphics/SVG/1.1/DTD/svg11.dtd">
<svg version="1.1" xmlns="http://www.w3.org/2000/svg" xmlns:xlink="http://www.w3.org/1999/xlink" x="0px" y="0px"
	 width="23.029px" height="23.194px" viewBox="0 0 23.029 23.194" enable-background="new 0 0 23.029 23.194" xml:space="preserve">
<g id="Capa_1">
</g>
<g id="Capa_2">
</g>
<g id="Capa_3">
	<path d="M6.391,21.795l-1.398,1.399L0,18.33l3.576-3.551c1.478-1.477,3.672-1.979,5.646-1.289l0.785,0.274h4.821
		c0.841,0,1.522,0.681,1.522,1.521c0,0.016,0,0.032-0.001,0.048c-0.048,0.837-0.748,1.487-1.586,1.475h-2.892
		c-0.327,0-0.592,0.265-0.592,0.592c0,0.326,0.265,0.592,0.592,0.592h2.901c1.471,0.008,2.688-1.141,2.768-2.608
		c0-0.011,0-0.024,0-0.037l2.684-3.023c0.566-0.657,1.549-0.753,2.232-0.218c0.672,0.557,0.766,1.553,0.208,2.227
		c-0.009,0.011-0.018,0.021-0.027,0.031l-5.357,6.154c-0.715,0.82-1.752,1.29-2.839,1.287L6.391,21.795z M17.455,8.416
		c0-0.621-0.503-1.123-1.124-1.123h-1.656V5.635c-0.029-0.621-0.556-1.1-1.175-1.07c-0.579,0.025-1.045,0.49-1.072,1.07v1.658
		h-1.655c-0.621-0.029-1.147,0.449-1.176,1.07c-0.029,0.621,0.451,1.146,1.072,1.175c0.034,0.001,0.067,0.001,0.104,0h1.655v1.657
		c0.028,0.619,0.556,1.1,1.175,1.07c0.581-0.027,1.046-0.491,1.072-1.07V9.538h1.656C16.951,9.538,17.454,9.037,17.455,8.416z
		 M6.678,2.187v1.221h-1.22c-0.457,0-0.828,0.372-0.828,0.829s0.371,0.828,0.828,0.828h1.221v1.222c0,0.458,0.371,0.829,0.829,0.829
		s0.829-0.371,0.829-0.829V5.061H9.55c0.458,0,0.828-0.371,0.828-0.83c0-0.457-0.37-0.828-0.828-0.828H8.328V2.187
		c0-0.458-0.369-0.829-0.827-0.829s-0.83,0.371-0.83,0.829H6.678z M17.126,0c-0.392,0-0.71,0.316-0.71,0.71v1.05h-1.051
		c-0.392,0-0.709,0.318-0.709,0.711c0,0.391,0.317,0.71,0.709,0.71h1.051v1.05c0,0.393,0.318,0.711,0.71,0.711
		s0.711-0.318,0.711-0.711v-1.05h1.051c0.392,0,0.709-0.319,0.709-0.71c0-0.393-0.317-0.711-0.709-0.711h-1.051V0.71
		C17.837,0.316,17.518,0,17.126,0z"/>
</g>
<g id="Capa_4">
</g>
</svg>
