<?xml version="1.0" encoding="utf-8"?>
<!-- Generator: Adobe Illustrator 16.0.0, SVG Export Plug-In . SVG Version: 6.00 Build 0)  -->
<!DOCTYPE svg PUBLIC "-//W3C//DTD SVG 1.1//EN" "http://www.w3.org/Graphics/SVG/1.1/DTD/svg11.dtd">
<svg version="1.1" xmlns="http://www.w3.org/2000/svg" xmlns:xlink="http://www.w3.org/1999/xlink" x="0px" y="0px"
	 width="46.143px" height="46.143px" viewBox="0 0 46.143 46.143" enable-background="new 0 0 46.143 46.143" xml:space="preserve">
<g id="Capa_1">
</g>
<g id="Capa_2">
</g>
<g id="Capa_3">
	<g>
		<circle fill="#3C3C3B" cx="23.071" cy="23.07" r="23.071"/>
		<path fill="#FFFFFF" d="M13.709,31.758c-1.414-1.445-2.475-3.195-3.104-5.117c-0.221-0.705,0.171-1.453,0.876-1.674
			c0.046-0.014,0.095-0.026,0.142-0.035l0,0c0.67-0.136,1.334,0.254,1.545,0.904c0.498,1.512,1.336,2.887,2.447,4.025
			c0.481,0.488,0.52,1.26,0.09,1.791l0,0c-0.461,0.576-1.301,0.672-1.879,0.211C13.786,31.831,13.746,31.795,13.709,31.758z
			 M32.434,31.758c1.414-1.445,2.476-3.195,3.104-5.117c0.221-0.705-0.171-1.453-0.873-1.674c-0.047-0.014-0.094-0.026-0.141-0.035
			l0,0c-0.67-0.136-1.335,0.254-1.545,0.904c-0.5,1.512-1.336,2.887-2.447,4.025c-0.525,0.523-0.525,1.373-0.002,1.898
			c0.524,0.523,1.373,0.524,1.898,0.002L32.434,31.758z M26.973,11.557c0.25-0.697-0.113-1.465-0.809-1.717
			c-0.046-0.017-0.093-0.029-0.141-0.042c-1.942-0.444-3.961-0.444-5.904,0c-0.726,0.165-1.179,0.888-1.014,1.61
			c0.166,0.726,0.886,1.18,1.611,1.015c1.545-0.353,3.148-0.353,4.693,0C26.076,12.575,26.75,12.202,26.973,11.557z M29.924,11.512
			c-0.003,1.95,1.576,3.535,3.527,3.539c1.951,0.003,3.535-1.576,3.539-3.526c0.004-1.952-1.575-3.536-3.525-3.54
			c0,0-0.005,0-0.008,0C31.509,7.984,29.928,9.562,29.924,11.512z M35.436,15.91l-1.558,1.947c-0.185,0.232-0.521,0.27-0.753,0.086
			c-0.031-0.025-0.06-0.053-0.084-0.086l-1.559-1.943c-0.143-0.178-0.38-0.25-0.597-0.185c-1.847,0.548-3.114,2.245-3.113,4.173
			v1.007c0,0.563,0.456,1.021,1.021,1.021l0,0h9.332c0.564,0,1.021-0.457,1.021-1.021l0,0v-1.011c0-1.927-1.267-3.624-3.113-4.172
			C35.814,15.66,35.578,15.732,35.436,15.91z M12.686,15.044c1.951,0,3.533-1.582,3.533-3.532c0-1.952-1.582-3.533-3.533-3.533
			S9.153,9.56,9.153,11.512l0,0C9.153,13.462,10.734,15.044,12.686,15.044z M8.019,21.934h9.331c0.564,0,1.021-0.458,1.021-1.021
			l0,0v-1.014c0.001-1.927-1.266-3.624-3.113-4.172c-0.218-0.066-0.455,0.006-0.598,0.184l-1.557,1.947
			c-0.186,0.232-0.521,0.27-0.753,0.086c-0.031-0.025-0.06-0.053-0.085-0.086l-1.559-1.943c-0.143-0.178-0.379-0.25-0.596-0.185
			c-1.847,0.548-3.113,2.244-3.113,4.169v1.011c0,0.563,0.456,1.021,1.021,1.021V21.934z M23.072,24.229
			c-1.951,0-3.533,1.582-3.533,3.533s1.582,3.533,3.533,3.533s3.532-1.582,3.532-3.533c0-0.003,0-0.006,0-0.01
			c0-1.951-1.581-3.533-3.532-3.533V24.229z M17.385,36.141v1.014c0.004,0.56,0.459,1.01,1.018,1.01h9.338
			c0.562,0,1.02-0.457,1.02-1.021l0,0v-1.003c0-1.928-1.266-3.625-3.113-4.173c-0.219-0.065-0.454,0.007-0.598,0.183l-1.557,1.945
			c-0.185,0.232-0.522,0.27-0.752,0.086c-0.032-0.025-0.061-0.055-0.085-0.086l-1.552-1.941c-0.143-0.176-0.379-0.248-0.598-0.184
			C18.656,32.516,17.387,34.211,17.385,36.141z"/>
	</g>
</g>
<g id="Capa_4">
</g>
</svg>
