<?xml version="1.0" encoding="utf-8"?>
<!-- Generator: Adobe Illustrator 16.0.0, SVG Export Plug-In . SVG Version: 6.00 Build 0)  -->
<!DOCTYPE svg PUBLIC "-//W3C//DTD SVG 1.1//EN" "http://www.w3.org/Graphics/SVG/1.1/DTD/svg11.dtd">
<svg version="1.1" xmlns="http://www.w3.org/2000/svg" xmlns:xlink="http://www.w3.org/1999/xlink" x="0px" y="0px"
	 width="46.145px" height="46.145px" viewBox="0 0 46.145 46.145" enable-background="new 0 0 46.145 46.145" xml:space="preserve">
<g id="Capa_1">
</g>
<g id="Capa_2">
</g>
<g id="Capa_3">
	<g>
		<circle fill="#3C3C3B" cx="23.072" cy="23.072" r="23.072"/>
		<path fill="#FFFFFF" d="M34.5,19.99c0-0.785,0-0.432,0-0.785c0-6.064-4.919-10.98-10.982-10.98
			c-6.064,0-10.981,4.916-10.981,10.98c0,2.561,0.884,4.912,2.354,6.779V37.98h14.118v-3.871c2.6,0,4.707-2.107,4.707-4.707v-2.354
			h2.354c0.434,0,0.783-0.352,0.783-0.783C36.852,26.061,34.5,19.99,34.5,19.99z M30.207,19.867
			c-0.758-0.164-0.633-0.648-1.201-0.648c-0.572,0-0.707,0.367-0.742,0.604c-0.099,0.648-0.085,2.676-0.085,2.676
			s-2.646,0.07-3.294-0.029c-0.235-0.035-0.604-0.17-0.604-0.742c0-0.57,0.481-0.443,0.648-1.201
			c0.069-0.768-0.578-1.336-1.303-1.336c-0.723,0-1.373,0.568-1.301,1.336c0.164,0.758,0.646,0.633,0.646,1.201
			c0,0.572-0.366,0.707-0.605,0.742C21.721,22.568,19,22.498,19,22.498s0.051-2.029-0.048-2.676
			c-0.036-0.236-0.169-0.604-0.741-0.604c-0.57,0-0.444,0.482-1.202,0.646c-0.77,0.072-1.335-0.578-1.335-1.301
			c0-0.725,0.565-1.373,1.335-1.303c0.758,0.166,0.632,0.646,1.202,0.646c0.572,0,0.705-0.367,0.741-0.604
			c0.099-0.648,0.085-2.674,0.085-2.674s2.684-0.404,3.329-0.307c0.239,0.035,0.605,0.168,0.605,0.74
			c0,0.57-0.481,0.445-0.646,1.203c-0.072,0.77,0.578,1.334,1.301,1.334c0.725,0,1.372-0.564,1.303-1.334
			c-0.167-0.758-0.648-0.633-0.648-1.203c0-0.572,0.369-0.705,0.604-0.74c0.648-0.098,3.332,0.307,3.332,0.307
			s-0.053,2.027,0.045,2.676c0.037,0.236,0.172,0.604,0.742,0.604s0.445-0.482,1.202-0.648c0.769-0.07,1.333,0.578,1.333,1.305
			C31.539,19.289,30.975,19.938,30.207,19.867z"/>
	</g>
</g>
<g id="Capa_4">
</g>
</svg>
