<?xml version="1.0" encoding="utf-8"?>
<!-- Generator: Adobe Illustrator 15.0.0, SVG Export Plug-In . SVG Version: 6.00 Build 0)  -->
<!DOCTYPE svg PUBLIC "-//W3C//DTD SVG 1.1//EN" "http://www.w3.org/Graphics/SVG/1.1/DTD/svg11.dtd">
<svg version="1.1" id="Capa_1" xmlns="http://www.w3.org/2000/svg" xmlns:xlink="http://www.w3.org/1999/xlink" x="0px" y="0px"
	 width="157.422px" height="67.365px" viewBox="0 0 157.422 67.365" enable-background="new 0 0 157.422 67.365"
	 xml:space="preserve">
<path fill="#1F140F" d="M147.539,60.747H29.295c0,0,2.209-1.563,2.197-8.374c-0.012-6.2-2.197-9.114-2.197-9.114h118.244
	c0,0,9.883-0.244,9.883,8.259C157.422,60.506,147.539,60.747,147.539,60.747z"/>
<g>
	<g>
		<path fill="#EC8139" d="M0.33,10.851h3.402v24.271H0.33V10.851z"/>
		<path fill="#EC8139" d="M16.385,17.314c4.021,0,5.363,2.75,5.363,2.75h0.068c0,0-0.068-0.516-0.068-1.169v-8.044h3.334v24.271
			H21.92v-1.65c0-0.688,0.033-1.168,0.033-1.168h-0.068c0,0-1.41,3.231-5.707,3.231c-4.709,0-7.666-3.714-7.666-9.11
			C8.512,20.89,11.777,17.314,16.385,17.314z M16.832,32.647c2.578,0,5.02-1.821,5.02-6.257c0-3.094-1.617-6.188-4.916-6.188
			c-2.752,0-5.02,2.269-5.02,6.222C11.916,30.206,13.943,32.647,16.832,32.647z"/>
		<path fill="#EC8139" d="M37.805,17.314c4.916,0,7.529,3.645,7.529,8.147c0,0.447-0.104,1.443-0.104,1.443H32.545
			c0.172,3.816,2.889,5.741,5.982,5.741c2.99,0,5.156-2.027,5.156-2.027l1.375,2.44c0,0-2.578,2.476-6.738,2.476
			c-5.467,0-9.213-3.954-9.213-9.11C29.107,20.89,32.854,17.314,37.805,17.314z M41.93,24.396c-0.104-2.991-1.959-4.435-4.193-4.435
			c-2.545,0-4.607,1.582-5.088,4.435H41.93z"/>
		<path fill="#EC8139" d="M58.469,24.259h0.756v-0.311c0-2.854-1.615-3.815-3.816-3.815c-2.682,0-4.848,1.685-4.848,1.685
			l-1.375-2.44c0,0,2.51-2.062,6.498-2.062c4.4,0,6.875,2.406,6.875,6.808v11.001h-3.094v-1.65c0-0.791,0.068-1.375,0.068-1.375
			h-0.068c0,0-1.408,3.438-5.568,3.438c-2.992,0-5.914-1.822-5.914-5.294C47.982,24.499,55.547,24.259,58.469,24.259z
			 M54.617,32.853c2.82,0,4.643-2.957,4.643-5.535v-0.55H58.4c-2.51,0-7.049,0.172-7.049,3.3
			C51.352,31.478,52.453,32.853,54.617,32.853z"/>
	</g>
	<g>
		<path fill="#EC8139" d="M78.961,10.645c5.707,0,8.596,3.025,8.596,3.025l-0.895,1.101c0,0-2.854-2.716-7.666-2.716
			c-5.914,0-10.416,4.641-10.416,10.864c0,6.257,4.469,11.207,10.52,11.207c5.156,0,8.146-3.267,8.146-3.267l0.928,1.031
			c0,0-3.23,3.645-9.074,3.645c-7.014,0-12.068-5.639-12.068-12.617C67.031,15.939,72.189,10.645,78.961,10.645z"/>
		<path fill="#EC8139" d="M102.445,24.637h1.135v-0.584c0-3.816-1.959-5.122-4.711-5.122c-2.99,0-4.916,1.65-4.916,1.65
			l-0.824-1.169c0,0,2.062-1.892,5.811-1.892c3.953,0,6.084,2.2,6.084,6.498v11.104h-1.442v-2.27c0-0.928,0.137-1.547,0.137-1.547
			h-0.067c0.035,0-1.547,4.229-6.017,4.229c-2.784,0-5.844-1.548-5.844-4.985C91.789,24.706,99.385,24.637,102.445,24.637z
			 M97.701,34.194c3.748,0,5.879-3.885,5.879-7.288v-0.928h-1.1c-2.924,0-9.181,0-9.181,4.469
			C93.301,32.269,94.779,34.194,97.701,34.194z"/>
		<path fill="#EC8139" d="M110.836,17.933h1.443v3.025c0,0.791-0.137,1.409-0.137,1.409h0.067c0.858-2.578,3.918-4.848,6.601-4.848
			c3.438,0,5.055,1.616,5.432,4.675h0.07c0.961-2.405,3.574-4.675,6.53-4.675c4.435,0,5.74,2.613,5.74,6.704v10.898h-1.442V24.74
			c0-3.23-0.652-5.878-4.297-5.878c-2.855,0-5.296,2.544-6.052,5.227c-0.239,0.791-0.344,1.649-0.344,2.646v8.389h-1.443V24.74
			c0-2.956-0.414-5.878-4.194-5.878c-3.06,0-5.465,2.683-6.256,5.535c-0.207,0.723-0.275,1.514-0.275,2.338v8.389h-1.443V17.933
			L110.836,17.933z"/>
		<path fill="#EC8139" d="M142.398,17.933h1.442v2.062c0,0.791-0.103,1.375-0.103,1.375h0.068c0,0,1.41-3.852,6.188-3.852
			c4.606,0,7.426,3.678,7.426,9.007c0,5.467-3.196,9.008-7.631,9.008c-4.472,0-6.019-3.886-6.019-3.886h-0.067
			c0,0,0.137,0.619,0.137,1.514v8.835h-1.442V17.933L142.398,17.933z M149.791,34.125c3.367,0,6.119-2.785,6.119-7.599
			c0-4.641-2.477-7.597-5.982-7.597c-3.162,0-6.119,2.234-6.119,7.632C143.809,30.378,145.939,34.125,149.791,34.125z"/>
	</g>
	<g>
		<path fill="#EC8139" d="M2.848,0c1.357,0,2.043,0.733,2.043,0.733L4.592,1.146c0,0-0.662-0.63-1.727-0.63
			C1.533,0.517,0.58,1.55,0.58,2.89c0,1.356,0.953,2.462,2.301,2.462c1.146,0,1.84-0.759,1.84-0.759l0.324,0.396
			c0,0-0.775,0.881-2.172,0.881C1.193,5.868,0,4.553,0,2.898C0,1.251,1.227,0,2.848,0z"/>
		<path fill="#EC8139" d="M8.002,1.614c1.188,0,2.146,0.904,2.146,2.107c0,1.227-0.959,2.147-2.146,2.147
			c-1.186,0-2.146-0.921-2.146-2.147C5.855,2.519,6.816,1.614,8.002,1.614z M8.002,5.376c0.871,0,1.582-0.71,1.582-1.655
			c0-0.92-0.711-1.606-1.582-1.606S6.42,2.801,6.42,3.721C6.42,4.666,7.131,5.376,8.002,5.376z"/>
		<path fill="#EC8139" d="M11.234,1.711h0.541v0.604c0,0.178-0.016,0.323-0.016,0.323h0.016c0.145-0.372,0.662-1.025,1.623-1.025
			c1,0,1.355,0.573,1.355,1.574v2.583h-0.549V3.334c0-0.639-0.098-1.203-0.879-1.203c-0.695,0-1.293,0.477-1.479,1.146
			c-0.049,0.169-0.064,0.355-0.064,0.55v1.944h-0.549L11.234,1.711L11.234,1.711z"/>
		<path fill="#EC8139" d="M16.082,1.711h0.541v0.604c0,0.178-0.016,0.323-0.016,0.323h0.016c0.145-0.372,0.662-1.025,1.623-1.025
			c1,0,1.355,0.573,1.355,1.574v2.583h-0.549V3.334c0-0.639-0.098-1.203-0.879-1.203c-0.695,0-1.293,0.477-1.479,1.146
			c-0.049,0.169-0.064,0.355-0.064,0.55v1.944h-0.549L16.082,1.711L16.082,1.711z"/>
		<path fill="#EC8139" d="M22.648,1.614c1.123,0,1.695,0.864,1.695,1.873c0,0.098-0.016,0.282-0.016,0.282h-3.115
			c0.023,1.042,0.734,1.606,1.574,1.606c0.742,0,1.234-0.492,1.234-0.492l0.25,0.419c0,0-0.59,0.565-1.502,0.565
			c-1.209,0-2.123-0.872-2.123-2.123C20.646,2.414,21.551,1.614,22.648,1.614z M23.787,3.317c-0.031-0.847-0.549-1.243-1.154-1.243
			c-0.678,0-1.268,0.429-1.396,1.243H23.787z"/>
		<path fill="#EC8139" d="M27.295,1.614c0.992,0,1.484,0.582,1.484,0.582l-0.281,0.412c0,0-0.453-0.493-1.188-0.493
			c-0.887,0-1.582,0.662-1.582,1.632c0,0.951,0.703,1.63,1.6,1.63c0.822,0,1.299-0.573,1.299-0.573l0.25,0.428
			c0,0-0.549,0.639-1.582,0.639c-1.203,0-2.131-0.863-2.131-2.123C25.164,2.494,26.1,1.614,27.295,1.614z"/>
		<path fill="#EC8139" d="M30.092,2.22h-0.533V1.76H30.1V0.59h0.541v1.17h1.018v0.46h-1.018v2.018c0,0.953,0.605,1.074,0.912,1.074
			c0.113,0,0.186-0.016,0.186-0.016v0.492c0,0-0.088,0.016-0.234,0.016c-0.467,0-1.412-0.153-1.412-1.509L30.092,2.22L30.092,2.22z"
			/>
		<path fill="#EC8139" d="M34.424,1.614c1.123,0,1.695,0.864,1.695,1.873c0,0.098-0.016,0.282-0.016,0.282h-3.115
			c0.023,1.042,0.734,1.606,1.574,1.606c0.742,0,1.234-0.492,1.234-0.492l0.25,0.419c0,0-0.59,0.565-1.502,0.565
			c-1.209,0-2.123-0.872-2.123-2.123C32.422,2.414,33.326,1.614,34.424,1.614z M35.562,3.317c-0.031-0.847-0.549-1.243-1.154-1.243
			c-0.678,0-1.268,0.429-1.396,1.243H35.562z"/>
		<path fill="#EC8139" d="M38.779,1.614c0.984,0,1.324,0.768,1.324,0.768h0.016c0,0-0.016-0.137-0.016-0.308V0.097h0.549v5.674
			h-0.533V5.344c0-0.178,0.018-0.291,0.018-0.291h-0.018c0,0-0.33,0.815-1.396,0.815c-1.09,0-1.768-0.872-1.768-2.132
			C36.955,2.454,37.715,1.614,38.779,1.614z M38.805,5.376c0.678,0,1.314-0.484,1.314-1.64c0-0.822-0.42-1.63-1.291-1.63
			c-0.719,0-1.307,0.605-1.307,1.63C37.521,4.738,38.045,5.376,38.805,5.376z"/>
		<path fill="#EC8139" d="M47.234,3.963h-2.285l-0.645,1.808h-0.59l2.082-5.674h0.598l2.082,5.674h-0.588L47.234,3.963z
			 M46.088,0.686c0,0-0.121,0.468-0.219,0.735l-0.758,2.058h1.953l-0.742-2.058c-0.098-0.268-0.219-0.735-0.219-0.735H46.088z"/>
		<path fill="#EC8139" d="M51.154,1.614c0.992,0,1.484,0.582,1.484,0.582l-0.283,0.412c0,0-0.451-0.493-1.186-0.493
			c-0.889,0-1.582,0.662-1.582,1.632c0,0.951,0.701,1.63,1.598,1.63c0.824,0,1.299-0.573,1.299-0.573l0.252,0.428
			c0,0-0.549,0.639-1.582,0.639c-1.203,0-2.133-0.863-2.133-2.123C49.021,2.494,49.959,1.614,51.154,1.614z"/>
		<path fill="#EC8139" d="M53.951,2.22h-0.533V1.76h0.541V0.59H54.5v1.17h1.016v0.46H54.5v2.018c0,0.953,0.605,1.074,0.912,1.074
			c0.113,0,0.186-0.016,0.186-0.016v0.492c0,0-0.09,0.016-0.234,0.016c-0.469,0-1.412-0.153-1.412-1.509L53.951,2.22L53.951,2.22z"
			/>
		<path fill="#EC8139" d="M56.547,0.097h0.574v0.687h-0.574V0.097z M56.564,1.711h0.549v4.06h-0.549V1.711z"/>
		<path fill="#EC8139" d="M60.35,1.614c1.186,0,2.146,0.904,2.146,2.107c0,1.227-0.961,2.147-2.146,2.147
			c-1.188,0-2.148-0.921-2.148-2.147C58.201,2.519,59.162,1.614,60.35,1.614z M60.35,5.376c0.871,0,1.582-0.71,1.582-1.655
			c0-0.92-0.711-1.606-1.582-1.606c-0.873,0-1.582,0.687-1.582,1.606C58.768,4.666,59.477,5.376,60.35,5.376z"/>
		<path fill="#EC8139" d="M63.572,1.711h0.541v0.604c0,0.178-0.016,0.323-0.016,0.323h0.016c0.145-0.372,0.662-1.025,1.623-1.025
			c1,0,1.355,0.573,1.355,1.574v2.583h-0.549V3.334c0-0.639-0.098-1.203-0.879-1.203c-0.695,0-1.293,0.477-1.479,1.146
			c-0.049,0.169-0.064,0.355-0.064,0.55v1.944h-0.549L63.572,1.711L63.572,1.711z"/>
		<path fill="#EC8139" d="M70.832,2.22h-0.508V1.76h0.508V1.566c0-1.34,0.945-1.509,1.404-1.509c0.154,0,0.25,0.016,0.25,0.016
			v0.492c0,0-0.08-0.016-0.193-0.016c-0.314,0-0.912,0.113-0.912,1.017V1.76h1.041v0.46h-1.041v3.552h-0.549V2.22z"/>
		<path fill="#EC8139" d="M75.109,1.614c1.186,0,2.146,0.904,2.146,2.107c0,1.227-0.961,2.147-2.146,2.147
			c-1.188,0-2.148-0.921-2.148-2.147C72.961,2.519,73.922,1.614,75.109,1.614z M75.109,5.376c0.871,0,1.582-0.71,1.582-1.655
			c0-0.92-0.711-1.606-1.582-1.606c-0.873,0-1.582,0.687-1.582,1.606C73.527,4.666,74.236,5.376,75.109,5.376z"/>
		<path fill="#EC8139" d="M78.342,1.711h0.541V2.43c0,0.178-0.018,0.323-0.018,0.323h0.018c0.193-0.613,0.645-1.082,1.283-1.082
			c0.113,0,0.217,0.023,0.217,0.023v0.541c0,0-0.096-0.016-0.201-0.016c-0.574,0-1.001,0.452-1.178,1.049
			c-0.082,0.258-0.113,0.533-0.113,0.791v1.711h-0.549V1.711z"/>
		<path fill="#EC8139" d="M83.666,2.22h-0.533V1.76h0.541V0.59h0.541v1.17h1.016v0.46h-1.016v2.018c0,0.953,0.605,1.074,0.912,1.074
			c0.113,0,0.186-0.016,0.186-0.016v0.492c0,0-0.09,0.016-0.233,0.016c-0.47,0-1.412-0.153-1.412-1.509L83.666,2.22L83.666,2.22z"/>
		<path fill="#EC8139" d="M86.279,0.097h0.549v2.195c0,0.186-0.018,0.331-0.018,0.331h0.018c0.152-0.389,0.693-1.01,1.613-1.01
			c1.002,0,1.356,0.573,1.356,1.574v2.583H89.25V3.334c0-0.639-0.098-1.203-0.881-1.203c-0.693,0-1.291,0.477-1.477,1.154
			c-0.05,0.161-0.064,0.347-0.064,0.541v1.944h-0.549V0.097z"/>
		<path fill="#EC8139" d="M92.846,1.614c1.121,0,1.695,0.864,1.695,1.873c0,0.098-0.016,0.282-0.016,0.282h-3.117
			c0.025,1.042,0.734,1.606,1.574,1.606c0.742,0,1.235-0.492,1.235-0.492l0.25,0.419c0,0-0.59,0.565-1.502,0.565
			c-1.211,0-2.123-0.872-2.123-2.123C90.844,2.414,91.748,1.614,92.846,1.614z M93.984,3.317c-0.033-0.847-0.549-1.243-1.154-1.243
			c-0.678,0-1.268,0.429-1.396,1.243H93.984z"/>
		<path fill="#EC8139" d="M100.516,0c1.357,0,2.043,0.733,2.043,0.733l-0.299,0.412c0,0-0.662-0.63-1.727-0.63
			c-1.332,0-2.285,1.033-2.285,2.373c0,1.356,0.953,2.462,2.301,2.462c1.146,0,1.84-0.759,1.84-0.759l0.324,0.396
			c0,0-0.775,0.881-2.172,0.881c-1.68,0-2.873-1.315-2.873-2.971C97.668,1.251,98.895,0,100.516,0z"/>
		<path fill="#EC8139" d="M105.67,1.614c1.188,0,2.146,0.904,2.146,2.107c0,1.227-0.959,2.147-2.146,2.147
			c-1.186,0-2.146-0.921-2.146-2.147C103.523,2.519,104.484,1.614,105.67,1.614z M105.67,5.376c0.871,0,1.582-0.71,1.582-1.655
			c0-0.92-0.711-1.606-1.582-1.606s-1.582,0.687-1.582,1.606C104.088,4.666,104.799,5.376,105.67,5.376z"/>
		<path fill="#EC8139" d="M108.895,1.711h0.541v0.604c0,0.178-0.016,0.323-0.016,0.323h0.016c0.193-0.549,0.84-1.025,1.469-1.025
			c0.753,0,1.14,0.348,1.261,1.018h0.017c0.219-0.549,0.807-1.018,1.493-1.018c0.984,0,1.349,0.573,1.349,1.574v2.583h-0.549V3.326
			c0-0.662-0.138-1.212-0.882-1.212c-0.62,0-1.129,0.55-1.282,1.146c-0.058,0.177-0.072,0.371-0.072,0.589v1.921h-0.549V3.326
			c0-0.613-0.088-1.212-0.855-1.212c-0.662,0-1.162,0.573-1.332,1.195c-0.041,0.169-0.057,0.355-0.057,0.541v1.921h-0.549V1.711
			H108.895z"/>
		<path fill="#EC8139" d="M116.348,1.711h0.541v0.604c0,0.178-0.018,0.323-0.018,0.323h0.018c0.193-0.549,0.838-1.025,1.469-1.025
			c0.75,0,1.138,0.348,1.259,1.018h0.018c0.218-0.549,0.808-1.018,1.492-1.018c0.983,0,1.349,0.573,1.349,1.574v2.583h-0.55V3.326
			c0-0.662-0.137-1.212-0.879-1.212c-0.621,0-1.131,0.55-1.282,1.146c-0.058,0.177-0.072,0.371-0.072,0.589v1.921h-0.549V3.326
			c0-0.613-0.09-1.212-0.855-1.212c-0.662,0-1.164,0.573-1.332,1.195c-0.041,0.169-0.057,0.355-0.057,0.541v1.921h-0.549V1.711
			H116.348z"/>
		<path fill="#EC8139" d="M125.648,1.614c1.186,0,2.146,0.904,2.146,2.107c0,1.227-0.961,2.147-2.146,2.147
			c-1.188,0-2.148-0.921-2.148-2.147C123.5,2.519,124.461,1.614,125.648,1.614z M125.648,5.376c0.871,0,1.582-0.71,1.582-1.655
			c0-0.92-0.711-1.606-1.582-1.606c-0.873,0-1.582,0.687-1.582,1.606C124.066,4.666,124.775,5.376,125.648,5.376z"/>
		<path fill="#EC8139" d="M128.873,1.711h0.541v0.604c0,0.178-0.018,0.323-0.018,0.323h0.018c0.145-0.372,0.66-1.025,1.621-1.025
			c1.002,0,1.357,0.573,1.357,1.574v2.583h-0.55V3.334c0-0.639-0.098-1.203-0.881-1.203c-0.692,0-1.291,0.477-1.478,1.146
			c-0.049,0.169-0.063,0.355-0.063,0.55v1.944h-0.549L128.873,1.711L128.873,1.711z"/>
		<path fill="#EC8139" d="M133.688,4.884c0,0,0.453,0.492,1.211,0.492c0.437,0,0.814-0.218,0.814-0.646
			c0-0.888-2.188-0.67-2.188-1.994c0-0.727,0.654-1.122,1.389-1.122c0.855,0,1.252,0.444,1.252,0.444l-0.25,0.419
			c0,0-0.348-0.371-1.018-0.371c-0.412,0-0.808,0.178-0.808,0.629c0,0.896,2.188,0.654,2.188,1.994c0,0.662-0.574,1.139-1.389,1.139
			c-0.984,0-1.502-0.59-1.502-0.59L133.688,4.884z"/>
	</g>
</g>
<circle fill="#1F140F" cx="14.333" cy="52.033" r="14.333"/>
<g>
	<path fill="#FFFFFF" d="M18.305,51.45c-0.129-0.129-0.354-0.13-0.483,0c-0.065,0.063-0.101,0.149-0.101,0.241
		s0.035,0.177,0.101,0.241l0.945,0.947l-0.945,0.945c-0.065,0.063-0.1,0.149-0.1,0.24c0,0.093,0.034,0.179,0.1,0.243
		c0.129,0.128,0.354,0.128,0.483,0l0.945-0.946l0.946,0.946c0.129,0.128,0.354,0.128,0.483,0c0.063-0.063,0.1-0.149,0.1-0.243
		c0-0.091-0.035-0.177-0.1-0.24l-0.946-0.945l0.946-0.946c0.064-0.064,0.1-0.149,0.1-0.241s-0.035-0.178-0.1-0.241
		c-0.13-0.132-0.354-0.13-0.483,0l-0.946,0.944L18.305,51.45z"/>
	<path fill="#FFFFFF" d="M24.179,44.96c-0.032-0.1-0.169-0.204-0.325-0.204c-0.035,0-0.1,0.014-0.102,0.014l-4.442,1.104
		l-4.65-1.107c-0.08-0.02-0.153-0.008-0.188,0L9.82,45.874l-4.452-1.105c-0.001,0-0.06-0.012-0.092-0.013
		c-0.156,0-0.293,0.104-0.331,0.257l0.006,13.589c0.024,0.067,0.116,0.161,0.234,0.192l4.593,1.11
		c0.078,0.021,0.132,0.021,0.191,0.004l4.428-1.058c0.058-0.011,0.111-0.017,0.164-0.017c0.06,0,0.112,0.006,0.163,0.015
		l4.428,1.057c0.076,0.021,0.128,0.02,0.19,0l4.605-1.112c0.114-0.031,0.206-0.124,0.237-0.244L24.179,44.96z M23.512,58.196
		l-3.92,0.949v-3.407c0-0.188-0.152-0.343-0.342-0.343c-0.188,0-0.342,0.154-0.342,0.343v3.407l-3.983-0.95v-3.346
		c0-0.188-0.161-0.343-0.359-0.343c-0.198,0-0.359,0.154-0.359,0.343v3.346l-3.985,0.95v-3.993c0-0.188-0.152-0.343-0.342-0.343
		c-0.188,0-0.341,0.154-0.341,0.343v3.993l-3.921-0.949v-3.801l0.15-0.047c0.989-0.321,2.011-0.59,3.035-0.8
		c0.18-0.026,0.306-0.172,0.306-0.34c0-0.21-0.205-0.374-0.406-0.336c-0.937,0.188-1.882,0.432-2.806,0.717l-0.279,0.086v-8.142
		l3.921,0.948v4.387c0.001,0.186,0.154,0.338,0.341,0.338c0.188,0,0.341-0.152,0.342-0.34v-4.384l3.985-0.951v4.956
		c0,0.189,0.161,0.344,0.359,0.344c0.198,0,0.359-0.154,0.359-0.344v-4.956l3.983,0.951v3.539c0,0.189,0.153,0.345,0.342,0.345
		s0.342-0.154,0.342-0.344v-3.54l3.92-0.948V58.196z"/>
	<path fill="#FFFFFF" d="M13.434,52.306c-0.006,0-1.664,0.1-2.48,0.2c-0.172,0.021-0.302,0.167-0.302,0.339
		c-0.001,0.208,0.196,0.369,0.399,0.337c0.816-0.1,2.4-0.197,2.467-0.201c0.14-0.025,0.259-0.167,0.259-0.333
		C13.776,52.459,13.622,52.306,13.434,52.306z"/>
	<path fill="#FFFFFF" d="M16.393,52.339c-0.004,0-0.706-0.033-0.706-0.033c-0.179,0-0.332,0.153-0.332,0.342
		s0.153,0.342,0.341,0.342l0.113,0.006c0.181,0.008,0.544,0.025,0.586,0.027c0.188-0.002,0.34-0.154,0.34-0.343
		C16.734,52.492,16.581,52.339,16.393,52.339z"/>
</g>
<rect x="39.327" y="45.259" fill="none" width="122.095" height="13.935"/>
<text transform="matrix(1 0 0 1 39.3271 56.9143)" fill="#FFFFFF" font-family="'Cataclysmic'" font-size="14">Digital roadbook</text>
</svg>
