<?xml version="1.0" encoding="utf-8"?>
<!-- Generator: Adobe Illustrator 16.0.0, SVG Export Plug-In . SVG Version: 6.00 Build 0)  -->
<!DOCTYPE svg PUBLIC "-//W3C//DTD SVG 1.1//EN" "http://www.w3.org/Graphics/SVG/1.1/DTD/svg11.dtd">
<svg version="1.1" xmlns="http://www.w3.org/2000/svg" xmlns:xlink="http://www.w3.org/1999/xlink" x="0px" y="0px"
	 width="54.322px" height="54.254px" viewBox="0 0 54.322 54.254" enable-background="new 0 0 54.322 54.254" xml:space="preserve">
<g id="Capa_1">
</g>
<g id="Capa_2">
</g>
<g id="Capa_3">
	<g>
		<polygon fill="#FFFFFF" points="3.196,26.333 3.17,26.52 3.075,27.183 6.52,32.593 12.797,34.9 17.537,29.31 24.646,47.479 
			28.535,47.661 33.578,42.07 35.522,34.232 41.477,34.292 47.26,33.408 51.382,26.697 48.526,18.859 33.214,14.848 28.96,21.229 
			19.725,9.136 13.83,12.904 5.08,23.598 		"/>
		<g>
			<path fill="#1A1414" d="M46.717,32.593h-8.691c-1.086,0-2.173-0.815-2.444-1.901l-0.543-0.815l-5.433,14.667
				c-0.271,0.815-1.357,1.63-2.445,1.63l0,0c-1.085,0-2.172-0.815-2.443-1.901l-6.519-21.186l-4.888,8.42
				c-0.545,0.543-1.359,1.086-2.445,1.086H6.52c6.791,10.05,17.111,19.284,20.099,21.457c0.271,0.271,1.087,0.271,1.358,0
				c2.715-2.173,12.493-10.864,19.283-20.643C47.532,33.136,47.26,32.593,46.717,32.593z"/>
			<path fill="#1A1414" d="M38.025,0c-4.074,0-7.876,1.63-10.865,4.074C24.174,1.63,20.371,0,16.297,0C7.334,0,0,7.334,0,16.296
				c0,3.26,1.087,7.062,2.988,10.593c0,0.272,0.271,0.272,0.543,0.272h5.704l7.333-12.222c0.544-1.087,1.63-1.358,2.717-1.358
				c1.086,0,1.901,0.815,2.172,1.901l5.703,19.556l5.434-14.123c0.543-1.087,1.631-1.902,2.717-1.902s2.172,0.815,2.443,1.902
				l2.172,6.247h10.865c0.271,0,0.271,0,0.543-0.272c1.901-3.531,2.988-7.333,2.988-10.593C54.322,7.334,46.988,0,38.025,0z"/>
		</g>
	</g>
</g>
<g id="Capa_4">
</g>
</svg>
