<?xml version="1.0" encoding="utf-8"?>
<!-- Generator: Adobe Illustrator 16.0.0, SVG Export Plug-In . SVG Version: 6.00 Build 0)  -->
<!DOCTYPE svg PUBLIC "-//W3C//DTD SVG 1.1//EN" "http://www.w3.org/Graphics/SVG/1.1/DTD/svg11.dtd">
<svg version="1.1" xmlns="http://www.w3.org/2000/svg" xmlns:xlink="http://www.w3.org/1999/xlink" x="0px" y="0px"
	 width="60.993px" height="50.151px" viewBox="0 0 60.993 50.151" enable-background="new 0 0 60.993 50.151" xml:space="preserve">
<g id="Capa_1">
</g>
<g id="Capa_2">
</g>
<g id="Capa_3">
	<g>
		<rect x="5.766" y="3.114" fill="#FFFFFF" width="50.656" height="31.476"/>
		<g>
			<path fill="#1A1414" d="M54.555,0H6.438C2.914,0,0,2.982,0,6.506v25.075c0,3.524,2.914,6.371,6.438,6.371h31.379
				c1.49,6.099,5.76,10.369,11.656,12.199V37.952h5.082c3.525,0,6.438-2.779,6.438-6.371V6.506C60.993,2.982,58.08,0,54.555,0z
				 M50.828,30.497H10.165v-2.711h40.663V30.497z M50.828,23.72H10.165v-2.711h40.663V23.72z M50.828,16.943H10.165v-2.711h40.663
				V16.943z M50.828,10.166H17.077V7.455h33.751V10.166z"/>
		</g>
	</g>
</g>
<g id="Capa_4">
</g>
</svg>
